<svg width="354" height="126" viewBox="0 0 354 126" fill="none" xmlns="http://www.w3.org/2000/svg">
<path d="M29.56 83.84C29.24 83.84 28.9867 83.8267 28.8 83.8C28.6133 83.7467 28.48 83.6267 28.4 83.44C28.16 83.04 27.88 81.8533 27.56 79.88C27.24 77.9067 26.9333 75.64 26.64 73.08C26 65.2667 25.5067 61.28 25.16 61.12C24.8667 61.76 24.4133 62.9733 23.8 64.76C23.1867 66.52 22.48 68.8267 21.68 71.68C20.8 74.7467 20.1333 76.8667 19.68 78.04C19.2267 79.1867 18.8267 79.8933 18.48 80.16C18.2667 80.3467 18 80.5333 17.68 80.72C17.3867 80.88 17.1333 80.96 16.92 80.96C16.6533 80.96 16.48 80.9333 16.4 80.88C16.32 80.8 16.2267 80.5867 16.12 80.24C16.0133 79.84 15.76 78.6 15.36 76.52C14.96 74.4133 14.6533 72.52 14.44 70.84L14.2 69.16C13.7467 65.6933 13.44 63.76 13.28 63.36C12.7733 63.8133 12.2933 64.8267 11.84 66.4C11.3867 67.9467 10.8667 70.1467 10.28 73C9.72 75.2133 9.04 78.8133 8.24 83.8C8.21333 84.0933 8.01333 84.36 7.64 84.6C7.26667 84.84 6.93333 84.96 6.64 84.96C6.21333 84.96 5.97333 84.5467 5.92 83.72C5.89333 82.8933 5.70667 81.1067 5.36 78.36C5.04 75.6133 4.74667 73.2 4.48 71.12C4.10667 68.16 3.6 65.4133 2.96 62.88C2.77333 62.08 2.68 61.6267 2.68 61.52C2.68 61.12 2.86667 60.8 3.24 60.56C3.64 60.2933 4.06667 60.16 4.52 60.16C4.73333 60.16 4.96 60.9867 5.2 62.64C5.44 64.2933 5.69333 66.3733 5.96 68.88L6.08 70.2C6.18667 71.08 6.30667 72 6.44 72.96C6.94667 77.04 7.22667 79.6 7.28 80.64C7.81333 77.5467 8.41333 74.44 9.08 71.32L9.44 69.56C10.0267 66.7333 10.6667 64.6 11.36 63.16C12.0533 61.6933 12.9467 60.96 14.04 60.96C14.3867 60.96 14.7733 61.8667 15.2 63.68C15.6267 65.4667 15.96 67.56 16.2 69.96C16.3867 71.6667 16.6267 73.3333 16.92 74.96C17.2133 76.5867 17.48 77.72 17.72 78.36C17.88 77.9067 18.2 76.9067 18.68 75.36C19.1867 73.8133 19.6533 72.3467 20.08 70.96C21.3867 66.5067 22.7733 62.52 24.24 59C24.5067 58.44 24.76 58.04 25 57.8C25.2667 57.5333 25.72 57.4 26.36 57.4C26.7067 57.4 27.08 58.92 27.48 61.96C27.88 65 28.2133 68.52 28.48 72.52C29.2 78.1733 29.8533 81.2533 30.44 81.76C30.84 82.1067 31.04 82.48 31.04 82.88C31.04 83.0667 30.88 83.28 30.56 83.52C30.2667 83.7333 29.9333 83.84 29.56 83.84Z" fill="black"/>
<path d="M78.63 81.93C78.69 82.17 78.75 82.45 78.81 82.77C78.89 83.11 78.93 83.32 78.93 83.4C78.93 83.62 78.8 83.82 78.54 84C78.3 84.2 78.03 84.3 77.73 84.3C77.55 84.3 77.37 84.12 77.19 83.76C77.01 83.42 76.88 82.98 76.8 82.44C76.44 80.34 76.12 77.09 75.84 72.69L75.42 66.3C73.86 67.86 72.25 69.18 70.59 70.26C70.15 70.54 69.84 70.68 69.66 70.68C69.46 70.68 69.3 70.62 69.18 70.5C69.06 70.36 69 70.23 69 70.11C69 69.85 69.23 69.57 69.69 69.27C70.71 68.61 71.62 67.91 72.42 67.17C73.24 66.43 74.06 65.64 74.88 64.8L75.3 64.38V64.35V63.9V63.6C75.3 63.46 75.33 63.37 75.39 63.33C75.43 63.29 75.47 63.27 75.51 63.27C75.63 63.21 75.77 63.18 75.93 63.18C76.33 63.18 76.65 63.24 76.89 63.36C77.13 63.48 77.25 63.66 77.25 63.9C77.25 64.14 77.13 64.42 76.89 64.74C76.99 65.22 77.05 65.7 77.07 66.18C77.11 67.36 77.26 69.64 77.52 73.02C77.78 76.38 77.98 78.59 78.12 79.65C78.22 80.17 78.39 80.93 78.63 81.93ZM91.4829 83.94C90.5429 83.94 89.6929 83.82 88.9329 83.58C88.1929 83.34 87.5529 82.99 87.0129 82.53C86.4729 82.09 86.0529 81.55 85.7529 80.91C85.4729 80.25 85.3329 79.52 85.3329 78.72C85.3329 78.18 85.4029 77.64 85.5429 77.1C85.7029 76.56 85.9029 76.05 86.1429 75.57C86.4029 75.07 86.7029 74.62 87.0429 74.22C87.3829 73.8 87.7529 73.44 88.1529 73.14C87.9129 73.18 87.6729 73.22 87.4329 73.26C87.1929 73.28 86.9429 73.29 86.6829 73.29C86.2029 73.29 85.7529 73.2 85.3329 73.02C84.9329 72.82 84.5829 72.56 84.2829 72.24C83.9829 71.92 83.7529 71.56 83.5929 71.16C83.4329 70.74 83.3529 70.3 83.3529 69.84C83.3529 68.94 83.4729 68.09 83.7129 67.29C83.9729 66.47 84.3129 65.72 84.7329 65.04C85.1729 64.34 85.6929 63.71 86.2929 63.15C86.8929 62.59 87.5429 62.1 88.2429 61.68C88.6829 61.42 89.0229 61.25 89.2629 61.17C89.5029 61.09 89.7429 61.05 89.9829 61.05C90.1229 61.05 90.2429 61.09 90.3429 61.17C90.4629 61.25 90.5229 61.35 90.5229 61.47C90.6429 61.43 90.8429 61.38 91.1229 61.32C91.4229 61.24 91.7829 61.2 92.2029 61.2C93.3029 61.2 94.2229 61.54 94.9629 62.22C95.7229 62.88 96.1029 63.84 96.1029 65.1C96.1029 65.86 95.9229 66.57 95.5629 67.23C95.3429 67.63 95.0429 68.07 94.6629 68.55C94.2829 69.01 93.9629 69.37 93.7029 69.63C93.7429 69.63 93.8929 69.61 94.1529 69.57C94.4329 69.51 94.8629 69.48 95.4429 69.48C96.2829 69.48 97.0829 69.61 97.8429 69.87C98.6029 70.11 99.2729 70.47 99.8529 70.95C100.433 71.43 100.893 72.01 101.233 72.69C101.573 73.37 101.743 74.14 101.743 75C101.743 76.08 101.443 77.16 100.843 78.24C100.243 79.3 99.4529 80.25 98.4729 81.09C97.5129 81.93 96.4129 82.61 95.1729 83.13C93.9529 83.67 92.7229 83.94 91.4829 83.94ZM91.8429 62.55C91.3429 62.55 90.9029 62.63 90.5229 62.79C90.5229 62.89 90.4529 63 90.3129 63.12C90.1929 63.22 90.0629 63.27 89.9229 63.27C89.7229 63.27 89.5129 63.29 89.2929 63.33C89.0729 63.35 88.8429 63.38 88.6029 63.42C88.0829 63.6 87.5929 63.91 87.1329 64.35C86.6729 64.77 86.2729 65.27 85.9329 65.85C85.5929 66.41 85.3129 67.03 85.0929 67.71C84.8929 68.39 84.7929 69.06 84.7929 69.72C84.7929 70.4 84.9829 70.93 85.3629 71.31C85.7629 71.67 86.3429 71.85 87.1029 71.85C87.8829 71.85 88.7129 71.64 89.5929 71.22C90.4729 70.8 91.2829 70.26 92.0229 69.6C92.7629 68.94 93.3729 68.21 93.8529 67.41C94.3329 66.59 94.5729 65.8 94.5729 65.04C94.5729 64.26 94.3129 63.65 93.7929 63.21C93.2929 62.77 92.6429 62.55 91.8429 62.55ZM92.0529 71.28C90.4329 72.2 89.1529 73.3 88.2129 74.58C87.2729 75.84 86.8029 77.16 86.8029 78.54C86.8029 79.92 87.2129 80.93 88.0329 81.57C88.8529 82.21 90.0129 82.53 91.5129 82.53C92.5129 82.53 93.5329 82.32 94.5729 81.9C95.6129 81.48 96.5529 80.93 97.3929 80.25C98.2529 79.55 98.9529 78.76 99.4929 77.88C100.033 76.98 100.303 76.05 100.303 75.09C100.303 74.43 100.163 73.83 99.8829 73.29C99.6229 72.75 99.2529 72.3 98.7729 71.94C98.3129 71.56 97.7629 71.27 97.1229 71.07C96.4829 70.87 95.7829 70.77 95.0229 70.77C93.9429 70.77 92.9529 70.94 92.0529 71.28ZM114.984 73.32C113.844 73.54 112.534 73.73 111.054 73.89C111.034 74.21 111.024 74.66 111.024 75.24C111.024 76.3 111.054 77.11 111.114 77.67C111.174 78.21 111.264 78.79 111.384 79.41C111.464 79.77 111.504 80 111.504 80.1C111.504 80.24 111.424 80.35 111.264 80.43C111.104 80.51 110.914 80.55 110.694 80.55C110.234 80.55 109.944 80.16 109.824 79.38C109.704 78.6 109.644 77.83 109.644 77.07V74.07C107.344 74.31 105.694 74.43 104.694 74.43C104.454 74.43 104.224 74.37 104.004 74.25C103.804 74.11 103.704 73.95 103.704 73.77C103.704 73.51 103.794 73.34 103.974 73.26C104.154 73.18 104.454 73.14 104.874 73.14C105.994 73.14 107.594 73.01 109.674 72.75V71.04C109.674 70.26 109.694 69.36 109.734 68.34C109.794 67.32 109.844 66.68 109.884 66.42C109.924 66.14 110.104 66 110.424 66C110.784 66 111.024 66.16 111.144 66.48C111.264 66.8 111.324 67.14 111.324 67.5C111.324 67.9 111.284 68.88 111.204 70.44C111.164 70.9 111.124 71.61 111.084 72.57C112.504 72.33 113.684 72.09 114.624 71.85C114.784 71.81 114.914 71.68 115.014 71.46C115.134 71.22 115.254 71.1 115.374 71.1C115.594 71.1 115.814 71.23 116.034 71.49C116.274 71.73 116.394 71.98 116.394 72.24C116.394 72.56 116.284 72.8 116.064 72.96C115.844 73.1 115.484 73.22 114.984 73.32ZM141.857 66.6C141.577 67.02 141.437 67.28 141.437 67.38C141.437 68.88 141.507 71.73 141.647 75.93C141.767 79.01 141.827 81.12 141.827 82.26C141.827 82.6 141.697 82.9 141.437 83.16C141.197 83.44 140.957 83.58 140.717 83.58C140.437 83.58 140.237 83.53 140.117 83.43C139.997 83.35 139.937 83.21 139.937 83.01L139.997 82.11C140.117 81.11 140.177 80.13 140.177 79.17C140.177 78.61 140.147 76.29 140.087 72.21L140.057 69.57C139.017 71.17 138.067 72.51 137.207 73.59C136.347 74.65 135.367 75.55 134.267 76.29C133.167 77.01 131.987 77.37 130.727 77.37C129.507 77.37 128.577 77 127.937 76.26C127.297 75.5 126.977 74.51 126.977 73.29C126.977 71.51 127.527 69.68 128.627 67.8C129.747 65.92 131.167 64.37 132.887 63.15C134.627 61.93 136.377 61.32 138.137 61.32C139.037 61.32 139.787 61.61 140.387 62.19C141.007 62.75 141.407 63.46 141.587 64.32C141.827 64.36 142.037 64.46 142.217 64.62C142.417 64.78 142.517 64.99 142.517 65.25C142.517 65.45 142.297 65.9 141.857 66.6ZM139.547 67.59C139.707 67.37 139.927 67.04 140.207 66.6V66.57C140.267 66.35 140.297 66.09 140.297 65.79C140.297 64.93 140.047 64.23 139.547 63.69C139.067 63.15 138.347 62.88 137.387 62.88C136.167 62.88 134.857 63.42 133.457 64.5C132.077 65.56 130.917 66.91 129.977 68.55C129.037 70.17 128.567 71.76 128.567 73.32C128.567 73.96 128.787 74.52 129.227 75C129.667 75.48 130.277 75.72 131.057 75.72C132.057 75.72 133.027 75.35 133.967 74.61C134.927 73.85 135.817 72.93 136.637 71.85C137.457 70.75 138.427 69.33 139.547 67.59ZM153.768 83.94C152.828 83.94 151.978 83.82 151.218 83.58C150.478 83.34 149.838 82.99 149.298 82.53C148.758 82.09 148.338 81.55 148.038 80.91C147.758 80.25 147.618 79.52 147.618 78.72C147.618 78.18 147.688 77.64 147.828 77.1C147.988 76.56 148.188 76.05 148.428 75.57C148.688 75.07 148.988 74.62 149.328 74.22C149.668 73.8 150.038 73.44 150.438 73.14C150.198 73.18 149.958 73.22 149.718 73.26C149.478 73.28 149.228 73.29 148.968 73.29C148.488 73.29 148.038 73.2 147.618 73.02C147.218 72.82 146.868 72.56 146.568 72.24C146.268 71.92 146.038 71.56 145.878 71.16C145.718 70.74 145.638 70.3 145.638 69.84C145.638 68.94 145.758 68.09 145.998 67.29C146.258 66.47 146.598 65.72 147.018 65.04C147.458 64.34 147.978 63.71 148.578 63.15C149.178 62.59 149.828 62.1 150.528 61.68C150.968 61.42 151.308 61.25 151.548 61.17C151.788 61.09 152.028 61.05 152.268 61.05C152.408 61.05 152.528 61.09 152.628 61.17C152.748 61.25 152.808 61.35 152.808 61.47C152.928 61.43 153.128 61.38 153.408 61.32C153.708 61.24 154.068 61.2 154.488 61.2C155.588 61.2 156.508 61.54 157.248 62.22C158.008 62.88 158.388 63.84 158.388 65.1C158.388 65.86 158.208 66.57 157.848 67.23C157.628 67.63 157.328 68.07 156.948 68.55C156.568 69.01 156.248 69.37 155.988 69.63C156.028 69.63 156.178 69.61 156.438 69.57C156.718 69.51 157.148 69.48 157.728 69.48C158.568 69.48 159.368 69.61 160.128 69.87C160.888 70.11 161.558 70.47 162.138 70.95C162.718 71.43 163.178 72.01 163.518 72.69C163.858 73.37 164.028 74.14 164.028 75C164.028 76.08 163.728 77.16 163.128 78.24C162.528 79.3 161.738 80.25 160.758 81.09C159.798 81.93 158.698 82.61 157.458 83.13C156.238 83.67 155.008 83.94 153.768 83.94ZM154.128 62.55C153.628 62.55 153.188 62.63 152.808 62.79C152.808 62.89 152.738 63 152.598 63.12C152.478 63.22 152.348 63.27 152.208 63.27C152.008 63.27 151.798 63.29 151.578 63.33C151.358 63.35 151.128 63.38 150.888 63.42C150.368 63.6 149.878 63.91 149.418 64.35C148.958 64.77 148.558 65.27 148.218 65.85C147.878 66.41 147.598 67.03 147.378 67.71C147.178 68.39 147.078 69.06 147.078 69.72C147.078 70.4 147.268 70.93 147.648 71.31C148.048 71.67 148.628 71.85 149.388 71.85C150.168 71.85 150.998 71.64 151.878 71.22C152.758 70.8 153.568 70.26 154.308 69.6C155.048 68.94 155.658 68.21 156.138 67.41C156.618 66.59 156.858 65.8 156.858 65.04C156.858 64.26 156.598 63.65 156.078 63.21C155.578 62.77 154.928 62.55 154.128 62.55ZM154.338 71.28C152.718 72.2 151.438 73.3 150.498 74.58C149.558 75.84 149.088 77.16 149.088 78.54C149.088 79.92 149.498 80.93 150.318 81.57C151.138 82.21 152.298 82.53 153.798 82.53C154.798 82.53 155.818 82.32 156.858 81.9C157.898 81.48 158.838 80.93 159.678 80.25C160.538 79.55 161.238 78.76 161.778 77.88C162.318 76.98 162.588 76.05 162.588 75.09C162.588 74.43 162.448 73.83 162.168 73.29C161.908 72.75 161.538 72.3 161.058 71.94C160.598 71.56 160.048 71.27 159.408 71.07C158.768 70.87 158.068 70.77 157.308 70.77C156.228 70.77 155.238 70.94 154.338 71.28ZM180.209 62.28C180.209 62.62 180.029 62.82 179.669 62.88C178.449 63.1 177.349 63.32 176.369 63.54C175.409 63.74 174.549 63.95 173.789 64.17C173.289 64.31 172.839 64.45 172.439 64.59C172.059 64.71 171.729 64.83 171.449 64.95C171.169 65.07 170.879 65.21 170.579 65.37C170.299 65.51 169.999 65.67 169.679 65.85C169.679 67.09 169.349 69.28 168.689 72.42L170.189 71.88C170.689 71.7 171.229 71.53 171.809 71.37C172.389 71.21 172.979 71.07 173.579 70.95C174.179 70.83 174.779 70.73 175.379 70.65C175.979 70.57 176.549 70.53 177.089 70.53C178.189 70.53 179.019 70.81 179.579 71.37C180.139 71.91 180.419 72.69 180.419 73.71C180.419 75.15 179.999 76.51 179.159 77.79C178.319 79.05 177.089 80.2 175.469 81.24C174.549 81.82 173.869 82.24 173.429 82.5C173.009 82.78 172.689 82.97 172.469 83.07C171.829 83.39 171.369 83.55 171.089 83.55C170.809 83.55 170.579 83.43 170.399 83.19C170.219 82.95 170.129 82.72 170.129 82.5C170.129 82.22 170.309 82.03 170.669 81.93L171.299 81.75C171.639 81.65 171.949 81.54 172.229 81.42C172.529 81.3 172.789 81.19 173.009 81.09C173.489 80.89 174.089 80.56 174.809 80.1C176.189 79.2 177.189 78.26 177.809 77.28C178.449 76.3 178.769 75.24 178.769 74.1C178.769 73.3 178.589 72.74 178.229 72.42C177.889 72.1 177.369 71.94 176.669 71.94C175.829 71.94 174.949 72.06 174.029 72.3C173.109 72.52 172.029 72.82 170.789 73.2C170.329 73.36 169.969 73.49 169.709 73.59C169.449 73.67 169.289 73.72 169.229 73.74C169.089 73.78 168.929 73.86 168.749 73.98C168.569 74.1 168.409 74.2 168.269 74.28C168.089 74.4 167.929 74.46 167.789 74.46C167.649 74.46 167.549 74.45 167.489 74.43C167.129 74.37 166.949 74.13 166.949 73.71C166.949 73.65 167.039 73.15 167.219 72.21C167.479 70.83 167.689 69.66 167.849 68.7C168.009 67.72 168.089 66.9 168.089 66.24C167.949 66.08 167.879 65.87 167.879 65.61C167.879 65.25 168.229 64.88 168.929 64.5C169.629 64.12 170.759 63.67 172.319 63.15C173.519 62.75 174.769 62.43 176.069 62.19C177.369 61.93 178.559 61.8 179.639 61.8C180.019 61.8 180.209 61.96 180.209 62.28ZM197.394 74.25L195.384 74.49C194.904 74.55 194.454 74.6 194.034 74.64C193.614 74.66 193.104 74.67 192.504 74.67C192.244 74.67 192.014 74.62 191.814 74.52C191.614 74.42 191.514 74.25 191.514 74.01C191.514 73.75 191.604 73.58 191.784 73.5C191.964 73.42 192.264 73.38 192.684 73.38C193.444 73.38 193.974 73.38 194.274 73.38C194.594 73.36 194.874 73.32 195.114 73.26C195.194 73.24 195.424 73.2 195.804 73.14C196.184 73.06 196.794 72.96 197.634 72.84C197.794 72.82 197.924 72.69 198.024 72.45C198.144 72.21 198.264 72.09 198.384 72.09C198.604 72.09 198.824 72.22 199.044 72.48C199.284 72.72 199.404 72.97 199.404 73.23C199.404 73.57 199.264 73.81 198.984 73.95C198.704 74.07 198.174 74.17 197.394 74.25ZM215.363 83.49C213.923 83.49 212.813 82.95 212.033 81.87C211.253 80.79 210.863 79.39 210.863 77.67C210.863 75.61 211.113 73.53 211.613 71.43C212.133 69.31 212.823 67.4 213.683 65.7C213.523 65.7 213.373 65.64 213.233 65.52C213.093 65.4 213.023 65.25 213.023 65.07C213.023 64.81 213.173 64.57 213.473 64.35C213.793 64.13 214.163 63.97 214.583 63.87C214.623 63.83 214.693 63.75 214.793 63.63C214.893 63.49 215.033 63.42 215.213 63.42C215.413 63.42 215.603 63.46 215.783 63.54C215.963 63.6 216.073 63.67 216.113 63.75C216.673 63.65 217.243 63.6 217.823 63.6C219.183 63.6 220.403 63.97 221.483 64.71C222.563 65.45 223.413 66.48 224.033 67.8C224.653 69.1 224.963 70.56 224.963 72.18C224.963 73.94 224.503 75.7 223.583 77.46C222.683 79.22 221.483 80.66 219.983 81.78C218.503 82.92 216.963 83.49 215.363 83.49ZM217.943 65.43C217.483 65.43 216.873 65.49 216.113 65.61L215.483 65.7C214.563 67.34 213.843 69.27 213.323 71.49C212.823 73.71 212.573 75.76 212.573 77.64C212.573 78.9 212.813 79.94 213.293 80.76C213.793 81.56 214.573 81.96 215.633 81.96C216.853 81.96 218.083 81.45 219.323 80.43C220.563 79.39 221.583 78.11 222.383 76.59C223.183 75.07 223.583 73.62 223.583 72.24C223.583 71.02 223.313 69.89 222.773 68.85C222.253 67.79 221.553 66.96 220.673 66.36C219.813 65.74 218.903 65.43 217.943 65.43Z" fill="black"/>
<path d="M41.27 64.48C41.27 64.88 41.25 65.67 41.21 66.85C41.17 68.01 41.15 69.18 41.15 70.36C41.15 72.64 41.2 74.97 41.3 77.35C41.4 79.71 41.48 81.26 41.54 82C41.54 82.12 41.55 82.25 41.57 82.39C41.59 82.53 41.61 82.66 41.63 82.78C41.71 83.34 41.75 83.68 41.75 83.8C41.75 84 41.6 84.19 41.3 84.37C41.02 84.55 40.8 84.64 40.64 84.64C40.42 84.64 40.27 84.56 40.19 84.4C40.13 84.22 40.1 83.98 40.1 83.68C40.1 82.58 40.13 81.43 40.19 80.23L40.22 78.55C40.22 77.99 40.21 77.26 40.19 76.36C40.17 75.44 40.14 74.67 40.1 74.05C39.08 77.33 37.92 80.05 36.62 82.21C35.34 84.35 33.95 85.42 32.45 85.42C31.77 85.42 31.19 85.1 30.71 84.46C30.25 83.82 30.02 82.9 30.02 81.7C30.02 80.12 30.55 78.4 31.61 76.54C32.69 74.68 33.91 73.08 35.27 71.74C36.65 70.4 37.67 69.73 38.33 69.73C38.97 69.73 39.29 69.94 39.29 70.36C39.29 70.64 39.19 70.97 38.99 71.35C38.81 71.71 38.6 72.04 38.36 72.34C38.14 72.64 38.01 72.79 37.97 72.79C37.93 72.79 37.88 72.78 37.82 72.76C37.78 72.72 37.76 72.68 37.76 72.64C37.76 72.54 37.81 72.37 37.91 72.13C38.01 71.89 38.06 71.73 38.06 71.65C38.06 71.55 38.05 71.48 38.03 71.44C38.01 71.4 37.95 71.38 37.85 71.38C37.43 71.38 36.67 71.96 35.57 73.12C34.49 74.26 33.52 75.62 32.66 77.2C31.8 78.78 31.37 80.25 31.37 81.61C31.37 82.09 31.47 82.54 31.67 82.96C31.87 83.38 32.2 83.59 32.66 83.59C34.12 83.59 35.47 82.36 36.71 79.9C37.97 77.42 39.06 74.61 39.98 71.47L39.92 68.95C39.86 66.73 39.83 65.55 39.83 65.41C39.83 64.21 39.88 63.35 39.98 62.83C40.02 62.63 40.06 62.49 40.1 62.41C40.16 62.33 40.27 62.29 40.43 62.29C40.63 62.29 40.83 62.36 41.03 62.5C41.23 62.62 41.33 62.79 41.33 63.01L41.27 64.48Z" fill="black"/>
<path d="M60.9 73.38C60.0467 73.4733 58.9467 73.5467 57.6 73.6C56.2667 73.64 55.18 73.66 54.34 73.66C54.1667 73.66 54.0133 73.6267 53.88 73.56C53.7467 73.4933 53.68 73.38 53.68 73.22C53.68 73.0467 53.74 72.9333 53.86 72.88C53.98 72.8267 54.18 72.8 54.46 72.8C55.6333 72.8 56.74 72.78 57.78 72.74C58.82 72.7 59.9133 72.6 61.06 72.44C61.1667 72.4267 61.2533 72.34 61.32 72.18C61.4 72.02 61.48 71.94 61.56 71.94C61.7067 71.94 61.8533 72.0267 62 72.2C62.16 72.36 62.24 72.5267 62.24 72.7C62.24 72.9267 62.1467 73.0867 61.96 73.18C61.7733 73.26 61.42 73.3267 60.9 73.38ZM61.26 76.7C58.9533 76.9667 56.9467 77.1 55.24 77.1C55.04 77.1 54.8467 77.0667 54.66 77C54.4733 76.92 54.38 76.8067 54.38 76.66C54.38 76.4867 54.44 76.3733 54.56 76.32C54.68 76.2667 54.88 76.24 55.16 76.24C57.0933 76.24 58.82 76.1467 60.34 75.96C60.9267 75.9067 61.2733 75.88 61.38 75.88C62.1667 75.88 62.56 75.9667 62.56 76.14C62.56 76.34 62.4667 76.4733 62.28 76.54C62.0933 76.5933 61.7533 76.6467 61.26 76.7Z" fill="black"/>
<circle cx="243" cy="73" r="3" fill="black"/>
<path d="M131 89H234" stroke="black" stroke-linecap="round"/>
<path d="M157.63 115.93C157.69 116.17 157.75 116.45 157.81 116.77C157.89 117.11 157.93 117.32 157.93 117.4C157.93 117.62 157.8 117.82 157.54 118C157.3 118.2 157.03 118.3 156.73 118.3C156.55 118.3 156.37 118.12 156.19 117.76C156.01 117.42 155.88 116.98 155.8 116.44C155.44 114.34 155.12 111.09 154.84 106.69L154.42 100.3C152.86 101.86 151.25 103.18 149.59 104.26C149.15 104.54 148.84 104.68 148.66 104.68C148.46 104.68 148.3 104.62 148.18 104.5C148.06 104.36 148 104.23 148 104.11C148 103.85 148.23 103.57 148.69 103.27C149.71 102.61 150.62 101.91 151.42 101.17C152.24 100.43 153.06 99.64 153.88 98.8L154.3 98.38V98.35V97.9V97.6C154.3 97.46 154.33 97.37 154.39 97.33C154.43 97.29 154.47 97.27 154.51 97.27C154.63 97.21 154.77 97.18 154.93 97.18C155.33 97.18 155.65 97.24 155.89 97.36C156.13 97.48 156.25 97.66 156.25 97.9C156.25 98.14 156.13 98.42 155.89 98.74C155.99 99.22 156.05 99.7 156.07 100.18C156.11 101.36 156.26 103.64 156.52 107.02C156.78 110.38 156.98 112.59 157.12 113.65C157.22 114.17 157.39 114.93 157.63 115.93ZM180.173 115.75C179.433 115.83 178.233 115.99 176.573 116.23C175.133 116.45 174.153 116.59 173.633 116.65L171.263 117.01C170.003 117.21 168.973 117.35 168.173 117.43C167.393 117.53 166.533 117.58 165.593 117.58C165.253 117.58 164.933 117.46 164.633 117.22C164.353 116.98 164.213 116.64 164.213 116.2C164.213 115.96 164.253 115.77 164.333 115.63C164.413 115.49 164.543 115.32 164.723 115.12C165.883 113.96 166.873 112.92 167.693 112C168.533 111.08 169.563 109.89 170.783 108.43C172.023 106.93 172.943 105.65 173.543 104.59C174.163 103.53 174.473 102.43 174.473 101.29C174.473 100.25 174.163 99.45 173.543 98.89C172.943 98.31 172.153 98.02 171.173 98.02C170.433 98.02 169.783 98.13 169.223 98.35C168.663 98.55 167.883 98.94 166.883 99.52C166.643 99.64 166.383 99.82 166.103 100.06C165.823 100.28 165.643 100.42 165.563 100.48C165.283 100.72 165.003 100.93 164.723 101.11C164.463 101.29 164.263 101.38 164.123 101.38C163.643 101.38 163.403 101.11 163.403 100.57C163.403 100.11 163.663 99.7 164.183 99.34C164.303 99.26 164.733 99.01 165.473 98.59C165.913 98.37 166.263 98.18 166.523 98.02C167.443 97.5 168.243 97.13 168.923 96.91C169.623 96.69 170.453 96.58 171.413 96.58C172.793 96.58 173.903 97.01 174.743 97.87C175.603 98.73 176.033 99.82 176.033 101.14C176.033 102.14 175.803 103.15 175.343 104.17C174.903 105.17 174.403 106.05 173.843 106.81C173.283 107.57 172.613 108.41 171.833 109.33C171.413 109.83 170.353 111 168.653 112.84L167.093 114.55C167.033 114.61 166.863 114.78 166.583 115.06C166.323 115.36 166.193 115.57 166.193 115.69C166.193 115.93 166.433 116.05 166.913 116.05C167.553 116.05 168.393 115.96 169.433 115.78C170.493 115.6 171.123 115.49 171.323 115.45L173.933 115C174.333 114.94 175.323 114.81 176.903 114.61C178.303 114.43 179.173 114.3 179.513 114.22C179.773 114.06 180.053 113.91 180.353 113.77C180.653 113.61 180.853 113.53 180.953 113.53C181.353 113.53 181.553 113.9 181.553 114.64C181.553 114.9 181.423 115.12 181.163 115.3C180.923 115.5 180.593 115.65 180.173 115.75ZM196.719 107.29C196.579 107.39 196.249 107.5 195.729 107.62C195.229 107.72 194.699 107.81 194.139 107.89L193.329 108.04C192.809 110.32 192.489 113.1 192.369 116.38C192.349 116.86 192.229 117.28 192.009 117.64C191.789 118 191.539 118.18 191.259 118.18C191.099 118.18 190.949 118.06 190.809 117.82C190.689 117.58 190.569 117.32 190.449 117.04C190.329 116.76 190.249 116.56 190.209 116.44C189.889 115.68 189.729 115.17 189.729 114.91C189.729 114.63 189.839 114.49 190.059 114.49C190.159 114.49 190.299 114.55 190.479 114.67C190.679 114.79 190.819 114.88 190.899 114.94C191.159 112.2 191.469 109.94 191.829 108.16C190.149 108.44 189.049 108.58 188.529 108.58C188.289 108.58 188.089 108.51 187.929 108.37C187.789 108.23 187.719 108.05 187.719 107.83C187.719 107.69 187.809 107.58 187.989 107.5C188.169 107.42 188.479 107.35 188.919 107.29C190.639 107.05 191.709 106.9 192.129 106.84C192.469 105.42 192.949 103.89 193.569 102.25C194.189 100.61 194.769 99.27 195.309 98.23C195.129 98.25 194.399 98.34 193.119 98.5C191.839 98.66 190.609 98.86 189.429 99.1L186.789 99.64C186.609 99.68 186.269 99.75 185.769 99.85C185.289 99.95 184.799 100 184.299 100C183.939 100 183.629 99.93 183.369 99.79C183.109 99.63 182.979 99.43 182.979 99.19C182.979 98.69 183.169 98.44 183.549 98.44C184.369 98.44 185.199 98.38 186.039 98.26C186.899 98.12 188.109 97.89 189.669 97.57C190.949 97.31 192.139 97.12 193.239 97C194.339 96.88 195.209 96.82 195.849 96.82C196.329 96.82 196.689 96.87 196.929 96.97C197.169 97.07 197.289 97.28 197.289 97.6C197.289 97.78 197.259 97.91 197.199 97.99C197.139 98.07 197.029 98.17 196.869 98.29C196.289 99.39 195.699 100.69 195.099 102.19C194.499 103.69 194.009 105.18 193.629 106.66C194.469 106.56 195.389 106.38 196.389 106.12C196.729 106.02 196.939 105.97 197.019 105.97C197.079 105.97 197.139 106 197.199 106.06C197.259 106.12 197.289 106.18 197.289 106.24C197.289 106.4 197.229 106.59 197.109 106.81C197.009 107.01 196.879 107.17 196.719 107.29ZM206.196 118.63C205.836 118.63 205.576 118.54 205.416 118.36C205.276 118.18 205.206 117.97 205.206 117.73C205.206 117.33 205.626 117.07 206.466 116.95C209.206 116.55 211.486 115.76 213.306 114.58C215.146 113.38 216.066 111.77 216.066 109.75C216.066 107.47 214.716 106.33 212.016 106.33C211.156 106.33 210.336 106.4 209.556 106.54C208.796 106.66 207.866 106.85 206.766 107.11C205.666 107.73 204.936 108.12 204.576 108.28C204.216 108.44 203.886 108.52 203.586 108.52C203.406 108.52 203.246 108.43 203.106 108.25C202.966 108.05 202.896 107.83 202.896 107.59C202.896 107.23 203.066 106.97 203.406 106.81C204.026 106.53 204.546 106.32 204.966 106.18C205.626 105.96 206.286 105.68 206.946 105.34C208.666 104.44 210.046 103.51 211.086 102.55C212.126 101.59 212.646 100.59 212.646 99.55C212.646 98.67 212.346 98.07 211.746 97.75C211.166 97.41 210.346 97.24 209.286 97.24C207.666 97.24 206.116 97.7 204.636 98.62C204.216 98.88 203.856 99.17 203.556 99.49C203.256 99.79 203.056 100.04 202.956 100.24C202.776 100.5 202.536 100.63 202.236 100.63C201.616 100.63 201.306 100.36 201.306 99.82C201.306 99.46 201.706 98.94 202.506 98.26C203.306 97.56 204.346 96.95 205.626 96.43C206.926 95.91 208.306 95.65 209.766 95.65C211.186 95.65 212.286 95.96 213.066 96.58C213.866 97.18 214.266 98.07 214.266 99.25C214.266 100.23 213.746 101.3 212.706 102.46C211.686 103.6 210.536 104.56 209.256 105.34L209.376 105.37C210.016 105.21 210.526 105.1 210.906 105.04C211.286 104.98 211.826 104.95 212.526 104.95C214.006 104.95 215.226 105.36 216.186 106.18C217.166 107 217.656 108.14 217.656 109.6C217.656 111.86 216.746 113.71 214.926 115.15C213.126 116.61 210.626 117.72 207.426 118.48C206.926 118.58 206.516 118.63 206.196 118.63Z" fill="black"/>
<path d="M269.91 61.28C269.91 61.62 269.73 61.82 269.37 61.88C268.15 62.1 267.05 62.32 266.07 62.54C265.11 62.74 264.25 62.95 263.49 63.17C262.99 63.31 262.54 63.45 262.14 63.59C261.76 63.71 261.43 63.83 261.15 63.95C260.87 64.07 260.58 64.21 260.28 64.37C260 64.51 259.7 64.67 259.38 64.85C259.38 66.09 259.05 68.28 258.39 71.42L259.89 70.88C260.39 70.7 260.93 70.53 261.51 70.37C262.09 70.21 262.68 70.07 263.28 69.95C263.88 69.83 264.48 69.73 265.08 69.65C265.68 69.57 266.25 69.53 266.79 69.53C267.89 69.53 268.72 69.81 269.28 70.37C269.84 70.91 270.12 71.69 270.12 72.71C270.12 74.15 269.7 75.51 268.86 76.79C268.02 78.05 266.79 79.2 265.17 80.24C264.25 80.82 263.57 81.24 263.13 81.5C262.71 81.78 262.39 81.97 262.17 82.07C261.53 82.39 261.07 82.55 260.79 82.55C260.51 82.55 260.28 82.43 260.1 82.19C259.92 81.95 259.83 81.72 259.83 81.5C259.83 81.22 260.01 81.03 260.37 80.93L261 80.75C261.34 80.65 261.65 80.54 261.93 80.42C262.23 80.3 262.49 80.19 262.71 80.09C263.19 79.89 263.79 79.56 264.51 79.1C265.89 78.2 266.89 77.26 267.51 76.28C268.15 75.3 268.47 74.24 268.47 73.1C268.47 72.3 268.29 71.74 267.93 71.42C267.59 71.1 267.07 70.94 266.37 70.94C265.53 70.94 264.65 71.06 263.73 71.3C262.81 71.52 261.73 71.82 260.49 72.2C260.03 72.36 259.67 72.49 259.41 72.59C259.15 72.67 258.99 72.72 258.93 72.74C258.79 72.78 258.63 72.86 258.45 72.98C258.27 73.1 258.11 73.2 257.97 73.28C257.79 73.4 257.63 73.46 257.49 73.46C257.35 73.46 257.25 73.45 257.19 73.43C256.83 73.37 256.65 73.13 256.65 72.71C256.65 72.65 256.74 72.15 256.92 71.21C257.18 69.83 257.39 68.66 257.55 67.7C257.71 66.72 257.79 65.9 257.79 65.24C257.65 65.08 257.58 64.87 257.58 64.61C257.58 64.25 257.93 63.88 258.63 63.5C259.33 63.12 260.46 62.67 262.02 62.15C263.22 61.75 264.47 61.43 265.77 61.19C267.07 60.93 268.26 60.8 269.34 60.8C269.72 60.8 269.91 60.96 269.91 61.28Z" fill="black"/>
<path d="M129.5 43.5C124.5 54.5 117.5 85.3 129.5 120.5" stroke="#505050" stroke-width="2" stroke-linecap="round"/>
<path d="M272 120C277 109 284 78.2 272 43" stroke="#505050" stroke-width="2" stroke-linecap="round"/>
<path d="M261.5 12L251.152 6.87682L251.889 18.4003L261.5 12ZM252.763 46.3536C248.273 41.0534 243.452 33.5331 242.219 26.9816C241.606 23.7267 241.901 20.837 243.415 18.5651C244.924 16.3 247.776 14.4531 252.699 13.5585L252.341 11.5907C247.092 12.5446 243.661 14.5895 241.751 17.4561C239.845 20.3159 239.584 23.798 240.253 27.3515C241.583 34.4171 246.674 42.2609 251.237 47.6464L252.763 46.3536Z" fill="#505050"/>
<path d="M269.52 19.42C269.28 19.42 269.107 19.36 269 19.24C268.907 19.12 268.86 18.98 268.86 18.82C268.86 18.5533 269.14 18.38 269.7 18.3C271.527 18.0333 273.047 17.5067 274.26 16.72C275.487 15.92 276.1 14.8467 276.1 13.5C276.1 11.98 275.2 11.22 273.4 11.22C272.827 11.22 272.28 11.2667 271.76 11.36C271.253 11.44 270.633 11.5667 269.9 11.74C269.167 12.1533 268.68 12.4133 268.44 12.52C268.2 12.6267 267.98 12.68 267.78 12.68C267.66 12.68 267.553 12.62 267.46 12.5C267.367 12.3667 267.32 12.22 267.32 12.06C267.32 11.82 267.433 11.6467 267.66 11.54C268.073 11.3533 268.42 11.2133 268.7 11.12C269.14 10.9733 269.58 10.7867 270.02 10.56C271.167 9.96 272.087 9.34 272.78 8.7C273.473 8.06 273.82 7.39333 273.82 6.7C273.82 6.11333 273.62 5.71333 273.22 5.5C272.833 5.27333 272.287 5.16 271.58 5.16C270.5 5.16 269.467 5.46667 268.48 6.08C268.2 6.25333 267.96 6.44667 267.76 6.66C267.56 6.86 267.427 7.02667 267.36 7.16C267.24 7.33333 267.08 7.42 266.88 7.42C266.467 7.42 266.26 7.24 266.26 6.88C266.26 6.64 266.527 6.29333 267.06 5.84C267.593 5.37333 268.287 4.96667 269.14 4.62C270.007 4.27333 270.927 4.1 271.9 4.1C272.847 4.1 273.58 4.30667 274.1 4.72C274.633 5.12 274.9 5.71333 274.9 6.5C274.9 7.15333 274.553 7.86667 273.86 8.64C273.18 9.4 272.413 10.04 271.56 10.56L271.64 10.58C272.067 10.4733 272.407 10.4 272.66 10.36C272.913 10.32 273.273 10.3 273.74 10.3C274.727 10.3 275.54 10.5733 276.18 11.12C276.833 11.6667 277.16 12.4267 277.16 13.4C277.16 14.9067 276.553 16.14 275.34 17.1C274.14 18.0733 272.473 18.8133 270.34 19.32C270.007 19.3867 269.733 19.42 269.52 19.42ZM280.246 19.5C280.113 19.5 280 19.46 279.906 19.38C279.826 19.3133 279.786 19.22 279.786 19.1C279.786 19.02 279.86 18.8267 280.006 18.52C280.166 18.2267 280.266 18.0467 280.306 17.98L280.866 16.9L281.226 15.98C281.373 15.58 281.493 15.2867 281.586 15.1C281.68 14.9 281.773 14.8 281.866 14.8C282.013 14.8 282.166 14.8867 282.326 15.06C282.5 15.22 282.586 15.3733 282.586 15.52C282.586 15.72 282.426 16.1533 282.106 16.82C281.8 17.4867 281.46 18.1 281.086 18.66C280.713 19.22 280.433 19.5 280.246 19.5ZM289.325 18.96C288.698 18.96 288.131 18.88 287.625 18.72C287.131 18.56 286.705 18.3267 286.345 18.02C285.985 17.7267 285.705 17.3667 285.505 16.94C285.318 16.5 285.225 16.0133 285.225 15.48C285.225 15.12 285.271 14.76 285.365 14.4C285.471 14.04 285.605 13.7 285.765 13.38C285.938 13.0467 286.138 12.7467 286.365 12.48C286.591 12.2 286.838 11.96 287.105 11.76C286.945 11.7867 286.785 11.8133 286.625 11.84C286.465 11.8533 286.298 11.86 286.125 11.86C285.805 11.86 285.505 11.8 285.225 11.68C284.958 11.5467 284.725 11.3733 284.525 11.16C284.325 10.9467 284.171 10.7067 284.065 10.44C283.958 10.16 283.905 9.86667 283.905 9.56C283.905 8.96 283.985 8.39333 284.145 7.86C284.318 7.31333 284.545 6.81333 284.825 6.36C285.118 5.89333 285.465 5.47333 285.865 5.1C286.265 4.72667 286.698 4.4 287.165 4.12C287.458 3.94667 287.685 3.83333 287.845 3.78C288.005 3.72667 288.165 3.7 288.325 3.7C288.418 3.7 288.498 3.72667 288.565 3.78C288.645 3.83333 288.685 3.9 288.685 3.98C288.765 3.95333 288.898 3.92 289.085 3.88C289.285 3.82667 289.525 3.8 289.805 3.8C290.538 3.8 291.151 4.02667 291.645 4.48C292.151 4.92 292.405 5.56 292.405 6.4C292.405 6.90667 292.285 7.38 292.045 7.82C291.898 8.08667 291.698 8.38 291.445 8.7C291.191 9.00667 290.978 9.24667 290.805 9.42C290.831 9.42 290.931 9.40667 291.105 9.38C291.291 9.34 291.578 9.32 291.965 9.32C292.525 9.32 293.058 9.40667 293.565 9.58C294.071 9.74 294.518 9.98 294.905 10.3C295.291 10.62 295.598 11.0067 295.825 11.46C296.051 11.9133 296.165 12.4267 296.165 13C296.165 13.72 295.965 14.44 295.565 15.16C295.165 15.8667 294.638 16.5 293.985 17.06C293.345 17.62 292.611 18.0733 291.785 18.42C290.971 18.78 290.151 18.96 289.325 18.96ZM289.565 4.7C289.231 4.7 288.938 4.75333 288.685 4.86C288.685 4.92667 288.638 5 288.545 5.08C288.465 5.14667 288.378 5.18 288.285 5.18C288.151 5.18 288.011 5.19333 287.865 5.22C287.718 5.23333 287.565 5.25333 287.405 5.28C287.058 5.4 286.731 5.60667 286.425 5.9C286.118 6.18 285.851 6.51333 285.625 6.9C285.398 7.27333 285.211 7.68667 285.065 8.14C284.931 8.59333 284.865 9.04 284.865 9.48C284.865 9.93333 284.991 10.2867 285.245 10.54C285.511 10.78 285.898 10.9 286.405 10.9C286.925 10.9 287.478 10.76 288.065 10.48C288.651 10.2 289.191 9.84 289.685 9.4C290.178 8.96 290.585 8.47333 290.905 7.94C291.225 7.39333 291.385 6.86667 291.385 6.36C291.385 5.84 291.211 5.43333 290.865 5.14C290.531 4.84667 290.098 4.7 289.565 4.7ZM289.705 10.52C288.625 11.1333 287.771 11.8667 287.145 12.72C286.518 13.56 286.205 14.44 286.205 15.36C286.205 16.28 286.478 16.9533 287.025 17.38C287.571 17.8067 288.345 18.02 289.345 18.02C290.011 18.02 290.691 17.88 291.385 17.6C292.078 17.32 292.705 16.9533 293.265 16.5C293.838 16.0333 294.305 15.5067 294.665 14.92C295.025 14.32 295.205 13.7 295.205 13.06C295.205 12.62 295.111 12.22 294.925 11.86C294.751 11.5 294.505 11.2 294.185 10.96C293.878 10.7067 293.511 10.5133 293.085 10.38C292.658 10.2467 292.191 10.18 291.685 10.18C290.965 10.18 290.305 10.2933 289.705 10.52ZM302.872 16.76C302.925 17.0933 303.018 17.3867 303.152 17.64C303.205 17.7467 303.298 17.86 303.432 17.98C303.578 18.1133 303.652 18.1933 303.652 18.22C303.652 18.34 303.572 18.46 303.412 18.58C303.265 18.7 303.112 18.76 302.952 18.76C302.712 18.76 302.498 18.6067 302.312 18.3C302.205 18.1133 302.118 17.8933 302.052 17.64C301.985 17.4 301.945 17.1867 301.932 17C301.905 17 301.858 17 301.792 17C301.725 17.0133 301.625 17.02 301.492 17.02C300.492 17.02 299.705 16.5933 299.132 15.74C298.572 14.8733 298.292 13.7733 298.292 12.44C298.292 10.7067 298.745 9.06 299.652 7.5C300.572 5.92667 301.798 4.7 303.332 3.82C303.438 3.74 303.558 3.68 303.692 3.64C303.838 3.6 303.952 3.58 304.032 3.58C304.165 3.58 304.292 3.62667 304.412 3.72C304.532 3.8 304.592 3.91333 304.592 4.06C304.592 4.31333 304.418 4.54 304.072 4.74C302.338 5.74 301.098 6.86667 300.352 8.12C299.618 9.37333 299.252 10.8333 299.252 12.5C299.252 13.4733 299.458 14.3067 299.872 15C300.285 15.68 300.972 16.02 301.932 16.02C302.052 14.7 302.325 13.56 302.752 12.6C303.192 11.64 303.725 10.9133 304.352 10.42C304.992 9.92667 305.665 9.68 306.372 9.68C306.972 9.68 307.425 9.85333 307.732 10.2C308.052 10.5467 308.212 10.9867 308.212 11.52C308.212 12.1733 308.012 12.8333 307.612 13.5C307.212 14.1533 306.612 14.7667 305.812 15.34C305.012 15.9133 304.032 16.3867 302.872 16.76ZM306.312 10.62C305.458 10.62 304.718 11.08 304.092 12C303.465 12.9067 303.052 14.2 302.852 15.88C303.652 15.68 304.392 15.3467 305.072 14.88C305.752 14.4 306.292 13.8733 306.692 13.3C307.105 12.7267 307.312 12.1933 307.312 11.7C307.312 10.98 306.978 10.62 306.312 10.62ZM314.852 18.96C314.225 18.96 313.659 18.88 313.152 18.72C312.659 18.56 312.232 18.3267 311.872 18.02C311.512 17.7267 311.232 17.3667 311.032 16.94C310.845 16.5 310.752 16.0133 310.752 15.48C310.752 15.12 310.799 14.76 310.892 14.4C310.999 14.04 311.132 13.7 311.292 13.38C311.465 13.0467 311.665 12.7467 311.892 12.48C312.119 12.2 312.365 11.96 312.632 11.76C312.472 11.7867 312.312 11.8133 312.152 11.84C311.992 11.8533 311.825 11.86 311.652 11.86C311.332 11.86 311.032 11.8 310.752 11.68C310.485 11.5467 310.252 11.3733 310.052 11.16C309.852 10.9467 309.699 10.7067 309.592 10.44C309.485 10.16 309.432 9.86667 309.432 9.56C309.432 8.96 309.512 8.39333 309.672 7.86C309.845 7.31333 310.072 6.81333 310.352 6.36C310.645 5.89333 310.992 5.47333 311.392 5.1C311.792 4.72667 312.225 4.4 312.692 4.12C312.985 3.94667 313.212 3.83333 313.372 3.78C313.532 3.72667 313.692 3.7 313.852 3.7C313.945 3.7 314.025 3.72667 314.092 3.78C314.172 3.83333 314.212 3.9 314.212 3.98C314.292 3.95333 314.425 3.92 314.612 3.88C314.812 3.82667 315.052 3.8 315.332 3.8C316.065 3.8 316.679 4.02667 317.172 4.48C317.679 4.92 317.932 5.56 317.932 6.4C317.932 6.90667 317.812 7.38 317.572 7.82C317.425 8.08667 317.225 8.38 316.972 8.7C316.719 9.00667 316.505 9.24667 316.332 9.42C316.359 9.42 316.459 9.40667 316.632 9.38C316.819 9.34 317.105 9.32 317.492 9.32C318.052 9.32 318.585 9.40667 319.092 9.58C319.599 9.74 320.045 9.98 320.432 10.3C320.819 10.62 321.125 11.0067 321.352 11.46C321.579 11.9133 321.692 12.4267 321.692 13C321.692 13.72 321.492 14.44 321.092 15.16C320.692 15.8667 320.165 16.5 319.512 17.06C318.872 17.62 318.139 18.0733 317.312 18.42C316.499 18.78 315.679 18.96 314.852 18.96ZM315.092 4.7C314.759 4.7 314.465 4.75333 314.212 4.86C314.212 4.92667 314.165 5 314.072 5.08C313.992 5.14667 313.905 5.18 313.812 5.18C313.679 5.18 313.539 5.19333 313.392 5.22C313.245 5.23333 313.092 5.25333 312.932 5.28C312.585 5.4 312.259 5.60667 311.952 5.9C311.645 6.18 311.379 6.51333 311.152 6.9C310.925 7.27333 310.739 7.68667 310.592 8.14C310.459 8.59333 310.392 9.04 310.392 9.48C310.392 9.93333 310.519 10.2867 310.772 10.54C311.039 10.78 311.425 10.9 311.932 10.9C312.452 10.9 313.005 10.76 313.592 10.48C314.179 10.2 314.719 9.84 315.212 9.4C315.705 8.96 316.112 8.47333 316.432 7.94C316.752 7.39333 316.912 6.86667 316.912 6.36C316.912 5.84 316.739 5.43333 316.392 5.14C316.059 4.84667 315.625 4.7 315.092 4.7ZM315.232 10.52C314.152 11.1333 313.299 11.8667 312.672 12.72C312.045 13.56 311.732 14.44 311.732 15.36C311.732 16.28 312.005 16.9533 312.552 17.38C313.099 17.8067 313.872 18.02 314.872 18.02C315.539 18.02 316.219 17.88 316.912 17.6C317.605 17.32 318.232 16.9533 318.792 16.5C319.365 16.0333 319.832 15.5067 320.192 14.92C320.552 14.32 320.732 13.7 320.732 13.06C320.732 12.62 320.639 12.22 320.452 11.86C320.279 11.5 320.032 11.2 319.712 10.96C319.405 10.7067 319.039 10.5133 318.612 10.38C318.185 10.2467 317.719 10.18 317.212 10.18C316.492 10.18 315.832 10.2933 315.232 10.52Z" fill="black"/>
<path d="M313.64 78.5C313.147 78.5533 312.347 78.66 311.24 78.82C310.28 78.9667 309.627 79.06 309.28 79.1L307.7 79.34C306.86 79.4733 306.173 79.5667 305.64 79.62C305.12 79.6867 304.547 79.72 303.92 79.72C303.693 79.72 303.48 79.64 303.28 79.48C303.093 79.32 303 79.0933 303 78.8C303 78.64 303.027 78.5133 303.08 78.42C303.133 78.3267 303.22 78.2133 303.34 78.08C304.113 77.3067 304.773 76.6133 305.32 76C305.88 75.3867 306.567 74.5933 307.38 73.62C308.207 72.62 308.82 71.7667 309.22 71.06C309.633 70.3533 309.84 69.62 309.84 68.86C309.84 68.1667 309.633 67.6333 309.22 67.26C308.82 66.8733 308.293 66.68 307.64 66.68C307.147 66.68 306.713 66.7533 306.34 66.9C305.967 67.0333 305.447 67.2933 304.78 67.68C304.62 67.76 304.447 67.88 304.26 68.04C304.073 68.1867 303.953 68.28 303.9 68.32C303.713 68.48 303.527 68.62 303.34 68.74C303.167 68.86 303.033 68.92 302.94 68.92C302.62 68.92 302.46 68.74 302.46 68.38C302.46 68.0733 302.633 67.8 302.98 67.56C303.06 67.5067 303.347 67.34 303.84 67.06C304.133 66.9133 304.367 66.7867 304.54 66.68C305.153 66.3333 305.687 66.0867 306.14 65.94C306.607 65.7933 307.16 65.72 307.8 65.72C308.72 65.72 309.46 66.0067 310.02 66.58C310.593 67.1533 310.88 67.88 310.88 68.76C310.88 69.4267 310.727 70.1 310.42 70.78C310.127 71.4467 309.793 72.0333 309.42 72.54C309.047 73.0467 308.6 73.6067 308.08 74.22C307.8 74.5533 307.093 75.3333 305.96 76.56L304.92 77.7C304.88 77.74 304.767 77.8533 304.58 78.04C304.407 78.24 304.32 78.38 304.32 78.46C304.32 78.62 304.48 78.7 304.8 78.7C305.227 78.7 305.787 78.64 306.48 78.52C307.187 78.4 307.607 78.3267 307.74 78.3L309.48 78C309.747 77.96 310.407 77.8733 311.46 77.74C312.393 77.62 312.973 77.5333 313.2 77.48C313.373 77.3733 313.56 77.2733 313.76 77.18C313.96 77.0733 314.093 77.02 314.16 77.02C314.427 77.02 314.56 77.2667 314.56 77.76C314.56 77.9333 314.473 78.08 314.3 78.2C314.14 78.3333 313.92 78.4333 313.64 78.5ZM321.15 78.62C321.19 78.78 321.23 78.9667 321.27 79.18C321.324 79.4067 321.35 79.5467 321.35 79.6C321.35 79.7467 321.264 79.88 321.09 80C320.93 80.1333 320.75 80.2 320.55 80.2C320.43 80.2 320.31 80.08 320.19 79.84C320.07 79.6133 319.984 79.32 319.93 78.96C319.69 77.56 319.477 75.3933 319.29 72.46L319.01 68.2C317.97 69.24 316.897 70.12 315.79 70.84C315.497 71.0267 315.29 71.12 315.17 71.12C315.037 71.12 314.93 71.08 314.85 71C314.77 70.9067 314.73 70.82 314.73 70.74C314.73 70.5667 314.884 70.38 315.19 70.18C315.87 69.74 316.477 69.2733 317.01 68.78C317.557 68.2867 318.104 67.76 318.65 67.2L318.93 66.92V66.9V66.6V66.4C318.93 66.3067 318.95 66.2467 318.99 66.22C319.017 66.1933 319.044 66.18 319.07 66.18C319.15 66.14 319.244 66.12 319.35 66.12C319.617 66.12 319.83 66.16 319.99 66.24C320.15 66.32 320.23 66.44 320.23 66.6C320.23 66.76 320.15 66.9467 319.99 67.16C320.057 67.48 320.097 67.8 320.11 68.12C320.137 68.9067 320.237 70.4267 320.41 72.68C320.584 74.92 320.717 76.3933 320.81 77.1C320.877 77.4467 320.99 77.9533 321.15 78.62ZM324.879 80.5C324.746 80.5 324.632 80.46 324.539 80.38C324.459 80.3133 324.419 80.22 324.419 80.1C324.419 80.02 324.492 79.8267 324.639 79.52C324.799 79.2267 324.899 79.0467 324.939 78.98L325.499 77.9L325.859 76.98C326.006 76.58 326.126 76.2867 326.219 76.1C326.312 75.9 326.406 75.8 326.499 75.8C326.646 75.8 326.799 75.8867 326.959 76.06C327.132 76.22 327.219 76.3733 327.219 76.52C327.219 76.72 327.059 77.1533 326.739 77.82C326.432 78.4867 326.092 79.1 325.719 79.66C325.346 80.22 325.066 80.5 324.879 80.5ZM333.957 79.96C333.331 79.96 332.764 79.88 332.257 79.72C331.764 79.56 331.337 79.3267 330.977 79.02C330.617 78.7267 330.337 78.3667 330.137 77.94C329.951 77.5 329.857 77.0133 329.857 76.48C329.857 76.12 329.904 75.76 329.997 75.4C330.104 75.04 330.237 74.7 330.397 74.38C330.571 74.0467 330.771 73.7467 330.997 73.48C331.224 73.2 331.471 72.96 331.737 72.76C331.577 72.7867 331.417 72.8133 331.257 72.84C331.097 72.8533 330.931 72.86 330.757 72.86C330.437 72.86 330.137 72.8 329.857 72.68C329.591 72.5467 329.357 72.3733 329.157 72.16C328.957 71.9467 328.804 71.7067 328.697 71.44C328.591 71.16 328.537 70.8667 328.537 70.56C328.537 69.96 328.617 69.3933 328.777 68.86C328.951 68.3133 329.177 67.8133 329.457 67.36C329.751 66.8933 330.097 66.4733 330.497 66.1C330.897 65.7267 331.331 65.4 331.797 65.12C332.091 64.9467 332.317 64.8333 332.477 64.78C332.637 64.7267 332.797 64.7 332.957 64.7C333.051 64.7 333.131 64.7267 333.197 64.78C333.277 64.8333 333.317 64.9 333.317 64.98C333.397 64.9533 333.531 64.92 333.717 64.88C333.917 64.8267 334.157 64.8 334.437 64.8C335.171 64.8 335.784 65.0267 336.277 65.48C336.784 65.92 337.037 66.56 337.037 67.4C337.037 67.9067 336.917 68.38 336.677 68.82C336.531 69.0867 336.331 69.38 336.077 69.7C335.824 70.0067 335.611 70.2467 335.437 70.42C335.464 70.42 335.564 70.4067 335.737 70.38C335.924 70.34 336.211 70.32 336.597 70.32C337.157 70.32 337.691 70.4067 338.197 70.58C338.704 70.74 339.151 70.98 339.537 71.3C339.924 71.62 340.231 72.0067 340.457 72.46C340.684 72.9133 340.797 73.4267 340.797 74C340.797 74.72 340.597 75.44 340.197 76.16C339.797 76.8667 339.271 77.5 338.617 78.06C337.977 78.62 337.244 79.0733 336.417 79.42C335.604 79.78 334.784 79.96 333.957 79.96ZM334.197 65.7C333.864 65.7 333.571 65.7533 333.317 65.86C333.317 65.9267 333.271 66 333.177 66.08C333.097 66.1467 333.011 66.18 332.917 66.18C332.784 66.18 332.644 66.1933 332.497 66.22C332.351 66.2333 332.197 66.2533 332.037 66.28C331.691 66.4 331.364 66.6067 331.057 66.9C330.751 67.18 330.484 67.5133 330.257 67.9C330.031 68.2733 329.844 68.6867 329.697 69.14C329.564 69.5933 329.497 70.04 329.497 70.48C329.497 70.9333 329.624 71.2867 329.877 71.54C330.144 71.78 330.531 71.9 331.037 71.9C331.557 71.9 332.111 71.76 332.697 71.48C333.284 71.2 333.824 70.84 334.317 70.4C334.811 69.96 335.217 69.4733 335.537 68.94C335.857 68.3933 336.017 67.8667 336.017 67.36C336.017 66.84 335.844 66.4333 335.497 66.14C335.164 65.8467 334.731 65.7 334.197 65.7ZM334.337 71.52C333.257 72.1333 332.404 72.8667 331.777 73.72C331.151 74.56 330.837 75.44 330.837 76.36C330.837 77.28 331.111 77.9533 331.657 78.38C332.204 78.8067 332.977 79.02 333.977 79.02C334.644 79.02 335.324 78.88 336.017 78.6C336.711 78.32 337.337 77.9533 337.897 77.5C338.471 77.0333 338.937 76.5067 339.297 75.92C339.657 75.32 339.837 74.7 339.837 74.06C339.837 73.62 339.744 73.22 339.557 72.86C339.384 72.5 339.137 72.2 338.817 71.96C338.511 71.7067 338.144 71.5133 337.717 71.38C337.291 71.2467 336.824 71.18 336.317 71.18C335.597 71.18 334.937 71.2933 334.337 71.52ZM351.585 72.86C351.491 72.9267 351.271 73 350.925 73.08C350.591 73.1467 350.238 73.2067 349.865 73.26L349.325 73.36C348.978 74.88 348.765 76.7333 348.685 78.92C348.671 79.24 348.591 79.52 348.445 79.76C348.298 80 348.131 80.12 347.945 80.12C347.838 80.12 347.738 80.04 347.645 79.88C347.565 79.72 347.485 79.5467 347.405 79.36C347.325 79.1733 347.271 79.04 347.245 78.96C347.031 78.4533 346.925 78.1133 346.925 77.94C346.925 77.7533 346.998 77.66 347.145 77.66C347.211 77.66 347.305 77.7 347.425 77.78C347.558 77.86 347.651 77.92 347.705 77.96C347.878 76.1333 348.085 74.6267 348.325 73.44C347.205 73.6267 346.471 73.72 346.125 73.72C345.965 73.72 345.831 73.6733 345.725 73.58C345.631 73.4867 345.585 73.3667 345.585 73.22C345.585 73.1267 345.645 73.0533 345.765 73C345.885 72.9467 346.091 72.9 346.385 72.86C347.531 72.7 348.245 72.6 348.525 72.56C348.751 71.6133 349.071 70.5933 349.485 69.5C349.898 68.4067 350.285 67.5133 350.645 66.82C350.525 66.8333 350.038 66.8933 349.185 67C348.331 67.1067 347.511 67.24 346.725 67.4L344.965 67.76C344.845 67.7867 344.618 67.8333 344.285 67.9C343.965 67.9667 343.638 68 343.305 68C343.065 68 342.858 67.9533 342.685 67.86C342.511 67.7533 342.425 67.62 342.425 67.46C342.425 67.1267 342.551 66.96 342.805 66.96C343.351 66.96 343.905 66.92 344.465 66.84C345.038 66.7467 345.845 66.5933 346.885 66.38C347.738 66.2067 348.531 66.08 349.265 66C349.998 65.92 350.578 65.88 351.005 65.88C351.325 65.88 351.565 65.9133 351.725 65.98C351.885 66.0467 351.965 66.1867 351.965 66.4C351.965 66.52 351.945 66.6067 351.905 66.66C351.865 66.7133 351.791 66.78 351.685 66.86C351.298 67.5933 350.905 68.46 350.505 69.46C350.105 70.46 349.778 71.4533 349.525 72.44C350.085 72.3733 350.698 72.2533 351.365 72.08C351.591 72.0133 351.731 71.98 351.785 71.98C351.825 71.98 351.865 72 351.905 72.04C351.945 72.08 351.965 72.12 351.965 72.16C351.965 72.2667 351.925 72.3933 351.845 72.54C351.778 72.6733 351.691 72.78 351.585 72.86Z" fill="black"/>
<path d="M295.9 73.38C295.047 73.4733 293.947 73.5467 292.6 73.6C291.267 73.64 290.18 73.66 289.34 73.66C289.167 73.66 289.013 73.6267 288.88 73.56C288.747 73.4933 288.68 73.38 288.68 73.22C288.68 73.0467 288.74 72.9333 288.86 72.88C288.98 72.8267 289.18 72.8 289.46 72.8C290.633 72.8 291.74 72.78 292.78 72.74C293.82 72.7 294.913 72.6 296.06 72.44C296.167 72.4267 296.253 72.34 296.32 72.18C296.4 72.02 296.48 71.94 296.56 71.94C296.707 71.94 296.853 72.0267 297 72.2C297.16 72.36 297.24 72.5267 297.24 72.7C297.24 72.9267 297.147 73.0867 296.96 73.18C296.773 73.26 296.42 73.3267 295.9 73.38ZM296.26 76.7C293.953 76.9667 291.947 77.1 290.24 77.1C290.04 77.1 289.847 77.0667 289.66 77C289.473 76.92 289.38 76.8067 289.38 76.66C289.38 76.4867 289.44 76.3733 289.56 76.32C289.68 76.2667 289.88 76.24 290.16 76.24C292.093 76.24 293.82 76.1467 295.34 75.96C295.927 75.9067 296.273 75.88 296.38 75.88C297.167 75.88 297.56 75.9667 297.56 76.14C297.56 76.34 297.467 76.4733 297.28 76.54C297.093 76.5933 296.753 76.6467 296.26 76.7Z" fill="black"/>
<path d="M294.8 70.848C294.363 70.848 293.984 70.7147 293.664 70.448C293.344 70.1707 292.997 69.7867 292.624 69.296C292.347 68.9333 292.117 68.672 291.936 68.512C291.765 68.3413 291.584 68.256 291.392 68.256C290.88 68.256 290.416 68.448 290 68.832C289.595 69.216 289.259 69.696 288.992 70.272C288.971 70.3147 288.944 70.4053 288.912 70.544C288.88 70.672 288.843 70.7733 288.8 70.848C288.768 70.912 288.715 70.944 288.64 70.944C288.427 70.944 288.32 70.7627 288.32 70.4C288.32 70.0267 288.448 69.648 288.704 69.264C289.013 68.784 289.419 68.3733 289.92 68.032C290.432 67.68 290.907 67.504 291.344 67.504C291.664 67.504 291.947 67.616 292.192 67.84C292.448 68.0533 292.747 68.3787 293.088 68.816C293.429 69.2533 293.728 69.5893 293.984 69.824C294.251 70.048 294.549 70.16 294.88 70.16C295.232 70.16 295.499 69.9947 295.68 69.664C295.872 69.3333 296.032 68.9227 296.16 68.432C296.277 67.9947 296.443 67.776 296.656 67.776C296.837 67.776 296.928 67.8613 296.928 68.032C296.928 68.4587 296.832 68.8907 296.64 69.328C296.448 69.7653 296.187 70.128 295.856 70.416C295.536 70.704 295.184 70.848 294.8 70.848Z" fill="black"/>
</svg>
