<svg width="585" height="70" viewBox="0 0 585 70" fill="none" xmlns="http://www.w3.org/2000/svg">
<path d="M178.792 28.15C178.644 28.166 178.404 28.198 178.072 28.246C177.784 28.29 177.588 28.318 177.484 28.33L177.01 28.402C176.758 28.442 176.552 28.47 176.392 28.486C176.236 28.506 176.064 28.516 175.876 28.516C175.808 28.516 175.744 28.492 175.684 28.444C175.628 28.396 175.6 28.328 175.6 28.24C175.6 28.192 175.608 28.154 175.624 28.126C175.64 28.098 175.666 28.064 175.702 28.024C175.934 27.792 176.132 27.584 176.296 27.4C176.464 27.216 176.67 26.978 176.914 26.686C177.162 26.386 177.346 26.13 177.466 25.918C177.59 25.706 177.652 25.486 177.652 25.258C177.652 25.05 177.59 24.89 177.466 24.778C177.346 24.662 177.188 24.604 176.992 24.604C176.844 24.604 176.714 24.626 176.602 24.67C176.49 24.71 176.334 24.788 176.134 24.904C176.086 24.928 176.034 24.964 175.978 25.012C175.922 25.056 175.886 25.084 175.87 25.096C175.814 25.144 175.758 25.186 175.702 25.222C175.65 25.258 175.61 25.276 175.582 25.276C175.486 25.276 175.438 25.222 175.438 25.114C175.438 25.022 175.49 24.94 175.594 24.868C175.618 24.852 175.704 24.802 175.852 24.718C175.94 24.674 176.01 24.636 176.062 24.604C176.246 24.5 176.406 24.426 176.542 24.382C176.682 24.338 176.848 24.316 177.04 24.316C177.316 24.316 177.538 24.402 177.706 24.574C177.878 24.746 177.964 24.964 177.964 25.228C177.964 25.428 177.918 25.63 177.826 25.834C177.738 26.034 177.638 26.21 177.526 26.362C177.414 26.514 177.28 26.682 177.124 26.866C177.04 26.966 176.828 27.2 176.488 27.568L176.176 27.91C176.164 27.922 176.13 27.956 176.074 28.012C176.022 28.072 175.996 28.114 175.996 28.138C175.996 28.186 176.044 28.21 176.14 28.21C176.268 28.21 176.436 28.192 176.644 28.156C176.856 28.12 176.982 28.098 177.022 28.09L177.544 28C177.624 27.988 177.822 27.962 178.138 27.922C178.418 27.886 178.592 27.86 178.66 27.844C178.712 27.812 178.768 27.782 178.828 27.754C178.888 27.722 178.928 27.706 178.948 27.706C179.028 27.706 179.068 27.78 179.068 27.928C179.068 27.98 179.042 28.024 178.99 28.06C178.942 28.1 178.876 28.13 178.792 28.15Z" fill="black"/>
<path d="M145.6 35.5L144.26 35.66C143.94 35.7 143.64 35.7333 143.36 35.76C143.08 35.7733 142.74 35.78 142.34 35.78C142.167 35.78 142.013 35.7467 141.88 35.68C141.747 35.6133 141.68 35.5 141.68 35.34C141.68 35.1667 141.74 35.0533 141.86 35C141.98 34.9467 142.18 34.92 142.46 34.92C142.967 34.92 143.32 34.92 143.52 34.92C143.733 34.9067 143.92 34.88 144.08 34.84C144.133 34.8267 144.287 34.8 144.54 34.76C144.793 34.7067 145.2 34.64 145.76 34.56C145.867 34.5467 145.953 34.46 146.02 34.3C146.1 34.14 146.18 34.06 146.26 34.06C146.407 34.06 146.553 34.1467 146.7 34.32C146.86 34.48 146.94 34.6467 146.94 34.82C146.94 35.0467 146.847 35.2067 146.66 35.3C146.473 35.38 146.12 35.4467 145.6 35.5Z" fill="black"/>
<path d="M6.92242 56.36C5.77576 56.36 5.00242 56.2533 4.60242 56.04C4.20242 55.8267 4.00242 55.5333 4.00242 55.16C4.00242 54.92 4.30909 54.5067 4.92242 53.92C5.53576 53.3067 5.94909 53 6.16242 53C6.48242 53 6.64242 53.0667 6.64242 53.2C6.64242 53.3067 6.57576 53.4133 6.44242 53.52C6.30909 53.6267 6.24242 53.72 6.24242 53.8C6.24242 53.9067 6.40242 54.0133 6.72242 54.12C7.06909 54.2267 7.48242 54.28 7.96242 54.28C9.08242 54.28 10.2024 54.08 11.3224 53.68C12.4691 53.2533 13.4024 52.7067 14.1224 52.04C14.8424 51.3733 15.2024 50.6667 15.2024 49.92C15.2024 49.2 14.9758 48.6267 14.5224 48.2C14.0691 47.7733 13.4958 47.4667 12.8024 47.28C12.1358 47.0667 11.0024 46.7733 9.40242 46.4C7.64242 46 6.26909 45.6533 5.28242 45.36C4.32242 45.04 3.54909 44.6533 2.96242 44.2C2.37576 43.72 2.08242 43.12 2.08242 42.4C2.08242 41.12 2.70909 39.9467 3.96242 38.88C5.21576 37.8133 6.65576 36.9733 8.28242 36.36C9.90909 35.7467 11.1624 35.44 12.0424 35.44C12.9491 35.44 13.4024 35.7067 13.4024 36.24C13.4024 36.56 13.2958 36.92 13.0824 37.32C12.8691 37.6933 12.5491 37.88 12.1224 37.88C11.9624 37.88 11.7891 37.8267 11.6024 37.72C11.4158 37.5867 11.2291 37.52 11.0424 37.52C10.5091 37.52 9.66909 37.6933 8.52242 38.04C7.37576 38.3867 6.33576 38.9067 5.40242 39.6C4.46909 40.2933 4.00242 41.1333 4.00242 42.12C4.00242 42.76 4.36242 43.24 5.08242 43.56C5.82909 43.8533 7.20242 44.2267 9.20242 44.68C9.44242 44.76 9.68242 44.8267 9.92242 44.88C10.1624 44.9067 10.3758 44.9467 10.5624 45C12.6158 45.48 14.1891 46.0267 15.2824 46.64C16.3758 47.2533 16.9224 48.1733 16.9224 49.4C16.9224 50.5733 16.4424 51.7067 15.4824 52.8C14.5491 53.8667 13.3091 54.72 11.7624 55.36C10.2158 56.0267 8.60242 56.36 6.92242 56.36Z" fill="black"/>
<path d="M29.3824 45.38C28.5291 45.4733 27.4291 45.5467 26.0824 45.6C24.7491 45.64 23.6624 45.66 22.8224 45.66C22.6491 45.66 22.4958 45.6267 22.3624 45.56C22.2291 45.4933 22.1624 45.38 22.1624 45.22C22.1624 45.0467 22.2224 44.9333 22.3424 44.88C22.4624 44.8267 22.6624 44.8 22.9424 44.8C24.1158 44.8 25.2224 44.78 26.2624 44.74C27.3024 44.7 28.3958 44.6 29.5424 44.44C29.6491 44.4267 29.7358 44.34 29.8024 44.18C29.8824 44.02 29.9624 43.94 30.0424 43.94C30.1891 43.94 30.3358 44.0267 30.4824 44.2C30.6424 44.36 30.7224 44.5267 30.7224 44.7C30.7224 44.9267 30.6291 45.0867 30.4424 45.18C30.2558 45.26 29.9024 45.3267 29.3824 45.38ZM29.7424 48.7C27.4358 48.9667 25.4291 49.1 23.7224 49.1C23.5224 49.1 23.3291 49.0667 23.1424 49C22.9558 48.92 22.8624 48.8067 22.8624 48.66C22.8624 48.4867 22.9224 48.3733 23.0424 48.32C23.1624 48.2667 23.3624 48.24 23.6424 48.24C25.5758 48.24 27.3024 48.1467 28.8224 47.96C29.4091 47.9067 29.7558 47.88 29.8624 47.88C30.6491 47.88 31.0424 47.9667 31.0424 48.14C31.0424 48.34 30.9491 48.4733 30.7624 48.54C30.5758 48.5933 30.2358 48.6467 29.7424 48.7Z" fill="black"/>
<path d="M208.9 48.38C208.047 48.4733 206.947 48.5467 205.6 48.6C204.267 48.64 203.18 48.66 202.34 48.66C202.167 48.66 202.013 48.6267 201.88 48.56C201.747 48.4933 201.68 48.38 201.68 48.22C201.68 48.0467 201.74 47.9333 201.86 47.88C201.98 47.8267 202.18 47.8 202.46 47.8C203.633 47.8 204.74 47.78 205.78 47.74C206.82 47.7 207.913 47.6 209.06 47.44C209.167 47.4267 209.253 47.34 209.32 47.18C209.4 47.02 209.48 46.94 209.56 46.94C209.707 46.94 209.853 47.0267 210 47.2C210.16 47.36 210.24 47.5267 210.24 47.7C210.24 47.9267 210.147 48.0867 209.96 48.18C209.773 48.26 209.42 48.3267 208.9 48.38ZM209.26 51.7C206.953 51.9667 204.947 52.1 203.24 52.1C203.04 52.1 202.847 52.0667 202.66 52C202.473 51.92 202.38 51.8067 202.38 51.66C202.38 51.4867 202.44 51.3733 202.56 51.32C202.68 51.2667 202.88 51.24 203.16 51.24C205.093 51.24 206.82 51.1467 208.34 50.96C208.927 50.9067 209.273 50.88 209.38 50.88C210.167 50.88 210.56 50.9667 210.56 51.14C210.56 51.34 210.467 51.4733 210.28 51.54C210.093 51.5933 209.753 51.6467 209.26 51.7Z" fill="black"/>
<path d="M376.9 45.38C376.047 45.4733 374.947 45.5467 373.6 45.6C372.267 45.64 371.18 45.66 370.34 45.66C370.167 45.66 370.013 45.6267 369.88 45.56C369.747 45.4933 369.68 45.38 369.68 45.22C369.68 45.0467 369.74 44.9333 369.86 44.88C369.98 44.8267 370.18 44.8 370.46 44.8C371.633 44.8 372.74 44.78 373.78 44.74C374.82 44.7 375.913 44.6 377.06 44.44C377.167 44.4267 377.253 44.34 377.32 44.18C377.4 44.02 377.48 43.94 377.56 43.94C377.707 43.94 377.853 44.0267 378 44.2C378.16 44.36 378.24 44.5267 378.24 44.7C378.24 44.9267 378.147 45.0867 377.96 45.18C377.773 45.26 377.42 45.3267 376.9 45.38ZM377.26 48.7C374.953 48.9667 372.947 49.1 371.24 49.1C371.04 49.1 370.847 49.0667 370.66 49C370.473 48.92 370.38 48.8067 370.38 48.66C370.38 48.4867 370.44 48.3733 370.56 48.32C370.68 48.2667 370.88 48.24 371.16 48.24C373.093 48.24 374.82 48.1467 376.34 47.96C376.927 47.9067 377.273 47.88 377.38 47.88C378.167 47.88 378.56 47.9667 378.56 48.14C378.56 48.34 378.467 48.4733 378.28 48.54C378.093 48.5933 377.753 48.6467 377.26 48.7Z" fill="black"/>
<path d="M491.9 45.38C491.047 45.4733 489.947 45.5467 488.6 45.6C487.267 45.64 486.18 45.66 485.34 45.66C485.167 45.66 485.013 45.6267 484.88 45.56C484.747 45.4933 484.68 45.38 484.68 45.22C484.68 45.0467 484.74 44.9333 484.86 44.88C484.98 44.8267 485.18 44.8 485.46 44.8C486.633 44.8 487.74 44.78 488.78 44.74C489.82 44.7 490.913 44.6 492.06 44.44C492.167 44.4267 492.253 44.34 492.32 44.18C492.4 44.02 492.48 43.94 492.56 43.94C492.707 43.94 492.853 44.0267 493 44.2C493.16 44.36 493.24 44.5267 493.24 44.7C493.24 44.9267 493.147 45.0867 492.96 45.18C492.773 45.26 492.42 45.3267 491.9 45.38ZM492.26 48.7C489.953 48.9667 487.947 49.1 486.24 49.1C486.04 49.1 485.847 49.0667 485.66 49C485.473 48.92 485.38 48.8067 485.38 48.66C485.38 48.4867 485.44 48.3733 485.56 48.32C485.68 48.2667 485.88 48.24 486.16 48.24C488.093 48.24 489.82 48.1467 491.34 47.96C491.927 47.9067 492.273 47.88 492.38 47.88C493.167 47.88 493.56 47.9667 493.56 48.14C493.56 48.34 493.467 48.4733 493.28 48.54C493.093 48.5933 492.753 48.6467 492.26 48.7Z" fill="black"/>
<path d="M72.04 30.8C71.9 31.01 71.83 31.14 71.83 31.19C71.83 31.94 71.865 33.365 71.935 35.465C71.995 37.005 72.025 38.06 72.025 38.63C72.025 38.8 71.96 38.95 71.83 39.08C71.71 39.22 71.59 39.29 71.47 39.29C71.33 39.29 71.23 39.265 71.17 39.215C71.11 39.175 71.08 39.105 71.08 39.005L71.11 38.555C71.17 38.055 71.2 37.565 71.2 37.085C71.2 36.805 71.185 35.645 71.155 33.605L71.14 32.285C70.62 33.085 70.145 33.755 69.715 34.295C69.285 34.825 68.795 35.275 68.245 35.645C67.695 36.005 67.105 36.185 66.475 36.185C65.865 36.185 65.4 36 65.08 35.63C64.76 35.25 64.6 34.755 64.6 34.145C64.6 33.255 64.875 32.34 65.425 31.4C65.985 30.46 66.695 29.685 67.555 29.075C68.425 28.465 69.3 28.16 70.18 28.16C70.63 28.16 71.005 28.305 71.305 28.595C71.615 28.875 71.815 29.23 71.905 29.66C72.025 29.68 72.13 29.73 72.22 29.81C72.32 29.89 72.37 29.995 72.37 30.125C72.37 30.225 72.26 30.45 72.04 30.8ZM70.885 31.295C70.965 31.185 71.075 31.02 71.215 30.8V30.785C71.245 30.675 71.26 30.545 71.26 30.395C71.26 29.965 71.135 29.615 70.885 29.345C70.645 29.075 70.285 28.94 69.805 28.94C69.195 28.94 68.54 29.21 67.84 29.75C67.15 30.28 66.57 30.955 66.1 31.775C65.63 32.585 65.395 33.38 65.395 34.16C65.395 34.48 65.505 34.76 65.725 35C65.945 35.24 66.25 35.36 66.64 35.36C67.14 35.36 67.625 35.175 68.095 34.805C68.575 34.425 69.02 33.965 69.43 33.425C69.84 32.875 70.325 32.165 70.885 31.295ZM81.4004 30.8C81.2604 31.01 81.1904 31.14 81.1904 31.19C81.1904 31.94 81.2254 33.365 81.2954 35.465C81.3554 37.005 81.3854 38.06 81.3854 38.63C81.3854 38.8 81.3204 38.95 81.1904 39.08C81.0704 39.22 80.9504 39.29 80.8304 39.29C80.6904 39.29 80.5904 39.265 80.5304 39.215C80.4704 39.175 80.4404 39.105 80.4404 39.005L80.4704 38.555C80.5304 38.055 80.5604 37.565 80.5604 37.085C80.5604 36.805 80.5454 35.645 80.5154 33.605L80.5004 32.285C79.9804 33.085 79.5054 33.755 79.0754 34.295C78.6454 34.825 78.1554 35.275 77.6054 35.645C77.0554 36.005 76.4654 36.185 75.8354 36.185C75.2254 36.185 74.7604 36 74.4404 35.63C74.1204 35.25 73.9604 34.755 73.9604 34.145C73.9604 33.255 74.2354 32.34 74.7854 31.4C75.3454 30.46 76.0554 29.685 76.9154 29.075C77.7854 28.465 78.6604 28.16 79.5404 28.16C79.9904 28.16 80.3654 28.305 80.6654 28.595C80.9754 28.875 81.1754 29.23 81.2654 29.66C81.3854 29.68 81.4904 29.73 81.5804 29.81C81.6804 29.89 81.7304 29.995 81.7304 30.125C81.7304 30.225 81.6204 30.45 81.4004 30.8ZM80.2454 31.295C80.3254 31.185 80.4354 31.02 80.5754 30.8V30.785C80.6054 30.675 80.6204 30.545 80.6204 30.395C80.6204 29.965 80.4954 29.615 80.2454 29.345C80.0054 29.075 79.6454 28.94 79.1654 28.94C78.5554 28.94 77.9004 29.21 77.2004 29.75C76.5104 30.28 75.9304 30.955 75.4604 31.775C74.9904 32.585 74.7554 33.38 74.7554 34.16C74.7554 34.48 74.8654 34.76 75.0854 35C75.3054 35.24 75.6104 35.36 76.0004 35.36C76.5004 35.36 76.9854 35.175 77.4554 34.805C77.9354 34.425 78.3804 33.965 78.7904 33.425C79.2004 32.875 79.6854 32.165 80.2454 31.295ZM90.2957 39.035C90.0857 39.035 89.9257 38.68 89.8157 37.97C89.7157 37.26 89.6257 36.295 89.5457 35.075C89.2957 35.115 88.8707 35.205 88.2707 35.345C87.6707 35.475 87.1157 35.605 86.6057 35.735C84.8057 36.185 83.7907 36.41 83.5607 36.41C83.4907 36.41 83.3907 36.355 83.2607 36.245C83.1407 36.135 83.0807 36.03 83.0807 35.93C83.0807 35.82 83.1457 35.705 83.2757 35.585C83.4457 35.435 83.8807 34.98 84.5807 34.22C85.1907 33.54 85.7507 32.945 86.2607 32.435C86.7807 31.915 87.5807 30.98 88.6607 29.63C89.0207 29.18 89.2507 28.9 89.3507 28.79C89.4907 28.63 89.5907 28.495 89.6507 28.385C89.7107 28.265 89.7557 28.185 89.7857 28.145C89.8157 28.105 89.8657 28.085 89.9357 28.085C90.0557 28.085 90.1857 28.145 90.3257 28.265C90.4657 28.385 90.5357 28.51 90.5357 28.64C90.5357 28.67 90.5057 28.735 90.4457 28.835C90.3757 28.975 90.3357 29.14 90.3257 29.33C90.3057 29.66 90.2957 31.03 90.2957 33.44C90.2957 33.85 90.3007 34.145 90.3107 34.325L90.6107 34.265C91.2107 34.145 91.7057 34.06 92.0957 34.01C92.1757 34 92.2407 33.935 92.2907 33.815C92.3507 33.695 92.4107 33.635 92.4707 33.635C92.5807 33.635 92.6907 33.7 92.8007 33.83C92.9207 33.95 92.9807 34.075 92.9807 34.205C92.9807 34.375 92.9107 34.495 92.7707 34.565C92.6307 34.625 92.3657 34.675 91.9757 34.715L90.8057 34.85L90.3557 34.91C90.4257 35.94 90.5607 36.925 90.7607 37.865C90.8307 38.255 90.8657 38.495 90.8657 38.585C90.8657 38.695 90.8057 38.795 90.6857 38.885C90.5757 38.985 90.4457 39.035 90.2957 39.035ZM86.7557 32.81C85.8357 33.8 85.0207 34.695 84.3107 35.495L85.3307 35.27C85.8807 35.17 86.2557 35.095 86.4557 35.045C87.0557 34.905 87.7557 34.76 88.5557 34.61L89.5007 34.415C89.4707 34.025 89.4557 33.72 89.4557 33.5C89.4557 32.84 89.4607 32.105 89.4707 31.295C89.4907 30.485 89.5057 29.975 89.5157 29.765C89.3357 29.965 88.9807 30.36 88.4507 30.95C87.9307 31.53 87.3657 32.15 86.7557 32.81ZM101.234 30.8C101.094 31.01 101.024 31.14 101.024 31.19C101.024 31.94 101.059 33.365 101.129 35.465C101.189 37.005 101.219 38.06 101.219 38.63C101.219 38.8 101.154 38.95 101.024 39.08C100.904 39.22 100.784 39.29 100.664 39.29C100.524 39.29 100.424 39.265 100.364 39.215C100.304 39.175 100.274 39.105 100.274 39.005L100.304 38.555C100.364 38.055 100.394 37.565 100.394 37.085C100.394 36.805 100.379 35.645 100.349 33.605L100.334 32.285C99.8143 33.085 99.3393 33.755 98.9093 34.295C98.4793 34.825 97.9893 35.275 97.4393 35.645C96.8893 36.005 96.2993 36.185 95.6693 36.185C95.0593 36.185 94.5943 36 94.2743 35.63C93.9543 35.25 93.7943 34.755 93.7943 34.145C93.7943 33.255 94.0693 32.34 94.6193 31.4C95.1793 30.46 95.8893 29.685 96.7493 29.075C97.6193 28.465 98.4943 28.16 99.3743 28.16C99.8243 28.16 100.199 28.305 100.499 28.595C100.809 28.875 101.009 29.23 101.099 29.66C101.219 29.68 101.324 29.73 101.414 29.81C101.514 29.89 101.564 29.995 101.564 30.125C101.564 30.225 101.454 30.45 101.234 30.8ZM100.079 31.295C100.159 31.185 100.269 31.02 100.409 30.8V30.785C100.439 30.675 100.454 30.545 100.454 30.395C100.454 29.965 100.329 29.615 100.079 29.345C99.8393 29.075 99.4793 28.94 98.9993 28.94C98.3893 28.94 97.7343 29.21 97.0343 29.75C96.3443 30.28 95.7643 30.955 95.2943 31.775C94.8243 32.585 94.5893 33.38 94.5893 34.16C94.5893 34.48 94.6993 34.76 94.9193 35C95.1393 35.24 95.4443 35.36 95.8343 35.36C96.3343 35.36 96.8193 35.175 97.2893 34.805C97.7693 34.425 98.2143 33.965 98.6243 33.425C99.0343 32.875 99.5193 32.165 100.079 31.295ZM112.035 38.375C111.665 38.415 111.065 38.495 110.235 38.615C109.515 38.725 109.025 38.795 108.765 38.825L107.58 39.005C106.95 39.105 106.435 39.175 106.035 39.215C105.645 39.265 105.215 39.29 104.745 39.29C104.575 39.29 104.415 39.23 104.265 39.11C104.125 38.99 104.055 38.82 104.055 38.6C104.055 38.48 104.075 38.385 104.115 38.315C104.155 38.245 104.22 38.16 104.31 38.06C104.89 37.48 105.385 36.96 105.795 36.5C106.215 36.04 106.73 35.445 107.34 34.715C107.96 33.965 108.42 33.325 108.72 32.795C109.03 32.265 109.185 31.715 109.185 31.145C109.185 30.625 109.03 30.225 108.72 29.945C108.42 29.655 108.025 29.51 107.535 29.51C107.165 29.51 106.84 29.565 106.56 29.675C106.28 29.775 105.89 29.97 105.39 30.26C105.27 30.32 105.14 30.41 105 30.53C104.86 30.64 104.77 30.71 104.73 30.74C104.59 30.86 104.45 30.965 104.31 31.055C104.18 31.145 104.08 31.19 104.01 31.19C103.77 31.19 103.65 31.055 103.65 30.785C103.65 30.555 103.78 30.35 104.04 30.17C104.1 30.13 104.315 30.005 104.685 29.795C104.905 29.685 105.08 29.59 105.21 29.51C105.67 29.25 106.07 29.065 106.41 28.955C106.76 28.845 107.175 28.79 107.655 28.79C108.345 28.79 108.9 29.005 109.32 29.435C109.75 29.865 109.965 30.41 109.965 31.07C109.965 31.57 109.85 32.075 109.62 32.585C109.4 33.085 109.15 33.525 108.87 33.905C108.59 34.285 108.255 34.705 107.865 35.165C107.655 35.415 107.125 36 106.275 36.92L105.495 37.775C105.465 37.805 105.38 37.89 105.24 38.03C105.11 38.18 105.045 38.285 105.045 38.345C105.045 38.465 105.165 38.525 105.405 38.525C105.725 38.525 106.145 38.48 106.665 38.39C107.195 38.3 107.51 38.245 107.61 38.225L108.915 38C109.115 37.97 109.61 37.905 110.4 37.805C111.1 37.715 111.535 37.65 111.705 37.61C111.835 37.53 111.975 37.455 112.125 37.385C112.275 37.305 112.375 37.265 112.425 37.265C112.625 37.265 112.725 37.45 112.725 37.82C112.725 37.95 112.66 38.06 112.53 38.15C112.41 38.25 112.245 38.325 112.035 38.375ZM122.333 38.375C121.963 38.415 121.363 38.495 120.533 38.615C119.813 38.725 119.323 38.795 119.063 38.825L117.878 39.005C117.248 39.105 116.733 39.175 116.333 39.215C115.943 39.265 115.513 39.29 115.043 39.29C114.873 39.29 114.713 39.23 114.563 39.11C114.423 38.99 114.353 38.82 114.353 38.6C114.353 38.48 114.373 38.385 114.413 38.315C114.453 38.245 114.518 38.16 114.608 38.06C115.188 37.48 115.683 36.96 116.093 36.5C116.513 36.04 117.028 35.445 117.638 34.715C118.258 33.965 118.718 33.325 119.018 32.795C119.328 32.265 119.483 31.715 119.483 31.145C119.483 30.625 119.328 30.225 119.018 29.945C118.718 29.655 118.323 29.51 117.833 29.51C117.463 29.51 117.138 29.565 116.858 29.675C116.578 29.775 116.188 29.97 115.688 30.26C115.568 30.32 115.438 30.41 115.298 30.53C115.158 30.64 115.068 30.71 115.028 30.74C114.888 30.86 114.748 30.965 114.608 31.055C114.478 31.145 114.378 31.19 114.308 31.19C114.068 31.19 113.948 31.055 113.948 30.785C113.948 30.555 114.078 30.35 114.338 30.17C114.398 30.13 114.613 30.005 114.983 29.795C115.203 29.685 115.378 29.59 115.508 29.51C115.968 29.25 116.368 29.065 116.708 28.955C117.058 28.845 117.473 28.79 117.953 28.79C118.643 28.79 119.198 29.005 119.618 29.435C120.048 29.865 120.263 30.41 120.263 31.07C120.263 31.57 120.148 32.075 119.918 32.585C119.698 33.085 119.448 33.525 119.168 33.905C118.888 34.285 118.553 34.705 118.163 35.165C117.953 35.415 117.423 36 116.573 36.92L115.793 37.775C115.763 37.805 115.678 37.89 115.538 38.03C115.408 38.18 115.343 38.285 115.343 38.345C115.343 38.465 115.463 38.525 115.703 38.525C116.023 38.525 116.443 38.48 116.963 38.39C117.493 38.3 117.808 38.245 117.908 38.225L119.213 38C119.413 37.97 119.908 37.905 120.698 37.805C121.398 37.715 121.833 37.65 122.003 37.61C122.133 37.53 122.273 37.455 122.423 37.385C122.573 37.305 122.673 37.265 122.723 37.265C122.923 37.265 123.023 37.45 123.023 37.82C123.023 37.95 122.958 38.06 122.828 38.15C122.708 38.25 122.543 38.325 122.333 38.375ZM125.235 38.375C125.045 38.375 124.87 38.265 124.71 38.045C124.56 37.835 124.435 37.6 124.335 37.34C124.245 37.07 124.2 36.895 124.2 36.815C124.2 36.705 124.25 36.6 124.35 36.5C124.46 36.4 124.57 36.35 124.68 36.35C124.75 36.35 124.805 36.38 124.845 36.44C124.885 36.49 124.945 36.58 125.025 36.71C125.125 36.89 125.21 37.005 125.28 37.055C125.41 37.155 125.515 37.34 125.595 37.61C125.685 37.88 125.73 38.06 125.73 38.15C125.73 38.3 125.565 38.375 125.235 38.375ZM133.784 28.64C133.784 28.81 133.694 28.91 133.514 28.94C132.904 29.05 132.354 29.16 131.864 29.27C131.384 29.37 130.954 29.475 130.574 29.585C130.324 29.655 130.099 29.725 129.899 29.795C129.709 29.855 129.544 29.915 129.404 29.975C129.264 30.035 129.119 30.105 128.969 30.185C128.829 30.255 128.679 30.335 128.519 30.425C128.519 31.045 128.354 32.14 128.024 33.71L128.774 33.44C129.024 33.35 129.294 33.265 129.584 33.185C129.874 33.105 130.169 33.035 130.469 32.975C130.769 32.915 131.069 32.865 131.369 32.825C131.669 32.785 131.954 32.765 132.224 32.765C132.774 32.765 133.189 32.905 133.469 33.185C133.749 33.455 133.889 33.845 133.889 34.355C133.889 35.075 133.679 35.755 133.259 36.395C132.839 37.025 132.224 37.6 131.414 38.12C130.954 38.41 130.614 38.62 130.394 38.75C130.184 38.89 130.024 38.985 129.914 39.035C129.594 39.195 129.364 39.275 129.224 39.275C129.084 39.275 128.969 39.215 128.879 39.095C128.789 38.975 128.744 38.86 128.744 38.75C128.744 38.61 128.834 38.515 129.014 38.465L129.329 38.375C129.499 38.325 129.654 38.27 129.794 38.21C129.944 38.15 130.074 38.095 130.184 38.045C130.424 37.945 130.724 37.78 131.084 37.55C131.774 37.1 132.274 36.63 132.584 36.14C132.904 35.65 133.064 35.12 133.064 34.55C133.064 34.15 132.974 33.87 132.794 33.71C132.624 33.55 132.364 33.47 132.014 33.47C131.594 33.47 131.154 33.53 130.694 33.65C130.234 33.76 129.694 33.91 129.074 34.1C128.844 34.18 128.664 34.245 128.534 34.295C128.404 34.335 128.324 34.36 128.294 34.37C128.224 34.39 128.144 34.43 128.054 34.49C127.964 34.55 127.884 34.6 127.814 34.64C127.724 34.7 127.644 34.73 127.574 34.73C127.504 34.73 127.454 34.725 127.424 34.715C127.244 34.685 127.154 34.565 127.154 34.355C127.154 34.325 127.199 34.075 127.289 33.605C127.419 32.915 127.524 32.33 127.604 31.85C127.684 31.36 127.724 30.95 127.724 30.62C127.654 30.54 127.619 30.435 127.619 30.305C127.619 30.125 127.794 29.94 128.144 29.75C128.494 29.56 129.059 29.335 129.839 29.075C130.439 28.875 131.064 28.715 131.714 28.595C132.364 28.465 132.959 28.4 133.499 28.4C133.689 28.4 133.784 28.48 133.784 28.64Z" fill="black"/>
<path d="M261.455 34.64C261.455 34.81 261.365 34.91 261.185 34.94C260.575 35.05 260.025 35.16 259.535 35.27C259.055 35.37 258.625 35.475 258.245 35.585C257.995 35.655 257.77 35.725 257.57 35.795C257.38 35.855 257.215 35.915 257.075 35.975C256.935 36.035 256.79 36.105 256.64 36.185C256.5 36.255 256.35 36.335 256.19 36.425C256.19 37.045 256.025 38.14 255.695 39.71L256.445 39.44C256.695 39.35 256.965 39.265 257.255 39.185C257.545 39.105 257.84 39.035 258.14 38.975C258.44 38.915 258.74 38.865 259.04 38.825C259.34 38.785 259.625 38.765 259.895 38.765C260.445 38.765 260.86 38.905 261.14 39.185C261.42 39.455 261.56 39.845 261.56 40.355C261.56 41.075 261.35 41.755 260.93 42.395C260.51 43.025 259.895 43.6 259.085 44.12C258.625 44.41 258.285 44.62 258.065 44.75C257.855 44.89 257.695 44.985 257.585 45.035C257.265 45.195 257.035 45.275 256.895 45.275C256.755 45.275 256.64 45.215 256.55 45.095C256.46 44.975 256.415 44.86 256.415 44.75C256.415 44.61 256.505 44.515 256.685 44.465L257 44.375C257.17 44.325 257.325 44.27 257.465 44.21C257.615 44.15 257.745 44.095 257.855 44.045C258.095 43.945 258.395 43.78 258.755 43.55C259.445 43.1 259.945 42.63 260.255 42.14C260.575 41.65 260.735 41.12 260.735 40.55C260.735 40.15 260.645 39.87 260.465 39.71C260.295 39.55 260.035 39.47 259.685 39.47C259.265 39.47 258.825 39.53 258.365 39.65C257.905 39.76 257.365 39.91 256.745 40.1C256.515 40.18 256.335 40.245 256.205 40.295C256.075 40.335 255.995 40.36 255.965 40.37C255.895 40.39 255.815 40.43 255.725 40.49C255.635 40.55 255.555 40.6 255.485 40.64C255.395 40.7 255.315 40.73 255.245 40.73C255.175 40.73 255.125 40.725 255.095 40.715C254.915 40.685 254.825 40.565 254.825 40.355C254.825 40.325 254.87 40.075 254.96 39.605C255.09 38.915 255.195 38.33 255.275 37.85C255.355 37.36 255.395 36.95 255.395 36.62C255.325 36.54 255.29 36.435 255.29 36.305C255.29 36.125 255.465 35.94 255.815 35.75C256.165 35.56 256.73 35.335 257.51 35.075C258.11 34.875 258.735 34.715 259.385 34.595C260.035 34.465 260.63 34.4 261.17 34.4C261.36 34.4 261.455 34.48 261.455 34.64ZM265.321 45.245C264.601 45.245 264.046 44.975 263.656 44.435C263.266 43.895 263.071 43.195 263.071 42.335C263.071 41.305 263.196 40.265 263.446 39.215C263.706 38.155 264.051 37.2 264.481 36.35C264.401 36.35 264.326 36.32 264.256 36.26C264.186 36.2 264.151 36.125 264.151 36.035C264.151 35.905 264.226 35.785 264.376 35.675C264.536 35.565 264.721 35.485 264.931 35.435C264.951 35.415 264.986 35.375 265.036 35.315C265.086 35.245 265.156 35.21 265.246 35.21C265.346 35.21 265.441 35.23 265.531 35.27C265.621 35.3 265.676 35.335 265.696 35.375C265.976 35.325 266.261 35.3 266.551 35.3C267.231 35.3 267.841 35.485 268.381 35.855C268.921 36.225 269.346 36.74 269.656 37.4C269.966 38.05 270.121 38.78 270.121 39.59C270.121 40.47 269.891 41.35 269.431 42.23C268.981 43.11 268.381 43.83 267.631 44.39C266.891 44.96 266.121 45.245 265.321 45.245ZM266.611 36.215C266.381 36.215 266.076 36.245 265.696 36.305L265.381 36.35C264.921 37.17 264.561 38.135 264.301 39.245C264.051 40.355 263.926 41.38 263.926 42.32C263.926 42.95 264.046 43.47 264.286 43.88C264.536 44.28 264.926 44.48 265.456 44.48C266.066 44.48 266.681 44.225 267.301 43.715C267.921 43.195 268.431 42.555 268.831 41.795C269.231 41.035 269.431 40.31 269.431 39.62C269.431 39.01 269.296 38.445 269.026 37.925C268.766 37.395 268.416 36.98 267.976 36.68C267.546 36.37 267.091 36.215 266.611 36.215ZM278.213 34.64C278.213 34.81 278.123 34.91 277.943 34.94C277.333 35.05 276.783 35.16 276.293 35.27C275.813 35.37 275.383 35.475 275.003 35.585C274.753 35.655 274.528 35.725 274.328 35.795C274.138 35.855 273.973 35.915 273.833 35.975C273.693 36.035 273.548 36.105 273.398 36.185C273.258 36.255 273.108 36.335 272.948 36.425C272.948 37.045 272.783 38.14 272.453 39.71L273.203 39.44C273.453 39.35 273.723 39.265 274.013 39.185C274.303 39.105 274.598 39.035 274.898 38.975C275.198 38.915 275.498 38.865 275.798 38.825C276.098 38.785 276.383 38.765 276.653 38.765C277.203 38.765 277.618 38.905 277.898 39.185C278.178 39.455 278.318 39.845 278.318 40.355C278.318 41.075 278.108 41.755 277.688 42.395C277.268 43.025 276.653 43.6 275.843 44.12C275.383 44.41 275.043 44.62 274.823 44.75C274.613 44.89 274.453 44.985 274.343 45.035C274.023 45.195 273.793 45.275 273.653 45.275C273.513 45.275 273.398 45.215 273.308 45.095C273.218 44.975 273.173 44.86 273.173 44.75C273.173 44.61 273.263 44.515 273.443 44.465L273.758 44.375C273.928 44.325 274.083 44.27 274.223 44.21C274.373 44.15 274.503 44.095 274.613 44.045C274.853 43.945 275.153 43.78 275.513 43.55C276.203 43.1 276.703 42.63 277.013 42.14C277.333 41.65 277.493 41.12 277.493 40.55C277.493 40.15 277.403 39.87 277.223 39.71C277.053 39.55 276.793 39.47 276.443 39.47C276.023 39.47 275.583 39.53 275.123 39.65C274.663 39.76 274.123 39.91 273.503 40.1C273.273 40.18 273.093 40.245 272.963 40.295C272.833 40.335 272.753 40.36 272.723 40.37C272.653 40.39 272.573 40.43 272.483 40.49C272.393 40.55 272.313 40.6 272.243 40.64C272.153 40.7 272.073 40.73 272.003 40.73C271.933 40.73 271.883 40.725 271.853 40.715C271.673 40.685 271.583 40.565 271.583 40.355C271.583 40.325 271.628 40.075 271.718 39.605C271.848 38.915 271.953 38.33 272.033 37.85C272.113 37.36 272.153 36.95 272.153 36.62C272.083 36.54 272.048 36.435 272.048 36.305C272.048 36.125 272.223 35.94 272.573 35.75C272.923 35.56 273.488 35.335 274.268 35.075C274.868 34.875 275.493 34.715 276.143 34.595C276.793 34.465 277.388 34.4 277.928 34.4C278.118 34.4 278.213 34.48 278.213 34.64ZM280.054 45.875C279.954 45.875 279.869 45.845 279.799 45.785C279.739 45.735 279.709 45.665 279.709 45.575C279.709 45.515 279.764 45.37 279.874 45.14C279.994 44.92 280.069 44.785 280.099 44.735L280.519 43.925L280.789 43.235C280.899 42.935 280.989 42.715 281.059 42.575C281.129 42.425 281.199 42.35 281.269 42.35C281.379 42.35 281.494 42.415 281.614 42.545C281.744 42.665 281.809 42.78 281.809 42.89C281.809 43.04 281.689 43.365 281.449 43.865C281.219 44.365 280.964 44.825 280.684 45.245C280.404 45.665 280.194 45.875 280.054 45.875ZM285.258 45.245C284.538 45.245 283.983 44.975 283.593 44.435C283.203 43.895 283.008 43.195 283.008 42.335C283.008 41.305 283.133 40.265 283.383 39.215C283.643 38.155 283.988 37.2 284.418 36.35C284.338 36.35 284.263 36.32 284.193 36.26C284.123 36.2 284.088 36.125 284.088 36.035C284.088 35.905 284.163 35.785 284.313 35.675C284.473 35.565 284.658 35.485 284.868 35.435C284.888 35.415 284.923 35.375 284.973 35.315C285.023 35.245 285.093 35.21 285.183 35.21C285.283 35.21 285.378 35.23 285.468 35.27C285.558 35.3 285.613 35.335 285.633 35.375C285.913 35.325 286.198 35.3 286.488 35.3C287.168 35.3 287.778 35.485 288.318 35.855C288.858 36.225 289.283 36.74 289.593 37.4C289.903 38.05 290.058 38.78 290.058 39.59C290.058 40.47 289.828 41.35 289.368 42.23C288.918 43.11 288.318 43.83 287.568 44.39C286.828 44.96 286.058 45.245 285.258 45.245ZM286.548 36.215C286.318 36.215 286.013 36.245 285.633 36.305L285.318 36.35C284.858 37.17 284.498 38.135 284.238 39.245C283.988 40.355 283.863 41.38 283.863 42.32C283.863 42.95 283.983 43.47 284.223 43.88C284.473 44.28 284.863 44.48 285.393 44.48C286.003 44.48 286.618 44.225 287.238 43.715C287.858 43.195 288.368 42.555 288.768 41.795C289.168 41.035 289.368 40.31 289.368 39.62C289.368 39.01 289.233 38.445 288.963 37.925C288.703 37.395 288.353 36.98 287.913 36.68C287.483 36.37 287.028 36.215 286.548 36.215ZM298.269 45.035C298.059 45.035 297.899 44.68 297.789 43.97C297.689 43.26 297.599 42.295 297.519 41.075C297.269 41.115 296.844 41.205 296.244 41.345C295.644 41.475 295.089 41.605 294.579 41.735C292.779 42.185 291.764 42.41 291.534 42.41C291.464 42.41 291.364 42.355 291.234 42.245C291.114 42.135 291.054 42.03 291.054 41.93C291.054 41.82 291.119 41.705 291.249 41.585C291.419 41.435 291.854 40.98 292.554 40.22C293.164 39.54 293.724 38.945 294.234 38.435C294.754 37.915 295.554 36.98 296.634 35.63C296.994 35.18 297.224 34.9 297.324 34.79C297.464 34.63 297.564 34.495 297.624 34.385C297.684 34.265 297.729 34.185 297.759 34.145C297.789 34.105 297.839 34.085 297.909 34.085C298.029 34.085 298.159 34.145 298.299 34.265C298.439 34.385 298.509 34.51 298.509 34.64C298.509 34.67 298.479 34.735 298.419 34.835C298.349 34.975 298.309 35.14 298.299 35.33C298.279 35.66 298.269 37.03 298.269 39.44C298.269 39.85 298.274 40.145 298.284 40.325L298.584 40.265C299.184 40.145 299.679 40.06 300.069 40.01C300.149 40 300.214 39.935 300.264 39.815C300.324 39.695 300.384 39.635 300.444 39.635C300.554 39.635 300.664 39.7 300.774 39.83C300.894 39.95 300.954 40.075 300.954 40.205C300.954 40.375 300.884 40.495 300.744 40.565C300.604 40.625 300.339 40.675 299.949 40.715L298.779 40.85L298.329 40.91C298.399 41.94 298.534 42.925 298.734 43.865C298.804 44.255 298.839 44.495 298.839 44.585C298.839 44.695 298.779 44.795 298.659 44.885C298.549 44.985 298.419 45.035 298.269 45.035ZM294.729 38.81C293.809 39.8 292.994 40.695 292.284 41.495L293.304 41.27C293.854 41.17 294.229 41.095 294.429 41.045C295.029 40.905 295.729 40.76 296.529 40.61L297.474 40.415C297.444 40.025 297.429 39.72 297.429 39.5C297.429 38.84 297.434 38.105 297.444 37.295C297.464 36.485 297.479 35.975 297.489 35.765C297.309 35.965 296.954 36.36 296.424 36.95C295.904 37.53 295.339 38.15 294.729 38.81ZM308.925 40.625L307.92 40.745C307.68 40.775 307.455 40.8 307.245 40.82C307.035 40.83 306.78 40.835 306.48 40.835C306.35 40.835 306.235 40.81 306.135 40.76C306.035 40.71 305.985 40.625 305.985 40.505C305.985 40.375 306.03 40.29 306.12 40.25C306.21 40.21 306.36 40.19 306.57 40.19C306.95 40.19 307.215 40.19 307.365 40.19C307.525 40.18 307.665 40.16 307.785 40.13C307.825 40.12 307.94 40.1 308.13 40.07C308.32 40.03 308.625 39.98 309.045 39.92C309.125 39.91 309.19 39.845 309.24 39.725C309.3 39.605 309.36 39.545 309.42 39.545C309.53 39.545 309.64 39.61 309.75 39.74C309.87 39.86 309.93 39.985 309.93 40.115C309.93 40.285 309.86 40.405 309.72 40.475C309.58 40.535 309.315 40.585 308.925 40.625ZM322.454 45.035C322.244 45.035 322.084 44.68 321.974 43.97C321.874 43.26 321.784 42.295 321.704 41.075C321.454 41.115 321.029 41.205 320.429 41.345C319.829 41.475 319.274 41.605 318.764 41.735C316.964 42.185 315.949 42.41 315.719 42.41C315.649 42.41 315.549 42.355 315.419 42.245C315.299 42.135 315.239 42.03 315.239 41.93C315.239 41.82 315.304 41.705 315.434 41.585C315.604 41.435 316.039 40.98 316.739 40.22C317.349 39.54 317.909 38.945 318.419 38.435C318.939 37.915 319.739 36.98 320.819 35.63C321.179 35.18 321.409 34.9 321.509 34.79C321.649 34.63 321.749 34.495 321.809 34.385C321.869 34.265 321.914 34.185 321.944 34.145C321.974 34.105 322.024 34.085 322.094 34.085C322.214 34.085 322.344 34.145 322.484 34.265C322.624 34.385 322.694 34.51 322.694 34.64C322.694 34.67 322.664 34.735 322.604 34.835C322.534 34.975 322.494 35.14 322.484 35.33C322.464 35.66 322.454 37.03 322.454 39.44C322.454 39.85 322.459 40.145 322.469 40.325L322.769 40.265C323.369 40.145 323.864 40.06 324.254 40.01C324.334 40 324.399 39.935 324.449 39.815C324.509 39.695 324.569 39.635 324.629 39.635C324.739 39.635 324.849 39.7 324.959 39.83C325.079 39.95 325.139 40.075 325.139 40.205C325.139 40.375 325.069 40.495 324.929 40.565C324.789 40.625 324.524 40.675 324.134 40.715L322.964 40.85L322.514 40.91C322.584 41.94 322.719 42.925 322.919 43.865C322.989 44.255 323.024 44.495 323.024 44.585C323.024 44.695 322.964 44.795 322.844 44.885C322.734 44.985 322.604 45.035 322.454 45.035ZM318.914 38.81C317.994 39.8 317.179 40.695 316.469 41.495L317.489 41.27C318.039 41.17 318.414 41.095 318.614 41.045C319.214 40.905 319.914 40.76 320.714 40.61L321.659 40.415C321.629 40.025 321.614 39.72 321.614 39.5C321.614 38.84 321.619 38.105 321.629 37.295C321.649 36.485 321.664 35.975 321.674 35.765C321.494 35.965 321.139 36.36 320.609 36.95C320.089 37.53 319.524 38.15 318.914 38.81ZM329.988 45.47C329.518 45.47 329.093 45.41 328.713 45.29C328.343 45.17 328.023 44.995 327.753 44.765C327.483 44.545 327.273 44.275 327.123 43.955C326.983 43.625 326.913 43.26 326.913 42.86C326.913 42.59 326.948 42.32 327.018 42.05C327.098 41.78 327.198 41.525 327.318 41.285C327.448 41.035 327.598 40.81 327.768 40.61C327.938 40.4 328.123 40.22 328.323 40.07C328.203 40.09 328.083 40.11 327.963 40.13C327.843 40.14 327.718 40.145 327.588 40.145C327.348 40.145 327.123 40.1 326.913 40.01C326.713 39.91 326.538 39.78 326.388 39.62C326.238 39.46 326.123 39.28 326.043 39.08C325.963 38.87 325.923 38.65 325.923 38.42C325.923 37.97 325.983 37.545 326.103 37.145C326.233 36.735 326.403 36.36 326.613 36.02C326.833 35.67 327.093 35.355 327.393 35.075C327.693 34.795 328.018 34.55 328.368 34.34C328.588 34.21 328.758 34.125 328.878 34.085C328.998 34.045 329.118 34.025 329.238 34.025C329.308 34.025 329.368 34.045 329.418 34.085C329.478 34.125 329.508 34.175 329.508 34.235C329.568 34.215 329.668 34.19 329.808 34.16C329.958 34.12 330.138 34.1 330.348 34.1C330.898 34.1 331.358 34.27 331.728 34.61C332.108 34.94 332.298 35.42 332.298 36.05C332.298 36.43 332.208 36.785 332.028 37.115C331.918 37.315 331.768 37.535 331.578 37.775C331.388 38.005 331.228 38.185 331.098 38.315C331.118 38.315 331.193 38.305 331.323 38.285C331.463 38.255 331.678 38.24 331.968 38.24C332.388 38.24 332.788 38.305 333.168 38.435C333.548 38.555 333.883 38.735 334.173 38.975C334.463 39.215 334.693 39.505 334.863 39.845C335.033 40.185 335.118 40.57 335.118 41C335.118 41.54 334.968 42.08 334.668 42.62C334.368 43.15 333.973 43.625 333.483 44.045C333.003 44.465 332.453 44.805 331.833 45.065C331.223 45.335 330.608 45.47 329.988 45.47ZM330.168 34.775C329.918 34.775 329.698 34.815 329.508 34.895C329.508 34.945 329.473 35 329.403 35.06C329.343 35.11 329.278 35.135 329.208 35.135C329.108 35.135 329.003 35.145 328.893 35.165C328.783 35.175 328.668 35.19 328.548 35.21C328.288 35.3 328.043 35.455 327.813 35.675C327.583 35.885 327.383 36.135 327.213 36.425C327.043 36.705 326.903 37.015 326.793 37.355C326.693 37.695 326.643 38.03 326.643 38.36C326.643 38.7 326.738 38.965 326.928 39.155C327.128 39.335 327.418 39.425 327.798 39.425C328.188 39.425 328.603 39.32 329.043 39.11C329.483 38.9 329.888 38.63 330.258 38.3C330.628 37.97 330.933 37.605 331.173 37.205C331.413 36.795 331.533 36.4 331.533 36.02C331.533 35.63 331.403 35.325 331.143 35.105C330.893 34.885 330.568 34.775 330.168 34.775ZM330.273 39.14C329.463 39.6 328.823 40.15 328.353 40.79C327.883 41.42 327.648 42.08 327.648 42.77C327.648 43.46 327.853 43.965 328.263 44.285C328.673 44.605 329.253 44.765 330.003 44.765C330.503 44.765 331.013 44.66 331.533 44.45C332.053 44.24 332.523 43.965 332.943 43.625C333.373 43.275 333.723 42.88 333.993 42.44C334.263 41.99 334.398 41.525 334.398 41.045C334.398 40.715 334.328 40.415 334.188 40.145C334.058 39.875 333.873 39.65 333.633 39.47C333.403 39.28 333.128 39.135 332.808 39.035C332.488 38.935 332.138 38.885 331.758 38.885C331.218 38.885 330.723 38.97 330.273 39.14ZM343.328 45.035C343.118 45.035 342.958 44.68 342.848 43.97C342.748 43.26 342.658 42.295 342.578 41.075C342.328 41.115 341.903 41.205 341.303 41.345C340.703 41.475 340.148 41.605 339.638 41.735C337.838 42.185 336.823 42.41 336.593 42.41C336.523 42.41 336.423 42.355 336.293 42.245C336.173 42.135 336.113 42.03 336.113 41.93C336.113 41.82 336.178 41.705 336.308 41.585C336.478 41.435 336.913 40.98 337.613 40.22C338.223 39.54 338.783 38.945 339.293 38.435C339.813 37.915 340.613 36.98 341.693 35.63C342.053 35.18 342.283 34.9 342.383 34.79C342.523 34.63 342.623 34.495 342.683 34.385C342.743 34.265 342.788 34.185 342.818 34.145C342.848 34.105 342.898 34.085 342.968 34.085C343.088 34.085 343.218 34.145 343.358 34.265C343.498 34.385 343.568 34.51 343.568 34.64C343.568 34.67 343.538 34.735 343.478 34.835C343.408 34.975 343.368 35.14 343.358 35.33C343.338 35.66 343.328 37.03 343.328 39.44C343.328 39.85 343.333 40.145 343.343 40.325L343.643 40.265C344.243 40.145 344.738 40.06 345.128 40.01C345.208 40 345.273 39.935 345.323 39.815C345.383 39.695 345.443 39.635 345.503 39.635C345.613 39.635 345.723 39.7 345.833 39.83C345.953 39.95 346.013 40.075 346.013 40.205C346.013 40.375 345.943 40.495 345.803 40.565C345.663 40.625 345.398 40.675 345.008 40.715L343.838 40.85L343.388 40.91C343.458 41.94 343.593 42.925 343.793 43.865C343.863 44.255 343.898 44.495 343.898 44.585C343.898 44.695 343.838 44.795 343.718 44.885C343.608 44.985 343.478 45.035 343.328 45.035ZM339.788 38.81C338.868 39.8 338.053 40.695 337.343 41.495L338.363 41.27C338.913 41.17 339.288 41.095 339.488 41.045C340.088 40.905 340.788 40.76 341.588 40.61L342.533 40.415C342.503 40.025 342.488 39.72 342.488 39.5C342.488 38.84 342.493 38.105 342.503 37.295C342.523 36.485 342.538 35.975 342.548 35.765C342.368 35.965 342.013 36.36 341.483 36.95C340.963 37.53 340.398 38.15 339.788 38.81Z" fill="black"/>
<path d="M431.48 44.375C431.11 44.415 430.51 44.495 429.68 44.615C428.96 44.725 428.47 44.795 428.21 44.825L427.025 45.005C426.395 45.105 425.88 45.175 425.48 45.215C425.09 45.265 424.66 45.29 424.19 45.29C424.02 45.29 423.86 45.23 423.71 45.11C423.57 44.99 423.5 44.82 423.5 44.6C423.5 44.48 423.52 44.385 423.56 44.315C423.6 44.245 423.665 44.16 423.755 44.06C424.335 43.48 424.83 42.96 425.24 42.5C425.66 42.04 426.175 41.445 426.785 40.715C427.405 39.965 427.865 39.325 428.165 38.795C428.475 38.265 428.63 37.715 428.63 37.145C428.63 36.625 428.475 36.225 428.165 35.945C427.865 35.655 427.47 35.51 426.98 35.51C426.61 35.51 426.285 35.565 426.005 35.675C425.725 35.775 425.335 35.97 424.835 36.26C424.715 36.32 424.585 36.41 424.445 36.53C424.305 36.64 424.215 36.71 424.175 36.74C424.035 36.86 423.895 36.965 423.755 37.055C423.625 37.145 423.525 37.19 423.455 37.19C423.215 37.19 423.095 37.055 423.095 36.785C423.095 36.555 423.225 36.35 423.485 36.17C423.545 36.13 423.76 36.005 424.13 35.795C424.35 35.685 424.525 35.59 424.655 35.51C425.115 35.25 425.515 35.065 425.855 34.955C426.205 34.845 426.62 34.79 427.1 34.79C427.79 34.79 428.345 35.005 428.765 35.435C429.195 35.865 429.41 36.41 429.41 37.07C429.41 37.57 429.295 38.075 429.065 38.585C428.845 39.085 428.595 39.525 428.315 39.905C428.035 40.285 427.7 40.705 427.31 41.165C427.1 41.415 426.57 42 425.72 42.92L424.94 43.775C424.91 43.805 424.825 43.89 424.685 44.03C424.555 44.18 424.49 44.285 424.49 44.345C424.49 44.465 424.61 44.525 424.85 44.525C425.17 44.525 425.59 44.48 426.11 44.39C426.64 44.3 426.955 44.245 427.055 44.225L428.36 44C428.56 43.97 429.055 43.905 429.845 43.805C430.545 43.715 430.98 43.65 431.15 43.61C431.28 43.53 431.42 43.455 431.57 43.385C431.72 43.305 431.82 43.265 431.87 43.265C432.07 43.265 432.17 43.45 432.17 43.82C432.17 43.95 432.105 44.06 431.975 44.15C431.855 44.25 431.69 44.325 431.48 44.375ZM437.113 44.465C437.143 44.585 437.173 44.725 437.203 44.885C437.243 45.055 437.263 45.16 437.263 45.2C437.263 45.31 437.198 45.41 437.068 45.5C436.948 45.6 436.813 45.65 436.663 45.65C436.573 45.65 436.483 45.56 436.393 45.38C436.303 45.21 436.238 44.99 436.198 44.72C436.018 43.67 435.858 42.045 435.718 39.845L435.508 36.65C434.728 37.43 433.923 38.09 433.093 38.63C432.873 38.77 432.718 38.84 432.628 38.84C432.528 38.84 432.448 38.81 432.388 38.75C432.328 38.68 432.298 38.615 432.298 38.555C432.298 38.425 432.413 38.285 432.643 38.135C433.153 37.805 433.608 37.455 434.008 37.085C434.418 36.715 434.828 36.32 435.238 35.9L435.448 35.69V35.675V35.45V35.3C435.448 35.23 435.463 35.185 435.493 35.165C435.513 35.145 435.533 35.135 435.553 35.135C435.613 35.105 435.683 35.09 435.763 35.09C435.963 35.09 436.123 35.12 436.243 35.18C436.363 35.24 436.423 35.33 436.423 35.45C436.423 35.57 436.363 35.71 436.243 35.87C436.293 36.11 436.323 36.35 436.333 36.59C436.353 37.18 436.428 38.32 436.558 40.01C436.688 41.69 436.788 42.795 436.858 43.325C436.908 43.585 436.993 43.965 437.113 44.465ZM439.909 45.875C439.809 45.875 439.724 45.845 439.654 45.785C439.594 45.735 439.564 45.665 439.564 45.575C439.564 45.515 439.619 45.37 439.729 45.14C439.849 44.92 439.924 44.785 439.954 44.735L440.374 43.925L440.644 43.235C440.754 42.935 440.844 42.715 440.914 42.575C440.984 42.425 441.054 42.35 441.124 42.35C441.234 42.35 441.349 42.415 441.469 42.545C441.599 42.665 441.664 42.78 441.664 42.89C441.664 43.04 441.544 43.365 441.304 43.865C441.074 44.365 440.819 44.825 440.539 45.245C440.259 45.665 440.049 45.875 439.909 45.875ZM445.113 45.245C444.393 45.245 443.838 44.975 443.448 44.435C443.058 43.895 442.863 43.195 442.863 42.335C442.863 41.305 442.988 40.265 443.238 39.215C443.498 38.155 443.843 37.2 444.273 36.35C444.193 36.35 444.118 36.32 444.048 36.26C443.978 36.2 443.943 36.125 443.943 36.035C443.943 35.905 444.018 35.785 444.168 35.675C444.328 35.565 444.513 35.485 444.723 35.435C444.743 35.415 444.778 35.375 444.828 35.315C444.878 35.245 444.948 35.21 445.038 35.21C445.138 35.21 445.233 35.23 445.323 35.27C445.413 35.3 445.468 35.335 445.488 35.375C445.768 35.325 446.053 35.3 446.343 35.3C447.023 35.3 447.633 35.485 448.173 35.855C448.713 36.225 449.138 36.74 449.448 37.4C449.758 38.05 449.913 38.78 449.913 39.59C449.913 40.47 449.683 41.35 449.223 42.23C448.773 43.11 448.173 43.83 447.423 44.39C446.683 44.96 445.913 45.245 445.113 45.245ZM446.403 36.215C446.173 36.215 445.868 36.245 445.488 36.305L445.173 36.35C444.713 37.17 444.353 38.135 444.093 39.245C443.843 40.355 443.718 41.38 443.718 42.32C443.718 42.95 443.838 43.47 444.078 43.88C444.328 44.28 444.718 44.48 445.248 44.48C445.858 44.48 446.473 44.225 447.093 43.715C447.713 43.195 448.223 42.555 448.623 41.795C449.023 41.035 449.223 40.31 449.223 39.62C449.223 39.01 449.088 38.445 448.818 37.925C448.558 37.395 448.208 36.98 447.768 36.68C447.338 36.37 446.883 36.215 446.403 36.215ZM458.125 45.035C457.915 45.035 457.755 44.68 457.645 43.97C457.545 43.26 457.455 42.295 457.375 41.075C457.125 41.115 456.7 41.205 456.1 41.345C455.5 41.475 454.945 41.605 454.435 41.735C452.635 42.185 451.62 42.41 451.39 42.41C451.32 42.41 451.22 42.355 451.09 42.245C450.97 42.135 450.91 42.03 450.91 41.93C450.91 41.82 450.975 41.705 451.105 41.585C451.275 41.435 451.71 40.98 452.41 40.22C453.02 39.54 453.58 38.945 454.09 38.435C454.61 37.915 455.41 36.98 456.49 35.63C456.85 35.18 457.08 34.9 457.18 34.79C457.32 34.63 457.42 34.495 457.48 34.385C457.54 34.265 457.585 34.185 457.615 34.145C457.645 34.105 457.695 34.085 457.765 34.085C457.885 34.085 458.015 34.145 458.155 34.265C458.295 34.385 458.365 34.51 458.365 34.64C458.365 34.67 458.335 34.735 458.275 34.835C458.205 34.975 458.165 35.14 458.155 35.33C458.135 35.66 458.125 37.03 458.125 39.44C458.125 39.85 458.13 40.145 458.14 40.325L458.44 40.265C459.04 40.145 459.535 40.06 459.925 40.01C460.005 40 460.07 39.935 460.12 39.815C460.18 39.695 460.24 39.635 460.3 39.635C460.41 39.635 460.52 39.7 460.63 39.83C460.75 39.95 460.81 40.075 460.81 40.205C460.81 40.375 460.74 40.495 460.6 40.565C460.46 40.625 460.195 40.675 459.805 40.715L458.635 40.85L458.185 40.91C458.255 41.94 458.39 42.925 458.59 43.865C458.66 44.255 458.695 44.495 458.695 44.585C458.695 44.695 458.635 44.795 458.515 44.885C458.405 44.985 458.275 45.035 458.125 45.035ZM454.585 38.81C453.665 39.8 452.85 40.695 452.14 41.495L453.16 41.27C453.71 41.17 454.085 41.095 454.285 41.045C454.885 40.905 455.585 40.76 456.385 40.61L457.33 40.415C457.3 40.025 457.285 39.72 457.285 39.5C457.285 38.84 457.29 38.105 457.3 37.295C457.32 36.485 457.335 35.975 457.345 35.765C457.165 35.965 456.81 36.36 456.28 36.95C455.76 37.53 455.195 38.15 454.585 38.81Z" fill="black"/>
<path d="M513.575 45.035C513.365 45.035 513.205 44.68 513.095 43.97C512.995 43.26 512.905 42.295 512.825 41.075C512.575 41.115 512.15 41.205 511.55 41.345C510.95 41.475 510.395 41.605 509.885 41.735C508.085 42.185 507.07 42.41 506.84 42.41C506.77 42.41 506.67 42.355 506.54 42.245C506.42 42.135 506.36 42.03 506.36 41.93C506.36 41.82 506.425 41.705 506.555 41.585C506.725 41.435 507.16 40.98 507.86 40.22C508.47 39.54 509.03 38.945 509.54 38.435C510.06 37.915 510.86 36.98 511.94 35.63C512.3 35.18 512.53 34.9 512.63 34.79C512.77 34.63 512.87 34.495 512.93 34.385C512.99 34.265 513.035 34.185 513.065 34.145C513.095 34.105 513.145 34.085 513.215 34.085C513.335 34.085 513.465 34.145 513.605 34.265C513.745 34.385 513.815 34.51 513.815 34.64C513.815 34.67 513.785 34.735 513.725 34.835C513.655 34.975 513.615 35.14 513.605 35.33C513.585 35.66 513.575 37.03 513.575 39.44C513.575 39.85 513.58 40.145 513.59 40.325L513.89 40.265C514.49 40.145 514.985 40.06 515.375 40.01C515.455 40 515.52 39.935 515.57 39.815C515.63 39.695 515.69 39.635 515.75 39.635C515.86 39.635 515.97 39.7 516.08 39.83C516.2 39.95 516.26 40.075 516.26 40.205C516.26 40.375 516.19 40.495 516.05 40.565C515.91 40.625 515.645 40.675 515.255 40.715L514.085 40.85L513.635 40.91C513.705 41.94 513.84 42.925 514.04 43.865C514.11 44.255 514.145 44.495 514.145 44.585C514.145 44.695 514.085 44.795 513.965 44.885C513.855 44.985 513.725 45.035 513.575 45.035ZM510.035 38.81C509.115 39.8 508.3 40.695 507.59 41.495L508.61 41.27C509.16 41.17 509.535 41.095 509.735 41.045C510.335 40.905 511.035 40.76 511.835 40.61L512.78 40.415C512.75 40.025 512.735 39.72 512.735 39.5C512.735 38.84 512.74 38.105 512.75 37.295C512.77 36.485 512.785 35.975 512.795 35.765C512.615 35.965 512.26 36.36 511.73 36.95C511.21 37.53 510.645 38.15 510.035 38.81ZM517.479 45.875C517.379 45.875 517.294 45.845 517.224 45.785C517.164 45.735 517.134 45.665 517.134 45.575C517.134 45.515 517.189 45.37 517.299 45.14C517.419 44.92 517.494 44.785 517.524 44.735L517.944 43.925L518.214 43.235C518.324 42.935 518.414 42.715 518.484 42.575C518.554 42.425 518.624 42.35 518.694 42.35C518.804 42.35 518.919 42.415 519.039 42.545C519.169 42.665 519.234 42.78 519.234 42.89C519.234 43.04 519.114 43.365 518.874 43.865C518.644 44.365 518.389 44.825 518.109 45.245C517.829 45.665 517.619 45.875 517.479 45.875ZM527.107 34.64C527.107 34.81 527.017 34.91 526.837 34.94C526.227 35.05 525.677 35.16 525.187 35.27C524.707 35.37 524.277 35.475 523.897 35.585C523.647 35.655 523.422 35.725 523.222 35.795C523.032 35.855 522.867 35.915 522.727 35.975C522.587 36.035 522.442 36.105 522.292 36.185C522.152 36.255 522.002 36.335 521.842 36.425C521.842 37.045 521.677 38.14 521.347 39.71L522.097 39.44C522.347 39.35 522.617 39.265 522.907 39.185C523.197 39.105 523.492 39.035 523.792 38.975C524.092 38.915 524.392 38.865 524.692 38.825C524.992 38.785 525.277 38.765 525.547 38.765C526.097 38.765 526.512 38.905 526.792 39.185C527.072 39.455 527.212 39.845 527.212 40.355C527.212 41.075 527.002 41.755 526.582 42.395C526.162 43.025 525.547 43.6 524.737 44.12C524.277 44.41 523.937 44.62 523.717 44.75C523.507 44.89 523.347 44.985 523.237 45.035C522.917 45.195 522.687 45.275 522.547 45.275C522.407 45.275 522.292 45.215 522.202 45.095C522.112 44.975 522.067 44.86 522.067 44.75C522.067 44.61 522.157 44.515 522.337 44.465L522.652 44.375C522.822 44.325 522.977 44.27 523.117 44.21C523.267 44.15 523.397 44.095 523.507 44.045C523.747 43.945 524.047 43.78 524.407 43.55C525.097 43.1 525.597 42.63 525.907 42.14C526.227 41.65 526.387 41.12 526.387 40.55C526.387 40.15 526.297 39.87 526.117 39.71C525.947 39.55 525.687 39.47 525.337 39.47C524.917 39.47 524.477 39.53 524.017 39.65C523.557 39.76 523.017 39.91 522.397 40.1C522.167 40.18 521.987 40.245 521.857 40.295C521.727 40.335 521.647 40.36 521.617 40.37C521.547 40.39 521.467 40.43 521.377 40.49C521.287 40.55 521.207 40.6 521.137 40.64C521.047 40.7 520.967 40.73 520.897 40.73C520.827 40.73 520.777 40.725 520.747 40.715C520.567 40.685 520.477 40.565 520.477 40.355C520.477 40.325 520.522 40.075 520.612 39.605C520.742 38.915 520.847 38.33 520.927 37.85C521.007 37.36 521.047 36.95 521.047 36.62C520.977 36.54 520.942 36.435 520.942 36.305C520.942 36.125 521.117 35.94 521.467 35.75C521.817 35.56 522.382 35.335 523.162 35.075C523.762 34.875 524.387 34.715 525.037 34.595C525.687 34.465 526.282 34.4 526.822 34.4C527.012 34.4 527.107 34.48 527.107 34.64ZM535.983 36.8C535.843 37.01 535.773 37.14 535.773 37.19C535.773 37.94 535.808 39.365 535.878 41.465C535.938 43.005 535.968 44.06 535.968 44.63C535.968 44.8 535.903 44.95 535.773 45.08C535.653 45.22 535.533 45.29 535.413 45.29C535.273 45.29 535.173 45.265 535.113 45.215C535.053 45.175 535.023 45.105 535.023 45.005L535.053 44.555C535.113 44.055 535.143 43.565 535.143 43.085C535.143 42.805 535.128 41.645 535.098 39.605L535.083 38.285C534.563 39.085 534.088 39.755 533.658 40.295C533.228 40.825 532.738 41.275 532.188 41.645C531.638 42.005 531.048 42.185 530.418 42.185C529.808 42.185 529.343 42 529.023 41.63C528.703 41.25 528.543 40.755 528.543 40.145C528.543 39.255 528.818 38.34 529.368 37.4C529.928 36.46 530.638 35.685 531.498 35.075C532.368 34.465 533.243 34.16 534.123 34.16C534.573 34.16 534.948 34.305 535.248 34.595C535.558 34.875 535.758 35.23 535.848 35.66C535.968 35.68 536.073 35.73 536.163 35.81C536.263 35.89 536.313 35.995 536.313 36.125C536.313 36.225 536.203 36.45 535.983 36.8ZM534.828 37.295C534.908 37.185 535.018 37.02 535.158 36.8V36.785C535.188 36.675 535.203 36.545 535.203 36.395C535.203 35.965 535.078 35.615 534.828 35.345C534.588 35.075 534.228 34.94 533.748 34.94C533.138 34.94 532.483 35.21 531.783 35.75C531.093 36.28 530.513 36.955 530.043 37.775C529.573 38.585 529.338 39.38 529.338 40.16C529.338 40.48 529.448 40.76 529.668 41C529.888 41.24 530.193 41.36 530.583 41.36C531.083 41.36 531.568 41.175 532.038 40.805C532.518 40.425 532.963 39.965 533.373 39.425C533.783 38.875 534.268 38.165 534.828 37.295Z" fill="black"/>
<path d="M163.48 38.375C163.11 38.415 162.51 38.495 161.68 38.615C160.96 38.725 160.47 38.795 160.21 38.825L159.025 39.005C158.395 39.105 157.88 39.175 157.48 39.215C157.09 39.265 156.66 39.29 156.19 39.29C156.02 39.29 155.86 39.23 155.71 39.11C155.57 38.99 155.5 38.82 155.5 38.6C155.5 38.48 155.52 38.385 155.56 38.315C155.6 38.245 155.665 38.16 155.755 38.06C156.335 37.48 156.83 36.96 157.24 36.5C157.66 36.04 158.175 35.445 158.785 34.715C159.405 33.965 159.865 33.325 160.165 32.795C160.475 32.265 160.63 31.715 160.63 31.145C160.63 30.625 160.475 30.225 160.165 29.945C159.865 29.655 159.47 29.51 158.98 29.51C158.61 29.51 158.285 29.565 158.005 29.675C157.725 29.775 157.335 29.97 156.835 30.26C156.715 30.32 156.585 30.41 156.445 30.53C156.305 30.64 156.215 30.71 156.175 30.74C156.035 30.86 155.895 30.965 155.755 31.055C155.625 31.145 155.525 31.19 155.455 31.19C155.215 31.19 155.095 31.055 155.095 30.785C155.095 30.555 155.225 30.35 155.485 30.17C155.545 30.13 155.76 30.005 156.13 29.795C156.35 29.685 156.525 29.59 156.655 29.51C157.115 29.25 157.515 29.065 157.855 28.955C158.205 28.845 158.62 28.79 159.1 28.79C159.79 28.79 160.345 29.005 160.765 29.435C161.195 29.865 161.41 30.41 161.41 31.07C161.41 31.57 161.295 32.075 161.065 32.585C160.845 33.085 160.595 33.525 160.315 33.905C160.035 34.285 159.7 34.705 159.31 35.165C159.1 35.415 158.57 36 157.72 36.92L156.94 37.775C156.91 37.805 156.825 37.89 156.685 38.03C156.555 38.18 156.49 38.285 156.49 38.345C156.49 38.465 156.61 38.525 156.85 38.525C157.17 38.525 157.59 38.48 158.11 38.39C158.64 38.3 158.955 38.245 159.055 38.225L160.36 38C160.56 37.97 161.055 37.905 161.845 37.805C162.545 37.715 162.98 37.65 163.15 37.61C163.28 37.53 163.42 37.455 163.57 37.385C163.72 37.305 163.82 37.265 163.87 37.265C164.07 37.265 164.17 37.45 164.17 37.82C164.17 37.95 164.105 38.06 163.975 38.15C163.855 38.25 163.69 38.325 163.48 38.375ZM173.778 38.375C173.408 38.415 172.808 38.495 171.978 38.615C171.258 38.725 170.768 38.795 170.508 38.825L169.323 39.005C168.693 39.105 168.178 39.175 167.778 39.215C167.388 39.265 166.958 39.29 166.488 39.29C166.318 39.29 166.158 39.23 166.008 39.11C165.868 38.99 165.798 38.82 165.798 38.6C165.798 38.48 165.818 38.385 165.858 38.315C165.898 38.245 165.963 38.16 166.053 38.06C166.633 37.48 167.128 36.96 167.538 36.5C167.958 36.04 168.473 35.445 169.083 34.715C169.703 33.965 170.163 33.325 170.463 32.795C170.773 32.265 170.928 31.715 170.928 31.145C170.928 30.625 170.773 30.225 170.463 29.945C170.163 29.655 169.768 29.51 169.278 29.51C168.908 29.51 168.583 29.565 168.303 29.675C168.023 29.775 167.633 29.97 167.133 30.26C167.013 30.32 166.883 30.41 166.743 30.53C166.603 30.64 166.513 30.71 166.473 30.74C166.333 30.86 166.193 30.965 166.053 31.055C165.923 31.145 165.823 31.19 165.753 31.19C165.513 31.19 165.393 31.055 165.393 30.785C165.393 30.555 165.523 30.35 165.783 30.17C165.843 30.13 166.058 30.005 166.428 29.795C166.648 29.685 166.823 29.59 166.953 29.51C167.413 29.25 167.813 29.065 168.153 28.955C168.503 28.845 168.918 28.79 169.398 28.79C170.088 28.79 170.643 29.005 171.063 29.435C171.493 29.865 171.708 30.41 171.708 31.07C171.708 31.57 171.593 32.075 171.363 32.585C171.143 33.085 170.893 33.525 170.613 33.905C170.333 34.285 169.998 34.705 169.608 35.165C169.398 35.415 168.868 36 168.018 36.92L167.238 37.775C167.208 37.805 167.123 37.89 166.983 38.03C166.853 38.18 166.788 38.285 166.788 38.345C166.788 38.465 166.908 38.525 167.148 38.525C167.468 38.525 167.888 38.48 168.408 38.39C168.938 38.3 169.253 38.245 169.353 38.225L170.658 38C170.858 37.97 171.353 37.905 172.143 37.805C172.843 37.715 173.278 37.65 173.448 37.61C173.578 37.53 173.718 37.455 173.868 37.385C174.018 37.305 174.118 37.265 174.168 37.265C174.368 37.265 174.468 37.45 174.468 37.82C174.468 37.95 174.403 38.06 174.273 38.15C174.153 38.25 173.988 38.325 173.778 38.375Z" fill="black"/>
<path d="M97.815 62.465C97.845 62.585 97.875 62.725 97.905 62.885C97.945 63.055 97.965 63.16 97.965 63.2C97.965 63.31 97.9 63.41 97.77 63.5C97.65 63.6 97.515 63.65 97.365 63.65C97.275 63.65 97.185 63.56 97.095 63.38C97.005 63.21 96.94 62.99 96.9 62.72C96.72 61.67 96.56 60.045 96.42 57.845L96.21 54.65C95.43 55.43 94.625 56.09 93.795 56.63C93.575 56.77 93.42 56.84 93.33 56.84C93.23 56.84 93.15 56.81 93.09 56.75C93.03 56.68 93 56.615 93 56.555C93 56.425 93.115 56.285 93.345 56.135C93.855 55.805 94.31 55.455 94.71 55.085C95.12 54.715 95.53 54.32 95.94 53.9L96.15 53.69V53.675V53.45V53.3C96.15 53.23 96.165 53.185 96.195 53.165C96.215 53.145 96.235 53.135 96.255 53.135C96.315 53.105 96.385 53.09 96.465 53.09C96.665 53.09 96.825 53.12 96.945 53.18C97.065 53.24 97.125 53.33 97.125 53.45C97.125 53.57 97.065 53.71 96.945 53.87C96.995 54.11 97.025 54.35 97.035 54.59C97.055 55.18 97.13 56.32 97.26 58.01C97.39 59.69 97.49 60.795 97.56 61.325C97.61 61.585 97.695 61.965 97.815 62.465ZM107.646 54.8C107.506 55.01 107.436 55.14 107.436 55.19C107.436 55.94 107.471 57.365 107.541 59.465C107.601 61.005 107.631 62.06 107.631 62.63C107.631 62.8 107.566 62.95 107.436 63.08C107.316 63.22 107.196 63.29 107.076 63.29C106.936 63.29 106.836 63.265 106.776 63.215C106.716 63.175 106.686 63.105 106.686 63.005L106.716 62.555C106.776 62.055 106.806 61.565 106.806 61.085C106.806 60.805 106.791 59.645 106.761 57.605L106.746 56.285C106.226 57.085 105.751 57.755 105.321 58.295C104.891 58.825 104.401 59.275 103.851 59.645C103.301 60.005 102.711 60.185 102.081 60.185C101.471 60.185 101.006 60 100.686 59.63C100.366 59.25 100.206 58.755 100.206 58.145C100.206 57.255 100.481 56.34 101.031 55.4C101.591 54.46 102.301 53.685 103.161 53.075C104.031 52.465 104.906 52.16 105.786 52.16C106.236 52.16 106.611 52.305 106.911 52.595C107.221 52.875 107.421 53.23 107.511 53.66C107.631 53.68 107.736 53.73 107.826 53.81C107.926 53.89 107.976 53.995 107.976 54.125C107.976 54.225 107.866 54.45 107.646 54.8ZM106.491 55.295C106.571 55.185 106.681 55.02 106.821 54.8V54.785C106.851 54.675 106.866 54.545 106.866 54.395C106.866 53.965 106.741 53.615 106.491 53.345C106.251 53.075 105.891 52.94 105.411 52.94C104.801 52.94 104.146 53.21 103.446 53.75C102.756 54.28 102.176 54.955 101.706 55.775C101.236 56.585 101.001 57.38 101.001 58.16C101.001 58.48 101.111 58.76 101.331 59C101.551 59.24 101.856 59.36 102.246 59.36C102.746 59.36 103.231 59.175 103.701 58.805C104.181 58.425 104.626 57.965 105.036 57.425C105.446 56.875 105.931 56.165 106.491 55.295ZM116.422 58.145C116.352 58.195 116.187 58.25 115.927 58.31C115.677 58.36 115.412 58.405 115.132 58.445L114.727 58.52C114.467 59.66 114.307 61.05 114.247 62.69C114.237 62.93 114.177 63.14 114.067 63.32C113.957 63.5 113.832 63.59 113.692 63.59C113.612 63.59 113.537 63.53 113.467 63.41C113.407 63.29 113.347 63.16 113.287 63.02C113.227 62.88 113.187 62.78 113.167 62.72C113.007 62.34 112.927 62.085 112.927 61.955C112.927 61.815 112.982 61.745 113.092 61.745C113.142 61.745 113.212 61.775 113.302 61.835C113.402 61.895 113.472 61.94 113.512 61.97C113.642 60.6 113.797 59.47 113.977 58.58C113.137 58.72 112.587 58.79 112.327 58.79C112.207 58.79 112.107 58.755 112.027 58.685C111.957 58.615 111.922 58.525 111.922 58.415C111.922 58.345 111.967 58.29 112.057 58.25C112.147 58.21 112.302 58.175 112.522 58.145C113.382 58.025 113.917 57.95 114.127 57.92C114.297 57.21 114.537 56.445 114.847 55.625C115.157 54.805 115.447 54.135 115.717 53.615C115.627 53.625 115.262 53.67 114.622 53.75C113.982 53.83 113.367 53.93 112.777 54.05L111.457 54.32C111.367 54.34 111.197 54.375 110.947 54.425C110.707 54.475 110.462 54.5 110.212 54.5C110.032 54.5 109.877 54.465 109.747 54.395C109.617 54.315 109.552 54.215 109.552 54.095C109.552 53.845 109.647 53.72 109.837 53.72C110.247 53.72 110.662 53.69 111.082 53.63C111.512 53.56 112.117 53.445 112.897 53.285C113.537 53.155 114.132 53.06 114.682 53C115.232 52.94 115.667 52.91 115.987 52.91C116.227 52.91 116.407 52.935 116.527 52.985C116.647 53.035 116.707 53.14 116.707 53.3C116.707 53.39 116.692 53.455 116.662 53.495C116.632 53.535 116.577 53.585 116.497 53.645C116.207 54.195 115.912 54.845 115.612 55.595C115.312 56.345 115.067 57.09 114.877 57.83C115.297 57.78 115.757 57.69 116.257 57.56C116.427 57.51 116.532 57.485 116.572 57.485C116.602 57.485 116.632 57.5 116.662 57.53C116.692 57.56 116.707 57.59 116.707 57.62C116.707 57.7 116.677 57.795 116.617 57.905C116.567 58.005 116.502 58.085 116.422 58.145ZM120.801 63.245C120.081 63.245 119.526 62.975 119.136 62.435C118.746 61.895 118.551 61.195 118.551 60.335C118.551 59.305 118.676 58.265 118.926 57.215C119.186 56.155 119.531 55.2 119.961 54.35C119.881 54.35 119.806 54.32 119.736 54.26C119.666 54.2 119.631 54.125 119.631 54.035C119.631 53.905 119.706 53.785 119.856 53.675C120.016 53.565 120.201 53.485 120.411 53.435C120.431 53.415 120.466 53.375 120.516 53.315C120.566 53.245 120.636 53.21 120.726 53.21C120.826 53.21 120.921 53.23 121.011 53.27C121.101 53.3 121.156 53.335 121.176 53.375C121.456 53.325 121.741 53.3 122.031 53.3C122.711 53.3 123.321 53.485 123.861 53.855C124.401 54.225 124.826 54.74 125.136 55.4C125.446 56.05 125.601 56.78 125.601 57.59C125.601 58.47 125.371 59.35 124.911 60.23C124.461 61.11 123.861 61.83 123.111 62.39C122.371 62.96 121.601 63.245 120.801 63.245ZM122.091 54.215C121.861 54.215 121.556 54.245 121.176 54.305L120.861 54.35C120.401 55.17 120.041 56.135 119.781 57.245C119.531 58.355 119.406 59.38 119.406 60.32C119.406 60.95 119.526 61.47 119.766 61.88C120.016 62.28 120.406 62.48 120.936 62.48C121.546 62.48 122.161 62.225 122.781 61.715C123.401 61.195 123.911 60.555 124.311 59.795C124.711 59.035 124.911 58.31 124.911 57.62C124.911 57.01 124.776 56.445 124.506 55.925C124.246 55.395 123.896 54.98 123.456 54.68C123.026 54.37 122.571 54.215 122.091 54.215Z" fill="black"/>
<path d="M38 44.5H49.2045L54.8068 59V17H191V26.5" stroke="black" stroke-width="2" stroke-linecap="round"/>
<path d="M221 44.5H234L240.5 59V17H357V28.5" stroke="black" stroke-width="2" stroke-linecap="round"/>
<path d="M392 44.5H401.447L406.17 59V17H470.5V27" stroke="black" stroke-width="2" stroke-linecap="round"/>
<line x1="67" y1="45.5" x2="136" y2="45.5" stroke="black"/>
<path d="M441.94 2.45C441.853 2.63 441.763 2.87 441.67 3.17C441.583 3.47 441.457 3.92 441.29 4.52L441.01 5.55C440.67 6.78333 440.46 7.65333 440.38 8.16C440.36 8.27333 440.307 8.36667 440.22 8.44C440.133 8.52 440.003 8.56 439.83 8.56C439.79 8.56 439.647 8.28 439.4 7.72C439.16 7.15333 438.843 6.4 438.45 5.46C438.21 4.9 437.967 4.38 437.72 3.9C437.473 3.41333 437.307 3.13333 437.22 3.06C437.107 2.97333 437.05 2.88 437.05 2.78C437.05 2.73333 437.093 2.67 437.18 2.59C437.273 2.51 437.367 2.47 437.46 2.47C437.52 2.47 437.563 2.48333 437.59 2.51C437.617 2.53 437.653 2.57333 437.7 2.64C437.787 2.76667 437.93 3.04333 438.13 3.47C438.33 3.89 438.533 4.35 438.74 4.85L439.56 6.84C439.82 7.45333 439.97 7.81333 440.01 7.92C440.023 7.79333 440.083 7.49333 440.19 7.02C440.303 6.54667 440.437 6.01333 440.59 5.42C440.817 4.56 441 3.88333 441.14 3.39C441.287 2.89 441.423 2.49333 441.55 2.2C441.663 1.94 441.76 1.76333 441.84 1.67C441.92 1.57667 442.01 1.53 442.11 1.53C442.143 1.53 442.197 1.58333 442.27 1.69C442.343 1.79 442.38 1.85667 442.38 1.89C442.38 1.91 442.327 1.96667 442.22 2.06C442.113 2.15333 442.02 2.28333 441.94 2.45ZM447.279 7.63C447.279 7.71 447.245 7.80333 447.179 7.91C447.112 8.01 447.045 8.06 446.979 8.06C446.865 8.06 446.779 7.99 446.719 7.85C446.659 7.71 446.629 7.54667 446.629 7.36C446.629 7.2 446.639 6.72 446.659 5.92L446.669 5.54C446.669 5.38667 446.629 5.27667 446.549 5.21C446.249 5.71667 445.969 6.15667 445.709 6.53C445.449 6.90333 445.119 7.25667 444.719 7.59C444.319 7.91667 443.899 8.08 443.459 8.08C443.245 8.08 443.079 8.01333 442.959 7.88C442.845 7.74667 442.789 7.57333 442.789 7.36C442.789 7.09333 442.909 6.73 443.149 6.27C443.389 5.80333 443.695 5.33333 444.069 4.86C444.442 4.38 444.815 3.98667 445.189 3.68C445.435 3.48 445.632 3.34667 445.779 3.28C445.925 3.20667 446.055 3.17 446.169 3.17C446.275 3.17 446.385 3.20333 446.499 3.27C446.612 3.33667 446.709 3.43 446.789 3.55C446.869 3.67 446.909 3.80667 446.909 3.96C446.909 4.16667 446.852 4.36333 446.739 4.55L446.909 4.5C446.982 4.5 447.025 4.59 447.039 4.77C447.045 4.87667 447.052 5.09333 447.059 5.42C447.072 5.74667 447.082 6.01667 447.089 6.23C447.095 6.45 447.102 6.66333 447.109 6.87C447.115 7.07667 447.122 7.24 447.129 7.36C447.135 7.40667 447.162 7.45667 447.209 7.51C447.255 7.55667 447.279 7.59667 447.279 7.63ZM446.409 4.82C446.489 4.62 446.529 4.40333 446.529 4.17C446.529 4.03 446.485 3.91 446.399 3.81C446.319 3.70333 446.209 3.65 446.069 3.65C445.902 3.65 445.689 3.76333 445.429 3.99C445.129 4.24333 444.812 4.58333 444.479 5.01C444.145 5.43 443.869 5.84667 443.649 6.26C443.429 6.67333 443.319 7 443.319 7.24C443.319 7.44 443.412 7.54 443.599 7.54C443.959 7.54 444.305 7.40667 444.639 7.14C444.972 6.87333 445.269 6.55667 445.529 6.19C445.795 5.81667 446.089 5.36 446.409 4.82ZM451.371 4.11C451.325 4.11 451.278 4.09 451.231 4.05C451.191 4.01 451.145 3.95333 451.091 3.88C451.045 3.81333 450.981 3.75667 450.901 3.71C450.828 3.66333 450.751 3.64 450.671 3.64C450.478 3.64 450.218 3.89667 449.891 4.41C449.565 4.91667 449.245 5.55667 448.931 6.33C448.938 6.48333 448.948 6.67667 448.961 6.91C448.981 7.14333 448.995 7.31667 449.001 7.43L449.031 7.83C449.031 7.92333 449.011 8.00333 448.971 8.07C448.931 8.14333 448.858 8.18 448.751 8.18C448.638 8.18 448.565 8.03 448.531 7.73C448.498 7.42333 448.478 6.98 448.471 6.4C448.465 6.25333 448.458 6.04333 448.451 5.77C448.451 5.49667 448.445 5.17 448.431 4.79C448.411 4.21667 448.401 3.80667 448.401 3.56C448.401 3.40667 448.495 3.33 448.681 3.33C448.795 3.33 448.861 3.38 448.881 3.48C448.908 3.57333 448.921 3.75667 448.921 4.03V5.62C449.121 5.10667 449.338 4.66333 449.571 4.29C449.805 3.91667 450.031 3.63333 450.251 3.44C450.478 3.24 450.678 3.14 450.851 3.14C450.998 3.14 451.138 3.17333 451.271 3.24C451.405 3.30667 451.511 3.39333 451.591 3.5C451.671 3.6 451.711 3.69667 451.711 3.79C451.711 3.85 451.668 3.92 451.581 4C451.501 4.07333 451.431 4.11 451.371 4.11ZM452.752 1.89C452.639 1.89 452.522 1.84333 452.402 1.75C452.289 1.65667 452.232 1.58 452.232 1.52C452.232 1.44667 452.265 1.37667 452.332 1.31C452.405 1.24333 452.479 1.21 452.552 1.21C452.652 1.24333 452.735 1.29667 452.802 1.37C452.855 1.42333 452.915 1.49333 452.982 1.58C453.049 1.66667 453.082 1.72 453.082 1.74C453.082 1.84 452.972 1.89 452.752 1.89ZM453.052 8.23C452.959 8.22333 452.889 8.07333 452.842 7.78C452.802 7.48667 452.759 6.93 452.712 6.11C452.685 5.57 452.662 5.04333 452.642 4.53C452.622 4.01 452.609 3.61 452.602 3.33C452.602 3.25667 452.612 3.20333 452.632 3.17C452.659 3.13 452.705 3.11 452.772 3.11C452.925 3.11 453.022 3.17333 453.062 3.3C453.102 3.42667 453.122 3.67 453.122 4.03L453.112 5.21C453.112 5.88333 453.132 6.42333 453.172 6.83C453.172 6.85 453.202 7.06333 453.262 7.47C453.309 7.75 453.332 7.93667 453.332 8.03C453.332 8.09667 453.302 8.14667 453.242 8.18C453.189 8.22 453.125 8.23667 453.052 8.23ZM458.89 7.63C458.89 7.71 458.857 7.80333 458.79 7.91C458.723 8.01 458.657 8.06 458.59 8.06C458.477 8.06 458.39 7.99 458.33 7.85C458.27 7.71 458.24 7.54667 458.24 7.36C458.24 7.2 458.25 6.72 458.27 5.92L458.28 5.54C458.28 5.38667 458.24 5.27667 458.16 5.21C457.86 5.71667 457.58 6.15667 457.32 6.53C457.06 6.90333 456.73 7.25667 456.33 7.59C455.93 7.91667 455.51 8.08 455.07 8.08C454.857 8.08 454.69 8.01333 454.57 7.88C454.457 7.74667 454.4 7.57333 454.4 7.36C454.4 7.09333 454.52 6.73 454.76 6.27C455 5.80333 455.307 5.33333 455.68 4.86C456.053 4.38 456.427 3.98667 456.8 3.68C457.047 3.48 457.243 3.34667 457.39 3.28C457.537 3.20667 457.667 3.17 457.78 3.17C457.887 3.17 457.997 3.20333 458.11 3.27C458.223 3.33667 458.32 3.43 458.4 3.55C458.48 3.67 458.52 3.80667 458.52 3.96C458.52 4.16667 458.463 4.36333 458.35 4.55L458.52 4.5C458.593 4.5 458.637 4.59 458.65 4.77C458.657 4.87667 458.663 5.09333 458.67 5.42C458.683 5.74667 458.693 6.01667 458.7 6.23C458.707 6.45 458.713 6.66333 458.72 6.87C458.727 7.07667 458.733 7.24 458.74 7.36C458.747 7.40667 458.773 7.45667 458.82 7.51C458.867 7.55667 458.89 7.59667 458.89 7.63ZM458.02 4.82C458.1 4.62 458.14 4.40333 458.14 4.17C458.14 4.03 458.097 3.91 458.01 3.81C457.93 3.70333 457.82 3.65 457.68 3.65C457.513 3.65 457.3 3.76333 457.04 3.99C456.74 4.24333 456.423 4.58333 456.09 5.01C455.757 5.43 455.48 5.84667 455.26 6.26C455.04 6.67333 454.93 7 454.93 7.24C454.93 7.44 455.023 7.54 455.21 7.54C455.57 7.54 455.917 7.40667 456.25 7.14C456.583 6.87333 456.88 6.55667 457.14 6.19C457.407 5.81667 457.7 5.36 458.02 4.82ZM456.71 0.95C456.75 0.89 456.797 0.86 456.85 0.86C456.877 0.86 456.92 0.893333 456.98 0.959999C457.047 1.02667 457.09 1.07333 457.11 1.1C457.55 1.58 457.963 1.94333 458.35 2.19C458.41 2.23 458.457 2.26667 458.49 2.3C458.53 2.32667 458.55 2.35667 458.55 2.39C458.55 2.43667 458.527 2.49 458.48 2.55C458.44 2.60333 458.387 2.63 458.32 2.63C458.2 2.63 458.06 2.56667 457.9 2.44C457.74 2.31333 457.603 2.19333 457.49 2.08L457.26 1.84L456.85 1.44L456.7 1.62C456.4 1.98667 456.17 2.25333 456.01 2.42C455.857 2.58667 455.73 2.67 455.63 2.67C455.577 2.67 455.533 2.65333 455.5 2.62C455.473 2.58 455.46 2.54333 455.46 2.51C455.46 2.45667 455.6 2.28 455.88 1.98C456.16 1.65333 456.393 1.37667 456.58 1.15L456.71 0.95ZM462.983 8.36C462.916 8.36 462.859 8.34333 462.813 8.31C462.766 8.28333 462.743 8.24333 462.743 8.19C462.743 7.91667 462.763 7.49333 462.803 6.92C462.843 6.30667 462.863 5.79667 462.863 5.39C462.863 4.99667 462.849 4.67667 462.823 4.43C462.803 4.17667 462.749 4.05 462.663 4.05C462.436 4.05 462.186 4.33333 461.913 4.9C461.646 5.46 461.339 6.2 460.993 7.12L460.843 7.52C460.816 7.58667 460.769 7.64 460.703 7.68C460.643 7.72 460.579 7.74 460.513 7.74C460.433 7.74 460.379 7.73333 460.353 7.72C460.326 7.70667 460.309 7.66667 460.303 7.6L460.223 6.78L460.073 5.34C460.026 4.76667 459.969 4.26667 459.903 3.84C459.883 3.74 459.873 3.66333 459.873 3.61C459.873 3.51 459.916 3.43 460.003 3.37C460.089 3.30333 460.189 3.27 460.303 3.27C460.369 3.27 460.416 3.43 460.443 3.75C460.476 4.07 460.509 4.58667 460.543 5.3L460.583 5.83C460.636 6.50333 460.666 6.93 460.673 7.11C460.693 7.07 460.709 7.02667 460.723 6.98C460.743 6.92667 460.766 6.87 460.793 6.81C461.153 5.87667 461.489 5.1 461.803 4.48C462.123 3.85333 462.429 3.54 462.723 3.54C462.929 3.54 463.069 3.71667 463.143 4.07C463.223 4.41667 463.273 4.86333 463.293 5.41C463.313 6.01667 463.323 6.90333 463.323 8.07C463.323 8.15 463.289 8.21667 463.223 8.27C463.156 8.33 463.076 8.36 462.983 8.36ZM466.902 6.73C466.556 7.15 466.242 7.47333 465.962 7.7C465.689 7.92667 465.402 8.04 465.102 8.04C464.849 8.04 464.639 7.93 464.472 7.71C464.312 7.49 464.232 7.23667 464.232 6.95C464.232 6.52333 464.346 5.98333 464.572 5.33C464.799 4.67667 465.086 4.11 465.432 3.63C465.779 3.15 466.126 2.91 466.472 2.91C466.619 2.91 466.746 2.96333 466.852 3.07C466.912 3.13 466.969 3.21 467.022 3.31C467.076 3.41 467.102 3.5 467.102 3.58C467.102 3.69333 467.086 3.82667 467.052 3.98C467.026 4.12667 466.996 4.2 466.962 4.2C466.896 4.2 466.852 4.16333 466.832 4.09C466.812 4.01667 466.799 3.92333 466.792 3.81C466.772 3.63667 466.752 3.52333 466.732 3.47C466.712 3.41 466.682 3.38 466.642 3.38C466.329 3.38 466.026 3.6 465.732 4.04C465.439 4.47333 465.199 4.98 465.012 5.56C464.826 6.13333 464.732 6.57667 464.732 6.89C464.732 7.33 464.879 7.55 465.172 7.55C465.386 7.55 465.579 7.49667 465.752 7.39C465.932 7.28333 466.119 7.13333 466.312 6.94C466.672 6.57333 466.952 6.25667 467.152 5.99C467.166 5.97 467.202 5.92 467.262 5.84C467.329 5.75333 467.376 5.71 467.402 5.71C467.482 5.71 467.522 5.74 467.522 5.8C467.522 5.84 467.452 5.96333 467.312 6.17C467.179 6.37667 467.042 6.56333 466.902 6.73ZM468.533 1.89C468.42 1.89 468.303 1.84333 468.183 1.75C468.07 1.65667 468.013 1.58 468.013 1.52C468.013 1.44667 468.047 1.37667 468.113 1.31C468.187 1.24333 468.26 1.21 468.333 1.21C468.433 1.24333 468.517 1.29667 468.583 1.37C468.637 1.42333 468.697 1.49333 468.763 1.58C468.83 1.66667 468.863 1.72 468.863 1.74C468.863 1.84 468.753 1.89 468.533 1.89ZM468.833 8.23C468.74 8.22333 468.67 8.07333 468.623 7.78C468.583 7.48667 468.54 6.93 468.493 6.11C468.467 5.57 468.443 5.04333 468.423 4.53C468.403 4.01 468.39 3.61 468.383 3.33C468.383 3.25667 468.393 3.20333 468.413 3.17C468.44 3.13 468.487 3.11 468.553 3.11C468.707 3.11 468.803 3.17333 468.843 3.3C468.883 3.42667 468.903 3.67 468.903 4.03L468.893 5.21C468.893 5.88333 468.913 6.42333 468.953 6.83C468.953 6.85 468.983 7.06333 469.043 7.47C469.09 7.75 469.113 7.93667 469.113 8.03C469.113 8.09667 469.083 8.14667 469.023 8.18C468.97 8.22 468.907 8.23667 468.833 8.23ZM474.671 7.63C474.671 7.71 474.638 7.80333 474.571 7.91C474.504 8.01 474.438 8.06 474.371 8.06C474.258 8.06 474.171 7.99 474.111 7.85C474.051 7.71 474.021 7.54667 474.021 7.36C474.021 7.2 474.031 6.72 474.051 5.92L474.061 5.54C474.061 5.38667 474.021 5.27667 473.941 5.21C473.641 5.71667 473.361 6.15667 473.101 6.53C472.841 6.90333 472.511 7.25667 472.111 7.59C471.711 7.91667 471.291 8.08 470.851 8.08C470.638 8.08 470.471 8.01333 470.351 7.88C470.238 7.74667 470.181 7.57333 470.181 7.36C470.181 7.09333 470.301 6.73 470.541 6.27C470.781 5.80333 471.088 5.33333 471.461 4.86C471.834 4.38 472.208 3.98667 472.581 3.68C472.828 3.48 473.024 3.34667 473.171 3.28C473.318 3.20667 473.448 3.17 473.561 3.17C473.668 3.17 473.778 3.20333 473.891 3.27C474.004 3.33667 474.101 3.43 474.181 3.55C474.261 3.67 474.301 3.80667 474.301 3.96C474.301 4.16667 474.244 4.36333 474.131 4.55L474.301 4.5C474.374 4.5 474.418 4.59 474.431 4.77C474.438 4.87667 474.444 5.09333 474.451 5.42C474.464 5.74667 474.474 6.01667 474.481 6.23C474.488 6.45 474.494 6.66333 474.501 6.87C474.508 7.07667 474.514 7.24 474.521 7.36C474.528 7.40667 474.554 7.45667 474.601 7.51C474.648 7.55667 474.671 7.59667 474.671 7.63ZM473.801 4.82C473.881 4.62 473.921 4.40333 473.921 4.17C473.921 4.03 473.878 3.91 473.791 3.81C473.711 3.70333 473.601 3.65 473.461 3.65C473.294 3.65 473.081 3.76333 472.821 3.99C472.521 4.24333 472.204 4.58333 471.871 5.01C471.538 5.43 471.261 5.84667 471.041 6.26C470.821 6.67333 470.711 7 470.711 7.24C470.711 7.44 470.804 7.54 470.991 7.54C471.351 7.54 471.698 7.40667 472.031 7.14C472.364 6.87333 472.661 6.55667 472.921 6.19C473.188 5.81667 473.481 5.36 473.801 4.82Z" fill="#505050"/>
<path d="M524.38 24.42C523.973 24.78 523.553 25.12 523.12 25.44C522.693 25.76 522.337 25.9867 522.05 26.12C522.03 26.1933 522 26.2467 521.96 26.28C521.92 26.32 521.86 26.34 521.78 26.34C521.72 26.34 521.677 26.3267 521.65 26.3C521.623 26.28 521.61 26.24 521.61 26.18C521.61 26.14 521.623 25.9733 521.65 25.68C521.683 25.3867 521.7 25.0433 521.7 24.65C521.7 23.9833 521.69 23.38 521.67 22.84C521.657 22.2133 521.65 21.7733 521.65 21.52C521.65 21.1267 521.69 20.8033 521.77 20.55C521.83 20.39 521.937 20.31 522.09 20.31C522.143 20.31 522.19 20.32 522.23 20.34C522.277 20.36 522.3 20.39 522.3 20.43C522.293 20.4633 522.257 20.58 522.19 20.78C522.13 20.98 522.1 21.17 522.1 21.35C522.1 21.85 522.11 22.3967 522.13 22.99C522.143 23.75 522.15 24.2767 522.15 24.57C522.15 25.07 522.147 25.37 522.14 25.47C522.38 25.3767 522.703 25.1833 523.11 24.89C523.523 24.5967 523.87 24.33 524.15 24.09C524.73 23.57 525.153 23.1033 525.42 22.69C525.687 22.2767 525.82 21.8467 525.82 21.4C525.82 20.86 525.48 20.49 524.8 20.29C524.127 20.09 523.243 19.99 522.15 19.99C521.817 19.99 521.37 20.03 520.81 20.11C520.703 20.1167 520.537 20.15 520.31 20.21C520.21 20.2433 520.14 20.26 520.1 20.26C520.047 20.26 519.997 20.2167 519.95 20.13C519.897 20.0433 519.87 19.9567 519.87 19.87C519.87 19.8367 519.893 19.8067 519.94 19.78C519.987 19.7467 520.06 19.7233 520.16 19.71C520.56 19.6567 520.9 19.6167 521.18 19.59C521.467 19.5633 521.8 19.55 522.18 19.55C523.393 19.55 524.38 19.6867 525.14 19.96C525.907 20.2333 526.29 20.6967 526.29 21.35C526.29 21.87 526.14 22.3633 525.84 22.83C525.54 23.2967 525.053 23.8267 524.38 24.42ZM530.903 23.6C530.903 23.72 530.813 23.9833 530.633 24.39C530.46 24.7967 530.193 25.1733 529.833 25.52C529.48 25.8667 529.043 26.04 528.523 26.04C528.096 26.04 527.74 25.9067 527.453 25.64C527.166 25.3733 527.023 24.9633 527.023 24.41C527.023 23.89 527.143 23.3767 527.383 22.87C527.623 22.3567 527.936 21.94 528.323 21.62C528.71 21.2933 529.11 21.13 529.523 21.13C529.77 21.13 529.976 21.1867 530.143 21.3C530.316 21.4067 530.403 21.5633 530.403 21.77C530.403 22.0033 530.27 22.23 530.003 22.45C529.743 22.67 529.403 22.8633 528.983 23.03C528.563 23.1967 528.13 23.3167 527.683 23.39C527.603 23.6967 527.563 23.9967 527.563 24.29C527.563 24.6767 527.653 24.9767 527.833 25.19C528.02 25.4033 528.283 25.51 528.623 25.51C529.136 25.51 529.553 25.3267 529.873 24.96C530.193 24.5933 530.46 24.18 530.673 23.72C530.686 23.6933 530.71 23.6433 530.743 23.57C530.776 23.49 530.806 23.45 530.833 23.45C530.88 23.45 530.903 23.5 530.903 23.6ZM529.403 21.54C529.15 21.54 528.906 21.6233 528.673 21.79C528.44 21.9567 528.243 22.1567 528.083 22.39C527.93 22.6233 527.83 22.83 527.783 23.01C528.09 22.9767 528.413 22.89 528.753 22.75C529.093 22.61 529.376 22.4567 529.603 22.29C529.836 22.1233 529.953 21.9867 529.953 21.88C529.953 21.7733 529.896 21.69 529.783 21.63C529.676 21.57 529.55 21.54 529.403 21.54ZM532.792 26.34C532.505 26.34 532.312 26.3133 532.212 26.26C532.112 26.2067 532.062 26.1333 532.062 26.04C532.062 25.98 532.138 25.8767 532.292 25.73C532.445 25.5767 532.548 25.5 532.602 25.5C532.682 25.5 532.722 25.5167 532.722 25.55C532.722 25.5767 532.705 25.6033 532.672 25.63C532.638 25.6567 532.622 25.68 532.622 25.7C532.622 25.7267 532.662 25.7533 532.742 25.78C532.828 25.8067 532.932 25.82 533.052 25.82C533.332 25.82 533.612 25.77 533.892 25.67C534.178 25.5633 534.412 25.4267 534.592 25.26C534.772 25.0933 534.862 24.9167 534.862 24.73C534.862 24.55 534.805 24.4067 534.692 24.3C534.578 24.1933 534.435 24.1167 534.262 24.07C534.095 24.0167 533.812 23.9433 533.412 23.85C532.972 23.75 532.628 23.6633 532.382 23.59C532.142 23.51 531.948 23.4133 531.802 23.3C531.655 23.18 531.582 23.03 531.582 22.85C531.582 22.53 531.738 22.2367 532.052 21.97C532.365 21.7033 532.725 21.4933 533.132 21.34C533.538 21.1867 533.852 21.11 534.072 21.11C534.298 21.11 534.412 21.1767 534.412 21.31C534.412 21.39 534.385 21.48 534.332 21.58C534.278 21.6733 534.198 21.72 534.092 21.72C534.052 21.72 534.008 21.7067 533.962 21.68C533.915 21.6467 533.868 21.63 533.822 21.63C533.688 21.63 533.478 21.6733 533.192 21.76C532.905 21.8467 532.645 21.9767 532.412 22.15C532.178 22.3233 532.062 22.5333 532.062 22.78C532.062 22.94 532.152 23.06 532.332 23.14C532.518 23.2133 532.862 23.3067 533.362 23.42C533.422 23.44 533.482 23.4567 533.542 23.47C533.602 23.4767 533.655 23.4867 533.702 23.5C534.215 23.62 534.608 23.7567 534.882 23.91C535.155 24.0633 535.292 24.2933 535.292 24.6C535.292 24.8933 535.172 25.1767 534.932 25.45C534.698 25.7167 534.388 25.93 534.002 26.09C533.615 26.2567 533.212 26.34 532.792 26.34ZM540.755 21.2C540.408 21.5933 540.085 22.1567 539.785 22.89C539.485 23.6233 539.248 24.4167 539.075 25.27C539.055 25.37 539.021 25.57 538.975 25.87L538.925 26.22C538.905 26.3267 538.858 26.41 538.785 26.47C538.718 26.53 538.598 26.56 538.425 26.56C538.391 26.56 538.278 26.36 538.085 25.96C537.891 25.5533 537.688 25.1167 537.475 24.65L537.045 23.71C536.785 23.1433 536.568 22.7 536.395 22.38C536.221 22.06 536.095 21.9 536.015 21.9C535.988 21.9 535.965 21.9167 535.945 21.95C535.931 21.9833 535.915 22 535.895 22C535.861 22 535.831 21.9867 535.805 21.96C535.785 21.9267 535.775 21.8933 535.775 21.86C535.775 21.7733 535.821 21.66 535.915 21.52C536.015 21.38 536.111 21.31 536.205 21.31C536.271 21.31 536.321 21.3233 536.355 21.35C536.388 21.3767 536.418 21.4067 536.445 21.44C536.471 21.4733 536.491 21.5 536.505 21.52C536.665 21.72 536.941 22.2467 537.335 23.1C537.475 23.4 537.821 24.1833 538.375 25.45L538.605 25.98C538.605 25.8067 538.638 25.5267 538.705 25.14C538.851 24.3533 539.071 23.5733 539.365 22.8C539.658 22.0267 540.001 21.38 540.395 20.86C540.475 20.7533 540.538 20.68 540.585 20.64C540.638 20.5933 540.705 20.57 540.785 20.57C540.818 20.57 540.871 20.6233 540.945 20.73C541.018 20.83 541.055 20.8967 541.055 20.93C541.055 20.9633 541.008 21.01 540.915 21.07C540.828 21.13 540.775 21.1733 540.755 21.2ZM541.826 19.89C541.713 19.89 541.596 19.8433 541.476 19.75C541.363 19.6567 541.306 19.58 541.306 19.52C541.306 19.4467 541.34 19.3767 541.406 19.31C541.48 19.2433 541.553 19.21 541.626 19.21C541.726 19.2433 541.81 19.2967 541.876 19.37C541.93 19.4233 541.99 19.4933 542.056 19.58C542.123 19.6667 542.156 19.72 542.156 19.74C542.156 19.84 542.046 19.89 541.826 19.89ZM542.126 26.23C542.033 26.2233 541.963 26.0733 541.916 25.78C541.876 25.4867 541.833 24.93 541.786 24.11C541.76 23.57 541.736 23.0433 541.716 22.53C541.696 22.01 541.683 21.61 541.676 21.33C541.676 21.2567 541.686 21.2033 541.706 21.17C541.733 21.13 541.78 21.11 541.846 21.11C542 21.11 542.096 21.1733 542.136 21.3C542.176 21.4267 542.196 21.67 542.196 22.03L542.186 23.21C542.186 23.8833 542.206 24.4233 542.246 24.83C542.246 24.85 542.276 25.0633 542.336 25.47C542.383 25.75 542.406 25.9367 542.406 26.03C542.406 26.0967 542.376 26.1467 542.316 26.18C542.263 26.22 542.2 26.2367 542.126 26.23ZM544.824 26.07C544.377 26.07 544.047 25.9467 543.834 25.7C543.621 25.4533 543.514 25.1467 543.514 24.78C543.514 24.46 543.571 24.0633 543.684 23.59C543.804 23.1167 543.971 22.6933 544.184 22.32C544.197 22.2933 544.251 22.1967 544.344 22.03C544.444 21.8567 544.554 21.7267 544.674 21.64C544.794 21.5467 544.921 21.5 545.054 21.5C545.114 21.5 545.167 21.5167 545.214 21.55C545.267 21.5767 545.294 21.6133 545.294 21.66C545.294 21.6733 545.274 21.7067 545.234 21.76C545.201 21.8067 545.174 21.8433 545.154 21.87C544.927 22.1433 544.744 22.4133 544.604 22.68C544.417 23.02 544.271 23.3567 544.164 23.69C544.064 24.0233 544.014 24.3867 544.014 24.78C544.014 25.3067 544.334 25.57 544.974 25.57C545.274 25.57 545.551 25.4833 545.804 25.31C546.064 25.1367 546.271 24.9267 546.424 24.68C546.577 24.4267 546.654 24.1967 546.654 23.99C546.654 23.7567 546.577 23.5533 546.424 23.38C546.271 23.2067 546.061 23.0233 545.794 22.83C545.621 22.7033 545.494 22.6 545.414 22.52C545.334 22.44 545.294 22.3733 545.294 22.32C545.294 22.24 545.351 22.1767 545.464 22.13C545.577 22.0767 545.711 22.05 545.864 22.05C545.951 22.05 546.007 22.0567 546.034 22.07C546.061 22.0767 546.074 22.0933 546.074 22.12C546.074 22.1333 546.061 22.1567 546.034 22.19C546.014 22.2167 546.004 22.24 546.004 22.26C546.004 22.28 546.071 22.3467 546.204 22.46C546.471 22.68 546.694 22.9033 546.874 23.13C547.054 23.3567 547.144 23.6233 547.144 23.93C547.144 24.19 547.047 24.49 546.854 24.83C546.661 25.17 546.387 25.4633 546.034 25.71C545.681 25.95 545.277 26.07 544.824 26.07ZM553.753 22.98C553.546 23.0733 553.336 23.16 553.123 23.24C552.909 23.32 552.769 23.37 552.703 23.39C552.736 24.2033 552.753 24.8967 552.753 25.47C552.753 25.6567 552.773 25.81 552.812 25.93C552.859 26.0433 552.882 26.1167 552.882 26.15C552.882 26.2233 552.846 26.2833 552.773 26.33C552.699 26.3833 552.623 26.41 552.543 26.41C552.443 26.41 552.379 26.34 552.353 26.2C552.353 26.1867 552.343 26.1267 552.323 26.02C552.309 25.9133 552.303 25.7633 552.303 25.57C552.303 25.05 552.283 24.1967 552.243 23.01C552.223 22.41 552.213 21.9833 552.213 21.73C552.213 21.5167 552.216 21.32 552.223 21.14C552.229 20.9533 552.233 20.8267 552.233 20.76C551.813 20.8733 551.449 20.99 551.143 21.11C551.043 21.1567 550.903 21.2333 550.723 21.34C550.643 21.3867 550.563 21.43 550.483 21.47C550.409 21.51 550.353 21.53 550.312 21.53C550.259 21.53 550.212 21.5067 550.172 21.46C550.132 21.4133 550.112 21.3567 550.112 21.29C550.112 21.2033 550.239 21.0967 550.493 20.97C550.746 20.8367 551.053 20.71 551.413 20.59C551.779 20.47 552.116 20.38 552.423 20.32C552.783 20.2533 553.183 20.22 553.623 20.22C554.229 20.22 554.706 20.3 555.053 20.46C555.399 20.6133 555.573 20.8467 555.573 21.16C555.573 21.5533 555.413 21.8933 555.093 22.18C554.773 22.46 554.326 22.7267 553.753 22.98ZM553.623 20.62C553.316 20.62 553.003 20.64 552.683 20.68C552.676 20.7333 552.666 20.8567 552.653 21.05C552.646 21.2433 552.643 21.4267 552.643 21.6L552.653 22.33C552.659 22.49 552.663 22.6933 552.663 22.94C552.803 22.9267 553.099 22.8267 553.553 22.64C553.993 22.4467 554.363 22.2333 554.663 22C554.963 21.76 555.113 21.5067 555.113 21.24C555.113 21.0133 554.969 20.8533 554.683 20.76C554.396 20.6667 554.043 20.62 553.623 20.62ZM560.669 25.63C560.669 25.71 560.636 25.8033 560.569 25.91C560.502 26.01 560.436 26.06 560.369 26.06C560.256 26.06 560.169 25.99 560.109 25.85C560.049 25.71 560.019 25.5467 560.019 25.36C560.019 25.2 560.029 24.72 560.049 23.92L560.059 23.54C560.059 23.3867 560.019 23.2767 559.939 23.21C559.639 23.7167 559.359 24.1567 559.099 24.53C558.839 24.9033 558.509 25.2567 558.109 25.59C557.709 25.9167 557.289 26.08 556.849 26.08C556.636 26.08 556.469 26.0133 556.349 25.88C556.236 25.7467 556.179 25.5733 556.179 25.36C556.179 25.0933 556.299 24.73 556.539 24.27C556.779 23.8033 557.086 23.3333 557.459 22.86C557.832 22.38 558.206 21.9867 558.579 21.68C558.826 21.48 559.022 21.3467 559.169 21.28C559.316 21.2067 559.446 21.17 559.559 21.17C559.666 21.17 559.776 21.2033 559.889 21.27C560.002 21.3367 560.099 21.43 560.179 21.55C560.259 21.67 560.299 21.8067 560.299 21.96C560.299 22.1667 560.242 22.3633 560.129 22.55L560.299 22.5C560.372 22.5 560.416 22.59 560.429 22.77C560.436 22.8767 560.442 23.0933 560.449 23.42C560.462 23.7467 560.472 24.0167 560.479 24.23C560.486 24.45 560.492 24.6633 560.499 24.87C560.506 25.0767 560.512 25.24 560.519 25.36C560.526 25.4067 560.552 25.4567 560.599 25.51C560.646 25.5567 560.669 25.5967 560.669 25.63ZM559.799 22.82C559.879 22.62 559.919 22.4033 559.919 22.17C559.919 22.03 559.876 21.91 559.789 21.81C559.709 21.7033 559.599 21.65 559.459 21.65C559.292 21.65 559.079 21.7633 558.819 21.99C558.519 22.2433 558.202 22.5833 557.869 23.01C557.536 23.43 557.259 23.8467 557.039 24.26C556.819 24.6733 556.709 25 556.709 25.24C556.709 25.44 556.802 25.54 556.989 25.54C557.349 25.54 557.696 25.4067 558.029 25.14C558.362 24.8733 558.659 24.5567 558.919 24.19C559.186 23.8167 559.479 23.36 559.799 22.82ZM565.252 19.16C565.252 19.2933 565.245 19.5567 565.232 19.95C565.219 20.3367 565.212 20.7267 565.212 21.12C565.212 21.88 565.229 22.6567 565.262 23.45C565.295 24.2367 565.322 24.7533 565.342 25C565.342 25.04 565.345 25.0833 565.352 25.13C565.359 25.1767 565.365 25.22 565.372 25.26C565.399 25.4467 565.412 25.56 565.412 25.6C565.412 25.6667 565.362 25.73 565.262 25.79C565.169 25.85 565.095 25.88 565.042 25.88C564.969 25.88 564.919 25.8533 564.892 25.8C564.872 25.74 564.862 25.66 564.862 25.56C564.862 25.1933 564.872 24.81 564.892 24.41L564.902 23.85C564.902 23.6633 564.899 23.42 564.892 23.12C564.885 22.8133 564.875 22.5567 564.862 22.35C564.522 23.4433 564.135 24.35 563.702 25.07C563.275 25.7833 562.812 26.14 562.312 26.14C562.085 26.14 561.892 26.0333 561.732 25.82C561.579 25.6067 561.502 25.3 561.502 24.9C561.502 24.3733 561.679 23.8 562.032 23.18C562.392 22.56 562.799 22.0267 563.252 21.58C563.712 21.1333 564.052 20.91 564.272 20.91C564.485 20.91 564.592 20.98 564.592 21.12C564.592 21.2133 564.559 21.3233 564.492 21.45C564.432 21.57 564.362 21.68 564.282 21.78C564.209 21.88 564.165 21.93 564.152 21.93C564.139 21.93 564.122 21.9267 564.102 21.92C564.089 21.9067 564.082 21.8933 564.082 21.88C564.082 21.8467 564.099 21.79 564.132 21.71C564.165 21.63 564.182 21.5767 564.182 21.55C564.182 21.5167 564.179 21.4933 564.172 21.48C564.165 21.4667 564.145 21.46 564.112 21.46C563.972 21.46 563.719 21.6533 563.352 22.04C562.992 22.42 562.669 22.8733 562.382 23.4C562.095 23.9267 561.952 24.4167 561.952 24.87C561.952 25.03 561.985 25.18 562.052 25.32C562.119 25.46 562.229 25.53 562.382 25.53C562.869 25.53 563.319 25.12 563.732 24.3C564.152 23.4733 564.515 22.5367 564.822 21.49L564.802 20.65C564.782 19.91 564.772 19.5167 564.772 19.47C564.772 19.07 564.789 18.7833 564.822 18.61C564.835 18.5433 564.849 18.4967 564.862 18.47C564.882 18.4433 564.919 18.43 564.972 18.43C565.039 18.43 565.105 18.4533 565.172 18.5C565.239 18.54 565.272 18.5967 565.272 18.67L565.252 19.16ZM569.508 22.11C569.462 22.11 569.415 22.09 569.368 22.05C569.328 22.01 569.282 21.9533 569.228 21.88C569.182 21.8133 569.118 21.7567 569.038 21.71C568.965 21.6633 568.888 21.64 568.808 21.64C568.615 21.64 568.355 21.8967 568.028 22.41C567.702 22.9167 567.382 23.5567 567.068 24.33C567.075 24.4833 567.085 24.6767 567.098 24.91C567.118 25.1433 567.132 25.3167 567.138 25.43L567.168 25.83C567.168 25.9233 567.148 26.0033 567.108 26.07C567.068 26.1433 566.995 26.18 566.888 26.18C566.775 26.18 566.702 26.03 566.668 25.73C566.635 25.4233 566.615 24.98 566.608 24.4C566.602 24.2533 566.595 24.0433 566.588 23.77C566.588 23.4967 566.582 23.17 566.568 22.79C566.548 22.2167 566.538 21.8067 566.538 21.56C566.538 21.4067 566.632 21.33 566.818 21.33C566.932 21.33 566.998 21.38 567.018 21.48C567.045 21.5733 567.058 21.7567 567.058 22.03V23.62C567.258 23.1067 567.475 22.6633 567.708 22.29C567.942 21.9167 568.168 21.6333 568.388 21.44C568.615 21.24 568.815 21.14 568.988 21.14C569.135 21.14 569.275 21.1733 569.408 21.24C569.542 21.3067 569.648 21.3933 569.728 21.5C569.808 21.6 569.848 21.6967 569.848 21.79C569.848 21.85 569.805 21.92 569.718 22C569.638 22.0733 569.568 22.11 569.508 22.11ZM574.849 25.63C574.849 25.71 574.815 25.8033 574.749 25.91C574.682 26.01 574.615 26.06 574.549 26.06C574.435 26.06 574.349 25.99 574.289 25.85C574.229 25.71 574.199 25.5467 574.199 25.36C574.199 25.2 574.209 24.72 574.229 23.92L574.239 23.54C574.239 23.3867 574.199 23.2767 574.119 23.21C573.819 23.7167 573.539 24.1567 573.279 24.53C573.019 24.9033 572.689 25.2567 572.289 25.59C571.889 25.9167 571.469 26.08 571.029 26.08C570.815 26.08 570.649 26.0133 570.529 25.88C570.415 25.7467 570.359 25.5733 570.359 25.36C570.359 25.0933 570.479 24.73 570.719 24.27C570.959 23.8033 571.265 23.3333 571.639 22.86C572.012 22.38 572.385 21.9867 572.759 21.68C573.005 21.48 573.202 21.3467 573.349 21.28C573.495 21.2067 573.625 21.17 573.739 21.17C573.845 21.17 573.955 21.2033 574.069 21.27C574.182 21.3367 574.279 21.43 574.359 21.55C574.439 21.67 574.479 21.8067 574.479 21.96C574.479 22.1667 574.422 22.3633 574.309 22.55L574.479 22.5C574.552 22.5 574.595 22.59 574.609 22.77C574.615 22.8767 574.622 23.0933 574.629 23.42C574.642 23.7467 574.652 24.0167 574.659 24.23C574.665 24.45 574.672 24.6633 574.679 24.87C574.685 25.0767 574.692 25.24 574.699 25.36C574.705 25.4067 574.732 25.4567 574.779 25.51C574.825 25.5567 574.849 25.5967 574.849 25.63ZM573.979 22.82C574.059 22.62 574.099 22.4033 574.099 22.17C574.099 22.03 574.055 21.91 573.969 21.81C573.889 21.7033 573.779 21.65 573.639 21.65C573.472 21.65 573.259 21.7633 572.999 21.99C572.699 22.2433 572.382 22.5833 572.049 23.01C571.715 23.43 571.439 23.8467 571.219 24.26C570.999 24.6733 570.889 25 570.889 25.24C570.889 25.44 570.982 25.54 571.169 25.54C571.529 25.54 571.875 25.4067 572.209 25.14C572.542 24.8733 572.839 24.5567 573.099 24.19C573.365 23.8167 573.659 23.36 573.979 22.82ZM573.829 20.49C573.675 20.49 573.539 20.4533 573.419 20.38C573.305 20.3 573.165 20.1867 572.999 20.04C572.865 19.92 572.759 19.8333 572.679 19.78C572.599 19.7267 572.515 19.7 572.429 19.7C572.122 19.7 571.875 19.89 571.689 20.27C571.675 20.2967 571.662 20.3333 571.649 20.38C571.642 20.42 571.629 20.4533 571.609 20.48C571.595 20.5 571.575 20.51 571.549 20.51C571.502 20.51 571.455 20.4933 571.409 20.46C571.369 20.42 571.349 20.3733 571.349 20.32C571.349 20.1867 571.392 20.05 571.479 19.91C571.599 19.7167 571.749 19.56 571.929 19.44C572.109 19.32 572.299 19.26 572.499 19.26C572.619 19.26 572.725 19.2933 572.819 19.36C572.912 19.42 573.032 19.52 573.179 19.66C573.319 19.8 573.439 19.9067 573.539 19.98C573.639 20.0467 573.752 20.08 573.879 20.08C573.992 20.08 574.075 20.0467 574.129 19.98C574.182 19.9067 574.222 19.83 574.249 19.75C574.282 19.67 574.302 19.6167 574.309 19.59C574.375 19.43 574.445 19.35 574.519 19.35C574.565 19.35 574.609 19.36 574.649 19.38C574.689 19.3933 574.709 19.4133 574.709 19.44C574.709 19.6 574.665 19.7633 574.579 19.93C574.499 20.09 574.389 20.2233 574.249 20.33C574.115 20.4367 573.975 20.49 573.829 20.49ZM577.002 26.07C576.555 26.07 576.225 25.9467 576.012 25.7C575.798 25.4533 575.692 25.1467 575.692 24.78C575.692 24.46 575.748 24.0633 575.862 23.59C575.982 23.1167 576.148 22.6933 576.362 22.32C576.375 22.2933 576.428 22.1967 576.522 22.03C576.622 21.8567 576.732 21.7267 576.852 21.64C576.972 21.5467 577.098 21.5 577.232 21.5C577.292 21.5 577.345 21.5167 577.392 21.55C577.445 21.5767 577.472 21.6133 577.472 21.66C577.472 21.6733 577.452 21.7067 577.412 21.76C577.378 21.8067 577.352 21.8433 577.332 21.87C577.105 22.1433 576.922 22.4133 576.782 22.68C576.595 23.02 576.448 23.3567 576.342 23.69C576.242 24.0233 576.192 24.3867 576.192 24.78C576.192 25.3067 576.512 25.57 577.152 25.57C577.452 25.57 577.728 25.4833 577.982 25.31C578.242 25.1367 578.448 24.9267 578.602 24.68C578.755 24.4267 578.832 24.1967 578.832 23.99C578.832 23.7567 578.755 23.5533 578.602 23.38C578.448 23.2067 578.238 23.0233 577.972 22.83C577.798 22.7033 577.672 22.6 577.592 22.52C577.512 22.44 577.472 22.3733 577.472 22.32C577.472 22.24 577.528 22.1767 577.642 22.13C577.755 22.0767 577.888 22.05 578.042 22.05C578.128 22.05 578.185 22.0567 578.212 22.07C578.238 22.0767 578.252 22.0933 578.252 22.12C578.252 22.1333 578.238 22.1567 578.212 22.19C578.192 22.2167 578.182 22.24 578.182 22.26C578.182 22.28 578.248 22.3467 578.382 22.46C578.648 22.68 578.872 22.9033 579.052 23.13C579.232 23.3567 579.322 23.6233 579.322 23.93C579.322 24.19 579.225 24.49 579.032 24.83C578.838 25.17 578.565 25.4633 578.212 25.71C577.858 25.95 577.455 26.07 577.002 26.07Z" fill="#505050"/>
<path d="M435.5 5.5L430.229 3.14431L430.824 8.88703L435.5 5.5ZM434 26.5C434.021 26.5 433.999 26.5026 433.913 26.4744C433.836 26.4493 433.733 26.4084 433.604 26.3488C433.346 26.23 433.011 26.0501 432.614 25.8129C431.822 25.3396 430.808 24.6542 429.712 23.8168C427.516 22.1381 425.027 19.8768 423.335 17.5256C421.62 15.1434 420.838 12.8362 421.695 10.9615C422.558 9.07372 425.204 7.34575 431.098 6.45855L430.949 5.4697C425.013 6.36337 421.879 8.15531 420.786 10.5457C419.687 12.9491 420.773 15.6782 422.523 18.1098C424.296 20.5723 426.869 22.9023 429.105 24.6113C430.226 25.4677 431.271 26.1753 432.102 26.6715C432.516 26.9191 432.884 27.1181 433.185 27.2569C433.336 27.3263 433.476 27.3839 433.603 27.4251C433.719 27.4633 433.861 27.5 434 27.5V26.5Z" fill="#505050"/>
<path d="M514.5 22.5L509.307 19.9778L509.719 25.7366L514.5 22.5ZM509.558 37.2027C506.942 33.6661 505.974 30.5139 506.21 28.1083C506.442 25.739 507.843 24.0307 510.161 23.2983L509.86 22.3447C507.17 23.1947 505.486 25.2328 505.214 28.0109C504.946 30.7525 506.055 34.1484 508.754 37.7973L509.558 37.2027Z" fill="#505050"/>
</svg>
