<svg width="233" height="48" viewBox="0 0 233 48" fill="none" xmlns="http://www.w3.org/2000/svg">
<circle cx="99" cy="22" r="1" fill="black"/>
<path d="M11.14 23.14C10.58 23.9 9.82667 24.64 8.88 25.36C7.93333 26.0667 6.89333 26.42 5.76 26.42C4.56 26.42 3.58 26.08 2.82 25.4C2.06 24.7067 1.68 23.6867 1.68 22.34C1.68 21.42 1.84 20.38 2.16 19.22C2.48 18.06 2.85333 17.0533 3.28 16.2C3.72 15.3333 4.22667 14.6133 4.8 14.04C5.38667 13.4667 5.97333 13.18 6.56 13.18C7.13333 13.18 7.57333 13.3867 7.88 13.8C8.2 14.2133 8.36 14.7267 8.36 15.34C8.36 15.5667 8.31333 15.8 8.22 16.04C8.14 16.2667 8.04667 16.46 7.94 16.62C7.83333 16.78 7.75333 16.86 7.7 16.86C7.59333 16.86 7.54 16.8 7.54 16.68C7.54 16.64 7.56 16.5533 7.6 16.42C7.65333 16.2733 7.68 16.1533 7.68 16.06C7.68 15.7267 7.64 15.4133 7.56 15.12C7.49333 14.8667 7.36 14.66 7.16 14.5C6.96 14.3267 6.74 14.24 6.5 14.24C5.54 14.24 4.64 15.1667 3.8 17.02C3.46667 17.7667 3.18667 18.6067 2.96 19.54C2.73333 20.4733 2.62 21.3733 2.62 22.24C2.62 22.84 2.74 23.3867 2.98 23.88C3.23333 24.3733 3.58667 24.7667 4.04 25.06C4.50667 25.3533 5.04667 25.5 5.66 25.5C6.63333 25.5 7.51333 25.2667 8.3 24.8C9.1 24.3333 9.88667 23.7333 10.66 23C10.6867 22.9733 10.78 22.8267 10.94 22.56C11.1 22.28 11.22 22.14 11.3 22.14C11.38 22.14 11.4333 22.16 11.46 22.2C11.4867 22.24 11.5 22.3133 11.5 22.42C11.5 22.5533 11.38 22.7933 11.14 23.14ZM20.837 14.9C20.6637 15.26 20.4837 15.74 20.297 16.34C20.1237 16.94 19.8704 17.84 19.537 19.04L18.977 21.1C18.297 23.5667 17.877 25.3067 17.717 26.32C17.677 26.5467 17.5704 26.7333 17.397 26.88C17.2237 27.04 16.9637 27.12 16.617 27.12C16.537 27.12 16.2504 26.56 15.757 25.44C15.277 24.3067 14.6437 22.8 13.857 20.92C13.377 19.8 12.8904 18.76 12.397 17.8C11.9037 16.8267 11.5704 16.2667 11.397 16.12C11.1704 15.9467 11.057 15.76 11.057 15.56C11.057 15.4667 11.1437 15.34 11.317 15.18C11.5037 15.02 11.6904 14.94 11.877 14.94C11.997 14.94 12.0837 14.9667 12.137 15.02C12.1904 15.06 12.2637 15.1467 12.357 15.28C12.5304 15.5333 12.817 16.0867 13.217 16.94C13.617 17.78 14.0237 18.7 14.437 19.7L16.077 23.68C16.597 24.9067 16.897 25.6267 16.977 25.84C17.0037 25.5867 17.1237 24.9867 17.337 24.04C17.5637 23.0933 17.8304 22.0267 18.137 20.84C18.5904 19.12 18.957 17.7667 19.237 16.78C19.5304 15.78 19.8037 14.9867 20.057 14.4C20.2837 13.88 20.477 13.5267 20.637 13.34C20.797 13.1533 20.977 13.06 21.177 13.06C21.2437 13.06 21.3504 13.1667 21.497 13.38C21.6437 13.58 21.717 13.7133 21.717 13.78C21.717 13.82 21.6104 13.9333 21.397 14.12C21.1837 14.3067 20.997 14.5667 20.837 14.9Z" fill="black"/>
<path d="M110.42 26.62C110.46 26.78 110.5 26.9667 110.54 27.18C110.593 27.4067 110.62 27.5467 110.62 27.6C110.62 27.7467 110.533 27.88 110.36 28C110.2 28.1333 110.02 28.2 109.82 28.2C109.7 28.2 109.58 28.08 109.46 27.84C109.34 27.6133 109.253 27.32 109.2 26.96C108.96 25.56 108.747 23.3933 108.56 20.46L108.28 16.2C107.24 17.24 106.167 18.12 105.06 18.84C104.767 19.0267 104.56 19.12 104.44 19.12C104.307 19.12 104.2 19.08 104.12 19C104.04 18.9067 104 18.82 104 18.74C104 18.5667 104.153 18.38 104.46 18.18C105.14 17.74 105.747 17.2733 106.28 16.78C106.827 16.2867 107.373 15.76 107.92 15.2L108.2 14.92V14.9V14.6V14.4C108.2 14.3067 108.22 14.2467 108.26 14.22C108.287 14.1933 108.313 14.18 108.34 14.18C108.42 14.14 108.513 14.12 108.62 14.12C108.887 14.12 109.1 14.16 109.26 14.24C109.42 14.32 109.5 14.44 109.5 14.6C109.5 14.76 109.42 14.9467 109.26 15.16C109.327 15.48 109.367 15.8 109.38 16.12C109.407 16.9067 109.507 18.4267 109.68 20.68C109.853 22.92 109.987 24.3933 110.08 25.1C110.147 25.4467 110.26 25.9533 110.42 26.62ZM116.849 27.66C115.889 27.66 115.149 27.3 114.629 26.58C114.109 25.86 113.849 24.9267 113.849 23.78C113.849 22.4067 114.015 21.02 114.349 19.62C114.695 18.2067 115.155 16.9333 115.729 15.8C115.622 15.8 115.522 15.76 115.429 15.68C115.335 15.6 115.289 15.5 115.289 15.38C115.289 15.2067 115.389 15.0467 115.589 14.9C115.802 14.7533 116.049 14.6467 116.329 14.58C116.355 14.5533 116.402 14.5 116.469 14.42C116.535 14.3267 116.629 14.28 116.749 14.28C116.882 14.28 117.009 14.3067 117.129 14.36C117.249 14.4 117.322 14.4467 117.349 14.5C117.722 14.4333 118.102 14.4 118.489 14.4C119.395 14.4 120.209 14.6467 120.929 15.14C121.649 15.6333 122.215 16.32 122.629 17.2C123.042 18.0667 123.249 19.04 123.249 20.12C123.249 21.2933 122.942 22.4667 122.329 23.64C121.729 24.8133 120.929 25.7733 119.929 26.52C118.942 27.28 117.915 27.66 116.849 27.66ZM118.569 15.62C118.262 15.62 117.855 15.66 117.349 15.74L116.929 15.8C116.315 16.8933 115.835 18.18 115.489 19.66C115.155 21.14 114.989 22.5067 114.989 23.76C114.989 24.6 115.149 25.2933 115.469 25.84C115.802 26.3733 116.322 26.64 117.029 26.64C117.842 26.64 118.662 26.3 119.489 25.62C120.315 24.9267 120.995 24.0733 121.529 23.06C122.062 22.0467 122.329 21.08 122.329 20.16C122.329 19.3467 122.149 18.5933 121.789 17.9C121.442 17.1933 120.975 16.64 120.389 16.24C119.815 15.8267 119.209 15.62 118.569 15.62ZM128.138 27.66C127.178 27.66 126.438 27.3 125.918 26.58C125.398 25.86 125.138 24.9267 125.138 23.78C125.138 22.4067 125.304 21.02 125.638 19.62C125.984 18.2067 126.444 16.9333 127.018 15.8C126.911 15.8 126.811 15.76 126.718 15.68C126.624 15.6 126.578 15.5 126.578 15.38C126.578 15.2067 126.678 15.0467 126.878 14.9C127.091 14.7533 127.338 14.6467 127.618 14.58C127.644 14.5533 127.691 14.5 127.758 14.42C127.824 14.3267 127.918 14.28 128.038 14.28C128.171 14.28 128.298 14.3067 128.418 14.36C128.538 14.4 128.611 14.4467 128.638 14.5C129.011 14.4333 129.391 14.4 129.778 14.4C130.684 14.4 131.498 14.6467 132.218 15.14C132.938 15.6333 133.504 16.32 133.918 17.2C134.331 18.0667 134.538 19.04 134.538 20.12C134.538 21.2933 134.231 22.4667 133.618 23.64C133.018 24.8133 132.218 25.7733 131.218 26.52C130.231 27.28 129.204 27.66 128.138 27.66ZM129.858 15.62C129.551 15.62 129.144 15.66 128.638 15.74L128.218 15.8C127.604 16.8933 127.124 18.18 126.778 19.66C126.444 21.14 126.278 22.5067 126.278 23.76C126.278 24.6 126.438 25.2933 126.758 25.84C127.091 26.3733 127.611 26.64 128.318 26.64C129.131 26.64 129.951 26.3 130.778 25.62C131.604 24.9267 132.284 24.0733 132.818 23.06C133.351 22.0467 133.618 21.08 133.618 20.16C133.618 19.3467 133.438 18.5933 133.078 17.9C132.731 17.1933 132.264 16.64 131.678 16.24C131.104 15.8267 130.498 15.62 129.858 15.62Z" fill="black"/>
<path d="M164.64 26.5C164.147 26.5533 163.347 26.66 162.24 26.82C161.28 26.9667 160.627 27.06 160.28 27.1L158.7 27.34C157.86 27.4733 157.173 27.5667 156.64 27.62C156.12 27.6867 155.547 27.72 154.92 27.72C154.693 27.72 154.48 27.64 154.28 27.48C154.093 27.32 154 27.0933 154 26.8C154 26.64 154.027 26.5133 154.08 26.42C154.133 26.3267 154.22 26.2133 154.34 26.08C155.113 25.3067 155.773 24.6133 156.32 24C156.88 23.3867 157.567 22.5933 158.38 21.62C159.207 20.62 159.82 19.7667 160.22 19.06C160.633 18.3533 160.84 17.62 160.84 16.86C160.84 16.1667 160.633 15.6333 160.22 15.26C159.82 14.8733 159.293 14.68 158.64 14.68C158.147 14.68 157.713 14.7533 157.34 14.9C156.967 15.0333 156.447 15.2933 155.78 15.68C155.62 15.76 155.447 15.88 155.26 16.04C155.073 16.1867 154.953 16.28 154.9 16.32C154.713 16.48 154.527 16.62 154.34 16.74C154.167 16.86 154.033 16.92 153.94 16.92C153.62 16.92 153.46 16.74 153.46 16.38C153.46 16.0733 153.633 15.8 153.98 15.56C154.06 15.5067 154.347 15.34 154.84 15.06C155.133 14.9133 155.367 14.7867 155.54 14.68C156.153 14.3333 156.687 14.0867 157.14 13.94C157.607 13.7933 158.16 13.72 158.8 13.72C159.72 13.72 160.46 14.0067 161.02 14.58C161.593 15.1533 161.88 15.88 161.88 16.76C161.88 17.4267 161.727 18.1 161.42 18.78C161.127 19.4467 160.793 20.0333 160.42 20.54C160.047 21.0467 159.6 21.6067 159.08 22.22C158.8 22.5533 158.093 23.3333 156.96 24.56L155.92 25.7C155.88 25.74 155.767 25.8533 155.58 26.04C155.407 26.24 155.32 26.38 155.32 26.46C155.32 26.62 155.48 26.7 155.8 26.7C156.227 26.7 156.787 26.64 157.48 26.52C158.187 26.4 158.607 26.3267 158.74 26.3L160.48 26C160.747 25.96 161.407 25.8733 162.46 25.74C163.393 25.62 163.973 25.5333 164.2 25.48C164.373 25.3733 164.56 25.2733 164.76 25.18C164.96 25.0733 165.093 25.02 165.16 25.02C165.427 25.02 165.56 25.2667 165.56 25.76C165.56 25.9333 165.473 26.08 165.3 26.2C165.14 26.3333 164.92 26.4333 164.64 26.5ZM169.77 27.66C168.81 27.66 168.07 27.3 167.55 26.58C167.03 25.86 166.77 24.9267 166.77 23.78C166.77 22.4067 166.937 21.02 167.27 19.62C167.617 18.2067 168.077 16.9333 168.65 15.8C168.544 15.8 168.444 15.76 168.35 15.68C168.257 15.6 168.21 15.5 168.21 15.38C168.21 15.2067 168.31 15.0467 168.51 14.9C168.724 14.7533 168.97 14.6467 169.25 14.58C169.277 14.5533 169.324 14.5 169.39 14.42C169.457 14.3267 169.55 14.28 169.67 14.28C169.804 14.28 169.93 14.3067 170.05 14.36C170.17 14.4 170.244 14.4467 170.27 14.5C170.644 14.4333 171.024 14.4 171.41 14.4C172.317 14.4 173.13 14.6467 173.85 15.14C174.57 15.6333 175.137 16.32 175.55 17.2C175.964 18.0667 176.17 19.04 176.17 20.12C176.17 21.2933 175.864 22.4667 175.25 23.64C174.65 24.8133 173.85 25.7733 172.85 26.52C171.864 27.28 170.837 27.66 169.77 27.66ZM171.49 15.62C171.184 15.62 170.777 15.66 170.27 15.74L169.85 15.8C169.237 16.8933 168.757 18.18 168.41 19.66C168.077 21.14 167.91 22.5067 167.91 23.76C167.91 24.6 168.07 25.2933 168.39 25.84C168.724 26.3733 169.244 26.64 169.95 26.64C170.764 26.64 171.584 26.3 172.41 25.62C173.237 24.9267 173.917 24.0733 174.45 23.06C174.984 22.0467 175.25 21.08 175.25 20.16C175.25 19.3467 175.07 18.5933 174.71 17.9C174.364 17.1933 173.897 16.64 173.31 16.24C172.737 15.8267 172.13 15.62 171.49 15.62ZM178.36 28.5C178.226 28.5 178.113 28.46 178.02 28.38C177.94 28.3133 177.9 28.22 177.9 28.1C177.9 28.02 177.973 27.8267 178.12 27.52C178.28 27.2267 178.38 27.0467 178.42 26.98L178.98 25.9L179.34 24.98C179.486 24.58 179.606 24.2867 179.7 24.1C179.793 23.9 179.886 23.8 179.98 23.8C180.126 23.8 180.28 23.8867 180.44 24.06C180.613 24.22 180.7 24.3733 180.7 24.52C180.7 24.72 180.54 25.1533 180.22 25.82C179.913 26.4867 179.573 27.1 179.2 27.66C178.826 28.22 178.546 28.5 178.36 28.5ZM187.438 27.96C186.811 27.96 186.244 27.88 185.738 27.72C185.244 27.56 184.818 27.3267 184.458 27.02C184.098 26.7267 183.818 26.3667 183.618 25.94C183.431 25.5 183.338 25.0133 183.338 24.48C183.338 24.12 183.384 23.76 183.478 23.4C183.584 23.04 183.718 22.7 183.878 22.38C184.051 22.0467 184.251 21.7467 184.478 21.48C184.704 21.2 184.951 20.96 185.218 20.76C185.058 20.7867 184.898 20.8133 184.738 20.84C184.578 20.8533 184.411 20.86 184.238 20.86C183.918 20.86 183.618 20.8 183.338 20.68C183.071 20.5467 182.838 20.3733 182.638 20.16C182.438 19.9467 182.284 19.7067 182.178 19.44C182.071 19.16 182.018 18.8667 182.018 18.56C182.018 17.96 182.098 17.3933 182.258 16.86C182.431 16.3133 182.658 15.8133 182.938 15.36C183.231 14.8933 183.578 14.4733 183.978 14.1C184.378 13.7267 184.811 13.4 185.278 13.12C185.571 12.9467 185.798 12.8333 185.958 12.78C186.118 12.7267 186.278 12.7 186.438 12.7C186.531 12.7 186.611 12.7267 186.678 12.78C186.758 12.8333 186.798 12.9 186.798 12.98C186.878 12.9533 187.011 12.92 187.198 12.88C187.398 12.8267 187.638 12.8 187.918 12.8C188.651 12.8 189.264 13.0267 189.758 13.48C190.264 13.92 190.518 14.56 190.518 15.4C190.518 15.9067 190.398 16.38 190.158 16.82C190.011 17.0867 189.811 17.38 189.558 17.7C189.304 18.0067 189.091 18.2467 188.918 18.42C188.944 18.42 189.044 18.4067 189.218 18.38C189.404 18.34 189.691 18.32 190.078 18.32C190.638 18.32 191.171 18.4067 191.678 18.58C192.184 18.74 192.631 18.98 193.018 19.3C193.404 19.62 193.711 20.0067 193.938 20.46C194.164 20.9133 194.278 21.4267 194.278 22C194.278 22.72 194.078 23.44 193.678 24.16C193.278 24.8667 192.751 25.5 192.098 26.06C191.458 26.62 190.724 27.0733 189.898 27.42C189.084 27.78 188.264 27.96 187.438 27.96ZM187.678 13.7C187.344 13.7 187.051 13.7533 186.798 13.86C186.798 13.9267 186.751 14 186.658 14.08C186.578 14.1467 186.491 14.18 186.398 14.18C186.264 14.18 186.124 14.1933 185.978 14.22C185.831 14.2333 185.678 14.2533 185.518 14.28C185.171 14.4 184.844 14.6067 184.538 14.9C184.231 15.18 183.964 15.5133 183.738 15.9C183.511 16.2733 183.324 16.6867 183.178 17.14C183.044 17.5933 182.978 18.04 182.978 18.48C182.978 18.9333 183.104 19.2867 183.358 19.54C183.624 19.78 184.011 19.9 184.518 19.9C185.038 19.9 185.591 19.76 186.178 19.48C186.764 19.2 187.304 18.84 187.798 18.4C188.291 17.96 188.698 17.4733 189.018 16.94C189.338 16.3933 189.498 15.8667 189.498 15.36C189.498 14.84 189.324 14.4333 188.978 14.14C188.644 13.8467 188.211 13.7 187.678 13.7ZM187.818 19.52C186.738 20.1333 185.884 20.8667 185.258 21.72C184.631 22.56 184.318 23.44 184.318 24.36C184.318 25.28 184.591 25.9533 185.138 26.38C185.684 26.8067 186.458 27.02 187.458 27.02C188.124 27.02 188.804 26.88 189.498 26.6C190.191 26.32 190.818 25.9533 191.378 25.5C191.951 25.0333 192.418 24.5067 192.778 23.92C193.138 23.32 193.318 22.7 193.318 22.06C193.318 21.62 193.224 21.22 193.038 20.86C192.864 20.5 192.618 20.2 192.298 19.96C191.991 19.7067 191.624 19.5133 191.198 19.38C190.771 19.2467 190.304 19.18 189.798 19.18C189.078 19.18 188.418 19.2933 187.818 19.52ZM200.985 25.76C201.038 26.0933 201.132 26.3867 201.265 26.64C201.318 26.7467 201.412 26.86 201.545 26.98C201.692 27.1133 201.765 27.1933 201.765 27.22C201.765 27.34 201.685 27.46 201.525 27.58C201.378 27.7 201.225 27.76 201.065 27.76C200.825 27.76 200.612 27.6067 200.425 27.3C200.318 27.1133 200.232 26.8933 200.165 26.64C200.098 26.4 200.058 26.1867 200.045 26C200.018 26 199.972 26 199.905 26C199.838 26.0133 199.738 26.02 199.605 26.02C198.605 26.02 197.818 25.5933 197.245 24.74C196.685 23.8733 196.405 22.7733 196.405 21.44C196.405 19.7067 196.858 18.06 197.765 16.5C198.685 14.9267 199.912 13.7 201.445 12.82C201.552 12.74 201.672 12.68 201.805 12.64C201.952 12.6 202.065 12.58 202.145 12.58C202.278 12.58 202.405 12.6267 202.525 12.72C202.645 12.8 202.705 12.9133 202.705 13.06C202.705 13.3133 202.532 13.54 202.185 13.74C200.452 14.74 199.212 15.8667 198.465 17.12C197.732 18.3733 197.365 19.8333 197.365 21.5C197.365 22.4733 197.572 23.3067 197.985 24C198.398 24.68 199.085 25.02 200.045 25.02C200.165 23.7 200.438 22.56 200.865 21.6C201.305 20.64 201.838 19.9133 202.465 19.42C203.105 18.9267 203.778 18.68 204.485 18.68C205.085 18.68 205.538 18.8533 205.845 19.2C206.165 19.5467 206.325 19.9867 206.325 20.52C206.325 21.1733 206.125 21.8333 205.725 22.5C205.325 23.1533 204.725 23.7667 203.925 24.34C203.125 24.9133 202.145 25.3867 200.985 25.76ZM204.425 19.62C203.572 19.62 202.832 20.08 202.205 21C201.578 21.9067 201.165 23.2 200.965 24.88C201.765 24.68 202.505 24.3467 203.185 23.88C203.865 23.4 204.405 22.8733 204.805 22.3C205.218 21.7267 205.425 21.1933 205.425 20.7C205.425 19.98 205.092 19.62 204.425 19.62ZM223.887 18.7C223.714 19.26 223.434 20.0267 223.047 21C222.981 21.1733 222.801 21.6533 222.507 22.44C222.227 23.2133 222.001 23.9333 221.827 24.6C221.747 24.8667 221.467 25 220.987 25C220.774 25 220.667 24.7867 220.667 24.36C220.667 24.2933 220.861 23.8133 221.247 22.92C221.981 21.2533 222.587 19.7533 223.067 18.42C223.547 17.0733 223.787 15.9067 223.787 14.92C223.787 14.72 223.761 14.58 223.707 14.5C223.654 14.42 223.581 14.38 223.487 14.38C222.981 14.38 222.367 14.5 221.647 14.74C220.941 14.9667 220.247 15.28 219.567 15.68C219.234 16.3067 218.801 16.9467 218.267 17.6C217.747 18.2533 217.167 18.8 216.527 19.24C215.887 19.68 215.261 19.9 214.647 19.9C214.354 19.9 214.094 19.76 213.867 19.48C213.641 19.2 213.527 18.8 213.527 18.28C213.527 17.7333 213.714 17.0867 214.087 16.34C214.474 15.5933 214.907 14.94 215.387 14.38C215.881 13.82 216.247 13.54 216.487 13.54C216.727 13.54 216.907 13.5933 217.027 13.7C217.147 13.7933 217.207 13.9067 217.207 14.04C217.207 14.0667 217.101 14.1733 216.887 14.36C216.261 14.9333 215.714 15.5267 215.247 16.14C214.794 16.74 214.567 17.4067 214.567 18.14C214.567 18.3533 214.621 18.52 214.727 18.64C214.834 18.7467 214.974 18.8 215.147 18.8C215.401 18.8 215.767 18.6333 216.247 18.3C216.741 17.9533 217.174 17.5533 217.547 17.1C217.921 16.6467 218.107 16.2533 218.107 15.92C218.107 15.84 218.041 15.7133 217.907 15.54C217.787 15.3667 217.727 15.2267 217.727 15.12C217.727 14.92 217.814 14.7533 217.987 14.62C218.174 14.4733 218.407 14.4 218.687 14.4C218.901 14.4 219.167 14.4733 219.487 14.62C220.127 14.2867 220.907 13.9867 221.827 13.72C222.761 13.44 223.394 13.3 223.727 13.3C224.181 13.3 224.481 13.3933 224.627 13.58C224.774 13.7667 224.847 14.0667 224.847 14.48C224.847 15.2267 224.527 16.6333 223.887 18.7ZM228.087 26.34C227.167 26.34 226.467 26.0533 225.987 25.48C225.521 24.8933 225.287 24.1933 225.287 23.38C225.287 22.8733 225.367 22.3733 225.527 21.88C225.687 21.3867 225.874 20.9867 226.087 20.68C226.314 20.36 226.501 20.2 226.647 20.2C226.887 20.2 227.067 20.2933 227.187 20.48C227.307 20.6667 227.367 20.8667 227.367 21.08C227.367 21.1467 227.334 21.2467 227.267 21.38C227.201 21.5 227.121 21.6267 227.027 21.76C226.801 22.1067 226.621 22.42 226.487 22.7C226.367 22.9667 226.307 23.26 226.307 23.58C226.307 24.06 226.441 24.48 226.707 24.84C226.987 25.1867 227.407 25.36 227.967 25.36C228.501 25.36 228.954 25.1667 229.327 24.78C229.714 24.38 230.001 23.8867 230.187 23.3C230.387 22.7133 230.487 22.1467 230.487 21.6C230.487 21.0267 230.361 20.5467 230.107 20.16C229.867 19.76 229.594 19.56 229.287 19.56C229.007 19.56 228.647 19.66 228.207 19.86C227.901 19.9933 227.641 20.06 227.427 20.06C227.307 20.06 227.207 20.02 227.127 19.94C227.047 19.8467 227.007 19.7467 227.007 19.64C227.007 19.36 227.207 19.12 227.607 18.92C228.007 18.7067 228.447 18.6 228.927 18.6C229.741 18.6 230.347 18.88 230.747 19.44C231.147 20 231.347 20.7267 231.347 21.62C231.347 22.3533 231.221 23.0867 230.967 23.82C230.727 24.54 230.361 25.14 229.867 25.62C229.387 26.1 228.794 26.34 228.087 26.34Z" fill="black"/>
<path d="M52.1 18.38C51.82 18.38 51.6067 17.9067 51.46 16.96C51.3267 16.0133 51.2067 14.7267 51.1 13.1C50.7667 13.1533 50.2 13.2733 49.4 13.46C48.6 13.6333 47.86 13.8067 47.18 13.98C44.78 14.58 43.4267 14.88 43.12 14.88C43.0267 14.88 42.8933 14.8067 42.72 14.66C42.56 14.5133 42.48 14.3733 42.48 14.24C42.48 14.0933 42.5667 13.94 42.74 13.78C42.9667 13.58 43.5467 12.9733 44.48 11.96C45.2933 11.0533 46.04 10.26 46.72 9.58C47.4133 8.88667 48.48 7.64 49.92 5.84C50.4 5.24 50.7067 4.86667 50.84 4.72C51.0267 4.50667 51.16 4.32667 51.24 4.18C51.32 4.02 51.38 3.91333 51.42 3.86C51.46 3.80667 51.5267 3.78 51.62 3.78C51.78 3.78 51.9533 3.86 52.14 4.02C52.3267 4.18 52.42 4.34667 52.42 4.52C52.42 4.56 52.38 4.64667 52.3 4.78C52.2067 4.96667 52.1533 5.18667 52.14 5.44C52.1133 5.88 52.1 7.70667 52.1 10.92C52.1 11.4667 52.1067 11.86 52.12 12.1L52.52 12.02C53.32 11.86 53.98 11.7467 54.5 11.68C54.6067 11.6667 54.6933 11.58 54.76 11.42C54.84 11.26 54.92 11.18 55 11.18C55.1467 11.18 55.2933 11.2667 55.44 11.44C55.6 11.6 55.68 11.7667 55.68 11.94C55.68 12.1667 55.5867 12.3267 55.4 12.42C55.2133 12.5 54.86 12.5667 54.34 12.62L52.78 12.8L52.18 12.88C52.2733 14.2533 52.4533 15.5667 52.72 16.82C52.8133 17.34 52.86 17.66 52.86 17.78C52.86 17.9267 52.78 18.06 52.62 18.18C52.4733 18.3133 52.3 18.38 52.1 18.38ZM47.38 10.08C46.1533 11.4 45.0667 12.5933 44.12 13.66L45.48 13.36C46.2133 13.2267 46.7133 13.1267 46.98 13.06C47.78 12.8733 48.7133 12.68 49.78 12.48L51.04 12.22C51 11.7 50.98 11.2933 50.98 11C50.98 10.12 50.9867 9.14 51 8.06C51.0267 6.98 51.0467 6.3 51.06 6.02C50.82 6.28667 50.3467 6.81333 49.64 7.6C48.9467 8.37333 48.1933 9.2 47.38 10.08ZM57.3048 19.5C57.1715 19.5 57.0582 19.46 56.9648 19.38C56.8848 19.3133 56.8448 19.22 56.8448 19.1C56.8448 19.02 56.9182 18.8267 57.0648 18.52C57.2248 18.2267 57.3248 18.0467 57.3648 17.98L57.9248 16.9L58.2848 15.98C58.4315 15.58 58.5515 15.2867 58.6448 15.1C58.7382 14.9 58.8315 14.8 58.9248 14.8C59.0715 14.8 59.2248 14.8867 59.3848 15.06C59.5582 15.22 59.6448 15.3733 59.6448 15.52C59.6448 15.72 59.4848 16.1533 59.1648 16.82C58.8582 17.4867 58.5182 18.1 58.1448 18.66C57.7715 19.22 57.4915 19.5 57.3048 19.5ZM70.1431 4.52C70.1431 4.74667 70.0231 4.88 69.7831 4.92C68.9698 5.06667 68.2365 5.21333 67.5831 5.36C66.9431 5.49333 66.3698 5.63333 65.8631 5.78C65.5298 5.87333 65.2298 5.96667 64.9631 6.06C64.7098 6.14 64.4898 6.22 64.3031 6.3C64.1165 6.38 63.9231 6.47333 63.7231 6.58C63.5365 6.67333 63.3365 6.78 63.1231 6.9C63.1231 7.72667 62.9031 9.18667 62.4631 11.28L63.4631 10.92C63.7965 10.8 64.1565 10.6867 64.5431 10.58C64.9298 10.4733 65.3231 10.38 65.7231 10.3C66.1231 10.22 66.5231 10.1533 66.9231 10.1C67.3231 10.0467 67.7031 10.02 68.0631 10.02C68.7965 10.02 69.3498 10.2067 69.7231 10.58C70.0965 10.94 70.2831 11.46 70.2831 12.14C70.2831 13.1 70.0031 14.0067 69.4431 14.86C68.8831 15.7 68.0631 16.4667 66.9831 17.16C66.3698 17.5467 65.9165 17.8267 65.6231 18C65.3431 18.1867 65.1298 18.3133 64.9831 18.38C64.5565 18.5933 64.2498 18.7 64.0631 18.7C63.8765 18.7 63.7231 18.62 63.6031 18.46C63.4831 18.3 63.4231 18.1467 63.4231 18C63.4231 17.8133 63.5431 17.6867 63.7831 17.62L64.2031 17.5C64.4298 17.4333 64.6365 17.36 64.8231 17.28C65.0231 17.2 65.1965 17.1267 65.3431 17.06C65.6631 16.9267 66.0631 16.7067 66.5431 16.4C67.4631 15.8 68.1298 15.1733 68.5431 14.52C68.9698 13.8667 69.1831 13.16 69.1831 12.4C69.1831 11.8667 69.0631 11.4933 68.8231 11.28C68.5965 11.0667 68.2498 10.96 67.7831 10.96C67.2231 10.96 66.6365 11.04 66.0231 11.2C65.4098 11.3467 64.6898 11.5467 63.8631 11.8C63.5565 11.9067 63.3165 11.9933 63.1431 12.06C62.9698 12.1133 62.8631 12.1467 62.8231 12.16C62.7298 12.1867 62.6231 12.24 62.5031 12.32C62.3831 12.4 62.2765 12.4667 62.1831 12.52C62.0631 12.6 61.9565 12.64 61.8631 12.64C61.7698 12.64 61.7031 12.6333 61.6631 12.62C61.4231 12.58 61.3031 12.42 61.3031 12.14C61.3031 12.1 61.3631 11.7667 61.4831 11.14C61.6565 10.22 61.7965 9.44 61.9031 8.8C62.0098 8.14667 62.0631 7.6 62.0631 7.16C61.9698 7.05333 61.9231 6.91333 61.9231 6.74C61.9231 6.5 62.1565 6.25333 62.6231 6C63.0898 5.74667 63.8431 5.44667 64.8831 5.1C65.6831 4.83333 66.5165 4.62 67.3831 4.46C68.2498 4.28667 69.0431 4.2 69.7631 4.2C70.0165 4.2 70.1431 4.30667 70.1431 4.52ZM81.9778 7.4C81.7911 7.68 81.6978 7.85333 81.6978 7.92C81.6978 8.92 81.7445 10.82 81.8378 13.62C81.9178 15.6733 81.9578 17.08 81.9578 17.84C81.9578 18.0667 81.8711 18.2667 81.6978 18.44C81.5378 18.6267 81.3778 18.72 81.2178 18.72C81.0311 18.72 80.8978 18.6867 80.8178 18.62C80.7378 18.5667 80.6978 18.4733 80.6978 18.34L80.7378 17.74C80.8178 17.0733 80.8578 16.42 80.8578 15.78C80.8578 15.4067 80.8378 13.86 80.7978 11.14L80.7778 9.38C80.0845 10.4467 79.4511 11.34 78.8778 12.06C78.3045 12.7667 77.6511 13.3667 76.9178 13.86C76.1845 14.34 75.3978 14.58 74.5578 14.58C73.7445 14.58 73.1245 14.3333 72.6978 13.84C72.2711 13.3333 72.0578 12.6733 72.0578 11.86C72.0578 10.6733 72.4245 9.45333 73.1578 8.2C73.9045 6.94667 74.8511 5.91333 75.9978 5.1C77.1578 4.28667 78.3245 3.88 79.4978 3.88C80.0978 3.88 80.5978 4.07333 80.9978 4.46C81.4111 4.83333 81.6778 5.30667 81.7978 5.88C81.9578 5.90667 82.0978 5.97333 82.2178 6.08C82.3511 6.18667 82.4178 6.32667 82.4178 6.5C82.4178 6.63333 82.2711 6.93333 81.9778 7.4ZM80.4378 8.06C80.5445 7.91333 80.6911 7.69333 80.8778 7.4V7.38C80.9178 7.23333 80.9378 7.06 80.9378 6.86C80.9378 6.28667 80.7711 5.82 80.4378 5.46C80.1178 5.1 79.6378 4.92 78.9978 4.92C78.1845 4.92 77.3111 5.28 76.3778 6C75.4578 6.70667 74.6845 7.60667 74.0578 8.7C73.4311 9.78 73.1178 10.84 73.1178 11.88C73.1178 12.3067 73.2645 12.68 73.5578 13C73.8511 13.32 74.2578 13.48 74.7778 13.48C75.4445 13.48 76.0911 13.2333 76.7178 12.74C77.3578 12.2333 77.9511 11.62 78.4978 10.9C79.0445 10.1667 79.6911 9.22 80.4378 8.06Z" fill="black"/>
<path d="M61.64 41.5C61.1467 41.5533 60.3467 41.66 59.24 41.82C58.28 41.9667 57.6267 42.06 57.28 42.1L55.7 42.34C54.86 42.4733 54.1733 42.5667 53.64 42.62C53.12 42.6867 52.5467 42.72 51.92 42.72C51.6933 42.72 51.48 42.64 51.28 42.48C51.0933 42.32 51 42.0933 51 41.8C51 41.64 51.0267 41.5133 51.08 41.42C51.1333 41.3267 51.22 41.2133 51.34 41.08C52.1133 40.3067 52.7733 39.6133 53.32 39C53.88 38.3867 54.5667 37.5933 55.38 36.62C56.2067 35.62 56.82 34.7667 57.22 34.06C57.6333 33.3533 57.84 32.62 57.84 31.86C57.84 31.1667 57.6333 30.6333 57.22 30.26C56.82 29.8733 56.2933 29.68 55.64 29.68C55.1467 29.68 54.7133 29.7533 54.34 29.9C53.9667 30.0333 53.4467 30.2933 52.78 30.68C52.62 30.76 52.4467 30.88 52.26 31.04C52.0733 31.1867 51.9533 31.28 51.9 31.32C51.7133 31.48 51.5267 31.62 51.34 31.74C51.1667 31.86 51.0333 31.92 50.94 31.92C50.62 31.92 50.46 31.74 50.46 31.38C50.46 31.0733 50.6333 30.8 50.98 30.56C51.06 30.5067 51.3467 30.34 51.84 30.06C52.1333 29.9133 52.3667 29.7867 52.54 29.68C53.1533 29.3333 53.6867 29.0867 54.14 28.94C54.6067 28.7933 55.16 28.72 55.8 28.72C56.72 28.72 57.46 29.0067 58.02 29.58C58.5933 30.1533 58.88 30.88 58.88 31.76C58.88 32.4267 58.7267 33.1 58.42 33.78C58.1267 34.4467 57.7933 35.0333 57.42 35.54C57.0467 36.0467 56.6 36.6067 56.08 37.22C55.8 37.5533 55.0933 38.3333 53.96 39.56L52.92 40.7C52.88 40.74 52.7667 40.8533 52.58 41.04C52.4067 41.24 52.32 41.38 52.32 41.46C52.32 41.62 52.48 41.7 52.8 41.7C53.2267 41.7 53.7867 41.64 54.48 41.52C55.1867 41.4 55.6067 41.3267 55.74 41.3L57.48 41C57.7467 40.96 58.4067 40.8733 59.46 40.74C60.3933 40.62 60.9733 40.5333 61.2 40.48C61.3733 40.3733 61.56 40.2733 61.76 40.18C61.96 40.0733 62.0933 40.02 62.16 40.02C62.4267 40.02 62.56 40.2667 62.56 40.76C62.56 40.9333 62.4733 41.08 62.3 41.2C62.14 41.3333 61.92 41.4333 61.64 41.5ZM75.3705 41.5C74.8771 41.5533 74.0771 41.66 72.9705 41.82C72.0105 41.9667 71.3571 42.06 71.0105 42.1L69.4305 42.34C68.5905 42.4733 67.9038 42.5667 67.3705 42.62C66.8505 42.6867 66.2771 42.72 65.6505 42.72C65.4238 42.72 65.2105 42.64 65.0105 42.48C64.8238 42.32 64.7305 42.0933 64.7305 41.8C64.7305 41.64 64.7571 41.5133 64.8105 41.42C64.8638 41.3267 64.9505 41.2133 65.0705 41.08C65.8438 40.3067 66.5038 39.6133 67.0505 39C67.6105 38.3867 68.2971 37.5933 69.1105 36.62C69.9371 35.62 70.5505 34.7667 70.9505 34.06C71.3638 33.3533 71.5705 32.62 71.5705 31.86C71.5705 31.1667 71.3638 30.6333 70.9505 30.26C70.5505 29.8733 70.0238 29.68 69.3705 29.68C68.8771 29.68 68.4438 29.7533 68.0705 29.9C67.6971 30.0333 67.1771 30.2933 66.5105 30.68C66.3505 30.76 66.1771 30.88 65.9905 31.04C65.8038 31.1867 65.6838 31.28 65.6305 31.32C65.4438 31.48 65.2571 31.62 65.0705 31.74C64.8971 31.86 64.7638 31.92 64.6705 31.92C64.3505 31.92 64.1905 31.74 64.1905 31.38C64.1905 31.0733 64.3638 30.8 64.7105 30.56C64.7905 30.5067 65.0771 30.34 65.5705 30.06C65.8638 29.9133 66.0971 29.7867 66.2705 29.68C66.8838 29.3333 67.4171 29.0867 67.8705 28.94C68.3371 28.7933 68.8905 28.72 69.5305 28.72C70.4505 28.72 71.1905 29.0067 71.7505 29.58C72.3238 30.1533 72.6105 30.88 72.6105 31.76C72.6105 32.4267 72.4571 33.1 72.1505 33.78C71.8571 34.4467 71.5238 35.0333 71.1505 35.54C70.7771 36.0467 70.3305 36.6067 69.8105 37.22C69.5305 37.5533 68.8238 38.3333 67.6905 39.56L66.6505 40.7C66.6105 40.74 66.4971 40.8533 66.3105 41.04C66.1371 41.24 66.0505 41.38 66.0505 41.46C66.0505 41.62 66.2105 41.7 66.5305 41.7C66.9571 41.7 67.5171 41.64 68.2105 41.52C68.9171 41.4 69.3371 41.3267 69.4705 41.3L71.2105 41C71.4771 40.96 72.1371 40.8733 73.1905 40.74C74.1238 40.62 74.7038 40.5333 74.9305 40.48C75.1038 40.3733 75.2905 40.2733 75.4905 40.18C75.6905 40.0733 75.8238 40.02 75.8905 40.02C76.1571 40.02 76.2905 40.2667 76.2905 40.76C76.2905 40.9333 76.2038 41.08 76.0305 41.2C75.8705 41.3333 75.6505 41.4333 75.3705 41.5Z" fill="black"/>
<path d="M31.925 19.035C31.285 19.105 30.46 19.16 29.45 19.2C28.45 19.23 27.635 19.245 27.005 19.245C26.875 19.245 26.76 19.22 26.66 19.17C26.56 19.12 26.51 19.035 26.51 18.915C26.51 18.785 26.555 18.7 26.645 18.66C26.735 18.62 26.885 18.6 27.095 18.6C27.975 18.6 28.805 18.585 29.585 18.555C30.365 18.525 31.185 18.45 32.045 18.33C32.125 18.32 32.19 18.255 32.24 18.135C32.3 18.015 32.36 17.955 32.42 17.955C32.53 17.955 32.64 18.02 32.75 18.15C32.87 18.27 32.93 18.395 32.93 18.525C32.93 18.695 32.86 18.815 32.72 18.885C32.58 18.945 32.315 18.995 31.925 19.035ZM32.195 21.525C30.465 21.725 28.96 21.825 27.68 21.825C27.53 21.825 27.385 21.8 27.245 21.75C27.105 21.69 27.035 21.605 27.035 21.495C27.035 21.365 27.08 21.28 27.17 21.24C27.26 21.2 27.41 21.18 27.62 21.18C29.07 21.18 30.365 21.11 31.505 20.97C31.945 20.93 32.205 20.91 32.285 20.91C32.875 20.91 33.17 20.975 33.17 21.105C33.17 21.255 33.1 21.355 32.96 21.405C32.82 21.445 32.565 21.485 32.195 21.525Z" fill="black"/>
<path d="M145.925 19.035C145.285 19.105 144.46 19.16 143.45 19.2C142.45 19.23 141.635 19.245 141.005 19.245C140.875 19.245 140.76 19.22 140.66 19.17C140.56 19.12 140.51 19.035 140.51 18.915C140.51 18.785 140.555 18.7 140.645 18.66C140.735 18.62 140.885 18.6 141.095 18.6C141.975 18.6 142.805 18.585 143.585 18.555C144.365 18.525 145.185 18.45 146.045 18.33C146.125 18.32 146.19 18.255 146.24 18.135C146.3 18.015 146.36 17.955 146.42 17.955C146.53 17.955 146.64 18.02 146.75 18.15C146.87 18.27 146.93 18.395 146.93 18.525C146.93 18.695 146.86 18.815 146.72 18.885C146.58 18.945 146.315 18.995 145.925 19.035ZM146.195 21.525C144.465 21.725 142.96 21.825 141.68 21.825C141.53 21.825 141.385 21.8 141.245 21.75C141.105 21.69 141.035 21.605 141.035 21.495C141.035 21.365 141.08 21.28 141.17 21.24C141.26 21.2 141.41 21.18 141.62 21.18C143.07 21.18 144.365 21.11 145.505 20.97C145.945 20.93 146.205 20.91 146.285 20.91C146.875 20.91 147.17 20.975 147.17 21.105C147.17 21.255 147.1 21.355 146.96 21.405C146.82 21.445 146.565 21.485 146.195 21.525Z" fill="black"/>
<path d="M42 22H89" stroke="black" stroke-linecap="round"/>
</svg>
