<svg width="539" height="54" viewBox="0 0 539 54" fill="none" xmlns="http://www.w3.org/2000/svg">
<path d="M178.792 12.15C178.644 12.166 178.404 12.198 178.072 12.246C177.784 12.29 177.588 12.318 177.484 12.33L177.01 12.402C176.758 12.442 176.552 12.47 176.392 12.486C176.236 12.506 176.064 12.516 175.876 12.516C175.808 12.516 175.744 12.492 175.684 12.444C175.628 12.396 175.6 12.328 175.6 12.24C175.6 12.192 175.608 12.154 175.624 12.126C175.64 12.098 175.666 12.064 175.702 12.024C175.934 11.792 176.132 11.584 176.296 11.4C176.464 11.216 176.67 10.978 176.914 10.686C177.162 10.386 177.346 10.13 177.466 9.918C177.59 9.706 177.652 9.486 177.652 9.258C177.652 9.05 177.59 8.89 177.466 8.778C177.346 8.662 177.188 8.604 176.992 8.604C176.844 8.604 176.714 8.626 176.602 8.67C176.49 8.71 176.334 8.788 176.134 8.904C176.086 8.928 176.034 8.964 175.978 9.012C175.922 9.056 175.886 9.084 175.87 9.096C175.814 9.144 175.758 9.186 175.702 9.222C175.65 9.258 175.61 9.276 175.582 9.276C175.486 9.276 175.438 9.222 175.438 9.114C175.438 9.022 175.49 8.94 175.594 8.868C175.618 8.852 175.704 8.802 175.852 8.718C175.94 8.674 176.01 8.636 176.062 8.604C176.246 8.5 176.406 8.426 176.542 8.382C176.682 8.338 176.848 8.316 177.04 8.316C177.316 8.316 177.538 8.402 177.706 8.574C177.878 8.746 177.964 8.964 177.964 9.228C177.964 9.428 177.918 9.63 177.826 9.834C177.738 10.034 177.638 10.21 177.526 10.362C177.414 10.514 177.28 10.682 177.124 10.866C177.04 10.966 176.828 11.2 176.488 11.568L176.176 11.91C176.164 11.922 176.13 11.956 176.074 12.012C176.022 12.072 175.996 12.114 175.996 12.138C175.996 12.186 176.044 12.21 176.14 12.21C176.268 12.21 176.436 12.192 176.644 12.156C176.856 12.12 176.982 12.098 177.022 12.09L177.544 12C177.624 11.988 177.822 11.962 178.138 11.922C178.418 11.886 178.592 11.86 178.66 11.844C178.712 11.812 178.768 11.782 178.828 11.754C178.888 11.722 178.928 11.706 178.948 11.706C179.028 11.706 179.068 11.78 179.068 11.928C179.068 11.98 179.042 12.024 178.99 12.06C178.942 12.1 178.876 12.13 178.792 12.15Z" fill="black"/>
<path d="M145.6 19.5L144.26 19.66C143.94 19.7 143.64 19.7333 143.36 19.76C143.08 19.7733 142.74 19.78 142.34 19.78C142.167 19.78 142.013 19.7467 141.88 19.68C141.747 19.6133 141.68 19.5 141.68 19.34C141.68 19.1667 141.74 19.0533 141.86 19C141.98 18.9467 142.18 18.92 142.46 18.92C142.967 18.92 143.32 18.92 143.52 18.92C143.733 18.9067 143.92 18.88 144.08 18.84C144.133 18.8267 144.287 18.8 144.54 18.76C144.793 18.7067 145.2 18.64 145.76 18.56C145.867 18.5467 145.953 18.46 146.02 18.3C146.1 18.14 146.18 18.06 146.26 18.06C146.407 18.06 146.553 18.1467 146.7 18.32C146.86 18.48 146.94 18.6467 146.94 18.82C146.94 19.0467 146.847 19.2067 146.66 19.3C146.473 19.38 146.12 19.4467 145.6 19.5Z" fill="black"/>
<path d="M6.92242 40.36C5.77576 40.36 5.00242 40.2533 4.60242 40.04C4.20242 39.8267 4.00242 39.5333 4.00242 39.16C4.00242 38.92 4.30909 38.5067 4.92242 37.92C5.53576 37.3067 5.94909 37 6.16242 37C6.48242 37 6.64242 37.0667 6.64242 37.2C6.64242 37.3067 6.57576 37.4133 6.44242 37.52C6.30909 37.6267 6.24242 37.72 6.24242 37.8C6.24242 37.9067 6.40242 38.0133 6.72242 38.12C7.06909 38.2267 7.48242 38.28 7.96242 38.28C9.08242 38.28 10.2024 38.08 11.3224 37.68C12.4691 37.2533 13.4024 36.7067 14.1224 36.04C14.8424 35.3733 15.2024 34.6667 15.2024 33.92C15.2024 33.2 14.9758 32.6267 14.5224 32.2C14.0691 31.7733 13.4958 31.4667 12.8024 31.28C12.1358 31.0667 11.0024 30.7733 9.40242 30.4C7.64242 30 6.26909 29.6533 5.28242 29.36C4.32242 29.04 3.54909 28.6533 2.96242 28.2C2.37576 27.72 2.08242 27.12 2.08242 26.4C2.08242 25.12 2.70909 23.9467 3.96242 22.88C5.21576 21.8133 6.65576 20.9733 8.28242 20.36C9.90909 19.7467 11.1624 19.44 12.0424 19.44C12.9491 19.44 13.4024 19.7067 13.4024 20.24C13.4024 20.56 13.2958 20.92 13.0824 21.32C12.8691 21.6933 12.5491 21.88 12.1224 21.88C11.9624 21.88 11.7891 21.8267 11.6024 21.72C11.4158 21.5867 11.2291 21.52 11.0424 21.52C10.5091 21.52 9.66909 21.6933 8.52242 22.04C7.37576 22.3867 6.33576 22.9067 5.40242 23.6C4.46909 24.2933 4.00242 25.1333 4.00242 26.12C4.00242 26.76 4.36242 27.24 5.08242 27.56C5.82909 27.8533 7.20242 28.2267 9.20242 28.68C9.44242 28.76 9.68242 28.8267 9.92242 28.88C10.1624 28.9067 10.3758 28.9467 10.5624 29C12.6158 29.48 14.1891 30.0267 15.2824 30.64C16.3758 31.2533 16.9224 32.1733 16.9224 33.4C16.9224 34.5733 16.4424 35.7067 15.4824 36.8C14.5491 37.8667 13.3091 38.72 11.7624 39.36C10.2158 40.0267 8.60242 40.36 6.92242 40.36Z" fill="black"/>
<path d="M29.3824 29.38C28.5291 29.4733 27.4291 29.5467 26.0824 29.6C24.7491 29.64 23.6624 29.66 22.8224 29.66C22.6491 29.66 22.4958 29.6267 22.3624 29.56C22.2291 29.4933 22.1624 29.38 22.1624 29.22C22.1624 29.0467 22.2224 28.9333 22.3424 28.88C22.4624 28.8267 22.6624 28.8 22.9424 28.8C24.1158 28.8 25.2224 28.78 26.2624 28.74C27.3024 28.7 28.3958 28.6 29.5424 28.44C29.6491 28.4267 29.7358 28.34 29.8024 28.18C29.8824 28.02 29.9624 27.94 30.0424 27.94C30.1891 27.94 30.3358 28.0267 30.4824 28.2C30.6424 28.36 30.7224 28.5267 30.7224 28.7C30.7224 28.9267 30.6291 29.0867 30.4424 29.18C30.2558 29.26 29.9024 29.3267 29.3824 29.38ZM29.7424 32.7C27.4358 32.9667 25.4291 33.1 23.7224 33.1C23.5224 33.1 23.3291 33.0667 23.1424 33C22.9558 32.92 22.8624 32.8067 22.8624 32.66C22.8624 32.4867 22.9224 32.3733 23.0424 32.32C23.1624 32.2667 23.3624 32.24 23.6424 32.24C25.5758 32.24 27.3024 32.1467 28.8224 31.96C29.4091 31.9067 29.7558 31.88 29.8624 31.88C30.6491 31.88 31.0424 31.9667 31.0424 32.14C31.0424 32.34 30.9491 32.4733 30.7624 32.54C30.5758 32.5933 30.2358 32.6467 29.7424 32.7Z" fill="black"/>
<path d="M208.9 32.38C208.047 32.4733 206.947 32.5467 205.6 32.6C204.267 32.64 203.18 32.66 202.34 32.66C202.167 32.66 202.013 32.6267 201.88 32.56C201.747 32.4933 201.68 32.38 201.68 32.22C201.68 32.0467 201.74 31.9333 201.86 31.88C201.98 31.8267 202.18 31.8 202.46 31.8C203.633 31.8 204.74 31.78 205.78 31.74C206.82 31.7 207.913 31.6 209.06 31.44C209.167 31.4267 209.253 31.34 209.32 31.18C209.4 31.02 209.48 30.94 209.56 30.94C209.707 30.94 209.853 31.0267 210 31.2C210.16 31.36 210.24 31.5267 210.24 31.7C210.24 31.9267 210.147 32.0867 209.96 32.18C209.773 32.26 209.42 32.3267 208.9 32.38ZM209.26 35.7C206.953 35.9667 204.947 36.1 203.24 36.1C203.04 36.1 202.847 36.0667 202.66 36C202.473 35.92 202.38 35.8067 202.38 35.66C202.38 35.4867 202.44 35.3733 202.56 35.32C202.68 35.2667 202.88 35.24 203.16 35.24C205.093 35.24 206.82 35.1467 208.34 34.96C208.927 34.9067 209.273 34.88 209.38 34.88C210.167 34.88 210.56 34.9667 210.56 35.14C210.56 35.34 210.467 35.4733 210.28 35.54C210.093 35.5933 209.753 35.6467 209.26 35.7Z" fill="black"/>
<path d="M376.9 29.38C376.047 29.4733 374.947 29.5467 373.6 29.6C372.267 29.64 371.18 29.66 370.34 29.66C370.167 29.66 370.013 29.6267 369.88 29.56C369.747 29.4933 369.68 29.38 369.68 29.22C369.68 29.0467 369.74 28.9333 369.86 28.88C369.98 28.8267 370.18 28.8 370.46 28.8C371.633 28.8 372.74 28.78 373.78 28.74C374.82 28.7 375.913 28.6 377.06 28.44C377.167 28.4267 377.253 28.34 377.32 28.18C377.4 28.02 377.48 27.94 377.56 27.94C377.707 27.94 377.853 28.0267 378 28.2C378.16 28.36 378.24 28.5267 378.24 28.7C378.24 28.9267 378.147 29.0867 377.96 29.18C377.773 29.26 377.42 29.3267 376.9 29.38ZM377.26 32.7C374.953 32.9667 372.947 33.1 371.24 33.1C371.04 33.1 370.847 33.0667 370.66 33C370.473 32.92 370.38 32.8067 370.38 32.66C370.38 32.4867 370.44 32.3733 370.56 32.32C370.68 32.2667 370.88 32.24 371.16 32.24C373.093 32.24 374.82 32.1467 376.34 31.96C376.927 31.9067 377.273 31.88 377.38 31.88C378.167 31.88 378.56 31.9667 378.56 32.14C378.56 32.34 378.467 32.4733 378.28 32.54C378.093 32.5933 377.753 32.6467 377.26 32.7Z" fill="black"/>
<path d="M491.9 29.38C491.047 29.4733 489.947 29.5467 488.6 29.6C487.267 29.64 486.18 29.66 485.34 29.66C485.167 29.66 485.013 29.6267 484.88 29.56C484.747 29.4933 484.68 29.38 484.68 29.22C484.68 29.0467 484.74 28.9333 484.86 28.88C484.98 28.8267 485.18 28.8 485.46 28.8C486.633 28.8 487.74 28.78 488.78 28.74C489.82 28.7 490.913 28.6 492.06 28.44C492.167 28.4267 492.253 28.34 492.32 28.18C492.4 28.02 492.48 27.94 492.56 27.94C492.707 27.94 492.853 28.0267 493 28.2C493.16 28.36 493.24 28.5267 493.24 28.7C493.24 28.9267 493.147 29.0867 492.96 29.18C492.773 29.26 492.42 29.3267 491.9 29.38ZM492.26 32.7C489.953 32.9667 487.947 33.1 486.24 33.1C486.04 33.1 485.847 33.0667 485.66 33C485.473 32.92 485.38 32.8067 485.38 32.66C485.38 32.4867 485.44 32.3733 485.56 32.32C485.68 32.2667 485.88 32.24 486.16 32.24C488.093 32.24 489.82 32.1467 491.34 31.96C491.927 31.9067 492.273 31.88 492.38 31.88C493.167 31.88 493.56 31.9667 493.56 32.14C493.56 32.34 493.467 32.4733 493.28 32.54C493.093 32.5933 492.753 32.6467 492.26 32.7Z" fill="black"/>
<path d="M72.04 14.8C71.9 15.01 71.83 15.14 71.83 15.19C71.83 15.94 71.865 17.365 71.935 19.465C71.995 21.005 72.025 22.06 72.025 22.63C72.025 22.8 71.96 22.95 71.83 23.08C71.71 23.22 71.59 23.29 71.47 23.29C71.33 23.29 71.23 23.265 71.17 23.215C71.11 23.175 71.08 23.105 71.08 23.005L71.11 22.555C71.17 22.055 71.2 21.565 71.2 21.085C71.2 20.805 71.185 19.645 71.155 17.605L71.14 16.285C70.62 17.085 70.145 17.755 69.715 18.295C69.285 18.825 68.795 19.275 68.245 19.645C67.695 20.005 67.105 20.185 66.475 20.185C65.865 20.185 65.4 20 65.08 19.63C64.76 19.25 64.6 18.755 64.6 18.145C64.6 17.255 64.875 16.34 65.425 15.4C65.985 14.46 66.695 13.685 67.555 13.075C68.425 12.465 69.3 12.16 70.18 12.16C70.63 12.16 71.005 12.305 71.305 12.595C71.615 12.875 71.815 13.23 71.905 13.66C72.025 13.68 72.13 13.73 72.22 13.81C72.32 13.89 72.37 13.995 72.37 14.125C72.37 14.225 72.26 14.45 72.04 14.8ZM70.885 15.295C70.965 15.185 71.075 15.02 71.215 14.8V14.785C71.245 14.675 71.26 14.545 71.26 14.395C71.26 13.965 71.135 13.615 70.885 13.345C70.645 13.075 70.285 12.94 69.805 12.94C69.195 12.94 68.54 13.21 67.84 13.75C67.15 14.28 66.57 14.955 66.1 15.775C65.63 16.585 65.395 17.38 65.395 18.16C65.395 18.48 65.505 18.76 65.725 19C65.945 19.24 66.25 19.36 66.64 19.36C67.14 19.36 67.625 19.175 68.095 18.805C68.575 18.425 69.02 17.965 69.43 17.425C69.84 16.875 70.325 16.165 70.885 15.295ZM81.4004 14.8C81.2604 15.01 81.1904 15.14 81.1904 15.19C81.1904 15.94 81.2254 17.365 81.2954 19.465C81.3554 21.005 81.3854 22.06 81.3854 22.63C81.3854 22.8 81.3204 22.95 81.1904 23.08C81.0704 23.22 80.9504 23.29 80.8304 23.29C80.6904 23.29 80.5904 23.265 80.5304 23.215C80.4704 23.175 80.4404 23.105 80.4404 23.005L80.4704 22.555C80.5304 22.055 80.5604 21.565 80.5604 21.085C80.5604 20.805 80.5454 19.645 80.5154 17.605L80.5004 16.285C79.9804 17.085 79.5054 17.755 79.0754 18.295C78.6454 18.825 78.1554 19.275 77.6054 19.645C77.0554 20.005 76.4654 20.185 75.8354 20.185C75.2254 20.185 74.7604 20 74.4404 19.63C74.1204 19.25 73.9604 18.755 73.9604 18.145C73.9604 17.255 74.2354 16.34 74.7854 15.4C75.3454 14.46 76.0554 13.685 76.9154 13.075C77.7854 12.465 78.6604 12.16 79.5404 12.16C79.9904 12.16 80.3654 12.305 80.6654 12.595C80.9754 12.875 81.1754 13.23 81.2654 13.66C81.3854 13.68 81.4904 13.73 81.5804 13.81C81.6804 13.89 81.7304 13.995 81.7304 14.125C81.7304 14.225 81.6204 14.45 81.4004 14.8ZM80.2454 15.295C80.3254 15.185 80.4354 15.02 80.5754 14.8V14.785C80.6054 14.675 80.6204 14.545 80.6204 14.395C80.6204 13.965 80.4954 13.615 80.2454 13.345C80.0054 13.075 79.6454 12.94 79.1654 12.94C78.5554 12.94 77.9004 13.21 77.2004 13.75C76.5104 14.28 75.9304 14.955 75.4604 15.775C74.9904 16.585 74.7554 17.38 74.7554 18.16C74.7554 18.48 74.8654 18.76 75.0854 19C75.3054 19.24 75.6104 19.36 76.0004 19.36C76.5004 19.36 76.9854 19.175 77.4554 18.805C77.9354 18.425 78.3804 17.965 78.7904 17.425C79.2004 16.875 79.6854 16.165 80.2454 15.295ZM90.2957 23.035C90.0857 23.035 89.9257 22.68 89.8157 21.97C89.7157 21.26 89.6257 20.295 89.5457 19.075C89.2957 19.115 88.8707 19.205 88.2707 19.345C87.6707 19.475 87.1157 19.605 86.6057 19.735C84.8057 20.185 83.7907 20.41 83.5607 20.41C83.4907 20.41 83.3907 20.355 83.2607 20.245C83.1407 20.135 83.0807 20.03 83.0807 19.93C83.0807 19.82 83.1457 19.705 83.2757 19.585C83.4457 19.435 83.8807 18.98 84.5807 18.22C85.1907 17.54 85.7507 16.945 86.2607 16.435C86.7807 15.915 87.5807 14.98 88.6607 13.63C89.0207 13.18 89.2507 12.9 89.3507 12.79C89.4907 12.63 89.5907 12.495 89.6507 12.385C89.7107 12.265 89.7557 12.185 89.7857 12.145C89.8157 12.105 89.8657 12.085 89.9357 12.085C90.0557 12.085 90.1857 12.145 90.3257 12.265C90.4657 12.385 90.5357 12.51 90.5357 12.64C90.5357 12.67 90.5057 12.735 90.4457 12.835C90.3757 12.975 90.3357 13.14 90.3257 13.33C90.3057 13.66 90.2957 15.03 90.2957 17.44C90.2957 17.85 90.3007 18.145 90.3107 18.325L90.6107 18.265C91.2107 18.145 91.7057 18.06 92.0957 18.01C92.1757 18 92.2407 17.935 92.2907 17.815C92.3507 17.695 92.4107 17.635 92.4707 17.635C92.5807 17.635 92.6907 17.7 92.8007 17.83C92.9207 17.95 92.9807 18.075 92.9807 18.205C92.9807 18.375 92.9107 18.495 92.7707 18.565C92.6307 18.625 92.3657 18.675 91.9757 18.715L90.8057 18.85L90.3557 18.91C90.4257 19.94 90.5607 20.925 90.7607 21.865C90.8307 22.255 90.8657 22.495 90.8657 22.585C90.8657 22.695 90.8057 22.795 90.6857 22.885C90.5757 22.985 90.4457 23.035 90.2957 23.035ZM86.7557 16.81C85.8357 17.8 85.0207 18.695 84.3107 19.495L85.3307 19.27C85.8807 19.17 86.2557 19.095 86.4557 19.045C87.0557 18.905 87.7557 18.76 88.5557 18.61L89.5007 18.415C89.4707 18.025 89.4557 17.72 89.4557 17.5C89.4557 16.84 89.4607 16.105 89.4707 15.295C89.4907 14.485 89.5057 13.975 89.5157 13.765C89.3357 13.965 88.9807 14.36 88.4507 14.95C87.9307 15.53 87.3657 16.15 86.7557 16.81ZM101.234 14.8C101.094 15.01 101.024 15.14 101.024 15.19C101.024 15.94 101.059 17.365 101.129 19.465C101.189 21.005 101.219 22.06 101.219 22.63C101.219 22.8 101.154 22.95 101.024 23.08C100.904 23.22 100.784 23.29 100.664 23.29C100.524 23.29 100.424 23.265 100.364 23.215C100.304 23.175 100.274 23.105 100.274 23.005L100.304 22.555C100.364 22.055 100.394 21.565 100.394 21.085C100.394 20.805 100.379 19.645 100.349 17.605L100.334 16.285C99.8143 17.085 99.3393 17.755 98.9093 18.295C98.4793 18.825 97.9893 19.275 97.4393 19.645C96.8893 20.005 96.2993 20.185 95.6693 20.185C95.0593 20.185 94.5943 20 94.2743 19.63C93.9543 19.25 93.7943 18.755 93.7943 18.145C93.7943 17.255 94.0693 16.34 94.6193 15.4C95.1793 14.46 95.8893 13.685 96.7493 13.075C97.6193 12.465 98.4943 12.16 99.3743 12.16C99.8243 12.16 100.199 12.305 100.499 12.595C100.809 12.875 101.009 13.23 101.099 13.66C101.219 13.68 101.324 13.73 101.414 13.81C101.514 13.89 101.564 13.995 101.564 14.125C101.564 14.225 101.454 14.45 101.234 14.8ZM100.079 15.295C100.159 15.185 100.269 15.02 100.409 14.8V14.785C100.439 14.675 100.454 14.545 100.454 14.395C100.454 13.965 100.329 13.615 100.079 13.345C99.8393 13.075 99.4793 12.94 98.9993 12.94C98.3893 12.94 97.7343 13.21 97.0343 13.75C96.3443 14.28 95.7643 14.955 95.2943 15.775C94.8243 16.585 94.5893 17.38 94.5893 18.16C94.5893 18.48 94.6993 18.76 94.9193 19C95.1393 19.24 95.4443 19.36 95.8343 19.36C96.3343 19.36 96.8193 19.175 97.2893 18.805C97.7693 18.425 98.2143 17.965 98.6243 17.425C99.0343 16.875 99.5193 16.165 100.079 15.295ZM112.035 22.375C111.665 22.415 111.065 22.495 110.235 22.615C109.515 22.725 109.025 22.795 108.765 22.825L107.58 23.005C106.95 23.105 106.435 23.175 106.035 23.215C105.645 23.265 105.215 23.29 104.745 23.29C104.575 23.29 104.415 23.23 104.265 23.11C104.125 22.99 104.055 22.82 104.055 22.6C104.055 22.48 104.075 22.385 104.115 22.315C104.155 22.245 104.22 22.16 104.31 22.06C104.89 21.48 105.385 20.96 105.795 20.5C106.215 20.04 106.73 19.445 107.34 18.715C107.96 17.965 108.42 17.325 108.72 16.795C109.03 16.265 109.185 15.715 109.185 15.145C109.185 14.625 109.03 14.225 108.72 13.945C108.42 13.655 108.025 13.51 107.535 13.51C107.165 13.51 106.84 13.565 106.56 13.675C106.28 13.775 105.89 13.97 105.39 14.26C105.27 14.32 105.14 14.41 105 14.53C104.86 14.64 104.77 14.71 104.73 14.74C104.59 14.86 104.45 14.965 104.31 15.055C104.18 15.145 104.08 15.19 104.01 15.19C103.77 15.19 103.65 15.055 103.65 14.785C103.65 14.555 103.78 14.35 104.04 14.17C104.1 14.13 104.315 14.005 104.685 13.795C104.905 13.685 105.08 13.59 105.21 13.51C105.67 13.25 106.07 13.065 106.41 12.955C106.76 12.845 107.175 12.79 107.655 12.79C108.345 12.79 108.9 13.005 109.32 13.435C109.75 13.865 109.965 14.41 109.965 15.07C109.965 15.57 109.85 16.075 109.62 16.585C109.4 17.085 109.15 17.525 108.87 17.905C108.59 18.285 108.255 18.705 107.865 19.165C107.655 19.415 107.125 20 106.275 20.92L105.495 21.775C105.465 21.805 105.38 21.89 105.24 22.03C105.11 22.18 105.045 22.285 105.045 22.345C105.045 22.465 105.165 22.525 105.405 22.525C105.725 22.525 106.145 22.48 106.665 22.39C107.195 22.3 107.51 22.245 107.61 22.225L108.915 22C109.115 21.97 109.61 21.905 110.4 21.805C111.1 21.715 111.535 21.65 111.705 21.61C111.835 21.53 111.975 21.455 112.125 21.385C112.275 21.305 112.375 21.265 112.425 21.265C112.625 21.265 112.725 21.45 112.725 21.82C112.725 21.95 112.66 22.06 112.53 22.15C112.41 22.25 112.245 22.325 112.035 22.375ZM122.333 22.375C121.963 22.415 121.363 22.495 120.533 22.615C119.813 22.725 119.323 22.795 119.063 22.825L117.878 23.005C117.248 23.105 116.733 23.175 116.333 23.215C115.943 23.265 115.513 23.29 115.043 23.29C114.873 23.29 114.713 23.23 114.563 23.11C114.423 22.99 114.353 22.82 114.353 22.6C114.353 22.48 114.373 22.385 114.413 22.315C114.453 22.245 114.518 22.16 114.608 22.06C115.188 21.48 115.683 20.96 116.093 20.5C116.513 20.04 117.028 19.445 117.638 18.715C118.258 17.965 118.718 17.325 119.018 16.795C119.328 16.265 119.483 15.715 119.483 15.145C119.483 14.625 119.328 14.225 119.018 13.945C118.718 13.655 118.323 13.51 117.833 13.51C117.463 13.51 117.138 13.565 116.858 13.675C116.578 13.775 116.188 13.97 115.688 14.26C115.568 14.32 115.438 14.41 115.298 14.53C115.158 14.64 115.068 14.71 115.028 14.74C114.888 14.86 114.748 14.965 114.608 15.055C114.478 15.145 114.378 15.19 114.308 15.19C114.068 15.19 113.948 15.055 113.948 14.785C113.948 14.555 114.078 14.35 114.338 14.17C114.398 14.13 114.613 14.005 114.983 13.795C115.203 13.685 115.378 13.59 115.508 13.51C115.968 13.25 116.368 13.065 116.708 12.955C117.058 12.845 117.473 12.79 117.953 12.79C118.643 12.79 119.198 13.005 119.618 13.435C120.048 13.865 120.263 14.41 120.263 15.07C120.263 15.57 120.148 16.075 119.918 16.585C119.698 17.085 119.448 17.525 119.168 17.905C118.888 18.285 118.553 18.705 118.163 19.165C117.953 19.415 117.423 20 116.573 20.92L115.793 21.775C115.763 21.805 115.678 21.89 115.538 22.03C115.408 22.18 115.343 22.285 115.343 22.345C115.343 22.465 115.463 22.525 115.703 22.525C116.023 22.525 116.443 22.48 116.963 22.39C117.493 22.3 117.808 22.245 117.908 22.225L119.213 22C119.413 21.97 119.908 21.905 120.698 21.805C121.398 21.715 121.833 21.65 122.003 21.61C122.133 21.53 122.273 21.455 122.423 21.385C122.573 21.305 122.673 21.265 122.723 21.265C122.923 21.265 123.023 21.45 123.023 21.82C123.023 21.95 122.958 22.06 122.828 22.15C122.708 22.25 122.543 22.325 122.333 22.375ZM125.235 22.375C125.045 22.375 124.87 22.265 124.71 22.045C124.56 21.835 124.435 21.6 124.335 21.34C124.245 21.07 124.2 20.895 124.2 20.815C124.2 20.705 124.25 20.6 124.35 20.5C124.46 20.4 124.57 20.35 124.68 20.35C124.75 20.35 124.805 20.38 124.845 20.44C124.885 20.49 124.945 20.58 125.025 20.71C125.125 20.89 125.21 21.005 125.28 21.055C125.41 21.155 125.515 21.34 125.595 21.61C125.685 21.88 125.73 22.06 125.73 22.15C125.73 22.3 125.565 22.375 125.235 22.375ZM133.784 12.64C133.784 12.81 133.694 12.91 133.514 12.94C132.904 13.05 132.354 13.16 131.864 13.27C131.384 13.37 130.954 13.475 130.574 13.585C130.324 13.655 130.099 13.725 129.899 13.795C129.709 13.855 129.544 13.915 129.404 13.975C129.264 14.035 129.119 14.105 128.969 14.185C128.829 14.255 128.679 14.335 128.519 14.425C128.519 15.045 128.354 16.14 128.024 17.71L128.774 17.44C129.024 17.35 129.294 17.265 129.584 17.185C129.874 17.105 130.169 17.035 130.469 16.975C130.769 16.915 131.069 16.865 131.369 16.825C131.669 16.785 131.954 16.765 132.224 16.765C132.774 16.765 133.189 16.905 133.469 17.185C133.749 17.455 133.889 17.845 133.889 18.355C133.889 19.075 133.679 19.755 133.259 20.395C132.839 21.025 132.224 21.6 131.414 22.12C130.954 22.41 130.614 22.62 130.394 22.75C130.184 22.89 130.024 22.985 129.914 23.035C129.594 23.195 129.364 23.275 129.224 23.275C129.084 23.275 128.969 23.215 128.879 23.095C128.789 22.975 128.744 22.86 128.744 22.75C128.744 22.61 128.834 22.515 129.014 22.465L129.329 22.375C129.499 22.325 129.654 22.27 129.794 22.21C129.944 22.15 130.074 22.095 130.184 22.045C130.424 21.945 130.724 21.78 131.084 21.55C131.774 21.1 132.274 20.63 132.584 20.14C132.904 19.65 133.064 19.12 133.064 18.55C133.064 18.15 132.974 17.87 132.794 17.71C132.624 17.55 132.364 17.47 132.014 17.47C131.594 17.47 131.154 17.53 130.694 17.65C130.234 17.76 129.694 17.91 129.074 18.1C128.844 18.18 128.664 18.245 128.534 18.295C128.404 18.335 128.324 18.36 128.294 18.37C128.224 18.39 128.144 18.43 128.054 18.49C127.964 18.55 127.884 18.6 127.814 18.64C127.724 18.7 127.644 18.73 127.574 18.73C127.504 18.73 127.454 18.725 127.424 18.715C127.244 18.685 127.154 18.565 127.154 18.355C127.154 18.325 127.199 18.075 127.289 17.605C127.419 16.915 127.524 16.33 127.604 15.85C127.684 15.36 127.724 14.95 127.724 14.62C127.654 14.54 127.619 14.435 127.619 14.305C127.619 14.125 127.794 13.94 128.144 13.75C128.494 13.56 129.059 13.335 129.839 13.075C130.439 12.875 131.064 12.715 131.714 12.595C132.364 12.465 132.959 12.4 133.499 12.4C133.689 12.4 133.784 12.48 133.784 12.64Z" fill="black"/>
<path d="M261.455 18.64C261.455 18.81 261.365 18.91 261.185 18.94C260.575 19.05 260.025 19.16 259.535 19.27C259.055 19.37 258.625 19.475 258.245 19.585C257.995 19.655 257.77 19.725 257.57 19.795C257.38 19.855 257.215 19.915 257.075 19.975C256.935 20.035 256.79 20.105 256.64 20.185C256.5 20.255 256.35 20.335 256.19 20.425C256.19 21.045 256.025 22.14 255.695 23.71L256.445 23.44C256.695 23.35 256.965 23.265 257.255 23.185C257.545 23.105 257.84 23.035 258.14 22.975C258.44 22.915 258.74 22.865 259.04 22.825C259.34 22.785 259.625 22.765 259.895 22.765C260.445 22.765 260.86 22.905 261.14 23.185C261.42 23.455 261.56 23.845 261.56 24.355C261.56 25.075 261.35 25.755 260.93 26.395C260.51 27.025 259.895 27.6 259.085 28.12C258.625 28.41 258.285 28.62 258.065 28.75C257.855 28.89 257.695 28.985 257.585 29.035C257.265 29.195 257.035 29.275 256.895 29.275C256.755 29.275 256.64 29.215 256.55 29.095C256.46 28.975 256.415 28.86 256.415 28.75C256.415 28.61 256.505 28.515 256.685 28.465L257 28.375C257.17 28.325 257.325 28.27 257.465 28.21C257.615 28.15 257.745 28.095 257.855 28.045C258.095 27.945 258.395 27.78 258.755 27.55C259.445 27.1 259.945 26.63 260.255 26.14C260.575 25.65 260.735 25.12 260.735 24.55C260.735 24.15 260.645 23.87 260.465 23.71C260.295 23.55 260.035 23.47 259.685 23.47C259.265 23.47 258.825 23.53 258.365 23.65C257.905 23.76 257.365 23.91 256.745 24.1C256.515 24.18 256.335 24.245 256.205 24.295C256.075 24.335 255.995 24.36 255.965 24.37C255.895 24.39 255.815 24.43 255.725 24.49C255.635 24.55 255.555 24.6 255.485 24.64C255.395 24.7 255.315 24.73 255.245 24.73C255.175 24.73 255.125 24.725 255.095 24.715C254.915 24.685 254.825 24.565 254.825 24.355C254.825 24.325 254.87 24.075 254.96 23.605C255.09 22.915 255.195 22.33 255.275 21.85C255.355 21.36 255.395 20.95 255.395 20.62C255.325 20.54 255.29 20.435 255.29 20.305C255.29 20.125 255.465 19.94 255.815 19.75C256.165 19.56 256.73 19.335 257.51 19.075C258.11 18.875 258.735 18.715 259.385 18.595C260.035 18.465 260.63 18.4 261.17 18.4C261.36 18.4 261.455 18.48 261.455 18.64ZM265.321 29.245C264.601 29.245 264.046 28.975 263.656 28.435C263.266 27.895 263.071 27.195 263.071 26.335C263.071 25.305 263.196 24.265 263.446 23.215C263.706 22.155 264.051 21.2 264.481 20.35C264.401 20.35 264.326 20.32 264.256 20.26C264.186 20.2 264.151 20.125 264.151 20.035C264.151 19.905 264.226 19.785 264.376 19.675C264.536 19.565 264.721 19.485 264.931 19.435C264.951 19.415 264.986 19.375 265.036 19.315C265.086 19.245 265.156 19.21 265.246 19.21C265.346 19.21 265.441 19.23 265.531 19.27C265.621 19.3 265.676 19.335 265.696 19.375C265.976 19.325 266.261 19.3 266.551 19.3C267.231 19.3 267.841 19.485 268.381 19.855C268.921 20.225 269.346 20.74 269.656 21.4C269.966 22.05 270.121 22.78 270.121 23.59C270.121 24.47 269.891 25.35 269.431 26.23C268.981 27.11 268.381 27.83 267.631 28.39C266.891 28.96 266.121 29.245 265.321 29.245ZM266.611 20.215C266.381 20.215 266.076 20.245 265.696 20.305L265.381 20.35C264.921 21.17 264.561 22.135 264.301 23.245C264.051 24.355 263.926 25.38 263.926 26.32C263.926 26.95 264.046 27.47 264.286 27.88C264.536 28.28 264.926 28.48 265.456 28.48C266.066 28.48 266.681 28.225 267.301 27.715C267.921 27.195 268.431 26.555 268.831 25.795C269.231 25.035 269.431 24.31 269.431 23.62C269.431 23.01 269.296 22.445 269.026 21.925C268.766 21.395 268.416 20.98 267.976 20.68C267.546 20.37 267.091 20.215 266.611 20.215ZM278.213 18.64C278.213 18.81 278.123 18.91 277.943 18.94C277.333 19.05 276.783 19.16 276.293 19.27C275.813 19.37 275.383 19.475 275.003 19.585C274.753 19.655 274.528 19.725 274.328 19.795C274.138 19.855 273.973 19.915 273.833 19.975C273.693 20.035 273.548 20.105 273.398 20.185C273.258 20.255 273.108 20.335 272.948 20.425C272.948 21.045 272.783 22.14 272.453 23.71L273.203 23.44C273.453 23.35 273.723 23.265 274.013 23.185C274.303 23.105 274.598 23.035 274.898 22.975C275.198 22.915 275.498 22.865 275.798 22.825C276.098 22.785 276.383 22.765 276.653 22.765C277.203 22.765 277.618 22.905 277.898 23.185C278.178 23.455 278.318 23.845 278.318 24.355C278.318 25.075 278.108 25.755 277.688 26.395C277.268 27.025 276.653 27.6 275.843 28.12C275.383 28.41 275.043 28.62 274.823 28.75C274.613 28.89 274.453 28.985 274.343 29.035C274.023 29.195 273.793 29.275 273.653 29.275C273.513 29.275 273.398 29.215 273.308 29.095C273.218 28.975 273.173 28.86 273.173 28.75C273.173 28.61 273.263 28.515 273.443 28.465L273.758 28.375C273.928 28.325 274.083 28.27 274.223 28.21C274.373 28.15 274.503 28.095 274.613 28.045C274.853 27.945 275.153 27.78 275.513 27.55C276.203 27.1 276.703 26.63 277.013 26.14C277.333 25.65 277.493 25.12 277.493 24.55C277.493 24.15 277.403 23.87 277.223 23.71C277.053 23.55 276.793 23.47 276.443 23.47C276.023 23.47 275.583 23.53 275.123 23.65C274.663 23.76 274.123 23.91 273.503 24.1C273.273 24.18 273.093 24.245 272.963 24.295C272.833 24.335 272.753 24.36 272.723 24.37C272.653 24.39 272.573 24.43 272.483 24.49C272.393 24.55 272.313 24.6 272.243 24.64C272.153 24.7 272.073 24.73 272.003 24.73C271.933 24.73 271.883 24.725 271.853 24.715C271.673 24.685 271.583 24.565 271.583 24.355C271.583 24.325 271.628 24.075 271.718 23.605C271.848 22.915 271.953 22.33 272.033 21.85C272.113 21.36 272.153 20.95 272.153 20.62C272.083 20.54 272.048 20.435 272.048 20.305C272.048 20.125 272.223 19.94 272.573 19.75C272.923 19.56 273.488 19.335 274.268 19.075C274.868 18.875 275.493 18.715 276.143 18.595C276.793 18.465 277.388 18.4 277.928 18.4C278.118 18.4 278.213 18.48 278.213 18.64ZM280.054 29.875C279.954 29.875 279.869 29.845 279.799 29.785C279.739 29.735 279.709 29.665 279.709 29.575C279.709 29.515 279.764 29.37 279.874 29.14C279.994 28.92 280.069 28.785 280.099 28.735L280.519 27.925L280.789 27.235C280.899 26.935 280.989 26.715 281.059 26.575C281.129 26.425 281.199 26.35 281.269 26.35C281.379 26.35 281.494 26.415 281.614 26.545C281.744 26.665 281.809 26.78 281.809 26.89C281.809 27.04 281.689 27.365 281.449 27.865C281.219 28.365 280.964 28.825 280.684 29.245C280.404 29.665 280.194 29.875 280.054 29.875ZM285.258 29.245C284.538 29.245 283.983 28.975 283.593 28.435C283.203 27.895 283.008 27.195 283.008 26.335C283.008 25.305 283.133 24.265 283.383 23.215C283.643 22.155 283.988 21.2 284.418 20.35C284.338 20.35 284.263 20.32 284.193 20.26C284.123 20.2 284.088 20.125 284.088 20.035C284.088 19.905 284.163 19.785 284.313 19.675C284.473 19.565 284.658 19.485 284.868 19.435C284.888 19.415 284.923 19.375 284.973 19.315C285.023 19.245 285.093 19.21 285.183 19.21C285.283 19.21 285.378 19.23 285.468 19.27C285.558 19.3 285.613 19.335 285.633 19.375C285.913 19.325 286.198 19.3 286.488 19.3C287.168 19.3 287.778 19.485 288.318 19.855C288.858 20.225 289.283 20.74 289.593 21.4C289.903 22.05 290.058 22.78 290.058 23.59C290.058 24.47 289.828 25.35 289.368 26.23C288.918 27.11 288.318 27.83 287.568 28.39C286.828 28.96 286.058 29.245 285.258 29.245ZM286.548 20.215C286.318 20.215 286.013 20.245 285.633 20.305L285.318 20.35C284.858 21.17 284.498 22.135 284.238 23.245C283.988 24.355 283.863 25.38 283.863 26.32C283.863 26.95 283.983 27.47 284.223 27.88C284.473 28.28 284.863 28.48 285.393 28.48C286.003 28.48 286.618 28.225 287.238 27.715C287.858 27.195 288.368 26.555 288.768 25.795C289.168 25.035 289.368 24.31 289.368 23.62C289.368 23.01 289.233 22.445 288.963 21.925C288.703 21.395 288.353 20.98 287.913 20.68C287.483 20.37 287.028 20.215 286.548 20.215ZM294.084 29.815C293.904 29.815 293.774 29.77 293.694 29.68C293.624 29.59 293.589 29.485 293.589 29.365C293.589 29.165 293.799 29.035 294.219 28.975C295.589 28.775 296.729 28.38 297.639 27.79C298.559 27.19 299.019 26.385 299.019 25.375C299.019 24.235 298.344 23.665 296.994 23.665C296.564 23.665 296.154 23.7 295.764 23.77C295.384 23.83 294.919 23.925 294.369 24.055C293.819 24.365 293.454 24.56 293.274 24.64C293.094 24.72 292.929 24.76 292.779 24.76C292.689 24.76 292.609 24.715 292.539 24.625C292.469 24.525 292.434 24.415 292.434 24.295C292.434 24.115 292.519 23.985 292.689 23.905C292.999 23.765 293.259 23.66 293.469 23.59C293.799 23.48 294.129 23.34 294.459 23.17C295.319 22.72 296.009 22.255 296.529 21.775C297.049 21.295 297.309 20.795 297.309 20.275C297.309 19.835 297.159 19.535 296.859 19.375C296.569 19.205 296.159 19.12 295.629 19.12C294.819 19.12 294.044 19.35 293.304 19.81C293.094 19.94 292.914 20.085 292.764 20.245C292.614 20.395 292.514 20.52 292.464 20.62C292.374 20.75 292.254 20.815 292.104 20.815C291.794 20.815 291.639 20.68 291.639 20.41C291.639 20.23 291.839 19.97 292.239 19.63C292.639 19.28 293.159 18.975 293.799 18.715C294.449 18.455 295.139 18.325 295.869 18.325C296.579 18.325 297.129 18.48 297.519 18.79C297.919 19.09 298.119 19.535 298.119 20.125C298.119 20.615 297.859 21.15 297.339 21.73C296.829 22.3 296.254 22.78 295.614 23.17L295.674 23.185C295.994 23.105 296.249 23.05 296.439 23.02C296.629 22.99 296.899 22.975 297.249 22.975C297.989 22.975 298.599 23.18 299.079 23.59C299.569 24 299.814 24.57 299.814 25.3C299.814 26.43 299.359 27.355 298.449 28.075C297.549 28.805 296.299 29.36 294.699 29.74C294.449 29.79 294.244 29.815 294.084 29.815ZM308.881 24.625L307.876 24.745C307.636 24.775 307.411 24.8 307.201 24.82C306.991 24.83 306.736 24.835 306.436 24.835C306.306 24.835 306.191 24.81 306.091 24.76C305.991 24.71 305.941 24.625 305.941 24.505C305.941 24.375 305.986 24.29 306.076 24.25C306.166 24.21 306.316 24.19 306.526 24.19C306.906 24.19 307.171 24.19 307.321 24.19C307.481 24.18 307.621 24.16 307.741 24.13C307.781 24.12 307.896 24.1 308.086 24.07C308.276 24.03 308.581 23.98 309.001 23.92C309.081 23.91 309.146 23.845 309.196 23.725C309.256 23.605 309.316 23.545 309.376 23.545C309.486 23.545 309.596 23.61 309.706 23.74C309.826 23.86 309.886 23.985 309.886 24.115C309.886 24.285 309.816 24.405 309.676 24.475C309.536 24.535 309.271 24.585 308.881 24.625ZM322.41 29.035C322.2 29.035 322.04 28.68 321.93 27.97C321.83 27.26 321.74 26.295 321.66 25.075C321.41 25.115 320.985 25.205 320.385 25.345C319.785 25.475 319.23 25.605 318.72 25.735C316.92 26.185 315.905 26.41 315.675 26.41C315.605 26.41 315.505 26.355 315.375 26.245C315.255 26.135 315.195 26.03 315.195 25.93C315.195 25.82 315.26 25.705 315.39 25.585C315.56 25.435 315.995 24.98 316.695 24.22C317.305 23.54 317.865 22.945 318.375 22.435C318.895 21.915 319.695 20.98 320.775 19.63C321.135 19.18 321.365 18.9 321.465 18.79C321.605 18.63 321.705 18.495 321.765 18.385C321.825 18.265 321.87 18.185 321.9 18.145C321.93 18.105 321.98 18.085 322.05 18.085C322.17 18.085 322.3 18.145 322.44 18.265C322.58 18.385 322.65 18.51 322.65 18.64C322.65 18.67 322.62 18.735 322.56 18.835C322.49 18.975 322.45 19.14 322.44 19.33C322.42 19.66 322.41 21.03 322.41 23.44C322.41 23.85 322.415 24.145 322.425 24.325L322.725 24.265C323.325 24.145 323.82 24.06 324.21 24.01C324.29 24 324.355 23.935 324.405 23.815C324.465 23.695 324.525 23.635 324.585 23.635C324.695 23.635 324.805 23.7 324.915 23.83C325.035 23.95 325.095 24.075 325.095 24.205C325.095 24.375 325.025 24.495 324.885 24.565C324.745 24.625 324.48 24.675 324.09 24.715L322.92 24.85L322.47 24.91C322.54 25.94 322.675 26.925 322.875 27.865C322.945 28.255 322.98 28.495 322.98 28.585C322.98 28.695 322.92 28.795 322.8 28.885C322.69 28.985 322.56 29.035 322.41 29.035ZM318.87 22.81C317.95 23.8 317.135 24.695 316.425 25.495L317.445 25.27C317.995 25.17 318.37 25.095 318.57 25.045C319.17 24.905 319.87 24.76 320.67 24.61L321.615 24.415C321.585 24.025 321.57 23.72 321.57 23.5C321.57 22.84 321.575 22.105 321.585 21.295C321.605 20.485 321.62 19.975 321.63 19.765C321.45 19.965 321.095 20.36 320.565 20.95C320.045 21.53 319.48 22.15 318.87 22.81ZM329.944 29.47C329.474 29.47 329.049 29.41 328.669 29.29C328.299 29.17 327.979 28.995 327.709 28.765C327.439 28.545 327.229 28.275 327.079 27.955C326.939 27.625 326.869 27.26 326.869 26.86C326.869 26.59 326.904 26.32 326.974 26.05C327.054 25.78 327.154 25.525 327.274 25.285C327.404 25.035 327.554 24.81 327.724 24.61C327.894 24.4 328.079 24.22 328.279 24.07C328.159 24.09 328.039 24.11 327.919 24.13C327.799 24.14 327.674 24.145 327.544 24.145C327.304 24.145 327.079 24.1 326.869 24.01C326.669 23.91 326.494 23.78 326.344 23.62C326.194 23.46 326.079 23.28 325.999 23.08C325.919 22.87 325.879 22.65 325.879 22.42C325.879 21.97 325.939 21.545 326.059 21.145C326.189 20.735 326.359 20.36 326.569 20.02C326.789 19.67 327.049 19.355 327.349 19.075C327.649 18.795 327.974 18.55 328.324 18.34C328.544 18.21 328.714 18.125 328.834 18.085C328.954 18.045 329.074 18.025 329.194 18.025C329.264 18.025 329.324 18.045 329.374 18.085C329.434 18.125 329.464 18.175 329.464 18.235C329.524 18.215 329.624 18.19 329.764 18.16C329.914 18.12 330.094 18.1 330.304 18.1C330.854 18.1 331.314 18.27 331.684 18.61C332.064 18.94 332.254 19.42 332.254 20.05C332.254 20.43 332.164 20.785 331.984 21.115C331.874 21.315 331.724 21.535 331.534 21.775C331.344 22.005 331.184 22.185 331.054 22.315C331.074 22.315 331.149 22.305 331.279 22.285C331.419 22.255 331.634 22.24 331.924 22.24C332.344 22.24 332.744 22.305 333.124 22.435C333.504 22.555 333.839 22.735 334.129 22.975C334.419 23.215 334.649 23.505 334.819 23.845C334.989 24.185 335.074 24.57 335.074 25C335.074 25.54 334.924 26.08 334.624 26.62C334.324 27.15 333.929 27.625 333.439 28.045C332.959 28.465 332.409 28.805 331.789 29.065C331.179 29.335 330.564 29.47 329.944 29.47ZM330.124 18.775C329.874 18.775 329.654 18.815 329.464 18.895C329.464 18.945 329.429 19 329.359 19.06C329.299 19.11 329.234 19.135 329.164 19.135C329.064 19.135 328.959 19.145 328.849 19.165C328.739 19.175 328.624 19.19 328.504 19.21C328.244 19.3 327.999 19.455 327.769 19.675C327.539 19.885 327.339 20.135 327.169 20.425C326.999 20.705 326.859 21.015 326.749 21.355C326.649 21.695 326.599 22.03 326.599 22.36C326.599 22.7 326.694 22.965 326.884 23.155C327.084 23.335 327.374 23.425 327.754 23.425C328.144 23.425 328.559 23.32 328.999 23.11C329.439 22.9 329.844 22.63 330.214 22.3C330.584 21.97 330.889 21.605 331.129 21.205C331.369 20.795 331.489 20.4 331.489 20.02C331.489 19.63 331.359 19.325 331.099 19.105C330.849 18.885 330.524 18.775 330.124 18.775ZM330.229 23.14C329.419 23.6 328.779 24.15 328.309 24.79C327.839 25.42 327.604 26.08 327.604 26.77C327.604 27.46 327.809 27.965 328.219 28.285C328.629 28.605 329.209 28.765 329.959 28.765C330.459 28.765 330.969 28.66 331.489 28.45C332.009 28.24 332.479 27.965 332.899 27.625C333.329 27.275 333.679 26.88 333.949 26.44C334.219 25.99 334.354 25.525 334.354 25.045C334.354 24.715 334.284 24.415 334.144 24.145C334.014 23.875 333.829 23.65 333.589 23.47C333.359 23.28 333.084 23.135 332.764 23.035C332.444 22.935 332.094 22.885 331.714 22.885C331.174 22.885 330.679 22.97 330.229 23.14ZM343.284 29.035C343.074 29.035 342.914 28.68 342.804 27.97C342.704 27.26 342.614 26.295 342.534 25.075C342.284 25.115 341.859 25.205 341.259 25.345C340.659 25.475 340.104 25.605 339.594 25.735C337.794 26.185 336.779 26.41 336.549 26.41C336.479 26.41 336.379 26.355 336.249 26.245C336.129 26.135 336.069 26.03 336.069 25.93C336.069 25.82 336.134 25.705 336.264 25.585C336.434 25.435 336.869 24.98 337.569 24.22C338.179 23.54 338.739 22.945 339.249 22.435C339.769 21.915 340.569 20.98 341.649 19.63C342.009 19.18 342.239 18.9 342.339 18.79C342.479 18.63 342.579 18.495 342.639 18.385C342.699 18.265 342.744 18.185 342.774 18.145C342.804 18.105 342.854 18.085 342.924 18.085C343.044 18.085 343.174 18.145 343.314 18.265C343.454 18.385 343.524 18.51 343.524 18.64C343.524 18.67 343.494 18.735 343.434 18.835C343.364 18.975 343.324 19.14 343.314 19.33C343.294 19.66 343.284 21.03 343.284 23.44C343.284 23.85 343.289 24.145 343.299 24.325L343.599 24.265C344.199 24.145 344.694 24.06 345.084 24.01C345.164 24 345.229 23.935 345.279 23.815C345.339 23.695 345.399 23.635 345.459 23.635C345.569 23.635 345.679 23.7 345.789 23.83C345.909 23.95 345.969 24.075 345.969 24.205C345.969 24.375 345.899 24.495 345.759 24.565C345.619 24.625 345.354 24.675 344.964 24.715L343.794 24.85L343.344 24.91C343.414 25.94 343.549 26.925 343.749 27.865C343.819 28.255 343.854 28.495 343.854 28.585C343.854 28.695 343.794 28.795 343.674 28.885C343.564 28.985 343.434 29.035 343.284 29.035ZM339.744 22.81C338.824 23.8 338.009 24.695 337.299 25.495L338.319 25.27C338.869 25.17 339.244 25.095 339.444 25.045C340.044 24.905 340.744 24.76 341.544 24.61L342.489 24.415C342.459 24.025 342.444 23.72 342.444 23.5C342.444 22.84 342.449 22.105 342.459 21.295C342.479 20.485 342.494 19.975 342.504 19.765C342.324 19.965 341.969 20.36 341.439 20.95C340.919 21.53 340.354 22.15 339.744 22.81Z" fill="black"/>
<path d="M431.48 28.375C431.11 28.415 430.51 28.495 429.68 28.615C428.96 28.725 428.47 28.795 428.21 28.825L427.025 29.005C426.395 29.105 425.88 29.175 425.48 29.215C425.09 29.265 424.66 29.29 424.19 29.29C424.02 29.29 423.86 29.23 423.71 29.11C423.57 28.99 423.5 28.82 423.5 28.6C423.5 28.48 423.52 28.385 423.56 28.315C423.6 28.245 423.665 28.16 423.755 28.06C424.335 27.48 424.83 26.96 425.24 26.5C425.66 26.04 426.175 25.445 426.785 24.715C427.405 23.965 427.865 23.325 428.165 22.795C428.475 22.265 428.63 21.715 428.63 21.145C428.63 20.625 428.475 20.225 428.165 19.945C427.865 19.655 427.47 19.51 426.98 19.51C426.61 19.51 426.285 19.565 426.005 19.675C425.725 19.775 425.335 19.97 424.835 20.26C424.715 20.32 424.585 20.41 424.445 20.53C424.305 20.64 424.215 20.71 424.175 20.74C424.035 20.86 423.895 20.965 423.755 21.055C423.625 21.145 423.525 21.19 423.455 21.19C423.215 21.19 423.095 21.055 423.095 20.785C423.095 20.555 423.225 20.35 423.485 20.17C423.545 20.13 423.76 20.005 424.13 19.795C424.35 19.685 424.525 19.59 424.655 19.51C425.115 19.25 425.515 19.065 425.855 18.955C426.205 18.845 426.62 18.79 427.1 18.79C427.79 18.79 428.345 19.005 428.765 19.435C429.195 19.865 429.41 20.41 429.41 21.07C429.41 21.57 429.295 22.075 429.065 22.585C428.845 23.085 428.595 23.525 428.315 23.905C428.035 24.285 427.7 24.705 427.31 25.165C427.1 25.415 426.57 26 425.72 26.92L424.94 27.775C424.91 27.805 424.825 27.89 424.685 28.03C424.555 28.18 424.49 28.285 424.49 28.345C424.49 28.465 424.61 28.525 424.85 28.525C425.17 28.525 425.59 28.48 426.11 28.39C426.64 28.3 426.955 28.245 427.055 28.225L428.36 28C428.56 27.97 429.055 27.905 429.845 27.805C430.545 27.715 430.98 27.65 431.15 27.61C431.28 27.53 431.42 27.455 431.57 27.385C431.72 27.305 431.82 27.265 431.87 27.265C432.07 27.265 432.17 27.45 432.17 27.82C432.17 27.95 432.105 28.06 431.975 28.15C431.855 28.25 431.69 28.325 431.48 28.375ZM437.113 28.465C437.143 28.585 437.173 28.725 437.203 28.885C437.243 29.055 437.263 29.16 437.263 29.2C437.263 29.31 437.198 29.41 437.068 29.5C436.948 29.6 436.813 29.65 436.663 29.65C436.573 29.65 436.483 29.56 436.393 29.38C436.303 29.21 436.238 28.99 436.198 28.72C436.018 27.67 435.858 26.045 435.718 23.845L435.508 20.65C434.728 21.43 433.923 22.09 433.093 22.63C432.873 22.77 432.718 22.84 432.628 22.84C432.528 22.84 432.448 22.81 432.388 22.75C432.328 22.68 432.298 22.615 432.298 22.555C432.298 22.425 432.413 22.285 432.643 22.135C433.153 21.805 433.608 21.455 434.008 21.085C434.418 20.715 434.828 20.32 435.238 19.9L435.448 19.69V19.675V19.45V19.3C435.448 19.23 435.463 19.185 435.493 19.165C435.513 19.145 435.533 19.135 435.553 19.135C435.613 19.105 435.683 19.09 435.763 19.09C435.963 19.09 436.123 19.12 436.243 19.18C436.363 19.24 436.423 19.33 436.423 19.45C436.423 19.57 436.363 19.71 436.243 19.87C436.293 20.11 436.323 20.35 436.333 20.59C436.353 21.18 436.428 22.32 436.558 24.01C436.688 25.69 436.788 26.795 436.858 27.325C436.908 27.585 436.993 27.965 437.113 28.465ZM439.909 29.875C439.809 29.875 439.724 29.845 439.654 29.785C439.594 29.735 439.564 29.665 439.564 29.575C439.564 29.515 439.619 29.37 439.729 29.14C439.849 28.92 439.924 28.785 439.954 28.735L440.374 27.925L440.644 27.235C440.754 26.935 440.844 26.715 440.914 26.575C440.984 26.425 441.054 26.35 441.124 26.35C441.234 26.35 441.349 26.415 441.469 26.545C441.599 26.665 441.664 26.78 441.664 26.89C441.664 27.04 441.544 27.365 441.304 27.865C441.074 28.365 440.819 28.825 440.539 29.245C440.259 29.665 440.049 29.875 439.909 29.875ZM445.113 29.245C444.393 29.245 443.838 28.975 443.448 28.435C443.058 27.895 442.863 27.195 442.863 26.335C442.863 25.305 442.988 24.265 443.238 23.215C443.498 22.155 443.843 21.2 444.273 20.35C444.193 20.35 444.118 20.32 444.048 20.26C443.978 20.2 443.943 20.125 443.943 20.035C443.943 19.905 444.018 19.785 444.168 19.675C444.328 19.565 444.513 19.485 444.723 19.435C444.743 19.415 444.778 19.375 444.828 19.315C444.878 19.245 444.948 19.21 445.038 19.21C445.138 19.21 445.233 19.23 445.323 19.27C445.413 19.3 445.468 19.335 445.488 19.375C445.768 19.325 446.053 19.3 446.343 19.3C447.023 19.3 447.633 19.485 448.173 19.855C448.713 20.225 449.138 20.74 449.448 21.4C449.758 22.05 449.913 22.78 449.913 23.59C449.913 24.47 449.683 25.35 449.223 26.23C448.773 27.11 448.173 27.83 447.423 28.39C446.683 28.96 445.913 29.245 445.113 29.245ZM446.403 20.215C446.173 20.215 445.868 20.245 445.488 20.305L445.173 20.35C444.713 21.17 444.353 22.135 444.093 23.245C443.843 24.355 443.718 25.38 443.718 26.32C443.718 26.95 443.838 27.47 444.078 27.88C444.328 28.28 444.718 28.48 445.248 28.48C445.858 28.48 446.473 28.225 447.093 27.715C447.713 27.195 448.223 26.555 448.623 25.795C449.023 25.035 449.223 24.31 449.223 23.62C449.223 23.01 449.088 22.445 448.818 21.925C448.558 21.395 448.208 20.98 447.768 20.68C447.338 20.37 446.883 20.215 446.403 20.215ZM453.94 29.815C453.76 29.815 453.63 29.77 453.55 29.68C453.48 29.59 453.445 29.485 453.445 29.365C453.445 29.165 453.655 29.035 454.075 28.975C455.445 28.775 456.585 28.38 457.495 27.79C458.415 27.19 458.875 26.385 458.875 25.375C458.875 24.235 458.2 23.665 456.85 23.665C456.42 23.665 456.01 23.7 455.62 23.77C455.24 23.83 454.775 23.925 454.225 24.055C453.675 24.365 453.31 24.56 453.13 24.64C452.95 24.72 452.785 24.76 452.635 24.76C452.545 24.76 452.465 24.715 452.395 24.625C452.325 24.525 452.29 24.415 452.29 24.295C452.29 24.115 452.375 23.985 452.545 23.905C452.855 23.765 453.115 23.66 453.325 23.59C453.655 23.48 453.985 23.34 454.315 23.17C455.175 22.72 455.865 22.255 456.385 21.775C456.905 21.295 457.165 20.795 457.165 20.275C457.165 19.835 457.015 19.535 456.715 19.375C456.425 19.205 456.015 19.12 455.485 19.12C454.675 19.12 453.9 19.35 453.16 19.81C452.95 19.94 452.77 20.085 452.62 20.245C452.47 20.395 452.37 20.52 452.32 20.62C452.23 20.75 452.11 20.815 451.96 20.815C451.65 20.815 451.495 20.68 451.495 20.41C451.495 20.23 451.695 19.97 452.095 19.63C452.495 19.28 453.015 18.975 453.655 18.715C454.305 18.455 454.995 18.325 455.725 18.325C456.435 18.325 456.985 18.48 457.375 18.79C457.775 19.09 457.975 19.535 457.975 20.125C457.975 20.615 457.715 21.15 457.195 21.73C456.685 22.3 456.11 22.78 455.47 23.17L455.53 23.185C455.85 23.105 456.105 23.05 456.295 23.02C456.485 22.99 456.755 22.975 457.105 22.975C457.845 22.975 458.455 23.18 458.935 23.59C459.425 24 459.67 24.57 459.67 25.3C459.67 26.43 459.215 27.355 458.305 28.075C457.405 28.805 456.155 29.36 454.555 29.74C454.305 29.79 454.1 29.815 453.94 29.815Z" fill="black"/>
<path d="M513.575 29.035C513.365 29.035 513.205 28.68 513.095 27.97C512.995 27.26 512.905 26.295 512.825 25.075C512.575 25.115 512.15 25.205 511.55 25.345C510.95 25.475 510.395 25.605 509.885 25.735C508.085 26.185 507.07 26.41 506.84 26.41C506.77 26.41 506.67 26.355 506.54 26.245C506.42 26.135 506.36 26.03 506.36 25.93C506.36 25.82 506.425 25.705 506.555 25.585C506.725 25.435 507.16 24.98 507.86 24.22C508.47 23.54 509.03 22.945 509.54 22.435C510.06 21.915 510.86 20.98 511.94 19.63C512.3 19.18 512.53 18.9 512.63 18.79C512.77 18.63 512.87 18.495 512.93 18.385C512.99 18.265 513.035 18.185 513.065 18.145C513.095 18.105 513.145 18.085 513.215 18.085C513.335 18.085 513.465 18.145 513.605 18.265C513.745 18.385 513.815 18.51 513.815 18.64C513.815 18.67 513.785 18.735 513.725 18.835C513.655 18.975 513.615 19.14 513.605 19.33C513.585 19.66 513.575 21.03 513.575 23.44C513.575 23.85 513.58 24.145 513.59 24.325L513.89 24.265C514.49 24.145 514.985 24.06 515.375 24.01C515.455 24 515.52 23.935 515.57 23.815C515.63 23.695 515.69 23.635 515.75 23.635C515.86 23.635 515.97 23.7 516.08 23.83C516.2 23.95 516.26 24.075 516.26 24.205C516.26 24.375 516.19 24.495 516.05 24.565C515.91 24.625 515.645 24.675 515.255 24.715L514.085 24.85L513.635 24.91C513.705 25.94 513.84 26.925 514.04 27.865C514.11 28.255 514.145 28.495 514.145 28.585C514.145 28.695 514.085 28.795 513.965 28.885C513.855 28.985 513.725 29.035 513.575 29.035ZM510.035 22.81C509.115 23.8 508.3 24.695 507.59 25.495L508.61 25.27C509.16 25.17 509.535 25.095 509.735 25.045C510.335 24.905 511.035 24.76 511.835 24.61L512.78 24.415C512.75 24.025 512.735 23.72 512.735 23.5C512.735 22.84 512.74 22.105 512.75 21.295C512.77 20.485 512.785 19.975 512.795 19.765C512.615 19.965 512.26 20.36 511.73 20.95C511.21 21.53 510.645 22.15 510.035 22.81ZM517.479 29.875C517.379 29.875 517.294 29.845 517.224 29.785C517.164 29.735 517.134 29.665 517.134 29.575C517.134 29.515 517.189 29.37 517.299 29.14C517.419 28.92 517.494 28.785 517.524 28.735L517.944 27.925L518.214 27.235C518.324 26.935 518.414 26.715 518.484 26.575C518.554 26.425 518.624 26.35 518.694 26.35C518.804 26.35 518.919 26.415 519.039 26.545C519.169 26.665 519.234 26.78 519.234 26.89C519.234 27.04 519.114 27.365 518.874 27.865C518.644 28.365 518.389 28.825 518.109 29.245C517.829 29.665 517.619 29.875 517.479 29.875ZM527.107 18.64C527.107 18.81 527.017 18.91 526.837 18.94C526.227 19.05 525.677 19.16 525.187 19.27C524.707 19.37 524.277 19.475 523.897 19.585C523.647 19.655 523.422 19.725 523.222 19.795C523.032 19.855 522.867 19.915 522.727 19.975C522.587 20.035 522.442 20.105 522.292 20.185C522.152 20.255 522.002 20.335 521.842 20.425C521.842 21.045 521.677 22.14 521.347 23.71L522.097 23.44C522.347 23.35 522.617 23.265 522.907 23.185C523.197 23.105 523.492 23.035 523.792 22.975C524.092 22.915 524.392 22.865 524.692 22.825C524.992 22.785 525.277 22.765 525.547 22.765C526.097 22.765 526.512 22.905 526.792 23.185C527.072 23.455 527.212 23.845 527.212 24.355C527.212 25.075 527.002 25.755 526.582 26.395C526.162 27.025 525.547 27.6 524.737 28.12C524.277 28.41 523.937 28.62 523.717 28.75C523.507 28.89 523.347 28.985 523.237 29.035C522.917 29.195 522.687 29.275 522.547 29.275C522.407 29.275 522.292 29.215 522.202 29.095C522.112 28.975 522.067 28.86 522.067 28.75C522.067 28.61 522.157 28.515 522.337 28.465L522.652 28.375C522.822 28.325 522.977 28.27 523.117 28.21C523.267 28.15 523.397 28.095 523.507 28.045C523.747 27.945 524.047 27.78 524.407 27.55C525.097 27.1 525.597 26.63 525.907 26.14C526.227 25.65 526.387 25.12 526.387 24.55C526.387 24.15 526.297 23.87 526.117 23.71C525.947 23.55 525.687 23.47 525.337 23.47C524.917 23.47 524.477 23.53 524.017 23.65C523.557 23.76 523.017 23.91 522.397 24.1C522.167 24.18 521.987 24.245 521.857 24.295C521.727 24.335 521.647 24.36 521.617 24.37C521.547 24.39 521.467 24.43 521.377 24.49C521.287 24.55 521.207 24.6 521.137 24.64C521.047 24.7 520.967 24.73 520.897 24.73C520.827 24.73 520.777 24.725 520.747 24.715C520.567 24.685 520.477 24.565 520.477 24.355C520.477 24.325 520.522 24.075 520.612 23.605C520.742 22.915 520.847 22.33 520.927 21.85C521.007 21.36 521.047 20.95 521.047 20.62C520.977 20.54 520.942 20.435 520.942 20.305C520.942 20.125 521.117 19.94 521.467 19.75C521.817 19.56 522.382 19.335 523.162 19.075C523.762 18.875 524.387 18.715 525.037 18.595C525.687 18.465 526.282 18.4 526.822 18.4C527.012 18.4 527.107 18.48 527.107 18.64ZM532.578 29.47C532.108 29.47 531.683 29.41 531.303 29.29C530.933 29.17 530.613 28.995 530.343 28.765C530.073 28.545 529.863 28.275 529.713 27.955C529.573 27.625 529.503 27.26 529.503 26.86C529.503 26.59 529.538 26.32 529.608 26.05C529.688 25.78 529.788 25.525 529.908 25.285C530.038 25.035 530.188 24.81 530.358 24.61C530.528 24.4 530.713 24.22 530.913 24.07C530.793 24.09 530.673 24.11 530.553 24.13C530.433 24.14 530.308 24.145 530.178 24.145C529.938 24.145 529.713 24.1 529.503 24.01C529.303 23.91 529.128 23.78 528.978 23.62C528.828 23.46 528.713 23.28 528.633 23.08C528.553 22.87 528.513 22.65 528.513 22.42C528.513 21.97 528.573 21.545 528.693 21.145C528.823 20.735 528.993 20.36 529.203 20.02C529.423 19.67 529.683 19.355 529.983 19.075C530.283 18.795 530.608 18.55 530.958 18.34C531.178 18.21 531.348 18.125 531.468 18.085C531.588 18.045 531.708 18.025 531.828 18.025C531.898 18.025 531.958 18.045 532.008 18.085C532.068 18.125 532.098 18.175 532.098 18.235C532.158 18.215 532.258 18.19 532.398 18.16C532.548 18.12 532.728 18.1 532.938 18.1C533.488 18.1 533.948 18.27 534.318 18.61C534.698 18.94 534.888 19.42 534.888 20.05C534.888 20.43 534.798 20.785 534.618 21.115C534.508 21.315 534.358 21.535 534.168 21.775C533.978 22.005 533.818 22.185 533.688 22.315C533.708 22.315 533.783 22.305 533.913 22.285C534.053 22.255 534.268 22.24 534.558 22.24C534.978 22.24 535.378 22.305 535.758 22.435C536.138 22.555 536.473 22.735 536.763 22.975C537.053 23.215 537.283 23.505 537.453 23.845C537.623 24.185 537.708 24.57 537.708 25C537.708 25.54 537.558 26.08 537.258 26.62C536.958 27.15 536.563 27.625 536.073 28.045C535.593 28.465 535.043 28.805 534.423 29.065C533.813 29.335 533.198 29.47 532.578 29.47ZM532.758 18.775C532.508 18.775 532.288 18.815 532.098 18.895C532.098 18.945 532.063 19 531.993 19.06C531.933 19.11 531.868 19.135 531.798 19.135C531.698 19.135 531.593 19.145 531.483 19.165C531.373 19.175 531.258 19.19 531.138 19.21C530.878 19.3 530.633 19.455 530.403 19.675C530.173 19.885 529.973 20.135 529.803 20.425C529.633 20.705 529.493 21.015 529.383 21.355C529.283 21.695 529.233 22.03 529.233 22.36C529.233 22.7 529.328 22.965 529.518 23.155C529.718 23.335 530.008 23.425 530.388 23.425C530.778 23.425 531.193 23.32 531.633 23.11C532.073 22.9 532.478 22.63 532.848 22.3C533.218 21.97 533.523 21.605 533.763 21.205C534.003 20.795 534.123 20.4 534.123 20.02C534.123 19.63 533.993 19.325 533.733 19.105C533.483 18.885 533.158 18.775 532.758 18.775ZM532.863 23.14C532.053 23.6 531.413 24.15 530.943 24.79C530.473 25.42 530.238 26.08 530.238 26.77C530.238 27.46 530.443 27.965 530.853 28.285C531.263 28.605 531.843 28.765 532.593 28.765C533.093 28.765 533.603 28.66 534.123 28.45C534.643 28.24 535.113 27.965 535.533 27.625C535.963 27.275 536.313 26.88 536.583 26.44C536.853 25.99 536.988 25.525 536.988 25.045C536.988 24.715 536.918 24.415 536.778 24.145C536.648 23.875 536.463 23.65 536.223 23.47C535.993 23.28 535.718 23.135 535.398 23.035C535.078 22.935 534.728 22.885 534.348 22.885C533.808 22.885 533.313 22.97 532.863 23.14Z" fill="black"/>
<path d="M163.48 22.375C163.11 22.415 162.51 22.495 161.68 22.615C160.96 22.725 160.47 22.795 160.21 22.825L159.025 23.005C158.395 23.105 157.88 23.175 157.48 23.215C157.09 23.265 156.66 23.29 156.19 23.29C156.02 23.29 155.86 23.23 155.71 23.11C155.57 22.99 155.5 22.82 155.5 22.6C155.5 22.48 155.52 22.385 155.56 22.315C155.6 22.245 155.665 22.16 155.755 22.06C156.335 21.48 156.83 20.96 157.24 20.5C157.66 20.04 158.175 19.445 158.785 18.715C159.405 17.965 159.865 17.325 160.165 16.795C160.475 16.265 160.63 15.715 160.63 15.145C160.63 14.625 160.475 14.225 160.165 13.945C159.865 13.655 159.47 13.51 158.98 13.51C158.61 13.51 158.285 13.565 158.005 13.675C157.725 13.775 157.335 13.97 156.835 14.26C156.715 14.32 156.585 14.41 156.445 14.53C156.305 14.64 156.215 14.71 156.175 14.74C156.035 14.86 155.895 14.965 155.755 15.055C155.625 15.145 155.525 15.19 155.455 15.19C155.215 15.19 155.095 15.055 155.095 14.785C155.095 14.555 155.225 14.35 155.485 14.17C155.545 14.13 155.76 14.005 156.13 13.795C156.35 13.685 156.525 13.59 156.655 13.51C157.115 13.25 157.515 13.065 157.855 12.955C158.205 12.845 158.62 12.79 159.1 12.79C159.79 12.79 160.345 13.005 160.765 13.435C161.195 13.865 161.41 14.41 161.41 15.07C161.41 15.57 161.295 16.075 161.065 16.585C160.845 17.085 160.595 17.525 160.315 17.905C160.035 18.285 159.7 18.705 159.31 19.165C159.1 19.415 158.57 20 157.72 20.92L156.94 21.775C156.91 21.805 156.825 21.89 156.685 22.03C156.555 22.18 156.49 22.285 156.49 22.345C156.49 22.465 156.61 22.525 156.85 22.525C157.17 22.525 157.59 22.48 158.11 22.39C158.64 22.3 158.955 22.245 159.055 22.225L160.36 22C160.56 21.97 161.055 21.905 161.845 21.805C162.545 21.715 162.98 21.65 163.15 21.61C163.28 21.53 163.42 21.455 163.57 21.385C163.72 21.305 163.82 21.265 163.87 21.265C164.07 21.265 164.17 21.45 164.17 21.82C164.17 21.95 164.105 22.06 163.975 22.15C163.855 22.25 163.69 22.325 163.48 22.375ZM173.778 22.375C173.408 22.415 172.808 22.495 171.978 22.615C171.258 22.725 170.768 22.795 170.508 22.825L169.323 23.005C168.693 23.105 168.178 23.175 167.778 23.215C167.388 23.265 166.958 23.29 166.488 23.29C166.318 23.29 166.158 23.23 166.008 23.11C165.868 22.99 165.798 22.82 165.798 22.6C165.798 22.48 165.818 22.385 165.858 22.315C165.898 22.245 165.963 22.16 166.053 22.06C166.633 21.48 167.128 20.96 167.538 20.5C167.958 20.04 168.473 19.445 169.083 18.715C169.703 17.965 170.163 17.325 170.463 16.795C170.773 16.265 170.928 15.715 170.928 15.145C170.928 14.625 170.773 14.225 170.463 13.945C170.163 13.655 169.768 13.51 169.278 13.51C168.908 13.51 168.583 13.565 168.303 13.675C168.023 13.775 167.633 13.97 167.133 14.26C167.013 14.32 166.883 14.41 166.743 14.53C166.603 14.64 166.513 14.71 166.473 14.74C166.333 14.86 166.193 14.965 166.053 15.055C165.923 15.145 165.823 15.19 165.753 15.19C165.513 15.19 165.393 15.055 165.393 14.785C165.393 14.555 165.523 14.35 165.783 14.17C165.843 14.13 166.058 14.005 166.428 13.795C166.648 13.685 166.823 13.59 166.953 13.51C167.413 13.25 167.813 13.065 168.153 12.955C168.503 12.845 168.918 12.79 169.398 12.79C170.088 12.79 170.643 13.005 171.063 13.435C171.493 13.865 171.708 14.41 171.708 15.07C171.708 15.57 171.593 16.075 171.363 16.585C171.143 17.085 170.893 17.525 170.613 17.905C170.333 18.285 169.998 18.705 169.608 19.165C169.398 19.415 168.868 20 168.018 20.92L167.238 21.775C167.208 21.805 167.123 21.89 166.983 22.03C166.853 22.18 166.788 22.285 166.788 22.345C166.788 22.465 166.908 22.525 167.148 22.525C167.468 22.525 167.888 22.48 168.408 22.39C168.938 22.3 169.253 22.245 169.353 22.225L170.658 22C170.858 21.97 171.353 21.905 172.143 21.805C172.843 21.715 173.278 21.65 173.448 21.61C173.578 21.53 173.718 21.455 173.868 21.385C174.018 21.305 174.118 21.265 174.168 21.265C174.368 21.265 174.468 21.45 174.468 21.82C174.468 21.95 174.403 22.06 174.273 22.15C174.153 22.25 173.988 22.325 173.778 22.375Z" fill="black"/>
<path d="M97.815 46.465C97.845 46.585 97.875 46.725 97.905 46.885C97.945 47.055 97.965 47.16 97.965 47.2C97.965 47.31 97.9 47.41 97.77 47.5C97.65 47.6 97.515 47.65 97.365 47.65C97.275 47.65 97.185 47.56 97.095 47.38C97.005 47.21 96.94 46.99 96.9 46.72C96.72 45.67 96.56 44.045 96.42 41.845L96.21 38.65C95.43 39.43 94.625 40.09 93.795 40.63C93.575 40.77 93.42 40.84 93.33 40.84C93.23 40.84 93.15 40.81 93.09 40.75C93.03 40.68 93 40.615 93 40.555C93 40.425 93.115 40.285 93.345 40.135C93.855 39.805 94.31 39.455 94.71 39.085C95.12 38.715 95.53 38.32 95.94 37.9L96.15 37.69V37.675V37.45V37.3C96.15 37.23 96.165 37.185 96.195 37.165C96.215 37.145 96.235 37.135 96.255 37.135C96.315 37.105 96.385 37.09 96.465 37.09C96.665 37.09 96.825 37.12 96.945 37.18C97.065 37.24 97.125 37.33 97.125 37.45C97.125 37.57 97.065 37.71 96.945 37.87C96.995 38.11 97.025 38.35 97.035 38.59C97.055 39.18 97.13 40.32 97.26 42.01C97.39 43.69 97.49 44.795 97.56 45.325C97.61 45.585 97.695 45.965 97.815 46.465ZM107.646 38.8C107.506 39.01 107.436 39.14 107.436 39.19C107.436 39.94 107.471 41.365 107.541 43.465C107.601 45.005 107.631 46.06 107.631 46.63C107.631 46.8 107.566 46.95 107.436 47.08C107.316 47.22 107.196 47.29 107.076 47.29C106.936 47.29 106.836 47.265 106.776 47.215C106.716 47.175 106.686 47.105 106.686 47.005L106.716 46.555C106.776 46.055 106.806 45.565 106.806 45.085C106.806 44.805 106.791 43.645 106.761 41.605L106.746 40.285C106.226 41.085 105.751 41.755 105.321 42.295C104.891 42.825 104.401 43.275 103.851 43.645C103.301 44.005 102.711 44.185 102.081 44.185C101.471 44.185 101.006 44 100.686 43.63C100.366 43.25 100.206 42.755 100.206 42.145C100.206 41.255 100.481 40.34 101.031 39.4C101.591 38.46 102.301 37.685 103.161 37.075C104.031 36.465 104.906 36.16 105.786 36.16C106.236 36.16 106.611 36.305 106.911 36.595C107.221 36.875 107.421 37.23 107.511 37.66C107.631 37.68 107.736 37.73 107.826 37.81C107.926 37.89 107.976 37.995 107.976 38.125C107.976 38.225 107.866 38.45 107.646 38.8ZM106.491 39.295C106.571 39.185 106.681 39.02 106.821 38.8V38.785C106.851 38.675 106.866 38.545 106.866 38.395C106.866 37.965 106.741 37.615 106.491 37.345C106.251 37.075 105.891 36.94 105.411 36.94C104.801 36.94 104.146 37.21 103.446 37.75C102.756 38.28 102.176 38.955 101.706 39.775C101.236 40.585 101.001 41.38 101.001 42.16C101.001 42.48 101.111 42.76 101.331 43C101.551 43.24 101.856 43.36 102.246 43.36C102.746 43.36 103.231 43.175 103.701 42.805C104.181 42.425 104.626 41.965 105.036 41.425C105.446 40.875 105.931 40.165 106.491 39.295ZM116.422 42.145C116.352 42.195 116.187 42.25 115.927 42.31C115.677 42.36 115.412 42.405 115.132 42.445L114.727 42.52C114.467 43.66 114.307 45.05 114.247 46.69C114.237 46.93 114.177 47.14 114.067 47.32C113.957 47.5 113.832 47.59 113.692 47.59C113.612 47.59 113.537 47.53 113.467 47.41C113.407 47.29 113.347 47.16 113.287 47.02C113.227 46.88 113.187 46.78 113.167 46.72C113.007 46.34 112.927 46.085 112.927 45.955C112.927 45.815 112.982 45.745 113.092 45.745C113.142 45.745 113.212 45.775 113.302 45.835C113.402 45.895 113.472 45.94 113.512 45.97C113.642 44.6 113.797 43.47 113.977 42.58C113.137 42.72 112.587 42.79 112.327 42.79C112.207 42.79 112.107 42.755 112.027 42.685C111.957 42.615 111.922 42.525 111.922 42.415C111.922 42.345 111.967 42.29 112.057 42.25C112.147 42.21 112.302 42.175 112.522 42.145C113.382 42.025 113.917 41.95 114.127 41.92C114.297 41.21 114.537 40.445 114.847 39.625C115.157 38.805 115.447 38.135 115.717 37.615C115.627 37.625 115.262 37.67 114.622 37.75C113.982 37.83 113.367 37.93 112.777 38.05L111.457 38.32C111.367 38.34 111.197 38.375 110.947 38.425C110.707 38.475 110.462 38.5 110.212 38.5C110.032 38.5 109.877 38.465 109.747 38.395C109.617 38.315 109.552 38.215 109.552 38.095C109.552 37.845 109.647 37.72 109.837 37.72C110.247 37.72 110.662 37.69 111.082 37.63C111.512 37.56 112.117 37.445 112.897 37.285C113.537 37.155 114.132 37.06 114.682 37C115.232 36.94 115.667 36.91 115.987 36.91C116.227 36.91 116.407 36.935 116.527 36.985C116.647 37.035 116.707 37.14 116.707 37.3C116.707 37.39 116.692 37.455 116.662 37.495C116.632 37.535 116.577 37.585 116.497 37.645C116.207 38.195 115.912 38.845 115.612 39.595C115.312 40.345 115.067 41.09 114.877 41.83C115.297 41.78 115.757 41.69 116.257 41.56C116.427 41.51 116.532 41.485 116.572 41.485C116.602 41.485 116.632 41.5 116.662 41.53C116.692 41.56 116.707 41.59 116.707 41.62C116.707 41.7 116.677 41.795 116.617 41.905C116.567 42.005 116.502 42.085 116.422 42.145ZM120.801 47.245C120.081 47.245 119.526 46.975 119.136 46.435C118.746 45.895 118.551 45.195 118.551 44.335C118.551 43.305 118.676 42.265 118.926 41.215C119.186 40.155 119.531 39.2 119.961 38.35C119.881 38.35 119.806 38.32 119.736 38.26C119.666 38.2 119.631 38.125 119.631 38.035C119.631 37.905 119.706 37.785 119.856 37.675C120.016 37.565 120.201 37.485 120.411 37.435C120.431 37.415 120.466 37.375 120.516 37.315C120.566 37.245 120.636 37.21 120.726 37.21C120.826 37.21 120.921 37.23 121.011 37.27C121.101 37.3 121.156 37.335 121.176 37.375C121.456 37.325 121.741 37.3 122.031 37.3C122.711 37.3 123.321 37.485 123.861 37.855C124.401 38.225 124.826 38.74 125.136 39.4C125.446 40.05 125.601 40.78 125.601 41.59C125.601 42.47 125.371 43.35 124.911 44.23C124.461 45.11 123.861 45.83 123.111 46.39C122.371 46.96 121.601 47.245 120.801 47.245ZM122.091 38.215C121.861 38.215 121.556 38.245 121.176 38.305L120.861 38.35C120.401 39.17 120.041 40.135 119.781 41.245C119.531 42.355 119.406 43.38 119.406 44.32C119.406 44.95 119.526 45.47 119.766 45.88C120.016 46.28 120.406 46.48 120.936 46.48C121.546 46.48 122.161 46.225 122.781 45.715C123.401 45.195 123.911 44.555 124.311 43.795C124.711 43.035 124.911 42.31 124.911 41.62C124.911 41.01 124.776 40.445 124.506 39.925C124.246 39.395 123.896 38.98 123.456 38.68C123.026 38.37 122.571 38.215 122.091 38.215Z" fill="black"/>
<path d="M38 28.5H49.2045L54.8068 43V1H191V10.5" stroke="black" stroke-width="2" stroke-linecap="round"/>
<path d="M221 28.5H234L240.5 43V1H357V12.5" stroke="black" stroke-width="2" stroke-linecap="round"/>
<path d="M392 28.5H401.447L406.17 43V1H470.5V11" stroke="black" stroke-width="2" stroke-linecap="round"/>
<line x1="67" y1="29.5" x2="136" y2="29.5" stroke="black"/>
</svg>
