<svg width="22" height="35" viewBox="0 0 22 35" fill="none" xmlns="http://www.w3.org/2000/svg">
<path d="M21.465 3.225C21.395 3.225 21.34 3.195 21.3 3.135C21.27 3.065 21.24 2.975 21.21 2.865C21.1 2.525 20.93 2.24 20.7 2.01C20.48 1.77 20.24 1.65 19.98 1.65C19.28 1.65 18.775 2.125 18.465 3.075C18.165 4.015 18.015 5.12 18.015 6.39C18.315 6.37 18.65 6.325 19.02 6.255C19.4 6.175 19.65 6.125 19.77 6.105C20.48 5.955 20.95 5.88 21.18 5.88C21.38 5.88 21.48 5.97 21.48 6.15C21.48 6.29 21.45 6.44 21.39 6.6C21.33 6.76 21.24 6.84 21.12 6.84C21.02 6.84 20.92 6.82 20.82 6.78C20.68 6.72 20.49 6.69 20.25 6.69C20.09 6.69 19.76 6.74 19.26 6.84L18.06 7.02C18.06 7.27 18.09 7.965 18.15 9.105C18.25 10.865 18.3 12.27 18.3 13.32C18.3 13.51 18.28 13.64 18.24 13.71C18.2 13.79 18.12 13.83 18 13.83C17.86 13.83 17.755 13.75 17.685 13.59C17.615 13.43 17.58 13.25 17.58 13.05C17.58 11.9 17.505 10.095 17.355 7.635L17.325 7.155C17.245 7.165 16.985 7.21 16.545 7.29C16.115 7.37 15.8 7.41 15.6 7.41C15.49 7.41 15.395 7.385 15.315 7.335C15.245 7.285 15.21 7.21 15.21 7.11C15.21 6.86 15.3 6.73 15.48 6.72C15.74 6.71 16.055 6.69 16.425 6.66C16.795 6.62 17.08 6.58 17.28 6.54C17.28 4.9 17.5 3.57 17.94 2.55C18.39 1.52 19.055 1.005 19.935 1.005C20.255 1.005 20.55 1.085 20.82 1.245C21.1 1.405 21.32 1.6 21.48 1.83C21.65 2.06 21.735 2.27 21.735 2.46C21.735 2.58 21.705 2.74 21.645 2.94C21.595 3.13 21.535 3.225 21.465 3.225Z" fill="black"/>
<path d="M20.42 9.945C20.3633 9.945 20.305 9.92167 20.245 9.875C20.1883 9.82833 20.16 9.79 20.16 9.76C20.16 9.72333 20.1767 9.68833 20.21 9.655C20.2467 9.62167 20.2833 9.605 20.32 9.605C20.37 9.62167 20.4117 9.64833 20.445 9.685C20.4717 9.71167 20.5017 9.74667 20.535 9.79C20.5683 9.83333 20.585 9.86 20.585 9.87C20.585 9.92 20.53 9.945 20.42 9.945ZM20.57 13.115C20.5233 13.1117 20.4883 13.0367 20.465 12.89C20.445 12.7433 20.4233 12.465 20.4 12.055C20.3867 11.785 20.375 11.5217 20.365 11.265C20.355 11.005 20.3483 10.805 20.345 10.665C20.345 10.6283 20.35 10.6017 20.36 10.585C20.3733 10.565 20.3967 10.555 20.43 10.555C20.5067 10.555 20.555 10.5867 20.575 10.65C20.595 10.7133 20.605 10.835 20.605 11.015L20.6 11.605C20.6 11.9417 20.61 12.2117 20.63 12.415C20.63 12.425 20.645 12.5317 20.675 12.735C20.6983 12.875 20.71 12.9683 20.71 13.015C20.71 13.0483 20.695 13.0733 20.665 13.09C20.6383 13.11 20.6067 13.1183 20.57 13.115Z" fill="black"/>
<path d="M14 4.71429V1H1L10.4545 7.80952L1 14H14V10.9048" stroke="black" stroke-linecap="round" stroke-linejoin="round"/>
<line x1="0.5" y1="17.5" x2="21.5" y2="17.5" stroke="black" stroke-linecap="round"/>
<path d="M16.48 29.375C16.11 29.415 15.51 29.495 14.68 29.615C13.96 29.725 13.47 29.795 13.21 29.825L12.025 30.005C11.395 30.105 10.88 30.175 10.48 30.215C10.09 30.265 9.66 30.29 9.19 30.29C9.02 30.29 8.86 30.23 8.71 30.11C8.57 29.99 8.5 29.82 8.5 29.6C8.5 29.48 8.52 29.385 8.56 29.315C8.6 29.245 8.665 29.16 8.755 29.06C9.335 28.48 9.83 27.96 10.24 27.5C10.66 27.04 11.175 26.445 11.785 25.715C12.405 24.965 12.865 24.325 13.165 23.795C13.475 23.265 13.63 22.715 13.63 22.145C13.63 21.625 13.475 21.225 13.165 20.945C12.865 20.655 12.47 20.51 11.98 20.51C11.61 20.51 11.285 20.565 11.005 20.675C10.725 20.775 10.335 20.97 9.835 21.26C9.715 21.32 9.585 21.41 9.445 21.53C9.305 21.64 9.215 21.71 9.175 21.74C9.035 21.86 8.895 21.965 8.755 22.055C8.625 22.145 8.525 22.19 8.455 22.19C8.215 22.19 8.095 22.055 8.095 21.785C8.095 21.555 8.225 21.35 8.485 21.17C8.545 21.13 8.76 21.005 9.13 20.795C9.35 20.685 9.525 20.59 9.655 20.51C10.115 20.25 10.515 20.065 10.855 19.955C11.205 19.845 11.62 19.79 12.1 19.79C12.79 19.79 13.345 20.005 13.765 20.435C14.195 20.865 14.41 21.41 14.41 22.07C14.41 22.57 14.295 23.075 14.065 23.585C13.845 24.085 13.595 24.525 13.315 24.905C13.035 25.285 12.7 25.705 12.31 26.165C12.1 26.415 11.57 27 10.72 27.92L9.94 28.775C9.91 28.805 9.825 28.89 9.685 29.03C9.555 29.18 9.49 29.285 9.49 29.345C9.49 29.465 9.61 29.525 9.85 29.525C10.17 29.525 10.59 29.48 11.11 29.39C11.64 29.3 11.955 29.245 12.055 29.225L13.36 29C13.56 28.97 14.055 28.905 14.845 28.805C15.545 28.715 15.98 28.65 16.15 28.61C16.28 28.53 16.42 28.455 16.57 28.385C16.72 28.305 16.82 28.265 16.87 28.265C17.07 28.265 17.17 28.45 17.17 28.82C17.17 28.95 17.105 29.06 16.975 29.15C16.855 29.25 16.69 29.325 16.48 29.375Z" fill="black"/>
</svg>
