<svg width="156" height="46" viewBox="0 0 156 46" fill="none" xmlns="http://www.w3.org/2000/svg">
<circle cx="69" cy="20" r="1" fill="black"/>
<path d="M11.14 21.14C10.58 21.9 9.82667 22.64 8.88 23.36C7.93333 24.0667 6.89333 24.42 5.76 24.42C4.56 24.42 3.58 24.08 2.82 23.4C2.06 22.7067 1.68 21.6867 1.68 20.34C1.68 19.42 1.84 18.38 2.16 17.22C2.48 16.06 2.85333 15.0533 3.28 14.2C3.72 13.3333 4.22667 12.6133 4.8 12.04C5.38667 11.4667 5.97333 11.18 6.56 11.18C7.13333 11.18 7.57333 11.3867 7.88 11.8C8.2 12.2133 8.36 12.7267 8.36 13.34C8.36 13.5667 8.31333 13.8 8.22 14.04C8.14 14.2667 8.04667 14.46 7.94 14.62C7.83333 14.78 7.75333 14.86 7.7 14.86C7.59333 14.86 7.54 14.8 7.54 14.68C7.54 14.64 7.56 14.5533 7.6 14.42C7.65333 14.2733 7.68 14.1533 7.68 14.06C7.68 13.7267 7.64 13.4133 7.56 13.12C7.49333 12.8667 7.36 12.66 7.16 12.5C6.96 12.3267 6.74 12.24 6.5 12.24C5.54 12.24 4.64 13.1667 3.8 15.02C3.46667 15.7667 3.18667 16.6067 2.96 17.54C2.73333 18.4733 2.62 19.3733 2.62 20.24C2.62 20.84 2.74 21.3867 2.98 21.88C3.23333 22.3733 3.58667 22.7667 4.04 23.06C4.50667 23.3533 5.04667 23.5 5.66 23.5C6.63333 23.5 7.51333 23.2667 8.3 22.8C9.1 22.3333 9.88667 21.7333 10.66 21C10.6867 20.9733 10.78 20.8267 10.94 20.56C11.1 20.28 11.22 20.14 11.3 20.14C11.38 20.14 11.4333 20.16 11.46 20.2C11.4867 20.24 11.5 20.3133 11.5 20.42C11.5 20.5533 11.38 20.7933 11.14 21.14ZM20.837 12.9C20.6637 13.26 20.4837 13.74 20.297 14.34C20.1237 14.94 19.8704 15.84 19.537 17.04L18.977 19.1C18.297 21.5667 17.877 23.3067 17.717 24.32C17.677 24.5467 17.5704 24.7333 17.397 24.88C17.2237 25.04 16.9637 25.12 16.617 25.12C16.537 25.12 16.2504 24.56 15.757 23.44C15.277 22.3067 14.6437 20.8 13.857 18.92C13.377 17.8 12.8904 16.76 12.397 15.8C11.9037 14.8267 11.5704 14.2667 11.397 14.12C11.1704 13.9467 11.057 13.76 11.057 13.56C11.057 13.4667 11.1437 13.34 11.317 13.18C11.5037 13.02 11.6904 12.94 11.877 12.94C11.997 12.94 12.0837 12.9667 12.137 13.02C12.1904 13.06 12.2637 13.1467 12.357 13.28C12.5304 13.5333 12.817 14.0867 13.217 14.94C13.617 15.78 14.0237 16.7 14.437 17.7L16.077 21.68C16.597 22.9067 16.897 23.6267 16.977 23.84C17.0037 23.5867 17.1237 22.9867 17.337 22.04C17.5637 21.0933 17.8304 20.0267 18.137 18.84C18.5904 17.12 18.957 15.7667 19.237 14.78C19.5304 13.78 19.8037 12.9867 20.057 12.4C20.2837 11.88 20.477 11.5267 20.637 11.34C20.797 11.1533 20.977 11.06 21.177 11.06C21.2437 11.06 21.3504 11.1667 21.497 11.38C21.6437 11.58 21.717 11.7133 21.717 11.78C21.717 11.82 21.6104 11.9333 21.397 12.12C21.1837 12.3067 20.997 12.5667 20.837 12.9Z" fill="black"/>
<path d="M80.42 24.62C80.46 24.78 80.5 24.9667 80.54 25.18C80.5933 25.4067 80.62 25.5467 80.62 25.6C80.62 25.7467 80.5333 25.88 80.36 26C80.2 26.1333 80.02 26.2 79.82 26.2C79.7 26.2 79.58 26.08 79.46 25.84C79.34 25.6133 79.2533 25.32 79.2 24.96C78.96 23.56 78.7467 21.3933 78.56 18.46L78.28 14.2C77.24 15.24 76.1667 16.12 75.06 16.84C74.7667 17.0267 74.56 17.12 74.44 17.12C74.3067 17.12 74.2 17.08 74.12 17C74.04 16.9067 74 16.82 74 16.74C74 16.5667 74.1533 16.38 74.46 16.18C75.14 15.74 75.7467 15.2733 76.28 14.78C76.8267 14.2867 77.3733 13.76 77.92 13.2L78.2 12.92V12.9V12.6V12.4C78.2 12.3067 78.22 12.2467 78.26 12.22C78.2867 12.1933 78.3133 12.18 78.34 12.18C78.42 12.14 78.5133 12.12 78.62 12.12C78.8867 12.12 79.1 12.16 79.26 12.24C79.42 12.32 79.5 12.44 79.5 12.6C79.5 12.76 79.42 12.9467 79.26 13.16C79.3267 13.48 79.3667 13.8 79.38 14.12C79.4067 14.9067 79.5067 16.4267 79.68 18.68C79.8533 20.92 79.9867 22.3933 80.08 23.1C80.1467 23.4467 80.26 23.9533 80.42 24.62ZM86.8486 25.66C85.8886 25.66 85.1486 25.3 84.6286 24.58C84.1086 23.86 83.8486 22.9267 83.8486 21.78C83.8486 20.4067 84.0153 19.02 84.3486 17.62C84.6953 16.2067 85.1553 14.9333 85.7286 13.8C85.6219 13.8 85.5219 13.76 85.4286 13.68C85.3353 13.6 85.2886 13.5 85.2886 13.38C85.2886 13.2067 85.3886 13.0467 85.5886 12.9C85.8019 12.7533 86.0486 12.6467 86.3286 12.58C86.3553 12.5533 86.4019 12.5 86.4686 12.42C86.5353 12.3267 86.6286 12.28 86.7486 12.28C86.8819 12.28 87.0086 12.3067 87.1286 12.36C87.2486 12.4 87.3219 12.4467 87.3486 12.5C87.7219 12.4333 88.1019 12.4 88.4886 12.4C89.3953 12.4 90.2086 12.6467 90.9286 13.14C91.6486 13.6333 92.2153 14.32 92.6286 15.2C93.0419 16.0667 93.2486 17.04 93.2486 18.12C93.2486 19.2933 92.9419 20.4667 92.3286 21.64C91.7286 22.8133 90.9286 23.7733 89.9286 24.52C88.9419 25.28 87.9153 25.66 86.8486 25.66ZM88.5686 13.62C88.2619 13.62 87.8553 13.66 87.3486 13.74L86.9286 13.8C86.3153 14.8933 85.8353 16.18 85.4886 17.66C85.1553 19.14 84.9886 20.5067 84.9886 21.76C84.9886 22.6 85.1486 23.2933 85.4686 23.84C85.8019 24.3733 86.3219 24.64 87.0286 24.64C87.8419 24.64 88.6619 24.3 89.4886 23.62C90.3153 22.9267 90.9953 22.0733 91.5286 21.06C92.0619 20.0467 92.3286 19.08 92.3286 18.16C92.3286 17.3467 92.1486 16.5933 91.7886 15.9C91.4419 15.1933 90.9753 14.64 90.3886 14.24C89.8153 13.8267 89.2086 13.62 88.5686 13.62ZM98.1377 25.66C97.1777 25.66 96.4377 25.3 95.9177 24.58C95.3977 23.86 95.1377 22.9267 95.1377 21.78C95.1377 20.4067 95.3043 19.02 95.6377 17.62C95.9843 16.2067 96.4443 14.9333 97.0177 13.8C96.911 13.8 96.811 13.76 96.7177 13.68C96.6243 13.6 96.5777 13.5 96.5777 13.38C96.5777 13.2067 96.6777 13.0467 96.8777 12.9C97.091 12.7533 97.3377 12.6467 97.6177 12.58C97.6443 12.5533 97.691 12.5 97.7577 12.42C97.8243 12.3267 97.9177 12.28 98.0377 12.28C98.171 12.28 98.2977 12.3067 98.4177 12.36C98.5377 12.4 98.611 12.4467 98.6377 12.5C99.011 12.4333 99.391 12.4 99.7777 12.4C100.684 12.4 101.498 12.6467 102.218 13.14C102.938 13.6333 103.504 14.32 103.918 15.2C104.331 16.0667 104.538 17.04 104.538 18.12C104.538 19.2933 104.231 20.4667 103.618 21.64C103.018 22.8133 102.218 23.7733 101.218 24.52C100.231 25.28 99.2043 25.66 98.1377 25.66ZM99.8577 13.62C99.551 13.62 99.1443 13.66 98.6377 13.74L98.2177 13.8C97.6043 14.8933 97.1243 16.18 96.7777 17.66C96.4443 19.14 96.2777 20.5067 96.2777 21.76C96.2777 22.6 96.4377 23.2933 96.7577 23.84C97.091 24.3733 97.611 24.64 98.3177 24.64C99.131 24.64 99.951 24.3 100.778 23.62C101.604 22.9267 102.284 22.0733 102.818 21.06C103.351 20.0467 103.618 19.08 103.618 18.16C103.618 17.3467 103.438 16.5933 103.078 15.9C102.731 15.1933 102.264 14.64 101.678 14.24C101.104 13.8267 100.498 13.62 99.8577 13.62Z" fill="black"/>
<path d="M128.52 23.88C128.293 23.88 127.82 23.2867 127.1 22.1C126.393 20.9 125.867 19.8667 125.52 19C125.16 19.6667 124.807 20.3867 124.46 21.16C124.113 21.9333 123.94 22.4267 123.94 22.64C123.94 22.68 123.96 22.7333 124 22.8C124.04 22.8667 124.087 22.9133 124.14 22.94C124.153 22.9533 124.193 22.98 124.26 23.02C124.327 23.0467 124.36 23.0867 124.36 23.14C124.36 23.2067 124.307 23.3067 124.2 23.44C124.107 23.56 124.047 23.64 124.02 23.68C123.98 23.7333 123.933 23.7933 123.88 23.86C123.827 23.9267 123.767 24.0133 123.7 24.12C123.647 24.2 123.527 24.3867 123.34 24.68C123.153 24.9867 123.02 25.14 122.94 25.14C122.78 25.14 122.653 25.08 122.56 24.96C122.467 24.84 122.42 24.68 122.42 24.48C122.42 24.0267 122.7 23.1067 123.26 21.72C123.82 20.3333 124.387 19.0533 124.96 17.88C123.96 15.6 123.287 14.1133 122.94 13.42L122.5 12.56C122.34 12.2667 122.2 12 122.08 11.76C121.96 11.52 121.9 11.3667 121.9 11.3C121.9 11.1133 121.967 11.02 122.1 11.02C122.22 11.02 122.413 11.1667 122.68 11.46C122.96 11.74 123.22 12.1067 123.46 12.56C123.727 13.0533 124.08 13.76 124.52 14.68C124.96 15.5867 125.293 16.32 125.52 16.88C126.92 14.2533 127.707 12.8133 127.88 12.56C128.08 12.28 128.247 12.0933 128.38 12C128.513 11.9067 128.753 11.86 129.1 11.86C129.26 11.86 129.393 11.88 129.5 11.92C129.62 11.96 129.68 12.0067 129.68 12.06C129.68 12.1267 129.56 12.2667 129.32 12.48C129.013 12.76 128.807 12.98 128.7 13.14C128.54 13.3533 128.227 13.8733 127.76 14.7C127.293 15.5267 126.867 16.3067 126.48 17.04L126.04 17.84C126.56 18.9867 127.08 20.0067 127.6 20.9C128.133 21.7933 128.493 22.24 128.68 22.24C128.76 22.24 128.827 22.1933 128.88 22.1C128.933 21.9933 129.007 21.8067 129.1 21.54C129.127 21.4733 129.16 21.36 129.2 21.2C129.253 21.0267 129.313 20.94 129.38 20.94C129.473 20.94 129.533 20.96 129.56 21C129.6 21.0267 129.62 21.1067 129.62 21.24C129.62 21.3867 129.553 21.6867 129.42 22.14C129.3 22.58 129.153 22.98 128.98 23.34C128.82 23.7 128.667 23.88 128.52 23.88ZM146.856 16.7C146.683 17.26 146.403 18.0267 146.016 19C145.949 19.1733 145.769 19.6533 145.476 20.44C145.196 21.2133 144.969 21.9333 144.796 22.6C144.716 22.8667 144.436 23 143.956 23C143.743 23 143.636 22.7867 143.636 22.36C143.636 22.2933 143.829 21.8133 144.216 20.92C144.949 19.2533 145.556 17.7533 146.036 16.42C146.516 15.0733 146.756 13.9067 146.756 12.92C146.756 12.72 146.729 12.58 146.676 12.5C146.623 12.42 146.549 12.38 146.456 12.38C145.949 12.38 145.336 12.5 144.616 12.74C143.909 12.9667 143.216 13.28 142.536 13.68C142.203 14.3067 141.769 14.9467 141.236 15.6C140.716 16.2533 140.136 16.8 139.496 17.24C138.856 17.68 138.229 17.9 137.616 17.9C137.323 17.9 137.063 17.76 136.836 17.48C136.609 17.2 136.496 16.8 136.496 16.28C136.496 15.7333 136.683 15.0867 137.056 14.34C137.443 13.5933 137.876 12.94 138.356 12.38C138.849 11.82 139.216 11.54 139.456 11.54C139.696 11.54 139.876 11.5933 139.996 11.7C140.116 11.7933 140.176 11.9067 140.176 12.04C140.176 12.0667 140.069 12.1733 139.856 12.36C139.229 12.9333 138.683 13.5267 138.216 14.14C137.763 14.74 137.536 15.4067 137.536 16.14C137.536 16.3533 137.589 16.52 137.696 16.64C137.803 16.7467 137.943 16.8 138.116 16.8C138.369 16.8 138.736 16.6333 139.216 16.3C139.709 15.9533 140.143 15.5533 140.516 15.1C140.889 14.6467 141.076 14.2533 141.076 13.92C141.076 13.84 141.009 13.7133 140.876 13.54C140.756 13.3667 140.696 13.2267 140.696 13.12C140.696 12.92 140.783 12.7533 140.956 12.62C141.143 12.4733 141.376 12.4 141.656 12.4C141.869 12.4 142.136 12.4733 142.456 12.62C143.096 12.2867 143.876 11.9867 144.796 11.72C145.729 11.44 146.363 11.3 146.696 11.3C147.149 11.3 147.449 11.3933 147.596 11.58C147.743 11.7667 147.816 12.0667 147.816 12.48C147.816 13.2267 147.496 14.6333 146.856 16.7ZM151.056 24.34C150.136 24.34 149.436 24.0533 148.956 23.48C148.489 22.8933 148.256 22.1933 148.256 21.38C148.256 20.8733 148.336 20.3733 148.496 19.88C148.656 19.3867 148.843 18.9867 149.056 18.68C149.283 18.36 149.469 18.2 149.616 18.2C149.856 18.2 150.036 18.2933 150.156 18.48C150.276 18.6667 150.336 18.8667 150.336 19.08C150.336 19.1467 150.303 19.2467 150.236 19.38C150.169 19.5 150.089 19.6267 149.996 19.76C149.769 20.1067 149.589 20.42 149.456 20.7C149.336 20.9667 149.276 21.26 149.276 21.58C149.276 22.06 149.409 22.48 149.676 22.84C149.956 23.1867 150.376 23.36 150.936 23.36C151.469 23.36 151.923 23.1667 152.296 22.78C152.683 22.38 152.969 21.8867 153.156 21.3C153.356 20.7133 153.456 20.1467 153.456 19.6C153.456 19.0267 153.329 18.5467 153.076 18.16C152.836 17.76 152.563 17.56 152.256 17.56C151.976 17.56 151.616 17.66 151.176 17.86C150.869 17.9933 150.609 18.06 150.396 18.06C150.276 18.06 150.176 18.02 150.096 17.94C150.016 17.8467 149.976 17.7467 149.976 17.64C149.976 17.36 150.176 17.12 150.576 16.92C150.976 16.7067 151.416 16.6 151.896 16.6C152.709 16.6 153.316 16.88 153.716 17.44C154.116 18 154.316 18.7267 154.316 19.62C154.316 20.3533 154.189 21.0867 153.936 21.82C153.696 22.54 153.329 23.14 152.836 23.62C152.356 24.1 151.763 24.34 151.056 24.34Z" fill="black"/>
<path d="M47.92 17.66C47.0533 17.66 46.3667 17.5867 45.86 17.44C45.3533 17.3067 45.1 17.1133 45.1 16.86C45.1 16.7267 45.1933 16.5067 45.38 16.2C45.58 15.88 45.7333 15.72 45.84 15.72C46 15.72 46.08 15.7533 46.08 15.82C46.08 15.86 46.0533 15.9067 46 15.96C45.96 16.0133 45.94 16.0667 45.94 16.12C45.94 16.16 46.02 16.22 46.18 16.3C46.3533 16.38 46.6133 16.4533 46.96 16.52C47.3067 16.5867 47.7267 16.62 48.22 16.62C49.0067 16.62 49.6933 16.4667 50.28 16.16C50.88 15.8533 51.34 15.4667 51.66 15C51.98 14.5333 52.14 14.08 52.14 13.64C52.14 13.0667 51.86 12.5733 51.3 12.16C50.7533 11.7467 49.8667 11.3533 48.64 10.98C47.4533 10.5933 46.5333 10.2733 45.88 10.02C45.24 9.75333 44.72 9.43333 44.32 9.06C43.92 8.67333 43.72 8.20667 43.72 7.66C43.72 6.92667 44.1333 6.20667 44.96 5.5C45.7867 4.78 46.8067 4.2 48.02 3.76C49.2333 3.30667 50.36 3.08 51.4 3.08C51.9333 3.08 52.22 3.18667 52.26 3.4C52.3 3.61333 52.32 3.85333 52.32 4.12C52.32 4.32 52.2467 4.42 52.1 4.42C52.0333 4.42 51.9533 4.4 51.86 4.36C51.78 4.30667 51.7067 4.26667 51.64 4.24C51.56 4.21333 51.4667 4.18667 51.36 4.16C51.2533 4.13333 51.1 4.12 50.9 4.12C50.2067 4.12 49.3733 4.3 48.4 4.66C47.4267 5.02 46.58 5.46667 45.86 6C45.1533 6.53333 44.8 7.04667 44.8 7.54C44.8 7.94 44.96 8.28667 45.28 8.58C45.6133 8.87333 46.0533 9.12667 46.6 9.34C47.1467 9.54 47.92 9.79333 48.92 10.1C50.3867 10.5267 51.4667 11.0067 52.16 11.54C52.8667 12.0733 53.22 12.7267 53.22 13.5C53.22 14.1667 52.9933 14.8267 52.54 15.48C52.1 16.12 51.4733 16.64 50.66 17.04C49.86 17.4533 48.9467 17.66 47.92 17.66Z" fill="black"/>
<path d="M51.52 38.88C51.2933 38.88 50.82 38.2867 50.1 37.1C49.3933 35.9 48.8667 34.8667 48.52 34C48.16 34.6667 47.8067 35.3867 47.46 36.16C47.1133 36.9333 46.94 37.4267 46.94 37.64C46.94 37.68 46.96 37.7333 47 37.8C47.04 37.8667 47.0867 37.9133 47.14 37.94C47.1533 37.9533 47.1933 37.98 47.26 38.02C47.3267 38.0467 47.36 38.0867 47.36 38.14C47.36 38.2067 47.3067 38.3067 47.2 38.44C47.1067 38.56 47.0467 38.64 47.02 38.68C46.98 38.7333 46.9333 38.7933 46.88 38.86C46.8267 38.9267 46.7667 39.0133 46.7 39.12C46.6467 39.2 46.5267 39.3867 46.34 39.68C46.1533 39.9867 46.02 40.14 45.94 40.14C45.78 40.14 45.6533 40.08 45.56 39.96C45.4667 39.84 45.42 39.68 45.42 39.48C45.42 39.0267 45.7 38.1067 46.26 36.72C46.82 35.3333 47.3867 34.0533 47.96 32.88C46.96 30.6 46.2867 29.1133 45.94 28.42L45.5 27.56C45.34 27.2667 45.2 27 45.08 26.76C44.96 26.52 44.9 26.3667 44.9 26.3C44.9 26.1133 44.9667 26.02 45.1 26.02C45.22 26.02 45.4133 26.1667 45.68 26.46C45.96 26.74 46.22 27.1067 46.46 27.56C46.7267 28.0533 47.08 28.76 47.52 29.68C47.96 30.5867 48.2933 31.32 48.52 31.88C49.92 29.2533 50.7067 27.8133 50.88 27.56C51.08 27.28 51.2467 27.0933 51.38 27C51.5133 26.9067 51.7533 26.86 52.1 26.86C52.26 26.86 52.3933 26.88 52.5 26.92C52.62 26.96 52.68 27.0067 52.68 27.06C52.68 27.1267 52.56 27.2667 52.32 27.48C52.0133 27.76 51.8067 27.98 51.7 28.14C51.54 28.3533 51.2267 28.8733 50.76 29.7C50.2933 30.5267 49.8667 31.3067 49.48 32.04L49.04 32.84C49.56 33.9867 50.08 35.0067 50.6 35.9C51.1333 36.7933 51.4933 37.24 51.68 37.24C51.76 37.24 51.8267 37.1933 51.88 37.1C51.9333 36.9933 52.0067 36.8067 52.1 36.54C52.1267 36.4733 52.16 36.36 52.2 36.2C52.2533 36.0267 52.3133 35.94 52.38 35.94C52.4733 35.94 52.5333 35.96 52.56 36C52.6 36.0267 52.62 36.1067 52.62 36.24C52.62 36.3867 52.5533 36.6867 52.42 37.14C52.3 37.58 52.1533 37.98 51.98 38.34C51.82 38.7 51.6667 38.88 51.52 38.88Z" fill="black"/>
<path d="M31.925 17.035C31.285 17.105 30.46 17.16 29.45 17.2C28.45 17.23 27.635 17.245 27.005 17.245C26.875 17.245 26.76 17.22 26.66 17.17C26.56 17.12 26.51 17.035 26.51 16.915C26.51 16.785 26.555 16.7 26.645 16.66C26.735 16.62 26.885 16.6 27.095 16.6C27.975 16.6 28.805 16.585 29.585 16.555C30.365 16.525 31.185 16.45 32.045 16.33C32.125 16.32 32.19 16.255 32.24 16.135C32.3 16.015 32.36 15.955 32.42 15.955C32.53 15.955 32.64 16.02 32.75 16.15C32.87 16.27 32.93 16.395 32.93 16.525C32.93 16.695 32.86 16.815 32.72 16.885C32.58 16.945 32.315 16.995 31.925 17.035ZM32.195 19.525C30.465 19.725 28.96 19.825 27.68 19.825C27.53 19.825 27.385 19.8 27.245 19.75C27.105 19.69 27.035 19.605 27.035 19.495C27.035 19.365 27.08 19.28 27.17 19.24C27.26 19.2 27.41 19.18 27.62 19.18C29.07 19.18 30.365 19.11 31.505 18.97C31.945 18.93 32.205 18.91 32.285 18.91C32.875 18.91 33.17 18.975 33.17 19.105C33.17 19.255 33.1 19.355 32.96 19.405C32.82 19.445 32.565 19.485 32.195 19.525Z" fill="black"/>
<path d="M115.925 17.035C115.285 17.105 114.46 17.16 113.45 17.2C112.45 17.23 111.635 17.245 111.005 17.245C110.875 17.245 110.76 17.22 110.66 17.17C110.56 17.12 110.51 17.035 110.51 16.915C110.51 16.785 110.555 16.7 110.645 16.66C110.735 16.62 110.885 16.6 111.095 16.6C111.975 16.6 112.805 16.585 113.585 16.555C114.365 16.525 115.185 16.45 116.045 16.33C116.125 16.32 116.19 16.255 116.24 16.135C116.3 16.015 116.36 15.955 116.42 15.955C116.53 15.955 116.64 16.02 116.75 16.15C116.87 16.27 116.93 16.395 116.93 16.525C116.93 16.695 116.86 16.815 116.72 16.885C116.58 16.945 116.315 16.995 115.925 17.035ZM116.195 19.525C114.465 19.725 112.96 19.825 111.68 19.825C111.53 19.825 111.385 19.8 111.245 19.75C111.105 19.69 111.035 19.605 111.035 19.495C111.035 19.365 111.08 19.28 111.17 19.24C111.26 19.2 111.41 19.18 111.62 19.18C113.07 19.18 114.365 19.11 115.505 18.97C115.945 18.93 116.205 18.91 116.285 18.91C116.875 18.91 117.17 18.975 117.17 19.105C117.17 19.255 117.1 19.355 116.96 19.405C116.82 19.445 116.565 19.485 116.195 19.525Z" fill="black"/>
<path d="M46 24.5H51" stroke="black" stroke-linecap="round"/>
<path d="M37.5 20H60.5" stroke="black" stroke-linecap="round"/>
</svg>
