<svg width="230" height="73" viewBox="0 0 230 73" fill="none" xmlns="http://www.w3.org/2000/svg">
<path d="M90 29.0082H100" stroke="black" stroke-linecap="round"/>
<path d="M23.36 30.64C23.36 31.1733 23.3333 32.2267 23.28 33.8C23.2267 35.3467 23.2 36.9067 23.2 38.48C23.2 41.52 23.2667 44.6267 23.4 47.8C23.5333 50.9467 23.64 53.0133 23.72 54C23.72 54.16 23.7333 54.3333 23.76 54.52C23.7867 54.7067 23.8133 54.88 23.84 55.04C23.9467 55.7867 24 56.24 24 56.4C24 56.6667 23.8 56.92 23.4 57.16C23.0267 57.4 22.7333 57.52 22.52 57.52C22.2267 57.52 22.0267 57.4133 21.92 57.2C21.84 56.96 21.8 56.64 21.8 56.24C21.8 54.7733 21.84 53.24 21.92 51.64L21.96 49.4C21.96 48.6533 21.9467 47.68 21.92 46.48C21.8933 45.2533 21.8533 44.2267 21.8 43.4C20.44 47.7733 18.8933 51.4 17.16 54.28C15.4533 57.1333 13.6 58.56 11.6 58.56C10.6933 58.56 9.92 58.1333 9.28 57.28C8.66667 56.4267 8.36 55.2 8.36 53.6C8.36 51.4933 9.06667 49.2 10.48 46.72C11.92 44.24 13.5467 42.1067 15.36 40.32C17.2 38.5333 18.56 37.64 19.44 37.64C20.2933 37.64 20.72 37.92 20.72 38.48C20.72 38.8533 20.5867 39.2933 20.32 39.8C20.08 40.28 19.8 40.72 19.48 41.12C19.1867 41.52 19.0133 41.72 18.96 41.72C18.9067 41.72 18.84 41.7067 18.76 41.68C18.7067 41.6267 18.68 41.5733 18.68 41.52C18.68 41.3867 18.7467 41.16 18.88 40.84C19.0133 40.52 19.08 40.3067 19.08 40.2C19.08 40.0667 19.0667 39.9733 19.04 39.92C19.0133 39.8667 18.9333 39.84 18.8 39.84C18.24 39.84 17.2267 40.6133 15.76 42.16C14.32 43.68 13.0267 45.4933 11.88 47.6C10.7333 49.7067 10.16 51.6667 10.16 53.48C10.16 54.12 10.2933 54.72 10.56 55.28C10.8267 55.84 11.2667 56.12 11.88 56.12C13.8267 56.12 15.6267 54.48 17.28 51.2C18.96 47.8933 20.4133 44.1467 21.64 39.96L21.56 36.6C21.48 33.64 21.44 32.0667 21.44 31.88C21.44 30.28 21.5067 29.1333 21.64 28.44C21.6933 28.1733 21.7467 27.9867 21.8 27.88C21.88 27.7733 22.0267 27.72 22.24 27.72C22.5067 27.72 22.7733 27.8133 23.04 28C23.3067 28.16 23.44 28.3867 23.44 28.68L23.36 30.64Z" fill="black"/>
<path d="M63.04 57.7682C62.5867 57.7682 61.64 56.5815 60.2 54.2082C58.7867 51.8082 57.7333 49.7415 57.04 48.0082C56.32 49.3415 55.6133 50.7815 54.92 52.3282C54.2267 53.8748 53.88 54.8615 53.88 55.2882C53.88 55.3682 53.92 55.4748 54 55.6082C54.08 55.7415 54.1733 55.8348 54.28 55.8882C54.3067 55.9148 54.3867 55.9682 54.52 56.0482C54.6533 56.1015 54.72 56.1815 54.72 56.2882C54.72 56.4215 54.6133 56.6215 54.4 56.8882C54.2133 57.1282 54.0933 57.2882 54.04 57.3682C53.96 57.4748 53.8667 57.5948 53.76 57.7282C53.6533 57.8615 53.5333 58.0348 53.4 58.2482C53.2933 58.4082 53.0533 58.7815 52.68 59.3682C52.3067 59.9815 52.04 60.2882 51.88 60.2882C51.56 60.2882 51.3067 60.1682 51.12 59.9282C50.9333 59.6882 50.84 59.3682 50.84 58.9682C50.84 58.0615 51.4 56.2215 52.52 53.4482C53.64 50.6748 54.7733 48.1148 55.92 45.7682C53.92 41.2082 52.5733 38.2348 51.88 36.8482L51 35.1282C50.68 34.5415 50.4 34.0082 50.16 33.5282C49.92 33.0482 49.8 32.7415 49.8 32.6082C49.8 32.2348 49.9333 32.0482 50.2 32.0482C50.44 32.0482 50.8267 32.3415 51.36 32.9282C51.92 33.4882 52.44 34.2215 52.92 35.1282C53.4533 36.1148 54.16 37.5282 55.04 39.3682C55.92 41.1815 56.5867 42.6482 57.04 43.7682C59.84 38.5148 61.4133 35.6348 61.76 35.1282C62.16 34.5682 62.4933 34.1948 62.76 34.0082C63.0267 33.8215 63.5067 33.7282 64.2 33.7282C64.52 33.7282 64.7867 33.7682 65 33.8482C65.24 33.9282 65.36 34.0215 65.36 34.1282C65.36 34.2615 65.12 34.5415 64.64 34.9682C64.0267 35.5282 63.6133 35.9682 63.4 36.2882C63.08 36.7148 62.4533 37.7548 61.52 39.4082C60.5867 41.0615 59.7333 42.6215 58.96 44.0882L58.08 45.6882C59.12 47.9815 60.16 50.0215 61.2 51.8082C62.2667 53.5948 62.9867 54.4882 63.36 54.4882C63.52 54.4882 63.6533 54.3948 63.76 54.2082C63.8667 53.9948 64.0133 53.6215 64.2 53.0882C64.2533 52.9548 64.32 52.7282 64.4 52.4082C64.5067 52.0615 64.6267 51.8882 64.76 51.8882C64.9467 51.8882 65.0667 51.9282 65.12 52.0082C65.2 52.0615 65.24 52.2215 65.24 52.4882C65.24 52.7815 65.1067 53.3815 64.84 54.2882C64.6 55.1682 64.3067 55.9682 63.96 56.6882C63.64 57.4082 63.3333 57.7682 63.04 57.7682Z" fill="black"/>
<path d="M101.04 57.7682C100.587 57.7682 99.64 56.5815 98.2 54.2082C96.7867 51.8082 95.7333 49.7415 95.04 48.0082C94.32 49.3415 93.6133 50.7815 92.92 52.3282C92.2267 53.8748 91.88 54.8615 91.88 55.2882C91.88 55.3682 91.92 55.4748 92 55.6082C92.08 55.7415 92.1733 55.8348 92.28 55.8882C92.3067 55.9148 92.3867 55.9682 92.52 56.0482C92.6533 56.1015 92.72 56.1815 92.72 56.2882C92.72 56.4215 92.6133 56.6215 92.4 56.8882C92.2133 57.1282 92.0933 57.2882 92.04 57.3682C91.96 57.4748 91.8667 57.5948 91.76 57.7282C91.6533 57.8615 91.5333 58.0348 91.4 58.2482C91.2933 58.4082 91.0533 58.7815 90.68 59.3682C90.3067 59.9815 90.04 60.2882 89.88 60.2882C89.56 60.2882 89.3067 60.1682 89.12 59.9282C88.9333 59.6882 88.84 59.3682 88.84 58.9682C88.84 58.0615 89.4 56.2215 90.52 53.4482C91.64 50.6748 92.7733 48.1148 93.92 45.7682C91.92 41.2082 90.5733 38.2348 89.88 36.8482L89 35.1282C88.68 34.5415 88.4 34.0082 88.16 33.5282C87.92 33.0482 87.8 32.7415 87.8 32.6082C87.8 32.2348 87.9333 32.0482 88.2 32.0482C88.44 32.0482 88.8267 32.3415 89.36 32.9282C89.92 33.4882 90.44 34.2215 90.92 35.1282C91.4533 36.1148 92.16 37.5282 93.04 39.3682C93.92 41.1815 94.5867 42.6482 95.04 43.7682C97.84 38.5148 99.4133 35.6348 99.76 35.1282C100.16 34.5682 100.493 34.1948 100.76 34.0082C101.027 33.8215 101.507 33.7282 102.2 33.7282C102.52 33.7282 102.787 33.7682 103 33.8482C103.24 33.9282 103.36 34.0215 103.36 34.1282C103.36 34.2615 103.12 34.5415 102.64 34.9682C102.027 35.5282 101.613 35.9682 101.4 36.2882C101.08 36.7148 100.453 37.7548 99.52 39.4082C98.5867 41.0615 97.7333 42.6215 96.96 44.0882L96.08 45.6882C97.12 47.9815 98.16 50.0215 99.2 51.8082C100.267 53.5948 100.987 54.4882 101.36 54.4882C101.52 54.4882 101.653 54.3948 101.76 54.2082C101.867 53.9948 102.013 53.6215 102.2 53.0882C102.253 52.9548 102.32 52.7282 102.4 52.4082C102.507 52.0615 102.627 51.8882 102.76 51.8882C102.947 51.8882 103.067 51.9282 103.12 52.0082C103.2 52.0615 103.24 52.2215 103.24 52.4882C103.24 52.7815 103.107 53.3815 102.84 54.2882C102.6 55.1682 102.307 55.9682 101.96 56.6882C101.64 57.4082 101.333 57.7682 101.04 57.7682Z" fill="black"/>
<path d="M26.68 44.78C26.4533 44.78 26.22 44.6867 25.98 44.5C25.7533 44.3133 25.64 44.16 25.64 44.04C25.64 43.8933 25.7067 43.7533 25.84 43.62C25.9867 43.4867 26.1333 43.42 26.28 43.42C26.48 43.4867 26.6467 43.5933 26.78 43.74C26.8867 43.8467 27.0067 43.9867 27.14 44.16C27.2733 44.3333 27.34 44.44 27.34 44.48C27.34 44.68 27.12 44.78 26.68 44.78ZM27.28 57.46C27.0933 57.4467 26.9533 57.1467 26.86 56.56C26.78 55.9733 26.6933 54.86 26.6 53.22C26.5467 52.14 26.5 51.0867 26.46 50.06C26.42 49.02 26.3933 48.22 26.38 47.66C26.38 47.5133 26.4 47.4067 26.44 47.34C26.4933 47.26 26.5867 47.22 26.72 47.22C27.0267 47.22 27.22 47.3467 27.3 47.6C27.38 47.8533 27.42 48.34 27.42 49.06L27.4 51.42C27.4 52.7667 27.44 53.8467 27.52 54.66C27.52 54.7 27.58 55.1267 27.7 55.94C27.7933 56.5 27.84 56.8733 27.84 57.06C27.84 57.1933 27.78 57.2933 27.66 57.36C27.5533 57.44 27.4267 57.4733 27.28 57.46Z" fill="black"/>
<path d="M69.68 44.7882C69.4533 44.7882 69.22 44.6948 68.98 44.5082C68.7533 44.3215 68.64 44.1682 68.64 44.0482C68.64 43.9015 68.7067 43.7615 68.84 43.6282C68.9867 43.4948 69.1333 43.4282 69.28 43.4282C69.48 43.4948 69.6467 43.6015 69.78 43.7482C69.8867 43.8548 70.0067 43.9948 70.14 44.1682C70.2733 44.3415 70.34 44.4482 70.34 44.4882C70.34 44.6882 70.12 44.7882 69.68 44.7882ZM70.28 57.4682C70.0933 57.4548 69.9533 57.1548 69.86 56.5682C69.78 55.9815 69.6933 54.8682 69.6 53.2282C69.5467 52.1482 69.5 51.0948 69.46 50.0682C69.42 49.0282 69.3933 48.2282 69.38 47.6682C69.38 47.5215 69.4 47.4148 69.44 47.3482C69.4933 47.2682 69.5867 47.2282 69.72 47.2282C70.0267 47.2282 70.22 47.3548 70.3 47.6082C70.38 47.8615 70.42 48.3482 70.42 49.0682L70.4 51.4282C70.4 52.7748 70.44 53.8548 70.52 54.6682C70.52 54.7082 70.58 55.1348 70.7 55.9482C70.7933 56.5082 70.84 56.8815 70.84 57.0682C70.84 57.2015 70.78 57.3015 70.66 57.3682C70.5533 57.4482 70.4267 57.4815 70.28 57.4682Z" fill="black"/>
<path d="M41.9 47.38C41.0467 47.4733 39.9467 47.5467 38.6 47.6C37.2667 47.64 36.18 47.66 35.34 47.66C35.1667 47.66 35.0133 47.6267 34.88 47.56C34.7467 47.4933 34.68 47.38 34.68 47.22C34.68 47.0467 34.74 46.9333 34.86 46.88C34.98 46.8267 35.18 46.8 35.46 46.8C36.6333 46.8 37.74 46.78 38.78 46.74C39.82 46.7 40.9133 46.6 42.06 46.44C42.1667 46.4267 42.2533 46.34 42.32 46.18C42.4 46.02 42.48 45.94 42.56 45.94C42.7067 45.94 42.8533 46.0267 43 46.2C43.16 46.36 43.24 46.5267 43.24 46.7C43.24 46.9267 43.1467 47.0867 42.96 47.18C42.7733 47.26 42.42 47.3267 41.9 47.38ZM42.26 50.7C39.9533 50.9667 37.9467 51.1 36.24 51.1C36.04 51.1 35.8467 51.0667 35.66 51C35.4733 50.92 35.38 50.8067 35.38 50.66C35.38 50.4867 35.44 50.3733 35.56 50.32C35.68 50.2667 35.88 50.24 36.16 50.24C38.0933 50.24 39.82 50.1467 41.34 49.96C41.9267 49.9067 42.2733 49.88 42.38 49.88C43.1667 49.88 43.56 49.9667 43.56 50.14C43.56 50.34 43.4667 50.4733 43.28 50.54C43.0933 50.5933 42.7533 50.6467 42.26 50.7Z" fill="black"/>
<path d="M81.6 49.5082L80.26 49.6682C79.94 49.7082 79.64 49.7415 79.36 49.7682C79.08 49.7815 78.74 49.7882 78.34 49.7882C78.1667 49.7882 78.0133 49.7548 77.88 49.6882C77.7467 49.6215 77.68 49.5082 77.68 49.3482C77.68 49.1748 77.74 49.0615 77.86 49.0082C77.98 48.9548 78.18 48.9282 78.46 48.9282C78.9667 48.9282 79.32 48.9282 79.52 48.9282C79.7333 48.9148 79.92 48.8882 80.08 48.8482C80.1333 48.8348 80.2867 48.8082 80.54 48.7682C80.7933 48.7148 81.2 48.6482 81.76 48.5682C81.8667 48.5548 81.9533 48.4682 82.02 48.3082C82.1 48.1482 82.18 48.0682 82.26 48.0682C82.4067 48.0682 82.5533 48.1548 82.7 48.3282C82.86 48.4882 82.94 48.6548 82.94 48.8282C82.94 49.0548 82.8467 49.2148 82.66 49.3082C82.4733 49.3882 82.12 49.4548 81.6 49.5082Z" fill="black"/>
<path d="M14.4112 19.0173L9.25653 16.4167L9.58175 22.1811L14.4112 19.0173ZM4.59074 31.0506C1.97591 30.0449 0.986998 27.6633 1.75103 25.331C2.52234 22.9765 5.13571 20.5546 9.99778 19.7643L9.83735 18.7773C4.72707 19.6079 1.72207 22.2072 0.800721 25.0197C-0.127917 27.8545 1.1162 30.7857 4.23176 31.984L4.59074 31.0506Z" fill="#505050"/>
<path d="M62.5 6.50001L57.5558 3.51875L57.4461 9.29121L62.5 6.50001ZM53.2708 30.5796C48.7411 27.663 47.5779 22.2833 48.7748 17.2933C49.9749 12.2898 53.5028 7.87819 58.1053 6.90365L57.8981 5.92534C52.7975 7.00536 49.0596 11.8185 47.8024 17.0601C46.5418 22.3152 47.7294 28.2009 52.7294 31.4204L53.2708 30.5796Z" fill="#505050"/>
<path d="M100.5 17.5L95.4174 14.7617L95.5874 20.5327L100.5 17.5ZM85.4745 31.3419C83.7716 26.2332 84.3347 23.1552 86.201 21.2572C88.1206 19.3049 91.5605 18.4314 96.0363 18.1314L95.9694 17.1336C91.4798 17.4346 87.6917 18.3148 85.4879 20.5561C83.2308 22.8516 82.7753 26.4068 84.5258 31.6581L85.4745 31.3419Z" fill="#505050"/>
<path d="M20.09 14.16C20.09 14.2933 20.0833 14.5567 20.07 14.95C20.0567 15.3367 20.05 15.7267 20.05 16.12C20.05 16.88 20.0667 17.6567 20.1 18.45C20.1333 19.2367 20.16 19.7533 20.18 20C20.18 20.04 20.1833 20.0833 20.19 20.13C20.1967 20.1767 20.2033 20.22 20.21 20.26C20.2367 20.4467 20.25 20.56 20.25 20.6C20.25 20.6667 20.2 20.73 20.1 20.79C20.0067 20.85 19.9333 20.88 19.88 20.88C19.8067 20.88 19.7567 20.8533 19.73 20.8C19.71 20.74 19.7 20.66 19.7 20.56C19.7 20.1933 19.71 19.81 19.73 19.41L19.74 18.85C19.74 18.6633 19.7367 18.42 19.73 18.12C19.7233 17.8133 19.7133 17.5567 19.7 17.35C19.36 18.4433 18.9733 19.35 18.54 20.07C18.1133 20.7833 17.65 21.14 17.15 21.14C16.9233 21.14 16.73 21.0333 16.57 20.82C16.4167 20.6067 16.34 20.3 16.34 19.9C16.34 19.3733 16.5167 18.8 16.87 18.18C17.23 17.56 17.6367 17.0267 18.09 16.58C18.55 16.1333 18.89 15.91 19.11 15.91C19.3233 15.91 19.43 15.98 19.43 16.12C19.43 16.2133 19.3967 16.3233 19.33 16.45C19.27 16.57 19.2 16.68 19.12 16.78C19.0467 16.88 19.0033 16.93 18.99 16.93C18.9767 16.93 18.96 16.9267 18.94 16.92C18.9267 16.9067 18.92 16.8933 18.92 16.88C18.92 16.8467 18.9367 16.79 18.97 16.71C19.0033 16.63 19.02 16.5767 19.02 16.55C19.02 16.5167 19.0167 16.4933 19.01 16.48C19.0033 16.4667 18.9833 16.46 18.95 16.46C18.81 16.46 18.5567 16.6533 18.19 17.04C17.83 17.42 17.5067 17.8733 17.22 18.4C16.9333 18.9267 16.79 19.4167 16.79 19.87C16.79 20.03 16.8233 20.18 16.89 20.32C16.9567 20.46 17.0667 20.53 17.22 20.53C17.7067 20.53 18.1567 20.12 18.57 19.3C18.99 18.4733 19.3533 17.5367 19.66 16.49L19.64 15.65C19.62 14.91 19.61 14.5167 19.61 14.47C19.61 14.07 19.6267 13.7833 19.66 13.61C19.6733 13.5433 19.6867 13.4967 19.7 13.47C19.72 13.4433 19.7567 13.43 19.81 13.43C19.8767 13.43 19.9433 13.4533 20.01 13.5C20.0767 13.54 20.11 13.5967 20.11 13.67L20.09 14.16ZM25.1061 18.6C25.1061 18.72 25.0161 18.9833 24.8361 19.39C24.6628 19.7967 24.3961 20.1733 24.0361 20.52C23.6828 20.8667 23.2461 21.04 22.7261 21.04C22.2994 21.04 21.9428 20.9067 21.6561 20.64C21.3694 20.3733 21.2261 19.9633 21.2261 19.41C21.2261 18.89 21.3461 18.3767 21.5861 17.87C21.8261 17.3567 22.1394 16.94 22.5261 16.62C22.9128 16.2933 23.3128 16.13 23.7261 16.13C23.9728 16.13 24.1794 16.1867 24.3461 16.3C24.5194 16.4067 24.6061 16.5633 24.6061 16.77C24.6061 17.0033 24.4728 17.23 24.2061 17.45C23.9461 17.67 23.6061 17.8633 23.1861 18.03C22.7661 18.1967 22.3328 18.3167 21.8861 18.39C21.8061 18.6967 21.7661 18.9967 21.7661 19.29C21.7661 19.6767 21.8561 19.9767 22.0361 20.19C22.2228 20.4033 22.4861 20.51 22.8261 20.51C23.3394 20.51 23.7561 20.3267 24.0761 19.96C24.3961 19.5933 24.6628 19.18 24.8761 18.72C24.8894 18.6933 24.9128 18.6433 24.9461 18.57C24.9794 18.49 25.0094 18.45 25.0361 18.45C25.0828 18.45 25.1061 18.5 25.1061 18.6ZM23.6061 16.54C23.3528 16.54 23.1094 16.6233 22.8761 16.79C22.6428 16.9567 22.4461 17.1567 22.2861 17.39C22.1328 17.6233 22.0328 17.83 21.9861 18.01C22.2928 17.9767 22.6161 17.89 22.9561 17.75C23.2961 17.61 23.5794 17.4567 23.8061 17.29C24.0394 17.1233 24.1561 16.9867 24.1561 16.88C24.1561 16.7733 24.0994 16.69 23.9861 16.63C23.8794 16.57 23.7528 16.54 23.6061 16.54ZM26.9948 21.34C26.7081 21.34 26.5148 21.3133 26.4148 21.26C26.3148 21.2067 26.2648 21.1333 26.2648 21.04C26.2648 20.98 26.3414 20.8767 26.4948 20.73C26.6481 20.5767 26.7514 20.5 26.8048 20.5C26.8848 20.5 26.9248 20.5167 26.9248 20.55C26.9248 20.5767 26.9081 20.6033 26.8748 20.63C26.8414 20.6567 26.8248 20.68 26.8248 20.7C26.8248 20.7267 26.8648 20.7533 26.9448 20.78C27.0314 20.8067 27.1348 20.82 27.2548 20.82C27.5348 20.82 27.8148 20.77 28.0948 20.67C28.3814 20.5633 28.6148 20.4267 28.7948 20.26C28.9748 20.0933 29.0648 19.9167 29.0648 19.73C29.0648 19.55 29.0081 19.4067 28.8948 19.3C28.7814 19.1933 28.6381 19.1167 28.4648 19.07C28.2981 19.0167 28.0148 18.9433 27.6148 18.85C27.1748 18.75 26.8314 18.6633 26.5848 18.59C26.3448 18.51 26.1514 18.4133 26.0048 18.3C25.8581 18.18 25.7848 18.03 25.7848 17.85C25.7848 17.53 25.9414 17.2367 26.2548 16.97C26.5681 16.7033 26.9281 16.4933 27.3348 16.34C27.7414 16.1867 28.0548 16.11 28.2748 16.11C28.5014 16.11 28.6148 16.1767 28.6148 16.31C28.6148 16.39 28.5881 16.48 28.5348 16.58C28.4814 16.6733 28.4014 16.72 28.2948 16.72C28.2548 16.72 28.2114 16.7067 28.1648 16.68C28.1181 16.6467 28.0714 16.63 28.0248 16.63C27.8914 16.63 27.6814 16.6733 27.3948 16.76C27.1081 16.8467 26.8481 16.9767 26.6148 17.15C26.3814 17.3233 26.2648 17.5333 26.2648 17.78C26.2648 17.94 26.3548 18.06 26.5348 18.14C26.7214 18.2133 27.0648 18.3067 27.5648 18.42C27.6248 18.44 27.6848 18.4567 27.7448 18.47C27.8048 18.4767 27.8581 18.4867 27.9048 18.5C28.4181 18.62 28.8114 18.7567 29.0848 18.91C29.3581 19.0633 29.4948 19.2933 29.4948 19.6C29.4948 19.8933 29.3748 20.1767 29.1348 20.45C28.9014 20.7167 28.5914 20.93 28.2048 21.09C27.8181 21.2567 27.4148 21.34 26.9948 21.34ZM34.9579 16.2C34.6112 16.5933 34.2879 17.1567 33.9879 17.89C33.6879 18.6233 33.4512 19.4167 33.2779 20.27C33.2579 20.37 33.2246 20.57 33.1779 20.87L33.1279 21.22C33.1079 21.3267 33.0612 21.41 32.9879 21.47C32.9212 21.53 32.8012 21.56 32.6279 21.56C32.5946 21.56 32.4812 21.36 32.2879 20.96C32.0946 20.5533 31.8912 20.1167 31.6779 19.65L31.2479 18.71C30.9879 18.1433 30.7712 17.7 30.5979 17.38C30.4246 17.06 30.2979 16.9 30.2179 16.9C30.1912 16.9 30.1679 16.9167 30.1479 16.95C30.1346 16.9833 30.1179 17 30.0979 17C30.0646 17 30.0346 16.9867 30.0079 16.96C29.9879 16.9267 29.9779 16.8933 29.9779 16.86C29.9779 16.7733 30.0246 16.66 30.1179 16.52C30.2179 16.38 30.3146 16.31 30.4079 16.31C30.4746 16.31 30.5246 16.3233 30.5579 16.35C30.5912 16.3767 30.6212 16.4067 30.6479 16.44C30.6746 16.4733 30.6946 16.5 30.7079 16.52C30.8679 16.72 31.1446 17.2467 31.5379 18.1C31.6779 18.4 32.0246 19.1833 32.5779 20.45L32.8079 20.98C32.8079 20.8067 32.8412 20.5267 32.9079 20.14C33.0546 19.3533 33.2746 18.5733 33.5679 17.8C33.8612 17.0267 34.2046 16.38 34.5979 15.86C34.6779 15.7533 34.7412 15.68 34.7879 15.64C34.8412 15.5933 34.9079 15.57 34.9879 15.57C35.0212 15.57 35.0746 15.6233 35.1479 15.73C35.2212 15.83 35.2579 15.8967 35.2579 15.93C35.2579 15.9633 35.2112 16.01 35.1179 16.07C35.0312 16.13 34.9779 16.1733 34.9579 16.2ZM36.0295 14.89C35.9161 14.89 35.7995 14.8433 35.6795 14.75C35.5661 14.6567 35.5095 14.58 35.5095 14.52C35.5095 14.4467 35.5428 14.3767 35.6095 14.31C35.6828 14.2433 35.7561 14.21 35.8295 14.21C35.9295 14.2433 36.0128 14.2967 36.0795 14.37C36.1328 14.4233 36.1928 14.4933 36.2595 14.58C36.3261 14.6667 36.3595 14.72 36.3595 14.74C36.3595 14.84 36.2495 14.89 36.0295 14.89ZM36.3295 21.23C36.2361 21.2233 36.1661 21.0733 36.1195 20.78C36.0795 20.4867 36.0361 19.93 35.9895 19.11C35.9628 18.57 35.9395 18.0433 35.9195 17.53C35.8995 17.01 35.8861 16.61 35.8795 16.33C35.8795 16.2567 35.8895 16.2033 35.9095 16.17C35.9361 16.13 35.9828 16.11 36.0495 16.11C36.2028 16.11 36.2995 16.1733 36.3395 16.3C36.3795 16.4267 36.3995 16.67 36.3995 17.03L36.3895 18.21C36.3895 18.8833 36.4095 19.4233 36.4495 19.83C36.4495 19.85 36.4795 20.0633 36.5395 20.47C36.5861 20.75 36.6095 20.9367 36.6095 21.03C36.6095 21.0967 36.5795 21.1467 36.5195 21.18C36.4661 21.22 36.4028 21.2367 36.3295 21.23ZM39.0272 21.07C38.5805 21.07 38.2505 20.9467 38.0372 20.7C37.8239 20.4533 37.7172 20.1467 37.7172 19.78C37.7172 19.46 37.7739 19.0633 37.8872 18.59C38.0072 18.1167 38.1739 17.6933 38.3872 17.32C38.4005 17.2933 38.4539 17.1967 38.5472 17.03C38.6472 16.8567 38.7572 16.7267 38.8772 16.64C38.9972 16.5467 39.1239 16.5 39.2572 16.5C39.3172 16.5 39.3705 16.5167 39.4172 16.55C39.4705 16.5767 39.4972 16.6133 39.4972 16.66C39.4972 16.6733 39.4772 16.7067 39.4372 16.76C39.4039 16.8067 39.3772 16.8433 39.3572 16.87C39.1305 17.1433 38.9472 17.4133 38.8072 17.68C38.6205 18.02 38.4739 18.3567 38.3672 18.69C38.2672 19.0233 38.2172 19.3867 38.2172 19.78C38.2172 20.3067 38.5372 20.57 39.1772 20.57C39.4772 20.57 39.7539 20.4833 40.0072 20.31C40.2672 20.1367 40.4739 19.9267 40.6272 19.68C40.7805 19.4267 40.8572 19.1967 40.8572 18.99C40.8572 18.7567 40.7805 18.5533 40.6272 18.38C40.4739 18.2067 40.2639 18.0233 39.9972 17.83C39.8239 17.7033 39.6972 17.6 39.6172 17.52C39.5372 17.44 39.4972 17.3733 39.4972 17.32C39.4972 17.24 39.5539 17.1767 39.6672 17.13C39.7805 17.0767 39.9139 17.05 40.0672 17.05C40.1539 17.05 40.2105 17.0567 40.2372 17.07C40.2639 17.0767 40.2772 17.0933 40.2772 17.12C40.2772 17.1333 40.2639 17.1567 40.2372 17.19C40.2172 17.2167 40.2072 17.24 40.2072 17.26C40.2072 17.28 40.2739 17.3467 40.4072 17.46C40.6739 17.68 40.8972 17.9033 41.0772 18.13C41.2572 18.3567 41.3472 18.6233 41.3472 18.93C41.3472 19.19 41.2505 19.49 41.0572 19.83C40.8639 20.17 40.5905 20.4633 40.2372 20.71C39.8839 20.95 39.4805 21.07 39.0272 21.07Z" fill="#505050"/>
<path d="M67.62 7.2C67.6067 7.65333 67.6 8.02333 67.6 8.31C67.6 8.69 67.6167 9.03667 67.65 9.35C67.6633 9.47 67.67 9.55333 67.67 9.6C67.67 9.70667 67.6467 9.79667 67.6 9.87C67.5533 9.95 67.4867 9.99 67.4 9.99C67.28 9.99 67.2133 9.94667 67.2 9.86C67.1933 9.74667 67.1833 9.57 67.17 9.33C67.1633 9.09667 67.16 8.86 67.16 8.62L67.17 7.22C67.1367 7.22 67.0733 7.22333 66.98 7.23C66.8933 7.23667 66.8067 7.24 66.72 7.24C66.56 7.24 66.48 7.13 66.48 6.91C66.48 6.75 66.52 6.67 66.6 6.67C66.6267 6.67 66.7067 6.69 66.84 6.73C66.9733 6.77 67.0867 6.79 67.18 6.79L67.17 3.96C67.1167 3.95333 67.0067 3.94333 66.84 3.93C66.6733 3.91 66.55 3.87667 66.47 3.83C66.3967 3.78333 66.36 3.71667 66.36 3.63C66.36 3.45667 66.3933 3.37 66.46 3.37C66.5333 3.37 66.6233 3.39667 66.73 3.45C66.7433 3.45667 66.7833 3.47667 66.85 3.51C66.9167 3.53667 67.01 3.55667 67.13 3.57C67.17 3.46333 67.2067 3.39 67.24 3.35C67.28 3.31 67.3533 3.29 67.46 3.29C67.5933 3.29 67.66 3.31667 67.66 3.37C67.66 3.39 67.65 3.42667 67.63 3.48C67.61 3.52667 67.6 3.57333 67.6 3.62C68.0133 3.68 68.48 3.80333 69 3.99C69.5267 4.17 69.98 4.4 70.36 4.68C70.7467 4.96 70.94 5.26667 70.94 5.6C70.94 6.07333 70.6333 6.44 70.02 6.7C69.4067 6.96 68.6067 7.12667 67.62 7.2ZM67.58 4C67.5933 4.38667 67.6033 4.9 67.61 5.54C67.6167 6.17333 67.62 6.59333 67.62 6.8C68.02 6.8 68.4467 6.75 68.9 6.65C69.3533 6.54333 69.7333 6.40333 70.04 6.23C70.3533 6.05 70.51 5.85333 70.51 5.64C70.51 5.36 70.35 5.10667 70.03 4.88C69.71 4.65333 69.3233 4.46667 68.87 4.32C68.4233 4.17333 67.9933 4.06667 67.58 4ZM72.8748 8.07C72.4282 8.07 72.0982 7.94667 71.8848 7.7C71.6715 7.45333 71.5648 7.14667 71.5648 6.78C71.5648 6.46 71.6215 6.06333 71.7348 5.59C71.8548 5.11667 72.0215 4.69333 72.2348 4.32C72.2482 4.29333 72.3015 4.19667 72.3948 4.03C72.4948 3.85667 72.6048 3.72667 72.7248 3.64C72.8448 3.54667 72.9715 3.5 73.1048 3.5C73.1648 3.5 73.2182 3.51667 73.2648 3.55C73.3182 3.57667 73.3448 3.61333 73.3448 3.66C73.3448 3.67333 73.3248 3.70667 73.2848 3.76C73.2515 3.80667 73.2248 3.84333 73.2048 3.87C72.9782 4.14333 72.7948 4.41333 72.6548 4.68C72.4682 5.02 72.3215 5.35667 72.2148 5.69C72.1148 6.02333 72.0648 6.38667 72.0648 6.78C72.0648 7.30667 72.3848 7.57 73.0248 7.57C73.3248 7.57 73.6015 7.48333 73.8548 7.31C74.1148 7.13667 74.3215 6.92667 74.4748 6.68C74.6282 6.42667 74.7048 6.19667 74.7048 5.99C74.7048 5.75667 74.6282 5.55333 74.4748 5.38C74.3215 5.20667 74.1115 5.02333 73.8448 4.83C73.6715 4.70333 73.5448 4.6 73.4648 4.52C73.3848 4.44 73.3448 4.37333 73.3448 4.32C73.3448 4.24 73.4015 4.17667 73.5148 4.13C73.6282 4.07667 73.7615 4.05 73.9148 4.05C74.0015 4.05 74.0582 4.05667 74.0848 4.07C74.1115 4.07667 74.1248 4.09333 74.1248 4.12C74.1248 4.13333 74.1115 4.15667 74.0848 4.19C74.0648 4.21667 74.0548 4.24 74.0548 4.26C74.0548 4.28 74.1215 4.34667 74.2548 4.46C74.5215 4.68 74.7448 4.90333 74.9248 5.13C75.1048 5.35667 75.1948 5.62333 75.1948 5.93C75.1948 6.19 75.0982 6.49 74.9048 6.83C74.7115 7.17 74.4382 7.46333 74.0848 7.71C73.7315 7.95 73.3282 8.07 72.8748 8.07ZM79.0922 8.36C79.0255 8.36 78.9689 8.34333 78.9222 8.31C78.8755 8.28333 78.8522 8.24333 78.8522 8.19C78.8522 7.91667 78.8722 7.49333 78.9122 6.92C78.9522 6.30667 78.9722 5.79667 78.9722 5.39C78.9722 4.99667 78.9589 4.67667 78.9322 4.43C78.9122 4.17667 78.8589 4.05 78.7722 4.05C78.5455 4.05 78.2955 4.33333 78.0222 4.9C77.7555 5.46 77.4489 6.2 77.1022 7.12L76.9522 7.52C76.9255 7.58667 76.8789 7.64 76.8122 7.68C76.7522 7.72 76.6889 7.74 76.6222 7.74C76.5422 7.74 76.4889 7.73333 76.4622 7.72C76.4355 7.70667 76.4189 7.66667 76.4122 7.6L76.3322 6.78L76.1822 5.34C76.1355 4.76667 76.0789 4.26667 76.0122 3.84C75.9922 3.74 75.9822 3.66333 75.9822 3.61C75.9822 3.51 76.0255 3.43 76.1122 3.37C76.1989 3.30333 76.2989 3.27 76.4122 3.27C76.4789 3.27 76.5255 3.43 76.5522 3.75C76.5855 4.07 76.6189 4.58667 76.6522 5.3L76.6922 5.83C76.7455 6.50333 76.7755 6.93 76.7822 7.11C76.8022 7.07 76.8189 7.02667 76.8322 6.98C76.8522 6.92667 76.8755 6.87 76.9022 6.81C77.2622 5.87667 77.5989 5.1 77.9122 4.48C78.2322 3.85333 78.5389 3.54 78.8322 3.54C79.0389 3.54 79.1789 3.71667 79.2522 4.07C79.3322 4.41667 79.3822 4.86333 79.4022 5.41C79.4222 6.01667 79.4322 6.90333 79.4322 8.07C79.4322 8.15 79.3989 8.21667 79.3322 8.27C79.2655 8.33 79.1855 8.36 79.0922 8.36ZM84.3618 4.26C83.7485 4.36667 83.4051 4.42667 83.3318 4.44L82.6818 4.55C82.6818 4.89667 82.6851 5.26 82.6918 5.64C82.7051 6.02 82.7218 6.35333 82.7418 6.64C82.7685 7.02667 82.8151 7.32333 82.8818 7.53C82.9485 7.73667 82.9851 7.85333 82.9918 7.88C82.9918 7.94667 82.9485 8.00667 82.8618 8.06C82.7818 8.12 82.7051 8.15 82.6318 8.15C82.5918 8.15 82.5585 8.13667 82.5318 8.11C82.5051 8.09 82.4818 8.05333 82.4618 8C82.4218 7.90667 82.3818 7.73333 82.3418 7.48C82.3085 7.22667 82.2818 6.94667 82.2618 6.64C82.2418 6.36667 82.2251 6.05 82.2118 5.69C82.2051 5.32333 82.2018 4.97 82.2018 4.63C81.8285 4.69 81.4451 4.76333 81.0518 4.85C80.6985 4.92333 80.4885 4.96 80.4218 4.96C80.3418 4.96 80.2651 4.93667 80.1918 4.89C80.1251 4.84333 80.0918 4.78 80.0918 4.7C80.0918 4.61333 80.1218 4.55667 80.1818 4.53C80.2418 4.50333 80.3418 4.49 80.4818 4.49C80.5818 4.49 80.7285 4.47333 80.9218 4.44C81.1151 4.4 81.2385 4.37333 81.2918 4.36C81.7385 4.27333 82.0418 4.21667 82.2018 4.19C82.2018 4.05 82.1951 3.86667 82.1818 3.64C82.1685 3.33333 82.1618 3.1 82.1618 2.94C82.1618 2.68 82.1685 2.48 82.1818 2.34C82.2018 2.19333 82.2351 2.06333 82.2818 1.95C82.3351 1.81667 82.4351 1.75 82.5818 1.75C82.6418 1.75 82.6818 1.76 82.7018 1.78C82.7218 1.8 82.7318 1.83667 82.7318 1.89C82.7318 1.93 82.7151 2.04667 82.6818 2.24C82.6485 2.43333 82.6318 2.69 82.6318 3.01C82.6318 3.25667 82.6385 3.53333 82.6518 3.84L82.6618 4.11C82.9618 4.06333 83.5551 3.94 84.4418 3.74C84.4951 3.72667 84.5385 3.68 84.5718 3.6C84.6118 3.52 84.6518 3.48 84.6918 3.48C84.7651 3.48 84.8385 3.52333 84.9118 3.61C84.9918 3.69 85.0318 3.77333 85.0318 3.86C85.0318 3.97333 84.9818 4.06 84.8818 4.12C84.7885 4.18 84.6151 4.22667 84.3618 4.26ZM86.6932 8.07C86.2465 8.07 85.9165 7.94667 85.7032 7.7C85.4899 7.45333 85.3832 7.14667 85.3832 6.78C85.3832 6.46 85.4399 6.06333 85.5532 5.59C85.6732 5.11667 85.8399 4.69333 86.0532 4.32C86.0665 4.29333 86.1199 4.19667 86.2132 4.03C86.3132 3.85667 86.4232 3.72667 86.5432 3.64C86.6632 3.54667 86.7899 3.5 86.9232 3.5C86.9832 3.5 87.0365 3.51667 87.0832 3.55C87.1365 3.57667 87.1632 3.61333 87.1632 3.66C87.1632 3.67333 87.1432 3.70667 87.1032 3.76C87.0699 3.80667 87.0432 3.84333 87.0232 3.87C86.7965 4.14333 86.6132 4.41333 86.4732 4.68C86.2865 5.02 86.1399 5.35667 86.0332 5.69C85.9332 6.02333 85.8832 6.38667 85.8832 6.78C85.8832 7.30667 86.2032 7.57 86.8432 7.57C87.1432 7.57 87.4199 7.48333 87.6732 7.31C87.9332 7.13667 88.1399 6.92667 88.2932 6.68C88.4465 6.42667 88.5232 6.19667 88.5232 5.99C88.5232 5.75667 88.4465 5.55333 88.2932 5.38C88.1399 5.20667 87.9299 5.02333 87.6632 4.83C87.4899 4.70333 87.3632 4.6 87.2832 4.52C87.2032 4.44 87.1632 4.37333 87.1632 4.32C87.1632 4.24 87.2199 4.17667 87.3332 4.13C87.4465 4.07667 87.5799 4.05 87.7332 4.05C87.8199 4.05 87.8765 4.05667 87.9032 4.07C87.9299 4.07667 87.9432 4.09333 87.9432 4.12C87.9432 4.13333 87.9299 4.15667 87.9032 4.19C87.8832 4.21667 87.8732 4.24 87.8732 4.26C87.8732 4.28 87.9399 4.34667 88.0732 4.46C88.3399 4.68 88.5632 4.90333 88.7432 5.13C88.9232 5.35667 89.0132 5.62333 89.0132 5.93C89.0132 6.19 88.9165 6.49 88.7232 6.83C88.5299 7.17 88.2565 7.46333 87.9032 7.71C87.5499 7.95 87.1465 8.07 86.6932 8.07ZM98.7116 8.19C98.5916 8.19 98.5316 8.13 98.5316 8.01C98.5316 6.66333 98.4883 5.63333 98.4016 4.92C98.315 4.2 98.165 3.84 97.9516 3.84C97.5916 3.84 97.065 5.09667 96.3716 7.61V7.62C96.3716 7.7 96.345 7.77 96.2916 7.83C96.2383 7.88333 96.1683 7.91 96.0816 7.91C95.9616 7.91 95.9016 7.85 95.9016 7.73C95.9016 7.46333 95.915 7.05 95.9416 6.49C95.9683 5.86333 95.9816 5.37 95.9816 5.01C95.9816 4.51 95.965 4.15667 95.9316 3.95C95.905 3.73667 95.8416 3.63 95.7416 3.63C95.515 3.63 95.2283 4.04667 94.8816 4.88C94.535 5.70667 94.1716 6.68333 93.7916 7.81L93.7016 8.07C93.675 8.13667 93.635 8.19333 93.5816 8.24C93.535 8.28667 93.4816 8.31 93.4216 8.31C93.3416 8.31 93.2883 8.30333 93.2616 8.29C93.235 8.27667 93.2183 8.23667 93.2116 8.17C93.1783 7.84333 93.1516 7.40667 93.1316 6.86C93.1183 6.72 93.105 6.49 93.0916 6.17C93.025 5.04333 92.965 4.28333 92.9116 3.89C92.8583 3.49 92.8316 3.26667 92.8316 3.22C92.8316 3.16667 92.8583 3.10333 92.9116 3.03C92.965 2.95667 93.015 2.92 93.0616 2.92C93.1683 2.92 93.255 2.99667 93.3216 3.15C93.355 3.22333 93.3916 3.51667 93.4316 4.03C93.4716 4.54333 93.505 5.18 93.5316 5.94L93.5816 7.47C93.9483 6.33667 94.3283 5.31 94.7216 4.39C95.115 3.46333 95.475 3 95.8016 3C96.0216 3 96.1716 3.16 96.2516 3.48C96.3316 3.8 96.3716 4.26333 96.3716 4.87C96.3716 5.19 96.365 5.65 96.3516 6.25L96.3416 6.71C96.615 5.75667 96.885 4.95667 97.1516 4.31C97.425 3.66333 97.6983 3.34 97.9716 3.34C98.6583 3.34 99.0016 4.86 99.0016 7.9C99.0016 7.98 98.975 8.04667 98.9216 8.1C98.8683 8.16 98.7983 8.19 98.7116 8.19ZM104.032 5.6C104.032 5.72 103.942 5.98333 103.762 6.39C103.589 6.79667 103.322 7.17333 102.962 7.52C102.609 7.86667 102.172 8.04 101.652 8.04C101.225 8.04 100.869 7.90667 100.582 7.64C100.295 7.37333 100.152 6.96333 100.152 6.41C100.152 5.89 100.272 5.37667 100.512 4.87C100.752 4.35667 101.065 3.94 101.452 3.62C101.839 3.29333 102.239 3.13 102.652 3.13C102.899 3.13 103.105 3.18667 103.272 3.3C103.445 3.40667 103.532 3.56333 103.532 3.77C103.532 4.00333 103.399 4.23 103.132 4.45C102.872 4.67 102.532 4.86333 102.112 5.03C101.692 5.19667 101.259 5.31667 100.812 5.39C100.732 5.69667 100.692 5.99667 100.692 6.29C100.692 6.67667 100.782 6.97667 100.962 7.19C101.149 7.40333 101.412 7.51 101.752 7.51C102.265 7.51 102.682 7.32667 103.002 6.96C103.322 6.59333 103.589 6.18 103.802 5.72C103.815 5.69333 103.839 5.64333 103.872 5.57C103.905 5.49 103.935 5.45 103.962 5.45C104.009 5.45 104.032 5.5 104.032 5.6ZM102.532 3.54C102.279 3.54 102.035 3.62333 101.802 3.79C101.569 3.95667 101.372 4.15667 101.212 4.39C101.059 4.62333 100.959 4.83 100.912 5.01C101.219 4.97667 101.542 4.89 101.882 4.75C102.222 4.61 102.505 4.45667 102.732 4.29C102.965 4.12333 103.082 3.98667 103.082 3.88C103.082 3.77333 103.025 3.69 102.912 3.63C102.805 3.57 102.679 3.54 102.532 3.54ZM102.182 2.77C102.122 2.77 102.072 2.75333 102.032 2.72C101.999 2.68667 101.982 2.64333 101.982 2.59C101.982 2.55667 102.092 2.43667 102.312 2.23C102.565 2.00333 102.752 1.81333 102.872 1.66C102.972 1.52 103.052 1.4 103.112 1.3C103.185 1.18667 103.235 1.11333 103.262 1.08C103.295 1.04667 103.335 1.03 103.382 1.03C103.449 1.03 103.519 1.06667 103.592 1.14C103.665 1.21333 103.702 1.28333 103.702 1.35C103.702 1.43667 103.595 1.59667 103.382 1.83C103.169 2.05667 102.935 2.27 102.682 2.47C102.435 2.67 102.269 2.77 102.182 2.77ZM108.401 1.16C108.401 1.29333 108.394 1.55667 108.381 1.95C108.367 2.33667 108.361 2.72667 108.361 3.12C108.361 3.88 108.377 4.65667 108.411 5.45C108.444 6.23667 108.471 6.75333 108.491 7C108.491 7.04 108.494 7.08333 108.501 7.13C108.507 7.17667 108.514 7.22 108.521 7.26C108.547 7.44667 108.561 7.56 108.561 7.6C108.561 7.66667 108.511 7.73 108.411 7.79C108.317 7.85 108.244 7.88 108.191 7.88C108.117 7.88 108.067 7.85333 108.041 7.8C108.021 7.74 108.011 7.66 108.011 7.56C108.011 7.19333 108.021 6.81 108.041 6.41L108.051 5.85C108.051 5.66333 108.047 5.42 108.041 5.12C108.034 4.81333 108.024 4.55667 108.011 4.35C107.671 5.44333 107.284 6.35 106.851 7.07C106.424 7.78333 105.961 8.14 105.461 8.14C105.234 8.14 105.041 8.03333 104.881 7.82C104.727 7.60667 104.651 7.3 104.651 6.9C104.651 6.37333 104.827 5.8 105.181 5.18C105.541 4.56 105.947 4.02667 106.401 3.58C106.861 3.13333 107.201 2.91 107.421 2.91C107.634 2.91 107.741 2.98 107.741 3.12C107.741 3.21333 107.707 3.32333 107.641 3.45C107.581 3.57 107.511 3.68 107.431 3.78C107.357 3.88 107.314 3.93 107.301 3.93C107.287 3.93 107.271 3.92667 107.251 3.92C107.237 3.90667 107.231 3.89333 107.231 3.88C107.231 3.84667 107.247 3.79 107.281 3.71C107.314 3.63 107.331 3.57667 107.331 3.55C107.331 3.51667 107.327 3.49333 107.321 3.48C107.314 3.46667 107.294 3.46 107.261 3.46C107.121 3.46 106.867 3.65333 106.501 4.04C106.141 4.42 105.817 4.87333 105.531 5.4C105.244 5.92667 105.101 6.41667 105.101 6.87C105.101 7.03 105.134 7.18 105.201 7.32C105.267 7.46 105.377 7.53 105.531 7.53C106.017 7.53 106.467 7.12 106.881 6.3C107.301 5.47333 107.664 4.53667 107.971 3.49L107.951 2.65C107.931 1.91 107.921 1.51667 107.921 1.47C107.921 1.07 107.937 0.783333 107.971 0.61C107.984 0.543333 107.997 0.496667 108.011 0.47C108.031 0.443333 108.067 0.43 108.121 0.43C108.187 0.43 108.254 0.453333 108.321 0.499999C108.387 0.54 108.421 0.596666 108.421 0.67L108.401 1.16ZM109.897 1.89C109.783 1.89 109.667 1.84333 109.547 1.75C109.433 1.65667 109.377 1.58 109.377 1.52C109.377 1.44667 109.41 1.37667 109.477 1.31C109.55 1.24333 109.623 1.21 109.697 1.21C109.797 1.24333 109.88 1.29667 109.947 1.37C110 1.42333 110.06 1.49333 110.127 1.58C110.193 1.66667 110.227 1.72 110.227 1.74C110.227 1.84 110.117 1.89 109.897 1.89ZM110.197 8.23C110.103 8.22333 110.033 8.07333 109.987 7.78C109.947 7.48667 109.903 6.93 109.857 6.11C109.83 5.57 109.807 5.04333 109.787 4.53C109.767 4.01 109.753 3.61 109.747 3.33C109.747 3.25667 109.757 3.20333 109.777 3.17C109.803 3.13 109.85 3.11 109.917 3.11C110.07 3.11 110.167 3.17333 110.207 3.3C110.247 3.42667 110.267 3.67 110.267 4.03L110.257 5.21C110.257 5.88333 110.277 6.42333 110.317 6.83C110.317 6.85 110.347 7.06333 110.407 7.47C110.453 7.75 110.477 7.93667 110.477 8.03C110.477 8.09667 110.447 8.14667 110.387 8.18C110.333 8.22 110.27 8.23667 110.197 8.23ZM112.894 8.07C112.448 8.07 112.118 7.94667 111.904 7.7C111.691 7.45333 111.584 7.14667 111.584 6.78C111.584 6.46 111.641 6.06333 111.754 5.59C111.874 5.11667 112.041 4.69333 112.254 4.32C112.268 4.29333 112.321 4.19667 112.414 4.03C112.514 3.85667 112.624 3.72667 112.744 3.64C112.864 3.54667 112.991 3.5 113.124 3.5C113.184 3.5 113.238 3.51667 113.284 3.55C113.338 3.57667 113.364 3.61333 113.364 3.66C113.364 3.67333 113.344 3.70667 113.304 3.76C113.271 3.80667 113.244 3.84333 113.224 3.87C112.998 4.14333 112.814 4.41333 112.674 4.68C112.488 5.02 112.341 5.35667 112.234 5.69C112.134 6.02333 112.084 6.38667 112.084 6.78C112.084 7.30667 112.404 7.57 113.044 7.57C113.344 7.57 113.621 7.48333 113.874 7.31C114.134 7.13667 114.341 6.92667 114.494 6.68C114.648 6.42667 114.724 6.19667 114.724 5.99C114.724 5.75667 114.648 5.55333 114.494 5.38C114.341 5.20667 114.131 5.02333 113.864 4.83C113.691 4.70333 113.564 4.6 113.484 4.52C113.404 4.44 113.364 4.37333 113.364 4.32C113.364 4.24 113.421 4.17667 113.534 4.13C113.648 4.07667 113.781 4.05 113.934 4.05C114.021 4.05 114.078 4.05667 114.104 4.07C114.131 4.07667 114.144 4.09333 114.144 4.12C114.144 4.13333 114.131 4.15667 114.104 4.19C114.084 4.21667 114.074 4.24 114.074 4.26C114.074 4.28 114.141 4.34667 114.274 4.46C114.541 4.68 114.764 4.90333 114.944 5.13C115.124 5.35667 115.214 5.62333 115.214 5.93C115.214 6.19 115.118 6.49 114.924 6.83C114.731 7.17 114.458 7.46333 114.104 7.71C113.751 7.95 113.348 8.07 112.894 8.07ZM122.473 1.16C122.473 1.29333 122.466 1.55667 122.453 1.95C122.439 2.33667 122.433 2.72667 122.433 3.12C122.433 3.88 122.449 4.65667 122.483 5.45C122.516 6.23667 122.543 6.75333 122.563 7C122.563 7.04 122.566 7.08333 122.573 7.13C122.579 7.17667 122.586 7.22 122.593 7.26C122.619 7.44667 122.633 7.56 122.633 7.6C122.633 7.66667 122.583 7.73 122.483 7.79C122.389 7.85 122.316 7.88 122.263 7.88C122.189 7.88 122.139 7.85333 122.113 7.8C122.093 7.74 122.083 7.66 122.083 7.56C122.083 7.19333 122.093 6.81 122.113 6.41L122.123 5.85C122.123 5.66333 122.119 5.42 122.113 5.12C122.106 4.81333 122.096 4.55667 122.083 4.35C121.743 5.44333 121.356 6.35 120.923 7.07C120.496 7.78333 120.033 8.14 119.533 8.14C119.306 8.14 119.113 8.03333 118.953 7.82C118.799 7.60667 118.723 7.3 118.723 6.9C118.723 6.37333 118.899 5.8 119.253 5.18C119.613 4.56 120.019 4.02667 120.473 3.58C120.933 3.13333 121.273 2.91 121.493 2.91C121.706 2.91 121.813 2.98 121.813 3.12C121.813 3.21333 121.779 3.32333 121.713 3.45C121.653 3.57 121.583 3.68 121.503 3.78C121.429 3.88 121.386 3.93 121.373 3.93C121.359 3.93 121.343 3.92667 121.323 3.92C121.309 3.90667 121.303 3.89333 121.303 3.88C121.303 3.84667 121.319 3.79 121.353 3.71C121.386 3.63 121.403 3.57667 121.403 3.55C121.403 3.51667 121.399 3.49333 121.393 3.48C121.386 3.46667 121.366 3.46 121.333 3.46C121.193 3.46 120.939 3.65333 120.573 4.04C120.213 4.42 119.889 4.87333 119.603 5.4C119.316 5.92667 119.173 6.41667 119.173 6.87C119.173 7.03 119.206 7.18 119.273 7.32C119.339 7.46 119.449 7.53 119.603 7.53C120.089 7.53 120.539 7.12 120.953 6.3C121.373 5.47333 121.736 4.53667 122.043 3.49L122.023 2.65C122.003 1.91 121.993 1.51667 121.993 1.47C121.993 1.07 122.009 0.783333 122.043 0.61C122.056 0.543333 122.069 0.496667 122.083 0.47C122.103 0.443333 122.139 0.43 122.193 0.43C122.259 0.43 122.326 0.453333 122.393 0.499999C122.459 0.54 122.493 0.596666 122.493 0.67L122.473 1.16ZM127.929 7.63C127.929 7.71 127.896 7.80333 127.829 7.91C127.762 8.01 127.696 8.06 127.629 8.06C127.516 8.06 127.429 7.99 127.369 7.85C127.309 7.71 127.279 7.54667 127.279 7.36C127.279 7.2 127.289 6.72 127.309 5.92L127.319 5.54C127.319 5.38667 127.279 5.27667 127.199 5.21C126.899 5.71667 126.619 6.15667 126.359 6.53C126.099 6.90333 125.769 7.25667 125.369 7.59C124.969 7.91667 124.549 8.08 124.109 8.08C123.896 8.08 123.729 8.01333 123.609 7.88C123.496 7.74667 123.439 7.57333 123.439 7.36C123.439 7.09333 123.559 6.73 123.799 6.27C124.039 5.80333 124.346 5.33333 124.719 4.86C125.092 4.38 125.466 3.98667 125.839 3.68C126.086 3.48 126.282 3.34667 126.429 3.28C126.576 3.20667 126.706 3.17 126.819 3.17C126.926 3.17 127.036 3.20333 127.149 3.27C127.262 3.33667 127.359 3.43 127.439 3.55C127.519 3.67 127.559 3.80667 127.559 3.96C127.559 4.16667 127.502 4.36333 127.389 4.55L127.559 4.5C127.632 4.5 127.676 4.59 127.689 4.77C127.696 4.87667 127.702 5.09333 127.709 5.42C127.722 5.74667 127.732 6.01667 127.739 6.23C127.746 6.45 127.752 6.66333 127.759 6.87C127.766 7.07667 127.772 7.24 127.779 7.36C127.786 7.40667 127.812 7.45667 127.859 7.51C127.906 7.55667 127.929 7.59667 127.929 7.63ZM127.059 4.82C127.139 4.62 127.179 4.40333 127.179 4.17C127.179 4.03 127.136 3.91 127.049 3.81C126.969 3.70333 126.859 3.65 126.719 3.65C126.552 3.65 126.339 3.76333 126.079 3.99C125.779 4.24333 125.462 4.58333 125.129 5.01C124.796 5.43 124.519 5.84667 124.299 6.26C124.079 6.67333 123.969 7 123.969 7.24C123.969 7.44 124.062 7.54 124.249 7.54C124.609 7.54 124.956 7.40667 125.289 7.14C125.622 6.87333 125.919 6.55667 126.179 6.19C126.446 5.81667 126.739 5.36 127.059 4.82ZM134.213 6.73C133.866 7.15 133.553 7.47333 133.273 7.7C133 7.92667 132.713 8.04 132.413 8.04C132.16 8.04 131.95 7.93 131.783 7.71C131.623 7.49 131.543 7.23667 131.543 6.95C131.543 6.52333 131.656 5.98333 131.883 5.33C132.11 4.67667 132.396 4.11 132.743 3.63C133.09 3.15 133.436 2.91 133.783 2.91C133.93 2.91 134.056 2.96333 134.163 3.07C134.223 3.13 134.28 3.21 134.333 3.31C134.386 3.41 134.413 3.5 134.413 3.58C134.413 3.69333 134.396 3.82667 134.363 3.98C134.336 4.12667 134.306 4.2 134.273 4.2C134.206 4.2 134.163 4.16333 134.143 4.09C134.123 4.01667 134.11 3.92333 134.103 3.81C134.083 3.63667 134.063 3.52333 134.043 3.47C134.023 3.41 133.993 3.38 133.953 3.38C133.64 3.38 133.336 3.6 133.043 4.04C132.75 4.47333 132.51 4.98 132.323 5.56C132.136 6.13333 132.043 6.57667 132.043 6.89C132.043 7.33 132.19 7.55 132.483 7.55C132.696 7.55 132.89 7.49667 133.063 7.39C133.243 7.28333 133.43 7.13333 133.623 6.94C133.983 6.57333 134.263 6.25667 134.463 5.99C134.476 5.97 134.513 5.92 134.573 5.84C134.64 5.75333 134.686 5.71 134.713 5.71C134.793 5.71 134.833 5.74 134.833 5.8C134.833 5.84 134.763 5.96333 134.623 6.17C134.49 6.37667 134.353 6.56333 134.213 6.73ZM136.064 7.95C135.984 7.95 135.907 7.85667 135.834 7.67C135.767 7.47667 135.734 7.18667 135.734 6.8C135.741 6.04667 135.751 5.13667 135.764 4.07C135.784 3.00333 135.801 2.2 135.814 1.66C135.821 1.46667 135.854 1.28667 135.914 1.12C135.981 0.953333 136.094 0.869999 136.254 0.869999C136.307 0.869999 136.341 0.899999 136.354 0.959999C136.374 1.01333 136.384 1.12 136.384 1.28C136.384 1.28667 136.381 1.31 136.374 1.35C136.374 1.38333 136.374 1.44667 136.374 1.54C136.254 3.29333 136.194 5.00333 136.194 6.67C136.194 6.88333 136.241 7.11 136.334 7.35C136.434 7.59 136.484 7.71667 136.484 7.73C136.484 7.79667 136.441 7.85 136.354 7.89C136.267 7.93 136.171 7.95 136.064 7.95ZM141.806 7.63C141.806 7.71 141.773 7.80333 141.706 7.91C141.639 8.01 141.573 8.06 141.506 8.06C141.393 8.06 141.306 7.99 141.246 7.85C141.186 7.71 141.156 7.54667 141.156 7.36C141.156 7.2 141.166 6.72 141.186 5.92L141.196 5.54C141.196 5.38667 141.156 5.27667 141.076 5.21C140.776 5.71667 140.496 6.15667 140.236 6.53C139.976 6.90333 139.646 7.25667 139.246 7.59C138.846 7.91667 138.426 8.08 137.986 8.08C137.773 8.08 137.606 8.01333 137.486 7.88C137.373 7.74667 137.316 7.57333 137.316 7.36C137.316 7.09333 137.436 6.73 137.676 6.27C137.916 5.80333 138.223 5.33333 138.596 4.86C138.969 4.38 139.343 3.98667 139.716 3.68C139.963 3.48 140.159 3.34667 140.306 3.28C140.453 3.20667 140.583 3.17 140.696 3.17C140.803 3.17 140.913 3.20333 141.026 3.27C141.139 3.33667 141.236 3.43 141.316 3.55C141.396 3.67 141.436 3.80667 141.436 3.96C141.436 4.16667 141.379 4.36333 141.266 4.55L141.436 4.5C141.509 4.5 141.553 4.59 141.566 4.77C141.573 4.87667 141.579 5.09333 141.586 5.42C141.599 5.74667 141.609 6.01667 141.616 6.23C141.623 6.45 141.629 6.66333 141.636 6.87C141.643 7.07667 141.649 7.24 141.656 7.36C141.663 7.40667 141.689 7.45667 141.736 7.51C141.783 7.55667 141.806 7.59667 141.806 7.63ZM140.936 4.82C141.016 4.62 141.056 4.40333 141.056 4.17C141.056 4.03 141.013 3.91 140.926 3.81C140.846 3.70333 140.736 3.65 140.596 3.65C140.429 3.65 140.216 3.76333 139.956 3.99C139.656 4.24333 139.339 4.58333 139.006 5.01C138.673 5.43 138.396 5.84667 138.176 6.26C137.956 6.67333 137.846 7 137.846 7.24C137.846 7.44 137.939 7.54 138.126 7.54C138.486 7.54 138.833 7.40667 139.166 7.14C139.499 6.87333 139.796 6.55667 140.056 6.19C140.323 5.81667 140.616 5.36 140.936 4.82ZM143.909 8.34C143.622 8.34 143.429 8.31333 143.329 8.26C143.229 8.20667 143.179 8.13333 143.179 8.04C143.179 7.98 143.255 7.87667 143.409 7.73C143.562 7.57667 143.665 7.5 143.719 7.5C143.799 7.5 143.839 7.51667 143.839 7.55C143.839 7.57667 143.822 7.60333 143.789 7.63C143.755 7.65667 143.739 7.68 143.739 7.7C143.739 7.72667 143.779 7.75333 143.859 7.78C143.945 7.80667 144.049 7.82 144.169 7.82C144.449 7.82 144.729 7.77 145.009 7.67C145.295 7.56333 145.529 7.42667 145.709 7.26C145.889 7.09333 145.979 6.91667 145.979 6.73C145.979 6.55 145.922 6.40667 145.809 6.3C145.695 6.19333 145.552 6.11667 145.379 6.07C145.212 6.01667 144.929 5.94333 144.529 5.85C144.089 5.75 143.745 5.66333 143.499 5.59C143.259 5.51 143.065 5.41333 142.919 5.3C142.772 5.18 142.699 5.03 142.699 4.85C142.699 4.53 142.855 4.23667 143.169 3.97C143.482 3.70333 143.842 3.49333 144.249 3.34C144.655 3.18667 144.969 3.11 145.189 3.11C145.415 3.11 145.529 3.17667 145.529 3.31C145.529 3.39 145.502 3.48 145.449 3.58C145.395 3.67333 145.315 3.72 145.209 3.72C145.169 3.72 145.125 3.70667 145.079 3.68C145.032 3.64667 144.985 3.63 144.939 3.63C144.805 3.63 144.595 3.67333 144.309 3.76C144.022 3.84667 143.762 3.97667 143.529 4.15C143.295 4.32333 143.179 4.53333 143.179 4.78C143.179 4.94 143.269 5.06 143.449 5.14C143.635 5.21333 143.979 5.30667 144.479 5.42C144.539 5.44 144.599 5.45667 144.659 5.47C144.719 5.47667 144.772 5.48667 144.819 5.5C145.332 5.62 145.725 5.75667 145.999 5.91C146.272 6.06333 146.409 6.29333 146.409 6.6C146.409 6.89333 146.289 7.17667 146.049 7.45C145.815 7.71667 145.505 7.93 145.119 8.09C144.732 8.25667 144.329 8.34 143.909 8.34ZM148.362 8.34C148.075 8.34 147.882 8.31333 147.782 8.26C147.682 8.20667 147.632 8.13333 147.632 8.04C147.632 7.98 147.709 7.87667 147.862 7.73C148.015 7.57667 148.119 7.5 148.172 7.5C148.252 7.5 148.292 7.51667 148.292 7.55C148.292 7.57667 148.275 7.60333 148.242 7.63C148.209 7.65667 148.192 7.68 148.192 7.7C148.192 7.72667 148.232 7.75333 148.312 7.78C148.399 7.80667 148.502 7.82 148.622 7.82C148.902 7.82 149.182 7.77 149.462 7.67C149.749 7.56333 149.982 7.42667 150.162 7.26C150.342 7.09333 150.432 6.91667 150.432 6.73C150.432 6.55 150.375 6.40667 150.262 6.3C150.149 6.19333 150.005 6.11667 149.832 6.07C149.665 6.01667 149.382 5.94333 148.982 5.85C148.542 5.75 148.199 5.66333 147.952 5.59C147.712 5.51 147.519 5.41333 147.372 5.3C147.225 5.18 147.152 5.03 147.152 4.85C147.152 4.53 147.309 4.23667 147.622 3.97C147.935 3.70333 148.295 3.49333 148.702 3.34C149.109 3.18667 149.422 3.11 149.642 3.11C149.869 3.11 149.982 3.17667 149.982 3.31C149.982 3.39 149.955 3.48 149.902 3.58C149.849 3.67333 149.769 3.72 149.662 3.72C149.622 3.72 149.579 3.70667 149.532 3.68C149.485 3.64667 149.439 3.63 149.392 3.63C149.259 3.63 149.049 3.67333 148.762 3.76C148.475 3.84667 148.215 3.97667 147.982 4.15C147.749 4.32333 147.632 4.53333 147.632 4.78C147.632 4.94 147.722 5.06 147.902 5.14C148.089 5.21333 148.432 5.30667 148.932 5.42C148.992 5.44 149.052 5.45667 149.112 5.47C149.172 5.47667 149.225 5.48667 149.272 5.5C149.785 5.62 150.179 5.75667 150.452 5.91C150.725 6.06333 150.862 6.29333 150.862 6.6C150.862 6.89333 150.742 7.17667 150.502 7.45C150.269 7.71667 149.959 7.93 149.572 8.09C149.185 8.25667 148.782 8.34 148.362 8.34ZM155.565 5.6C155.565 5.72 155.475 5.98333 155.295 6.39C155.122 6.79667 154.855 7.17333 154.495 7.52C154.142 7.86667 153.705 8.04 153.185 8.04C152.758 8.04 152.402 7.90667 152.115 7.64C151.828 7.37333 151.685 6.96333 151.685 6.41C151.685 5.89 151.805 5.37667 152.045 4.87C152.285 4.35667 152.598 3.94 152.985 3.62C153.372 3.29333 153.772 3.13 154.185 3.13C154.432 3.13 154.638 3.18667 154.805 3.3C154.978 3.40667 155.065 3.56333 155.065 3.77C155.065 4.00333 154.932 4.23 154.665 4.45C154.405 4.67 154.065 4.86333 153.645 5.03C153.225 5.19667 152.792 5.31667 152.345 5.39C152.265 5.69667 152.225 5.99667 152.225 6.29C152.225 6.67667 152.315 6.97667 152.495 7.19C152.682 7.40333 152.945 7.51 153.285 7.51C153.798 7.51 154.215 7.32667 154.535 6.96C154.855 6.59333 155.122 6.18 155.335 5.72C155.348 5.69333 155.372 5.64333 155.405 5.57C155.438 5.49 155.468 5.45 155.495 5.45C155.542 5.45 155.565 5.5 155.565 5.6ZM154.065 3.54C153.812 3.54 153.568 3.62333 153.335 3.79C153.102 3.95667 152.905 4.15667 152.745 4.39C152.592 4.62333 152.492 4.83 152.445 5.01C152.752 4.97667 153.075 4.89 153.415 4.75C153.755 4.61 154.038 4.45667 154.265 4.29C154.498 4.12333 154.615 3.98667 154.615 3.88C154.615 3.77333 154.558 3.69 154.445 3.63C154.338 3.57 154.212 3.54 154.065 3.54Z" fill="#505050"/>
<path d="M111.39 19.71C111.31 19.71 111.247 19.7067 111.2 19.7C111.153 19.6867 111.12 19.6567 111.1 19.61C111.04 19.51 110.97 19.2133 110.89 18.72C110.81 18.2267 110.733 17.66 110.66 17.02C110.5 15.0667 110.377 14.07 110.29 14.03C110.217 14.19 110.103 14.4933 109.95 14.94C109.797 15.38 109.62 15.9567 109.42 16.67C109.2 17.4367 109.033 17.9667 108.92 18.26C108.807 18.5467 108.707 18.7233 108.62 18.79C108.567 18.8367 108.5 18.8833 108.42 18.93C108.347 18.97 108.283 18.99 108.23 18.99C108.163 18.99 108.12 18.9833 108.1 18.97C108.08 18.95 108.057 18.8967 108.03 18.81C108.003 18.71 107.94 18.4 107.84 17.88C107.74 17.3533 107.663 16.88 107.61 16.46L107.55 16.04C107.437 15.1733 107.36 14.69 107.32 14.59C107.193 14.7033 107.073 14.9567 106.96 15.35C106.847 15.7367 106.717 16.2867 106.57 17C106.43 17.5533 106.26 18.4533 106.06 19.7C106.053 19.7733 106.003 19.84 105.91 19.9C105.817 19.96 105.733 19.99 105.66 19.99C105.553 19.99 105.493 19.8867 105.48 19.68C105.473 19.4733 105.427 19.0267 105.34 18.34C105.26 17.6533 105.187 17.05 105.12 16.53C105.027 15.79 104.9 15.1033 104.74 14.47C104.693 14.27 104.67 14.1567 104.67 14.13C104.67 14.03 104.717 13.95 104.81 13.89C104.91 13.8233 105.017 13.79 105.13 13.79C105.183 13.79 105.24 13.9967 105.3 14.41C105.36 14.8233 105.423 15.3433 105.49 15.97L105.52 16.3C105.547 16.52 105.577 16.75 105.61 16.99C105.737 18.01 105.807 18.65 105.82 18.91C105.953 18.1367 106.103 17.36 106.27 16.58L106.36 16.14C106.507 15.4333 106.667 14.9 106.84 14.54C107.013 14.1733 107.237 13.99 107.51 13.99C107.597 13.99 107.693 14.2167 107.8 14.67C107.907 15.1167 107.99 15.64 108.05 16.24C108.097 16.6667 108.157 17.0833 108.23 17.49C108.303 17.8967 108.37 18.18 108.43 18.34C108.47 18.2267 108.55 17.9767 108.67 17.59C108.797 17.2033 108.913 16.8367 109.02 16.49C109.347 15.3767 109.693 14.38 110.06 13.5C110.127 13.36 110.19 13.26 110.25 13.2C110.317 13.1333 110.43 13.1 110.59 13.1C110.677 13.1 110.77 13.48 110.87 14.24C110.97 15 111.053 15.88 111.12 16.88C111.3 18.2933 111.463 19.0633 111.61 19.19C111.71 19.2767 111.76 19.37 111.76 19.47C111.76 19.5167 111.72 19.57 111.64 19.63C111.567 19.6833 111.483 19.71 111.39 19.71ZM116.436 17.6C116.436 17.72 116.346 17.9833 116.166 18.39C115.993 18.7967 115.726 19.1733 115.366 19.52C115.013 19.8667 114.576 20.04 114.056 20.04C113.63 20.04 113.273 19.9067 112.986 19.64C112.7 19.3733 112.556 18.9633 112.556 18.41C112.556 17.89 112.676 17.3767 112.916 16.87C113.156 16.3567 113.47 15.94 113.856 15.62C114.243 15.2933 114.643 15.13 115.056 15.13C115.303 15.13 115.51 15.1867 115.676 15.3C115.85 15.4067 115.936 15.5633 115.936 15.77C115.936 16.0033 115.803 16.23 115.536 16.45C115.276 16.67 114.936 16.8633 114.516 17.03C114.096 17.1967 113.663 17.3167 113.216 17.39C113.136 17.6967 113.096 17.9967 113.096 18.29C113.096 18.6767 113.186 18.9767 113.366 19.19C113.553 19.4033 113.816 19.51 114.156 19.51C114.67 19.51 115.086 19.3267 115.406 18.96C115.726 18.5933 115.993 18.18 116.206 17.72C116.22 17.6933 116.243 17.6433 116.276 17.57C116.31 17.49 116.34 17.45 116.366 17.45C116.413 17.45 116.436 17.5 116.436 17.6ZM114.936 15.54C114.683 15.54 114.44 15.6233 114.206 15.79C113.973 15.9567 113.776 16.1567 113.616 16.39C113.463 16.6233 113.363 16.83 113.316 17.01C113.623 16.9767 113.946 16.89 114.286 16.75C114.626 16.61 114.91 16.4567 115.136 16.29C115.37 16.1233 115.486 15.9867 115.486 15.88C115.486 15.7733 115.43 15.69 115.316 15.63C115.21 15.57 115.083 15.54 114.936 15.54ZM114.586 14.77C114.526 14.77 114.476 14.7533 114.436 14.72C114.403 14.6867 114.386 14.6433 114.386 14.59C114.386 14.5567 114.496 14.4367 114.716 14.23C114.97 14.0033 115.156 13.8133 115.276 13.66C115.376 13.52 115.456 13.4 115.516 13.3C115.59 13.1867 115.64 13.1133 115.666 13.08C115.7 13.0467 115.74 13.03 115.786 13.03C115.853 13.03 115.923 13.0667 115.996 13.14C116.07 13.2133 116.106 13.2833 116.106 13.35C116.106 13.4367 116 13.5967 115.786 13.83C115.573 14.0567 115.34 14.27 115.086 14.47C114.84 14.67 114.673 14.77 114.586 14.77ZM120.805 13.16C120.805 13.2933 120.798 13.5567 120.785 13.95C120.772 14.3367 120.765 14.7267 120.765 15.12C120.765 15.88 120.782 16.6567 120.815 17.45C120.848 18.2367 120.875 18.7533 120.895 19C120.895 19.04 120.898 19.0833 120.905 19.13C120.912 19.1767 120.918 19.22 120.925 19.26C120.952 19.4467 120.965 19.56 120.965 19.6C120.965 19.6667 120.915 19.73 120.815 19.79C120.722 19.85 120.648 19.88 120.595 19.88C120.522 19.88 120.472 19.8533 120.445 19.8C120.425 19.74 120.415 19.66 120.415 19.56C120.415 19.1933 120.425 18.81 120.445 18.41L120.455 17.85C120.455 17.6633 120.452 17.42 120.445 17.12C120.438 16.8133 120.428 16.5567 120.415 16.35C120.075 17.4433 119.688 18.35 119.255 19.07C118.828 19.7833 118.365 20.14 117.865 20.14C117.638 20.14 117.445 20.0333 117.285 19.82C117.132 19.6067 117.055 19.3 117.055 18.9C117.055 18.3733 117.232 17.8 117.585 17.18C117.945 16.56 118.352 16.0267 118.805 15.58C119.265 15.1333 119.605 14.91 119.825 14.91C120.038 14.91 120.145 14.98 120.145 15.12C120.145 15.2133 120.112 15.3233 120.045 15.45C119.985 15.57 119.915 15.68 119.835 15.78C119.762 15.88 119.718 15.93 119.705 15.93C119.692 15.93 119.675 15.9267 119.655 15.92C119.642 15.9067 119.635 15.8933 119.635 15.88C119.635 15.8467 119.652 15.79 119.685 15.71C119.718 15.63 119.735 15.5767 119.735 15.55C119.735 15.5167 119.732 15.4933 119.725 15.48C119.718 15.4667 119.698 15.46 119.665 15.46C119.525 15.46 119.272 15.6533 118.905 16.04C118.545 16.42 118.222 16.8733 117.935 17.4C117.648 17.9267 117.505 18.4167 117.505 18.87C117.505 19.03 117.538 19.18 117.605 19.32C117.672 19.46 117.782 19.53 117.935 19.53C118.422 19.53 118.872 19.12 119.285 18.3C119.705 17.4733 120.068 16.5367 120.375 15.49L120.355 14.65C120.335 13.91 120.325 13.5167 120.325 13.47C120.325 13.07 120.342 12.7833 120.375 12.61C120.388 12.5433 120.402 12.4967 120.415 12.47C120.435 12.4433 120.472 12.43 120.525 12.43C120.592 12.43 120.658 12.4533 120.725 12.5C120.792 12.54 120.825 12.5967 120.825 12.67L120.805 13.16ZM122.301 13.89C122.188 13.89 122.071 13.8433 121.951 13.75C121.838 13.6567 121.781 13.58 121.781 13.52C121.781 13.4467 121.814 13.3767 121.881 13.31C121.954 13.2433 122.028 13.21 122.101 13.21C122.201 13.2433 122.284 13.2967 122.351 13.37C122.404 13.4233 122.464 13.4933 122.531 13.58C122.598 13.6667 122.631 13.72 122.631 13.74C122.631 13.84 122.521 13.89 122.301 13.89ZM122.601 20.23C122.508 20.2233 122.438 20.0733 122.391 19.78C122.351 19.4867 122.308 18.93 122.261 18.11C122.234 17.57 122.211 17.0433 122.191 16.53C122.171 16.01 122.158 15.61 122.151 15.33C122.151 15.2567 122.161 15.2033 122.181 15.17C122.208 15.13 122.254 15.11 122.321 15.11C122.474 15.11 122.571 15.1733 122.611 15.3C122.651 15.4267 122.671 15.67 122.671 16.03L122.661 17.21C122.661 17.8833 122.681 18.4233 122.721 18.83C122.721 18.85 122.751 19.0633 122.811 19.47C122.858 19.75 122.881 19.9367 122.881 20.03C122.881 20.0967 122.851 20.1467 122.791 20.18C122.738 20.22 122.674 20.2367 122.601 20.23ZM128.439 19.63C128.439 19.71 128.405 19.8033 128.339 19.91C128.272 20.01 128.205 20.06 128.139 20.06C128.025 20.06 127.939 19.99 127.879 19.85C127.819 19.71 127.789 19.5467 127.789 19.36C127.789 19.2 127.799 18.72 127.819 17.92L127.829 17.54C127.829 17.3867 127.789 17.2767 127.709 17.21C127.409 17.7167 127.129 18.1567 126.869 18.53C126.609 18.9033 126.279 19.2567 125.879 19.59C125.479 19.9167 125.059 20.08 124.619 20.08C124.405 20.08 124.239 20.0133 124.119 19.88C124.005 19.7467 123.949 19.5733 123.949 19.36C123.949 19.0933 124.069 18.73 124.309 18.27C124.549 17.8033 124.855 17.3333 125.229 16.86C125.602 16.38 125.975 15.9867 126.349 15.68C126.595 15.48 126.792 15.3467 126.939 15.28C127.085 15.2067 127.215 15.17 127.329 15.17C127.435 15.17 127.545 15.2033 127.659 15.27C127.772 15.3367 127.869 15.43 127.949 15.55C128.029 15.67 128.069 15.8067 128.069 15.96C128.069 16.1667 128.012 16.3633 127.899 16.55L128.069 16.5C128.142 16.5 128.185 16.59 128.199 16.77C128.205 16.8767 128.212 17.0933 128.219 17.42C128.232 17.7467 128.242 18.0167 128.249 18.23C128.255 18.45 128.262 18.6633 128.269 18.87C128.275 19.0767 128.282 19.24 128.289 19.36C128.295 19.4067 128.322 19.4567 128.369 19.51C128.415 19.5567 128.439 19.5967 128.439 19.63ZM127.569 16.82C127.649 16.62 127.689 16.4033 127.689 16.17C127.689 16.03 127.645 15.91 127.559 15.81C127.479 15.7033 127.369 15.65 127.229 15.65C127.062 15.65 126.849 15.7633 126.589 15.99C126.289 16.2433 125.972 16.5833 125.639 17.01C125.305 17.43 125.029 17.8467 124.809 18.26C124.589 18.6733 124.479 19 124.479 19.24C124.479 19.44 124.572 19.54 124.759 19.54C125.119 19.54 125.465 19.4067 125.799 19.14C126.132 18.8733 126.429 18.5567 126.689 18.19C126.955 17.8167 127.249 17.36 127.569 16.82ZM137.533 17.15C137.486 17.19 137.389 17.2267 137.243 17.26C137.096 17.2867 136.996 17.3033 136.943 17.31C136.996 17.5633 137.023 17.6867 137.023 17.68C137.069 17.8467 137.119 18.0767 137.173 18.37C137.293 19.0433 137.416 19.6167 137.543 20.09C137.576 20.2433 137.593 20.3333 137.593 20.36C137.593 20.4267 137.566 20.4833 137.513 20.53C137.459 20.5767 137.396 20.6 137.323 20.6C137.256 20.6 137.196 20.5633 137.143 20.49C137.089 20.4233 137.053 20.3633 137.033 20.31C136.973 20.0833 136.916 19.83 136.863 19.55C136.816 19.27 136.759 18.9333 136.693 18.54C136.666 18.3667 136.623 18.1533 136.563 17.9C136.503 17.64 136.463 17.47 136.443 17.39C136.049 17.4433 135.373 17.55 134.413 17.71L133.833 17.81L133.623 18.4L133.343 19.2C133.109 19.9267 132.943 20.4867 132.843 20.88C132.823 20.9733 132.783 21.05 132.723 21.11C132.663 21.1767 132.589 21.21 132.503 21.21C132.429 21.21 132.366 21.19 132.313 21.15C132.266 21.11 132.243 21.0533 132.243 20.98C132.243 20.9067 132.283 20.75 132.363 20.51C132.443 20.2767 132.489 20.1367 132.503 20.09C132.529 20.0233 132.583 19.87 132.663 19.63C132.749 19.37 132.859 19.0567 132.993 18.69C133.133 18.3167 133.226 18.07 133.273 17.95C132.933 18.03 132.679 18.0933 132.513 18.14C132.259 18.2067 132.103 18.24 132.043 18.24C131.969 18.24 131.913 18.2133 131.873 18.16C131.839 18.1 131.823 18.0367 131.823 17.97C131.823 17.89 131.843 17.8367 131.883 17.81C131.923 17.7767 131.989 17.7467 132.083 17.72C132.336 17.66 132.603 17.6 132.883 17.54C133.169 17.48 133.366 17.44 133.473 17.42C133.539 17.2267 133.589 17.0633 133.623 16.93C133.649 16.8433 133.683 16.7367 133.723 16.61C133.769 16.4767 133.819 16.3133 133.873 16.12L134.023 15.61C134.276 14.7167 134.423 14.2067 134.463 14.08C134.496 13.9867 134.526 13.9133 134.553 13.86C134.586 13.8067 134.629 13.78 134.683 13.78C134.816 13.78 134.936 13.8 135.043 13.84C135.056 13.8267 135.076 13.8 135.103 13.76C135.136 13.7133 135.169 13.6833 135.203 13.67C135.243 13.65 135.293 13.64 135.353 13.64C135.473 13.64 135.609 13.7767 135.763 14.05C135.923 14.3233 136.076 14.6467 136.223 15.02C136.309 15.24 136.419 15.57 136.553 16.01C136.686 16.4433 136.773 16.73 136.813 16.87C136.913 16.8567 136.996 16.84 137.063 16.82C137.136 16.7933 137.183 16.7767 137.203 16.77C137.236 16.7567 137.273 16.7333 137.313 16.7C137.353 16.6667 137.389 16.6433 137.423 16.63C137.456 16.61 137.493 16.61 137.533 16.63C137.619 16.67 137.663 16.7533 137.663 16.88C137.663 16.9267 137.649 16.9767 137.623 17.03C137.603 17.0833 137.573 17.1233 137.533 17.15ZM135.843 15.26C135.749 15.0133 135.629 14.76 135.483 14.5C135.336 14.24 135.213 14.0767 135.113 14.01L135.003 14.27C134.876 14.5233 134.779 14.7533 134.713 14.96C134.553 15.44 134.299 16.2333 133.953 17.34L135.123 17.14L136.083 16.99L136.353 16.95C136.319 16.83 136.249 16.58 136.143 16.2C136.036 15.8133 135.936 15.5 135.843 15.26ZM141.623 16.11C141.577 16.11 141.53 16.09 141.483 16.05C141.443 16.01 141.397 15.9533 141.343 15.88C141.297 15.8133 141.233 15.7567 141.153 15.71C141.08 15.6633 141.003 15.64 140.923 15.64C140.73 15.64 140.47 15.8967 140.143 16.41C139.817 16.9167 139.497 17.5567 139.183 18.33C139.19 18.4833 139.2 18.6767 139.213 18.91C139.233 19.1433 139.247 19.3167 139.253 19.43L139.283 19.83C139.283 19.9233 139.263 20.0033 139.223 20.07C139.183 20.1433 139.11 20.18 139.003 20.18C138.89 20.18 138.817 20.03 138.783 19.73C138.75 19.4233 138.73 18.98 138.723 18.4C138.717 18.2533 138.71 18.0433 138.703 17.77C138.703 17.4967 138.697 17.17 138.683 16.79C138.663 16.2167 138.653 15.8067 138.653 15.56C138.653 15.4067 138.747 15.33 138.933 15.33C139.047 15.33 139.113 15.38 139.133 15.48C139.16 15.5733 139.173 15.7567 139.173 16.03V17.62C139.373 17.1067 139.59 16.6633 139.823 16.29C140.057 15.9167 140.283 15.6333 140.503 15.44C140.73 15.24 140.93 15.14 141.103 15.14C141.25 15.14 141.39 15.1733 141.523 15.24C141.657 15.3067 141.763 15.3933 141.843 15.5C141.923 15.6 141.963 15.6967 141.963 15.79C141.963 15.85 141.92 15.92 141.833 16C141.753 16.0733 141.683 16.11 141.623 16.11ZM143.004 13.89C142.891 13.89 142.774 13.8433 142.654 13.75C142.541 13.6567 142.484 13.58 142.484 13.52C142.484 13.4467 142.517 13.3767 142.584 13.31C142.657 13.2433 142.731 13.21 142.804 13.21C142.904 13.2433 142.987 13.2967 143.054 13.37C143.107 13.4233 143.167 13.4933 143.234 13.58C143.301 13.6667 143.334 13.72 143.334 13.74C143.334 13.84 143.224 13.89 143.004 13.89ZM143.304 20.23C143.211 20.2233 143.141 20.0733 143.094 19.78C143.054 19.4867 143.011 18.93 142.964 18.11C142.937 17.57 142.914 17.0433 142.894 16.53C142.874 16.01 142.861 15.61 142.854 15.33C142.854 15.2567 142.864 15.2033 142.884 15.17C142.911 15.13 142.957 15.11 143.024 15.11C143.177 15.11 143.274 15.1733 143.314 15.3C143.354 15.4267 143.374 15.67 143.374 16.03L143.364 17.21C143.364 17.8833 143.384 18.4233 143.424 18.83C143.424 18.85 143.454 19.0633 143.514 19.47C143.561 19.75 143.584 19.9367 143.584 20.03C143.584 20.0967 143.554 20.1467 143.494 20.18C143.441 20.22 143.377 20.2367 143.304 20.23ZM148.612 16.26C147.998 16.3667 147.655 16.4267 147.582 16.44L146.932 16.55C146.932 16.8967 146.935 17.26 146.942 17.64C146.955 18.02 146.972 18.3533 146.992 18.64C147.018 19.0267 147.065 19.3233 147.132 19.53C147.198 19.7367 147.235 19.8533 147.242 19.88C147.242 19.9467 147.198 20.0067 147.112 20.06C147.032 20.12 146.955 20.15 146.882 20.15C146.842 20.15 146.808 20.1367 146.782 20.11C146.755 20.09 146.732 20.0533 146.712 20C146.672 19.9067 146.632 19.7333 146.592 19.48C146.558 19.2267 146.532 18.9467 146.512 18.64C146.492 18.3667 146.475 18.05 146.462 17.69C146.455 17.3233 146.452 16.97 146.452 16.63C146.078 16.69 145.695 16.7633 145.302 16.85C144.948 16.9233 144.738 16.96 144.672 16.96C144.592 16.96 144.515 16.9367 144.442 16.89C144.375 16.8433 144.342 16.78 144.342 16.7C144.342 16.6133 144.372 16.5567 144.432 16.53C144.492 16.5033 144.592 16.49 144.732 16.49C144.832 16.49 144.978 16.4733 145.172 16.44C145.365 16.4 145.488 16.3733 145.542 16.36C145.988 16.2733 146.292 16.2167 146.452 16.19C146.452 16.05 146.445 15.8667 146.432 15.64C146.418 15.3333 146.412 15.1 146.412 14.94C146.412 14.68 146.418 14.48 146.432 14.34C146.452 14.1933 146.485 14.0633 146.532 13.95C146.585 13.8167 146.685 13.75 146.832 13.75C146.892 13.75 146.932 13.76 146.952 13.78C146.972 13.8 146.982 13.8367 146.982 13.89C146.982 13.93 146.965 14.0467 146.932 14.24C146.898 14.4333 146.882 14.69 146.882 15.01C146.882 15.2567 146.888 15.5333 146.902 15.84L146.912 16.11C147.212 16.0633 147.805 15.94 148.692 15.74C148.745 15.7267 148.788 15.68 148.822 15.6C148.862 15.52 148.902 15.48 148.942 15.48C149.015 15.48 149.088 15.5233 149.162 15.61C149.242 15.69 149.282 15.7733 149.282 15.86C149.282 15.9733 149.232 16.06 149.132 16.12C149.038 16.18 148.865 16.2267 148.612 16.26ZM155.813 20.19C155.693 20.19 155.633 20.13 155.633 20.01C155.633 18.6633 155.59 17.6333 155.503 16.92C155.417 16.2 155.267 15.84 155.053 15.84C154.693 15.84 154.167 17.0967 153.473 19.61V19.62C153.473 19.7 153.447 19.77 153.393 19.83C153.34 19.8833 153.27 19.91 153.183 19.91C153.063 19.91 153.003 19.85 153.003 19.73C153.003 19.4633 153.017 19.05 153.043 18.49C153.07 17.8633 153.083 17.37 153.083 17.01C153.083 16.51 153.067 16.1567 153.033 15.95C153.007 15.7367 152.943 15.63 152.843 15.63C152.617 15.63 152.33 16.0467 151.983 16.88C151.637 17.7067 151.273 18.6833 150.893 19.81L150.803 20.07C150.777 20.1367 150.737 20.1933 150.683 20.24C150.637 20.2867 150.583 20.31 150.523 20.31C150.443 20.31 150.39 20.3033 150.363 20.29C150.337 20.2767 150.32 20.2367 150.313 20.17C150.28 19.8433 150.253 19.4067 150.233 18.86C150.22 18.72 150.207 18.49 150.193 18.17C150.127 17.0433 150.067 16.2833 150.013 15.89C149.96 15.49 149.933 15.2667 149.933 15.22C149.933 15.1667 149.96 15.1033 150.013 15.03C150.067 14.9567 150.117 14.92 150.163 14.92C150.27 14.92 150.357 14.9967 150.423 15.15C150.457 15.2233 150.493 15.5167 150.533 16.03C150.573 16.5433 150.607 17.18 150.633 17.94L150.683 19.47C151.05 18.3367 151.43 17.31 151.823 16.39C152.217 15.4633 152.577 15 152.903 15C153.123 15 153.273 15.16 153.353 15.48C153.433 15.8 153.473 16.2633 153.473 16.87C153.473 17.19 153.467 17.65 153.453 18.25L153.443 18.71C153.717 17.7567 153.987 16.9567 154.253 16.31C154.527 15.6633 154.8 15.34 155.073 15.34C155.76 15.34 156.103 16.86 156.103 19.9C156.103 19.98 156.077 20.0467 156.023 20.1C155.97 20.16 155.9 20.19 155.813 20.19ZM161.133 17.6C161.133 17.72 161.043 17.9833 160.863 18.39C160.69 18.7967 160.423 19.1733 160.063 19.52C159.71 19.8667 159.273 20.04 158.753 20.04C158.327 20.04 157.97 19.9067 157.683 19.64C157.397 19.3733 157.253 18.9633 157.253 18.41C157.253 17.89 157.373 17.3767 157.613 16.87C157.853 16.3567 158.167 15.94 158.553 15.62C158.94 15.2933 159.34 15.13 159.753 15.13C160 15.13 160.207 15.1867 160.373 15.3C160.547 15.4067 160.633 15.5633 160.633 15.77C160.633 16.0033 160.5 16.23 160.233 16.45C159.973 16.67 159.633 16.8633 159.213 17.03C158.793 17.1967 158.36 17.3167 157.913 17.39C157.833 17.6967 157.793 17.9967 157.793 18.29C157.793 18.6767 157.883 18.9767 158.063 19.19C158.25 19.4033 158.513 19.51 158.853 19.51C159.367 19.51 159.783 19.3267 160.103 18.96C160.423 18.5933 160.69 18.18 160.903 17.72C160.917 17.6933 160.94 17.6433 160.973 17.57C161.007 17.49 161.037 17.45 161.063 17.45C161.11 17.45 161.133 17.5 161.133 17.6ZM159.633 15.54C159.38 15.54 159.137 15.6233 158.903 15.79C158.67 15.9567 158.473 16.1567 158.313 16.39C158.16 16.6233 158.06 16.83 158.013 17.01C158.32 16.9767 158.643 16.89 158.983 16.75C159.323 16.61 159.607 16.4567 159.833 16.29C160.067 16.1233 160.183 15.9867 160.183 15.88C160.183 15.7733 160.127 15.69 160.013 15.63C159.907 15.57 159.78 15.54 159.633 15.54ZM159.283 14.77C159.223 14.77 159.173 14.7533 159.133 14.72C159.1 14.6867 159.083 14.6433 159.083 14.59C159.083 14.5567 159.193 14.4367 159.413 14.23C159.667 14.0033 159.853 13.8133 159.973 13.66C160.073 13.52 160.153 13.4 160.213 13.3C160.287 13.1867 160.337 13.1133 160.363 13.08C160.397 13.0467 160.437 13.03 160.483 13.03C160.55 13.03 160.62 13.0667 160.693 13.14C160.767 13.2133 160.803 13.2833 160.803 13.35C160.803 13.4367 160.697 13.5967 160.483 13.83C160.27 14.0567 160.037 14.27 159.783 14.47C159.537 14.67 159.37 14.77 159.283 14.77ZM165.682 16.26C165.069 16.3667 164.725 16.4267 164.652 16.44L164.002 16.55C164.002 16.8967 164.005 17.26 164.012 17.64C164.025 18.02 164.042 18.3533 164.062 18.64C164.089 19.0267 164.135 19.3233 164.202 19.53C164.269 19.7367 164.305 19.8533 164.312 19.88C164.312 19.9467 164.269 20.0067 164.182 20.06C164.102 20.12 164.025 20.15 163.952 20.15C163.912 20.15 163.879 20.1367 163.852 20.11C163.825 20.09 163.802 20.0533 163.782 20C163.742 19.9067 163.702 19.7333 163.662 19.48C163.629 19.2267 163.602 18.9467 163.582 18.64C163.562 18.3667 163.545 18.05 163.532 17.69C163.525 17.3233 163.522 16.97 163.522 16.63C163.149 16.69 162.765 16.7633 162.372 16.85C162.019 16.9233 161.809 16.96 161.742 16.96C161.662 16.96 161.585 16.9367 161.512 16.89C161.445 16.8433 161.412 16.78 161.412 16.7C161.412 16.6133 161.442 16.5567 161.502 16.53C161.562 16.5033 161.662 16.49 161.802 16.49C161.902 16.49 162.049 16.4733 162.242 16.44C162.435 16.4 162.559 16.3733 162.612 16.36C163.059 16.2733 163.362 16.2167 163.522 16.19C163.522 16.05 163.515 15.8667 163.502 15.64C163.489 15.3333 163.482 15.1 163.482 14.94C163.482 14.68 163.489 14.48 163.502 14.34C163.522 14.1933 163.555 14.0633 163.602 13.95C163.655 13.8167 163.755 13.75 163.902 13.75C163.962 13.75 164.002 13.76 164.022 13.78C164.042 13.8 164.052 13.8367 164.052 13.89C164.052 13.93 164.035 14.0467 164.002 14.24C163.969 14.4333 163.952 14.69 163.952 15.01C163.952 15.2567 163.959 15.5333 163.972 15.84L163.982 16.11C164.282 16.0633 164.875 15.94 165.762 15.74C165.815 15.7267 165.859 15.68 165.892 15.6C165.932 15.52 165.972 15.48 166.012 15.48C166.085 15.48 166.159 15.5233 166.232 15.61C166.312 15.69 166.352 15.7733 166.352 15.86C166.352 15.9733 166.302 16.06 166.202 16.12C166.109 16.18 165.935 16.2267 165.682 16.26ZM167.194 13.89C167.08 13.89 166.964 13.8433 166.844 13.75C166.73 13.6567 166.674 13.58 166.674 13.52C166.674 13.4467 166.707 13.3767 166.774 13.31C166.847 13.2433 166.92 13.21 166.994 13.21C167.094 13.2433 167.177 13.2967 167.244 13.37C167.297 13.4233 167.357 13.4933 167.424 13.58C167.49 13.6667 167.524 13.72 167.524 13.74C167.524 13.84 167.414 13.89 167.194 13.89ZM167.494 20.23C167.4 20.2233 167.33 20.0733 167.284 19.78C167.244 19.4867 167.2 18.93 167.154 18.11C167.127 17.57 167.104 17.0433 167.084 16.53C167.064 16.01 167.05 15.61 167.044 15.33C167.044 15.2567 167.054 15.2033 167.074 15.17C167.1 15.13 167.147 15.11 167.214 15.11C167.367 15.11 167.464 15.1733 167.504 15.3C167.544 15.4267 167.564 15.67 167.564 16.03L167.554 17.21C167.554 17.8833 167.574 18.4233 167.614 18.83C167.614 18.85 167.644 19.0633 167.704 19.47C167.75 19.75 167.774 19.9367 167.774 20.03C167.774 20.0967 167.744 20.1467 167.684 20.18C167.63 20.22 167.567 20.2367 167.494 20.23ZM171.451 18.73C171.105 19.15 170.791 19.4733 170.511 19.7C170.238 19.9267 169.951 20.04 169.651 20.04C169.398 20.04 169.188 19.93 169.021 19.71C168.861 19.49 168.781 19.2367 168.781 18.95C168.781 18.5233 168.895 17.9833 169.121 17.33C169.348 16.6767 169.635 16.11 169.981 15.63C170.328 15.15 170.675 14.91 171.021 14.91C171.168 14.91 171.295 14.9633 171.401 15.07C171.461 15.13 171.518 15.21 171.571 15.31C171.625 15.41 171.651 15.5 171.651 15.58C171.651 15.6933 171.635 15.8267 171.601 15.98C171.575 16.1267 171.545 16.2 171.511 16.2C171.445 16.2 171.401 16.1633 171.381 16.09C171.361 16.0167 171.348 15.9233 171.341 15.81C171.321 15.6367 171.301 15.5233 171.281 15.47C171.261 15.41 171.231 15.38 171.191 15.38C170.878 15.38 170.575 15.6 170.281 16.04C169.988 16.4733 169.748 16.98 169.561 17.56C169.375 18.1333 169.281 18.5767 169.281 18.89C169.281 19.33 169.428 19.55 169.721 19.55C169.935 19.55 170.128 19.4967 170.301 19.39C170.481 19.2833 170.668 19.1333 170.861 18.94C171.221 18.5733 171.501 18.2567 171.701 17.99C171.715 17.97 171.751 17.92 171.811 17.84C171.878 17.7533 171.925 17.71 171.951 17.71C172.031 17.71 172.071 17.74 172.071 17.8C172.071 17.84 172.001 17.9633 171.861 18.17C171.728 18.3767 171.591 18.5633 171.451 18.73ZM177.042 19.63C177.042 19.71 177.009 19.8033 176.942 19.91C176.876 20.01 176.809 20.06 176.742 20.06C176.629 20.06 176.542 19.99 176.482 19.85C176.422 19.71 176.392 19.5467 176.392 19.36C176.392 19.2 176.402 18.72 176.422 17.92L176.432 17.54C176.432 17.3867 176.392 17.2767 176.312 17.21C176.012 17.7167 175.732 18.1567 175.472 18.53C175.212 18.9033 174.882 19.2567 174.482 19.59C174.082 19.9167 173.662 20.08 173.222 20.08C173.009 20.08 172.842 20.0133 172.722 19.88C172.609 19.7467 172.552 19.5733 172.552 19.36C172.552 19.0933 172.672 18.73 172.912 18.27C173.152 17.8033 173.459 17.3333 173.832 16.86C174.206 16.38 174.579 15.9867 174.952 15.68C175.199 15.48 175.396 15.3467 175.542 15.28C175.689 15.2067 175.819 15.17 175.932 15.17C176.039 15.17 176.149 15.2033 176.262 15.27C176.376 15.3367 176.472 15.43 176.552 15.55C176.632 15.67 176.672 15.8067 176.672 15.96C176.672 16.1667 176.616 16.3633 176.502 16.55L176.672 16.5C176.746 16.5 176.789 16.59 176.802 16.77C176.809 16.8767 176.816 17.0933 176.822 17.42C176.836 17.7467 176.846 18.0167 176.852 18.23C176.859 18.45 176.866 18.6633 176.872 18.87C176.879 19.0767 176.886 19.24 176.892 19.36C176.899 19.4067 176.926 19.4567 176.972 19.51C177.019 19.5567 177.042 19.5967 177.042 19.63ZM176.172 16.82C176.252 16.62 176.292 16.4033 176.292 16.17C176.292 16.03 176.249 15.91 176.162 15.81C176.082 15.7033 175.972 15.65 175.832 15.65C175.666 15.65 175.452 15.7633 175.192 15.99C174.892 16.2433 174.576 16.5833 174.242 17.01C173.909 17.43 173.632 17.8467 173.412 18.26C173.192 18.6733 173.082 19 173.082 19.24C173.082 19.44 173.176 19.54 173.362 19.54C173.722 19.54 174.069 19.4067 174.402 19.14C174.736 18.8733 175.032 18.5567 175.292 18.19C175.559 17.8167 175.852 17.36 176.172 16.82ZM184.496 13.16C184.496 13.2933 184.49 13.5567 184.476 13.95C184.463 14.3367 184.456 14.7267 184.456 15.12C184.456 15.88 184.473 16.6567 184.506 17.45C184.54 18.2367 184.566 18.7533 184.586 19C184.586 19.04 184.59 19.0833 184.596 19.13C184.603 19.1767 184.61 19.22 184.616 19.26C184.643 19.4467 184.656 19.56 184.656 19.6C184.656 19.6667 184.606 19.73 184.506 19.79C184.413 19.85 184.34 19.88 184.286 19.88C184.213 19.88 184.163 19.8533 184.136 19.8C184.116 19.74 184.106 19.66 184.106 19.56C184.106 19.1933 184.116 18.81 184.136 18.41L184.146 17.85C184.146 17.6633 184.143 17.42 184.136 17.12C184.13 16.8133 184.12 16.5567 184.106 16.35C183.766 17.4433 183.38 18.35 182.946 19.07C182.52 19.7833 182.056 20.14 181.556 20.14C181.33 20.14 181.136 20.0333 180.976 19.82C180.823 19.6067 180.746 19.3 180.746 18.9C180.746 18.3733 180.923 17.8 181.276 17.18C181.636 16.56 182.043 16.0267 182.496 15.58C182.956 15.1333 183.296 14.91 183.516 14.91C183.73 14.91 183.836 14.98 183.836 15.12C183.836 15.2133 183.803 15.3233 183.736 15.45C183.676 15.57 183.606 15.68 183.526 15.78C183.453 15.88 183.41 15.93 183.396 15.93C183.383 15.93 183.366 15.9267 183.346 15.92C183.333 15.9067 183.326 15.8933 183.326 15.88C183.326 15.8467 183.343 15.79 183.376 15.71C183.41 15.63 183.426 15.5767 183.426 15.55C183.426 15.5167 183.423 15.4933 183.416 15.48C183.41 15.4667 183.39 15.46 183.356 15.46C183.216 15.46 182.963 15.6533 182.596 16.04C182.236 16.42 181.913 16.8733 181.626 17.4C181.34 17.9267 181.196 18.4167 181.196 18.87C181.196 19.03 181.23 19.18 181.296 19.32C181.363 19.46 181.473 19.53 181.626 19.53C182.113 19.53 182.563 19.12 182.976 18.3C183.396 17.4733 183.76 16.5367 184.066 15.49L184.046 14.65C184.026 13.91 184.016 13.5167 184.016 13.47C184.016 13.07 184.033 12.7833 184.066 12.61C184.08 12.5433 184.093 12.4967 184.106 12.47C184.126 12.4433 184.163 12.43 184.216 12.43C184.283 12.43 184.35 12.4533 184.416 12.5C184.483 12.54 184.516 12.5967 184.516 12.67L184.496 13.16ZM189.952 19.63C189.952 19.71 189.919 19.8033 189.852 19.91C189.786 20.01 189.719 20.06 189.652 20.06C189.539 20.06 189.452 19.99 189.392 19.85C189.332 19.71 189.302 19.5467 189.302 19.36C189.302 19.2 189.312 18.72 189.332 17.92L189.342 17.54C189.342 17.3867 189.302 17.2767 189.222 17.21C188.922 17.7167 188.642 18.1567 188.382 18.53C188.122 18.9033 187.792 19.2567 187.392 19.59C186.992 19.9167 186.572 20.08 186.132 20.08C185.919 20.08 185.752 20.0133 185.632 19.88C185.519 19.7467 185.462 19.5733 185.462 19.36C185.462 19.0933 185.582 18.73 185.822 18.27C186.062 17.8033 186.369 17.3333 186.742 16.86C187.116 16.38 187.489 15.9867 187.862 15.68C188.109 15.48 188.306 15.3467 188.452 15.28C188.599 15.2067 188.729 15.17 188.842 15.17C188.949 15.17 189.059 15.2033 189.172 15.27C189.286 15.3367 189.382 15.43 189.462 15.55C189.542 15.67 189.582 15.8067 189.582 15.96C189.582 16.1667 189.526 16.3633 189.412 16.55L189.582 16.5C189.656 16.5 189.699 16.59 189.712 16.77C189.719 16.8767 189.726 17.0933 189.732 17.42C189.746 17.7467 189.756 18.0167 189.762 18.23C189.769 18.45 189.776 18.6633 189.782 18.87C189.789 19.0767 189.796 19.24 189.802 19.36C189.809 19.4067 189.836 19.4567 189.882 19.51C189.929 19.5567 189.952 19.5967 189.952 19.63ZM189.082 16.82C189.162 16.62 189.202 16.4033 189.202 16.17C189.202 16.03 189.159 15.91 189.072 15.81C188.992 15.7033 188.882 15.65 188.742 15.65C188.576 15.65 188.362 15.7633 188.102 15.99C187.802 16.2433 187.486 16.5833 187.152 17.01C186.819 17.43 186.542 17.8467 186.322 18.26C186.102 18.6733 185.992 19 185.992 19.24C185.992 19.44 186.086 19.54 186.272 19.54C186.632 19.54 186.979 19.4067 187.312 19.14C187.646 18.8733 187.942 18.5567 188.202 18.19C188.469 17.8167 188.762 17.36 189.082 16.82ZM198.116 19.63C198.116 19.71 198.083 19.8033 198.016 19.91C197.95 20.01 197.883 20.06 197.816 20.06C197.703 20.06 197.616 19.99 197.556 19.85C197.496 19.71 197.466 19.5467 197.466 19.36C197.466 19.2 197.476 18.72 197.496 17.92L197.506 17.54C197.506 17.3867 197.466 17.2767 197.386 17.21C197.086 17.7167 196.806 18.1567 196.546 18.53C196.286 18.9033 195.956 19.2567 195.556 19.59C195.156 19.9167 194.736 20.08 194.296 20.08C194.083 20.08 193.916 20.0133 193.796 19.88C193.683 19.7467 193.626 19.5733 193.626 19.36C193.626 19.0933 193.746 18.73 193.986 18.27C194.226 17.8033 194.533 17.3333 194.906 16.86C195.28 16.38 195.653 15.9867 196.026 15.68C196.273 15.48 196.47 15.3467 196.616 15.28C196.763 15.2067 196.893 15.17 197.006 15.17C197.113 15.17 197.223 15.2033 197.336 15.27C197.45 15.3367 197.546 15.43 197.626 15.55C197.706 15.67 197.746 15.8067 197.746 15.96C197.746 16.1667 197.69 16.3633 197.576 16.55L197.746 16.5C197.82 16.5 197.863 16.59 197.876 16.77C197.883 16.8767 197.89 17.0933 197.896 17.42C197.91 17.7467 197.92 18.0167 197.926 18.23C197.933 18.45 197.94 18.6633 197.946 18.87C197.953 19.0767 197.96 19.24 197.966 19.36C197.973 19.4067 198 19.4567 198.046 19.51C198.093 19.5567 198.116 19.5967 198.116 19.63ZM197.246 16.82C197.326 16.62 197.366 16.4033 197.366 16.17C197.366 16.03 197.323 15.91 197.236 15.81C197.156 15.7033 197.046 15.65 196.906 15.65C196.74 15.65 196.526 15.7633 196.266 15.99C195.966 16.2433 195.65 16.5833 195.316 17.01C194.983 17.43 194.706 17.8467 194.486 18.26C194.266 18.6733 194.156 19 194.156 19.24C194.156 19.44 194.25 19.54 194.436 19.54C194.796 19.54 195.143 19.4067 195.476 19.14C195.81 18.8733 196.106 18.5567 196.366 18.19C196.633 17.8167 196.926 17.36 197.246 16.82ZM205.139 20.19C205.019 20.19 204.959 20.13 204.959 20.01C204.959 18.6633 204.916 17.6333 204.829 16.92C204.743 16.2 204.593 15.84 204.379 15.84C204.019 15.84 203.493 17.0967 202.799 19.61V19.62C202.799 19.7 202.773 19.77 202.719 19.83C202.666 19.8833 202.596 19.91 202.509 19.91C202.389 19.91 202.329 19.85 202.329 19.73C202.329 19.4633 202.343 19.05 202.369 18.49C202.396 17.8633 202.409 17.37 202.409 17.01C202.409 16.51 202.393 16.1567 202.359 15.95C202.333 15.7367 202.269 15.63 202.169 15.63C201.943 15.63 201.656 16.0467 201.309 16.88C200.963 17.7067 200.599 18.6833 200.219 19.81L200.129 20.07C200.103 20.1367 200.063 20.1933 200.009 20.24C199.963 20.2867 199.909 20.31 199.849 20.31C199.769 20.31 199.716 20.3033 199.689 20.29C199.663 20.2767 199.646 20.2367 199.639 20.17C199.606 19.8433 199.579 19.4067 199.559 18.86C199.546 18.72 199.533 18.49 199.519 18.17C199.453 17.0433 199.393 16.2833 199.339 15.89C199.286 15.49 199.259 15.2667 199.259 15.22C199.259 15.1667 199.286 15.1033 199.339 15.03C199.393 14.9567 199.443 14.92 199.489 14.92C199.596 14.92 199.683 14.9967 199.749 15.15C199.783 15.2233 199.819 15.5167 199.859 16.03C199.899 16.5433 199.933 17.18 199.959 17.94L200.009 19.47C200.376 18.3367 200.756 17.31 201.149 16.39C201.543 15.4633 201.903 15 202.229 15C202.449 15 202.599 15.16 202.679 15.48C202.759 15.8 202.799 16.2633 202.799 16.87C202.799 17.19 202.793 17.65 202.779 18.25L202.769 18.71C203.043 17.7567 203.313 16.9567 203.579 16.31C203.853 15.6633 204.126 15.34 204.399 15.34C205.086 15.34 205.429 16.86 205.429 19.9C205.429 19.98 205.403 20.0467 205.349 20.1C205.296 20.16 205.226 20.19 205.139 20.19ZM207.76 20.07C207.313 20.07 206.983 19.9467 206.77 19.7C206.556 19.4533 206.45 19.1467 206.45 18.78C206.45 18.46 206.506 18.0633 206.62 17.59C206.74 17.1167 206.906 16.6933 207.12 16.32C207.133 16.2933 207.186 16.1967 207.28 16.03C207.38 15.8567 207.49 15.7267 207.61 15.64C207.73 15.5467 207.856 15.5 207.99 15.5C208.05 15.5 208.103 15.5167 208.15 15.55C208.203 15.5767 208.23 15.6133 208.23 15.66C208.23 15.6733 208.21 15.7067 208.17 15.76C208.136 15.8067 208.11 15.8433 208.09 15.87C207.863 16.1433 207.68 16.4133 207.54 16.68C207.353 17.02 207.206 17.3567 207.1 17.69C207 18.0233 206.95 18.3867 206.95 18.78C206.95 19.3067 207.27 19.57 207.91 19.57C208.21 19.57 208.486 19.4833 208.74 19.31C209 19.1367 209.206 18.9267 209.36 18.68C209.513 18.4267 209.59 18.1967 209.59 17.99C209.59 17.7567 209.513 17.5533 209.36 17.38C209.206 17.2067 208.996 17.0233 208.73 16.83C208.556 16.7033 208.43 16.6 208.35 16.52C208.27 16.44 208.23 16.3733 208.23 16.32C208.23 16.24 208.286 16.1767 208.4 16.13C208.513 16.0767 208.646 16.05 208.8 16.05C208.886 16.05 208.943 16.0567 208.97 16.07C208.996 16.0767 209.01 16.0933 209.01 16.12C209.01 16.1333 208.996 16.1567 208.97 16.19C208.95 16.2167 208.94 16.24 208.94 16.26C208.94 16.28 209.006 16.3467 209.14 16.46C209.406 16.68 209.63 16.9033 209.81 17.13C209.99 17.3567 210.08 17.6233 210.08 17.93C210.08 18.19 209.983 18.49 209.79 18.83C209.596 19.17 209.323 19.4633 208.97 19.71C208.616 19.95 208.213 20.07 207.76 20.07ZM211.987 20.34C211.7 20.34 211.507 20.3133 211.407 20.26C211.307 20.2067 211.257 20.1333 211.257 20.04C211.257 19.98 211.334 19.8767 211.487 19.73C211.64 19.5767 211.744 19.5 211.797 19.5C211.877 19.5 211.917 19.5167 211.917 19.55C211.917 19.5767 211.9 19.6033 211.867 19.63C211.834 19.6567 211.817 19.68 211.817 19.7C211.817 19.7267 211.857 19.7533 211.937 19.78C212.024 19.8067 212.127 19.82 212.247 19.82C212.527 19.82 212.807 19.77 213.087 19.67C213.374 19.5633 213.607 19.4267 213.787 19.26C213.967 19.0933 214.057 18.9167 214.057 18.73C214.057 18.55 214 18.4067 213.887 18.3C213.774 18.1933 213.63 18.1167 213.457 18.07C213.29 18.0167 213.007 17.9433 212.607 17.85C212.167 17.75 211.824 17.6633 211.577 17.59C211.337 17.51 211.144 17.4133 210.997 17.3C210.85 17.18 210.777 17.03 210.777 16.85C210.777 16.53 210.934 16.2367 211.247 15.97C211.56 15.7033 211.92 15.4933 212.327 15.34C212.734 15.1867 213.047 15.11 213.267 15.11C213.494 15.11 213.607 15.1767 213.607 15.31C213.607 15.39 213.58 15.48 213.527 15.58C213.474 15.6733 213.394 15.72 213.287 15.72C213.247 15.72 213.204 15.7067 213.157 15.68C213.11 15.6467 213.064 15.63 213.017 15.63C212.884 15.63 212.674 15.6733 212.387 15.76C212.1 15.8467 211.84 15.9767 211.607 16.15C211.374 16.3233 211.257 16.5333 211.257 16.78C211.257 16.94 211.347 17.06 211.527 17.14C211.714 17.2133 212.057 17.3067 212.557 17.42C212.617 17.44 212.677 17.4567 212.737 17.47C212.797 17.4767 212.85 17.4867 212.897 17.5C213.41 17.62 213.804 17.7567 214.077 17.91C214.35 18.0633 214.487 18.2933 214.487 18.6C214.487 18.8933 214.367 19.1767 214.127 19.45C213.894 19.7167 213.584 19.93 213.197 20.09C212.81 20.2567 212.407 20.34 211.987 20.34ZM219.1 16.26C218.487 16.3667 218.143 16.4267 218.07 16.44L217.42 16.55C217.42 16.8967 217.423 17.26 217.43 17.64C217.443 18.02 217.46 18.3533 217.48 18.64C217.507 19.0267 217.553 19.3233 217.62 19.53C217.687 19.7367 217.723 19.8533 217.73 19.88C217.73 19.9467 217.687 20.0067 217.6 20.06C217.52 20.12 217.443 20.15 217.37 20.15C217.33 20.15 217.297 20.1367 217.27 20.11C217.243 20.09 217.22 20.0533 217.2 20C217.16 19.9067 217.12 19.7333 217.08 19.48C217.047 19.2267 217.02 18.9467 217 18.64C216.98 18.3667 216.963 18.05 216.95 17.69C216.943 17.3233 216.94 16.97 216.94 16.63C216.567 16.69 216.183 16.7633 215.79 16.85C215.437 16.9233 215.227 16.96 215.16 16.96C215.08 16.96 215.003 16.9367 214.93 16.89C214.863 16.8433 214.83 16.78 214.83 16.7C214.83 16.6133 214.86 16.5567 214.92 16.53C214.98 16.5033 215.08 16.49 215.22 16.49C215.32 16.49 215.467 16.4733 215.66 16.44C215.853 16.4 215.977 16.3733 216.03 16.36C216.477 16.2733 216.78 16.2167 216.94 16.19C216.94 16.05 216.933 15.8667 216.92 15.64C216.907 15.3333 216.9 15.1 216.9 14.94C216.9 14.68 216.907 14.48 216.92 14.34C216.94 14.1933 216.973 14.0633 217.02 13.95C217.073 13.8167 217.173 13.75 217.32 13.75C217.38 13.75 217.42 13.76 217.44 13.78C217.46 13.8 217.47 13.8367 217.47 13.89C217.47 13.93 217.453 14.0467 217.42 14.24C217.387 14.4333 217.37 14.69 217.37 15.01C217.37 15.2567 217.377 15.5333 217.39 15.84L217.4 16.11C217.7 16.0633 218.293 15.94 219.18 15.74C219.233 15.7267 219.277 15.68 219.31 15.6C219.35 15.52 219.39 15.48 219.43 15.48C219.503 15.48 219.577 15.5233 219.65 15.61C219.73 15.69 219.77 15.7733 219.77 15.86C219.77 15.9733 219.72 16.06 219.62 16.12C219.527 16.18 219.353 16.2267 219.1 16.26ZM223.371 16.11C223.325 16.11 223.278 16.09 223.231 16.05C223.191 16.01 223.145 15.9533 223.091 15.88C223.045 15.8133 222.981 15.7567 222.901 15.71C222.828 15.6633 222.751 15.64 222.671 15.64C222.478 15.64 222.218 15.8967 221.891 16.41C221.565 16.9167 221.245 17.5567 220.931 18.33C220.938 18.4833 220.948 18.6767 220.961 18.91C220.981 19.1433 220.995 19.3167 221.001 19.43L221.031 19.83C221.031 19.9233 221.011 20.0033 220.971 20.07C220.931 20.1433 220.858 20.18 220.751 20.18C220.638 20.18 220.565 20.03 220.531 19.73C220.498 19.4233 220.478 18.98 220.471 18.4C220.465 18.2533 220.458 18.0433 220.451 17.77C220.451 17.4967 220.445 17.17 220.431 16.79C220.411 16.2167 220.401 15.8067 220.401 15.56C220.401 15.4067 220.495 15.33 220.681 15.33C220.795 15.33 220.861 15.38 220.881 15.48C220.908 15.5733 220.921 15.7567 220.921 16.03V17.62C221.121 17.1067 221.338 16.6633 221.571 16.29C221.805 15.9167 222.031 15.6333 222.251 15.44C222.478 15.24 222.678 15.14 222.851 15.14C222.998 15.14 223.138 15.1733 223.271 15.24C223.405 15.3067 223.511 15.3933 223.591 15.5C223.671 15.6 223.711 15.6967 223.711 15.79C223.711 15.85 223.668 15.92 223.581 16C223.501 16.0733 223.431 16.11 223.371 16.11ZM228.712 19.63C228.712 19.71 228.679 19.8033 228.612 19.91C228.545 20.01 228.479 20.06 228.412 20.06C228.299 20.06 228.212 19.99 228.152 19.85C228.092 19.71 228.062 19.5467 228.062 19.36C228.062 19.2 228.072 18.72 228.092 17.92L228.102 17.54C228.102 17.3867 228.062 17.2767 227.982 17.21C227.682 17.7167 227.402 18.1567 227.142 18.53C226.882 18.9033 226.552 19.2567 226.152 19.59C225.752 19.9167 225.332 20.08 224.892 20.08C224.679 20.08 224.512 20.0133 224.392 19.88C224.279 19.7467 224.222 19.5733 224.222 19.36C224.222 19.0933 224.342 18.73 224.582 18.27C224.822 17.8033 225.129 17.3333 225.502 16.86C225.875 16.38 226.249 15.9867 226.622 15.68C226.869 15.48 227.065 15.3467 227.212 15.28C227.359 15.2067 227.489 15.17 227.602 15.17C227.709 15.17 227.819 15.2033 227.932 15.27C228.045 15.3367 228.142 15.43 228.222 15.55C228.302 15.67 228.342 15.8067 228.342 15.96C228.342 16.1667 228.285 16.3633 228.172 16.55L228.342 16.5C228.415 16.5 228.459 16.59 228.472 16.77C228.479 16.8767 228.485 17.0933 228.492 17.42C228.505 17.7467 228.515 18.0167 228.522 18.23C228.529 18.45 228.535 18.6633 228.542 18.87C228.549 19.0767 228.555 19.24 228.562 19.36C228.569 19.4067 228.595 19.4567 228.642 19.51C228.689 19.5567 228.712 19.5967 228.712 19.63ZM227.842 16.82C227.922 16.62 227.962 16.4033 227.962 16.17C227.962 16.03 227.919 15.91 227.832 15.81C227.752 15.7033 227.642 15.65 227.502 15.65C227.335 15.65 227.122 15.7633 226.862 15.99C226.562 16.2433 226.245 16.5833 225.912 17.01C225.579 17.43 225.302 17.8467 225.082 18.26C224.862 18.6733 224.752 19 224.752 19.24C224.752 19.44 224.845 19.54 225.032 19.54C225.392 19.54 225.739 19.4067 226.072 19.14C226.405 18.8733 226.702 18.5567 226.962 18.19C227.229 17.8167 227.522 17.36 227.842 16.82Z" fill="#505050"/>
</svg>
