<svg width="274" height="80" viewBox="0 0 274 80" fill="none" xmlns="http://www.w3.org/2000/svg">
<path d="M32.56 55.84C32.24 55.84 31.9867 55.8267 31.8 55.8C31.6133 55.7467 31.48 55.6267 31.4 55.44C31.16 55.04 30.88 53.8533 30.56 51.88C30.24 49.9067 29.9333 47.64 29.64 45.08C29 37.2667 28.5067 33.28 28.16 33.12C27.8667 33.76 27.4133 34.9733 26.8 36.76C26.1867 38.52 25.48 40.8267 24.68 43.68C23.8 46.7467 23.1333 48.8667 22.68 50.04C22.2267 51.1867 21.8267 51.8933 21.48 52.16C21.2667 52.3467 21 52.5333 20.68 52.72C20.3867 52.88 20.1333 52.96 19.92 52.96C19.6533 52.96 19.48 52.9333 19.4 52.88C19.32 52.8 19.2267 52.5867 19.12 52.24C19.0133 51.84 18.76 50.6 18.36 48.52C17.96 46.4133 17.6533 44.52 17.44 42.84L17.2 41.16C16.7467 37.6933 16.44 35.76 16.28 35.36C15.7733 35.8133 15.2933 36.8267 14.84 38.4C14.3867 39.9467 13.8667 42.1467 13.28 45C12.72 47.2133 12.04 50.8133 11.24 55.8C11.2133 56.0933 11.0133 56.36 10.64 56.6C10.2667 56.84 9.93333 56.96 9.64 56.96C9.21333 56.96 8.97333 56.5467 8.92 55.72C8.89333 54.8933 8.70667 53.1067 8.36 50.36C8.04 47.6133 7.74667 45.2 7.48 43.12C7.10667 40.16 6.6 37.4133 5.96 34.88C5.77333 34.08 5.68 33.6267 5.68 33.52C5.68 33.12 5.86667 32.8 6.24 32.56C6.64 32.2933 7.06667 32.16 7.52 32.16C7.73333 32.16 7.96 32.9867 8.2 34.64C8.44 36.2933 8.69333 38.3733 8.96 40.88L9.08 42.2C9.18667 43.08 9.30667 44 9.44 44.96C9.94667 49.04 10.2267 51.6 10.28 52.64C10.8133 49.5467 11.4133 46.44 12.08 43.32L12.44 41.56C13.0267 38.7333 13.6667 36.6 14.36 35.16C15.0533 33.6933 15.9467 32.96 17.04 32.96C17.3867 32.96 17.7733 33.8667 18.2 35.68C18.6267 37.4667 18.96 39.56 19.2 41.96C19.3867 43.6667 19.6267 45.3333 19.92 46.96C20.2133 48.5867 20.48 49.72 20.72 50.36C20.88 49.9067 21.2 48.9067 21.68 47.36C22.1867 45.8133 22.6533 44.3467 23.08 42.96C24.3867 38.5067 25.7733 34.52 27.24 31C27.5067 30.44 27.76 30.04 28 29.8C28.2667 29.5333 28.72 29.4 29.36 29.4C29.7067 29.4 30.08 30.92 30.48 33.96C30.88 37 31.2133 40.52 31.48 44.52C32.2 50.1733 32.8533 53.2533 33.44 53.76C33.84 54.1067 34.04 54.48 34.04 54.88C34.04 55.0667 33.88 55.28 33.56 55.52C33.2667 55.7333 32.9333 55.84 32.56 55.84Z" fill="black"/>
<path d="M40.1 56.91C39.02 56.91 38 56.69 37.04 56.25C36.08 55.79 35.3 55.12 34.7 54.24C34.1 53.36 33.8 52.3 33.8 51.06C33.8 48.94 34.35 46.75 35.45 44.49C36.55 42.21 38.08 40.07 40.04 38.07C40.24 37.89 40.43 37.77 40.61 37.71C40.79 37.65 41 37.62 41.24 37.62C41.44 37.62 41.63 37.67 41.81 37.77C42.01 37.87 42.11 37.99 42.11 38.13C42.11 38.21 42.07 38.33 41.99 38.49C41.93 38.63 41.89 38.72 41.87 38.76C41.99 38.76 42.13 38.75 42.29 38.73C42.47 38.69 42.81 38.67 43.31 38.67C43.89 38.67 44.67 38.77 45.65 38.97C46.65 39.15 47.38 39.34 47.84 39.54C49.14 40.12 50.13 40.87 50.81 41.79C51.49 42.69 51.83 43.66 51.83 44.7C51.83 46.76 51.25 48.73 50.09 50.61C48.93 52.49 47.44 54.01 45.62 55.17C43.8 56.33 41.96 56.91 40.1 56.91ZM47.33 40.68C46.75 40.42 46.02 40.29 45.14 40.29C44.86 40.29 44.48 40.31 44 40.35L42.89 40.38C41.93 40.38 41.45 40.18 41.45 39.78C41.45 39.64 41.46 39.51 41.48 39.39C41.5 39.27 41.52 39.19 41.54 39.15C41.12 39.15 40.78 39.27 40.52 39.51C38.88 41.21 37.61 43.02 36.71 44.94C35.83 46.86 35.39 48.73 35.39 50.55C35.39 52.25 35.81 53.49 36.65 54.27C37.51 55.03 38.68 55.41 40.16 55.41C41.84 55.41 43.48 54.93 45.08 53.97C46.7 53.01 48.01 51.75 49.01 50.19C50.03 48.63 50.54 47.01 50.54 45.33C50.54 44.17 50.27 43.23 49.73 42.51C49.19 41.77 48.39 41.16 47.33 40.68Z" fill="black"/>
<path d="M63.9 45.38C63.0467 45.4733 61.9467 45.5467 60.6 45.6C59.2667 45.64 58.18 45.66 57.34 45.66C57.1667 45.66 57.0133 45.6267 56.88 45.56C56.7467 45.4933 56.68 45.38 56.68 45.22C56.68 45.0467 56.74 44.9333 56.86 44.88C56.98 44.8267 57.18 44.8 57.46 44.8C58.6333 44.8 59.74 44.78 60.78 44.74C61.82 44.7 62.9133 44.6 64.06 44.44C64.1667 44.4267 64.2533 44.34 64.32 44.18C64.4 44.02 64.48 43.94 64.56 43.94C64.7067 43.94 64.8533 44.0267 65 44.2C65.16 44.36 65.24 44.5267 65.24 44.7C65.24 44.9267 65.1467 45.0867 64.96 45.18C64.7733 45.26 64.42 45.3267 63.9 45.38ZM64.26 48.7C61.9533 48.9667 59.9467 49.1 58.24 49.1C58.04 49.1 57.8467 49.0667 57.66 49C57.4733 48.92 57.38 48.8067 57.38 48.66C57.38 48.4867 57.44 48.3733 57.56 48.32C57.68 48.2667 57.88 48.24 58.16 48.24C60.0933 48.24 61.82 48.1467 63.34 47.96C63.9267 47.9067 64.2733 47.88 64.38 47.88C65.1667 47.88 65.56 47.9667 65.56 48.14C65.56 48.34 65.4667 48.4733 65.28 48.54C65.0933 48.5933 64.7533 48.6467 64.26 48.7Z" fill="black"/>
<path d="M79.18 42.85C78.94 42.85 78.71 42.57 78.49 42.01C78.29 41.43 78.19 40.56 78.19 39.4C78.21 37.14 78.24 34.41 78.28 31.21C78.34 28.01 78.39 25.6 78.43 23.98C78.45 23.4 78.55 22.86 78.73 22.36C78.93 21.86 79.27 21.61 79.75 21.61C79.91 21.61 80.01 21.7 80.05 21.88C80.11 22.04 80.14 22.36 80.14 22.84C80.14 22.86 80.13 22.93 80.11 23.05C80.11 23.15 80.11 23.34 80.11 23.62C79.75 28.88 79.57 34.01 79.57 39.01C79.57 39.65 79.71 40.33 79.99 41.05C80.29 41.77 80.44 42.15 80.44 42.19C80.44 42.39 80.31 42.55 80.05 42.67C79.79 42.79 79.5 42.85 79.18 42.85ZM102.589 35.32C101.449 35.54 100.139 35.73 98.6591 35.89C98.6391 36.21 98.6291 36.66 98.6291 37.24C98.6291 38.3 98.6591 39.11 98.7191 39.67C98.7791 40.21 98.8691 40.79 98.9891 41.41C99.0691 41.77 99.1091 42 99.1091 42.1C99.1091 42.24 99.0291 42.35 98.8691 42.43C98.7091 42.51 98.5191 42.55 98.2991 42.55C97.8391 42.55 97.5491 42.16 97.4291 41.38C97.3091 40.6 97.2491 39.83 97.2491 39.07V36.07C94.9491 36.31 93.2991 36.43 92.2991 36.43C92.0591 36.43 91.8291 36.37 91.6091 36.25C91.4091 36.11 91.3091 35.95 91.3091 35.77C91.3091 35.51 91.3991 35.34 91.5791 35.26C91.7591 35.18 92.0591 35.14 92.4791 35.14C93.5991 35.14 95.1991 35.01 97.2791 34.75V33.04C97.2791 32.26 97.2991 31.36 97.3391 30.34C97.3991 29.32 97.4491 28.68 97.4891 28.42C97.5291 28.14 97.7091 28 98.0291 28C98.3891 28 98.6291 28.16 98.7491 28.48C98.8691 28.8 98.9291 29.14 98.9291 29.5C98.9291 29.9 98.8891 30.88 98.8091 32.44C98.7691 32.9 98.7291 33.61 98.6891 34.57C100.109 34.33 101.289 34.09 102.229 33.85C102.389 33.81 102.519 33.68 102.619 33.46C102.739 33.22 102.859 33.1 102.979 33.1C103.199 33.1 103.419 33.23 103.639 33.49C103.879 33.73 103.999 33.98 103.999 34.24C103.999 34.56 103.889 34.8 103.669 34.96C103.449 35.1 103.089 35.22 102.589 35.32ZM128.413 41.68L123.253 42.07L119.683 42.37L117.823 42.52C117.663 42.52 117.513 42.42 117.373 42.22C117.253 42.02 117.193 41.83 117.193 41.65C117.193 41.51 117.233 41.41 117.313 41.35C117.413 41.27 117.513 41.22 117.613 41.2C117.733 41.16 117.813 41.13 117.853 41.11C117.873 40.03 117.883 37.51 117.883 33.55C117.883 30.63 117.763 28.37 117.523 26.77C117.303 25.15 117.193 24.28 117.193 24.16C117.193 23.88 117.293 23.66 117.493 23.5C117.713 23.34 117.933 23.26 118.153 23.26C118.293 23.26 118.403 23.32 118.483 23.44C118.563 23.54 118.623 23.71 118.663 23.95C118.863 24.63 119.013 25.88 119.113 27.7C119.233 29.52 119.293 31.42 119.293 33.4C119.293 35.08 119.283 36.64 119.263 38.08C119.243 39.52 119.233 40.49 119.233 40.99C119.493 40.97 119.993 40.94 120.733 40.9C121.473 40.84 122.233 40.78 123.013 40.72C124.173 40.58 125.483 40.37 126.943 40.09C128.123 39.87 128.833 39.76 129.073 39.76C129.293 39.76 129.433 39.86 129.493 40.06C129.553 40.26 129.583 40.5 129.583 40.78C129.583 41.04 129.463 41.25 129.223 41.41C129.003 41.57 128.733 41.66 128.413 41.68Z" fill="black"/>
<path d="M107.8 71.625C107.183 71.6917 106.183 71.825 104.8 72.025C103.6 72.2083 102.783 72.325 102.35 72.375L100.375 72.675C99.325 72.8417 98.4667 72.9583 97.8 73.025C97.15 73.1083 96.4333 73.15 95.65 73.15C95.3667 73.15 95.1 73.05 94.85 72.85C94.6167 72.65 94.5 72.3667 94.5 72C94.5 71.8 94.5333 71.6417 94.6 71.525C94.6667 71.4083 94.775 71.2667 94.925 71.1C95.8917 70.1333 96.7167 69.2667 97.4 68.5C98.1 67.7333 98.9583 66.7417 99.975 65.525C101.008 64.275 101.775 63.2083 102.275 62.325C102.792 61.4417 103.05 60.525 103.05 59.575C103.05 58.7083 102.792 58.0417 102.275 57.575C101.775 57.0917 101.117 56.85 100.3 56.85C99.6833 56.85 99.1417 56.9417 98.675 57.125C98.2083 57.2917 97.5583 57.6167 96.725 58.1C96.525 58.2 96.3083 58.35 96.075 58.55C95.8417 58.7333 95.6917 58.85 95.625 58.9C95.3917 59.1 95.1583 59.275 94.925 59.425C94.7083 59.575 94.5417 59.65 94.425 59.65C94.025 59.65 93.825 59.425 93.825 58.975C93.825 58.5917 94.0417 58.25 94.475 57.95C94.575 57.8833 94.9333 57.675 95.55 57.325C95.9167 57.1417 96.2083 56.9833 96.425 56.85C97.1917 56.4167 97.8583 56.1083 98.425 55.925C99.0083 55.7417 99.7 55.65 100.5 55.65C101.65 55.65 102.575 56.0083 103.275 56.725C103.992 57.4417 104.35 58.35 104.35 59.45C104.35 60.2833 104.158 61.125 103.775 61.975C103.408 62.8083 102.992 63.5417 102.525 64.175C102.058 64.8083 101.5 65.5083 100.85 66.275C100.5 66.6917 99.6167 67.6667 98.2 69.2L96.9 70.625C96.85 70.675 96.7083 70.8167 96.475 71.05C96.2583 71.3 96.15 71.475 96.15 71.575C96.15 71.775 96.35 71.875 96.75 71.875C97.2833 71.875 97.9833 71.8 98.85 71.65C99.7333 71.5 100.258 71.4083 100.425 71.375L102.6 71C102.933 70.95 103.758 70.8417 105.075 70.675C106.242 70.525 106.967 70.4167 107.25 70.35C107.467 70.2167 107.7 70.0917 107.95 69.975C108.2 69.8417 108.367 69.775 108.45 69.775C108.783 69.775 108.95 70.0833 108.95 70.7C108.95 70.9167 108.842 71.1 108.625 71.25C108.425 71.4167 108.15 71.5417 107.8 71.625Z" fill="black"/>
<path d="M76 48H127" stroke="black" stroke-linecap="round"/>
<path d="M87.4112 7L82.2565 4.39948L82.5817 10.1638L87.4112 7ZM77.5907 19.0334C74.9759 18.0276 73.987 15.646 74.751 13.3138C75.5223 10.9592 78.1357 8.53732 82.9978 7.74705L82.8373 6.76C77.7271 7.59061 74.7221 10.1899 73.8007 13.0024C72.8721 15.8372 74.1162 18.7684 77.2318 19.9667L77.5907 19.0334Z" fill="#505050"/>
<path d="M14.4112 19.0173L9.25653 16.4167L9.58175 22.1811L14.4112 19.0173ZM4.59074 31.0506C1.97591 30.0449 0.986998 27.6633 1.75103 25.331C2.52234 22.9765 5.13571 20.5546 9.99778 19.7643L9.83735 18.7773C4.72707 19.6079 1.72207 22.2072 0.800721 25.0197C-0.127917 27.8545 1.1162 30.7857 4.23176 31.984L4.59074 31.0506Z" fill="#505050"/>
<path d="M130 14.4999L124.936 11.7265L125.066 17.4985L130 14.4999ZM118.5 21.5C118.5 20.946 118.482 20.428 118.468 19.9565C118.453 19.4806 118.443 19.0554 118.457 18.6662C118.484 17.8842 118.606 17.3205 118.918 16.8792C119.227 16.4432 119.778 16.0513 120.826 15.741C121.878 15.4296 123.381 15.2154 125.529 15.1005L125.475 14.1019C123.302 14.2183 121.707 14.4375 120.542 14.7821C119.374 15.1279 118.589 15.6148 118.103 16.301C117.62 16.982 117.487 17.7839 117.457 18.6316C117.442 19.0573 117.454 19.5129 117.468 19.9866C117.482 20.4646 117.5 20.9647 117.5 21.5L118.5 21.5Z" fill="#505050"/>
<path d="M95.4211 7.56L93.7011 7.69L92.5111 7.79L91.8911 7.84C91.8378 7.84 91.7878 7.80667 91.7411 7.74C91.7011 7.67333 91.6811 7.61 91.6811 7.55C91.6811 7.50333 91.6945 7.47 91.7211 7.45C91.7545 7.42333 91.7878 7.40667 91.8211 7.4C91.8611 7.38667 91.8878 7.37667 91.9011 7.37C91.9078 7.01 91.9111 6.17 91.9111 4.85C91.9111 3.87667 91.8711 3.12333 91.7911 2.59C91.7178 2.05 91.6811 1.76 91.6811 1.72C91.6811 1.62667 91.7145 1.55333 91.7811 1.5C91.8545 1.44667 91.9278 1.42 92.0011 1.42C92.0478 1.42 92.0845 1.44 92.1111 1.48C92.1378 1.51333 92.1578 1.57 92.1711 1.65C92.2378 1.87667 92.2878 2.29333 92.3211 2.9C92.3611 3.50667 92.3811 4.14 92.3811 4.8C92.3811 5.36 92.3778 5.88 92.3711 6.36C92.3645 6.84 92.3611 7.16333 92.3611 7.33C92.4478 7.32333 92.6145 7.31333 92.8611 7.3C93.1078 7.28 93.3611 7.26 93.6211 7.24C94.0078 7.19333 94.4445 7.12333 94.9311 7.03C95.3245 6.95667 95.5611 6.92 95.6411 6.92C95.7145 6.92 95.7611 6.95333 95.7811 7.02C95.8011 7.08667 95.8111 7.16667 95.8111 7.26C95.8111 7.34667 95.7711 7.41667 95.6911 7.47C95.6178 7.52333 95.5278 7.55333 95.4211 7.56ZM97.0031 1.89C96.8898 1.89 96.7731 1.84333 96.6531 1.75C96.5398 1.65667 96.4831 1.58 96.4831 1.52C96.4831 1.44667 96.5164 1.37667 96.5831 1.31C96.6564 1.24333 96.7298 1.21 96.8031 1.21C96.9031 1.24333 96.9864 1.29667 97.0531 1.37C97.1064 1.42333 97.1664 1.49333 97.2331 1.58C97.2998 1.66667 97.3331 1.72 97.3331 1.74C97.3331 1.84 97.2231 1.89 97.0031 1.89ZM97.3031 8.23C97.2098 8.22333 97.1398 8.07333 97.0931 7.78C97.0531 7.48667 97.0098 6.93 96.9631 6.11C96.9364 5.57 96.9131 5.04333 96.8931 4.53C96.8731 4.01 96.8598 3.61 96.8531 3.33C96.8531 3.25667 96.8631 3.20333 96.8831 3.17C96.9098 3.13 96.9564 3.11 97.0231 3.11C97.1764 3.11 97.2731 3.17333 97.3131 3.3C97.3531 3.42667 97.3731 3.67 97.3731 4.03L97.3631 5.21C97.3631 5.88333 97.3831 6.42333 97.4231 6.83C97.4231 6.85 97.4531 7.06333 97.5131 7.47C97.5598 7.75 97.5831 7.93667 97.5831 8.03C97.5831 8.09667 97.5531 8.14667 97.4931 8.18C97.4398 8.22 97.3764 8.23667 97.3031 8.23ZM104.871 8.19C104.751 8.19 104.691 8.13 104.691 8.01C104.691 6.66333 104.647 5.63333 104.561 4.92C104.474 4.2 104.324 3.84 104.111 3.84C103.751 3.84 103.224 5.09667 102.531 7.61V7.62C102.531 7.7 102.504 7.77 102.451 7.83C102.397 7.88333 102.327 7.91 102.241 7.91C102.121 7.91 102.061 7.85 102.061 7.73C102.061 7.46333 102.074 7.05 102.101 6.49C102.127 5.86333 102.141 5.37 102.141 5.01C102.141 4.51 102.124 4.15667 102.091 3.95C102.064 3.73667 102.001 3.63 101.901 3.63C101.674 3.63 101.387 4.04667 101.041 4.88C100.694 5.70667 100.331 6.68333 99.9508 7.81L99.8608 8.07C99.8342 8.13667 99.7942 8.19333 99.7408 8.24C99.6942 8.28667 99.6408 8.31 99.5808 8.31C99.5008 8.31 99.4475 8.30333 99.4208 8.29C99.3942 8.27667 99.3775 8.23667 99.3708 8.17C99.3375 7.84333 99.3108 7.40667 99.2908 6.86C99.2775 6.72 99.2642 6.49 99.2508 6.17C99.1842 5.04333 99.1242 4.28333 99.0708 3.89C99.0175 3.49 98.9908 3.26667 98.9908 3.22C98.9908 3.16667 99.0175 3.10333 99.0708 3.03C99.1242 2.95667 99.1742 2.92 99.2208 2.92C99.3275 2.92 99.4142 2.99667 99.4808 3.15C99.5142 3.22333 99.5508 3.51667 99.5908 4.03C99.6308 4.54333 99.6642 5.18 99.6908 5.94L99.7408 7.47C100.107 6.33667 100.487 5.31 100.881 4.39C101.274 3.46333 101.634 3 101.961 3C102.181 3 102.331 3.16 102.411 3.48C102.491 3.8 102.531 4.26333 102.531 4.87C102.531 5.19 102.524 5.65 102.511 6.25L102.501 6.71C102.774 5.75667 103.044 4.95667 103.311 4.31C103.584 3.66333 103.857 3.34 104.131 3.34C104.817 3.34 105.161 4.86 105.161 7.9C105.161 7.98 105.134 8.04667 105.081 8.1C105.027 8.16 104.957 8.19 104.871 8.19ZM106.671 1.89C106.558 1.89 106.441 1.84333 106.321 1.75C106.208 1.65667 106.151 1.58 106.151 1.52C106.151 1.44667 106.184 1.37667 106.251 1.31C106.324 1.24333 106.398 1.21 106.471 1.21C106.571 1.24333 106.654 1.29667 106.721 1.37C106.774 1.42333 106.834 1.49333 106.901 1.58C106.968 1.66667 107.001 1.72 107.001 1.74C107.001 1.84 106.891 1.89 106.671 1.89ZM106.971 8.23C106.878 8.22333 106.808 8.07333 106.761 7.78C106.721 7.48667 106.678 6.93 106.631 6.11C106.604 5.57 106.581 5.04333 106.561 4.53C106.541 4.01 106.528 3.61 106.521 3.33C106.521 3.25667 106.531 3.20333 106.551 3.17C106.578 3.13 106.624 3.11 106.691 3.11C106.844 3.11 106.941 3.17333 106.981 3.3C107.021 3.42667 107.041 3.67 107.041 4.03L107.031 5.21C107.031 5.88333 107.051 6.42333 107.091 6.83C107.091 6.85 107.121 7.06333 107.181 7.47C107.228 7.75 107.251 7.93667 107.251 8.03C107.251 8.09667 107.221 8.14667 107.161 8.18C107.108 8.22 107.044 8.23667 106.971 8.23ZM112.279 4.26C111.665 4.36667 111.322 4.42667 111.249 4.44L110.599 4.55C110.599 4.89667 110.602 5.26 110.609 5.64C110.622 6.02 110.639 6.35333 110.659 6.64C110.685 7.02667 110.732 7.32333 110.799 7.53C110.865 7.73667 110.902 7.85333 110.909 7.88C110.909 7.94667 110.865 8.00667 110.779 8.06C110.699 8.12 110.622 8.15 110.549 8.15C110.509 8.15 110.475 8.13667 110.449 8.11C110.422 8.09 110.399 8.05333 110.379 8C110.339 7.90667 110.299 7.73333 110.259 7.48C110.225 7.22667 110.199 6.94667 110.179 6.64C110.159 6.36667 110.142 6.05 110.129 5.69C110.122 5.32333 110.119 4.97 110.119 4.63C109.745 4.69 109.362 4.76333 108.969 4.85C108.615 4.92333 108.405 4.96 108.339 4.96C108.259 4.96 108.182 4.93667 108.109 4.89C108.042 4.84333 108.009 4.78 108.009 4.7C108.009 4.61333 108.039 4.55667 108.099 4.53C108.159 4.50333 108.259 4.49 108.399 4.49C108.499 4.49 108.645 4.47333 108.839 4.44C109.032 4.4 109.155 4.37333 109.209 4.36C109.655 4.27333 109.959 4.21667 110.119 4.19C110.119 4.05 110.112 3.86667 110.099 3.64C110.085 3.33333 110.079 3.1 110.079 2.94C110.079 2.68 110.085 2.48 110.099 2.34C110.119 2.19333 110.152 2.06333 110.199 1.95C110.252 1.81667 110.352 1.75 110.499 1.75C110.559 1.75 110.599 1.76 110.619 1.78C110.639 1.8 110.649 1.83667 110.649 1.89C110.649 1.93 110.632 2.04667 110.599 2.24C110.565 2.43333 110.549 2.69 110.549 3.01C110.549 3.25667 110.555 3.53333 110.569 3.84L110.579 4.11C110.879 4.06333 111.472 3.94 112.359 3.74C112.412 3.72667 112.455 3.68 112.489 3.6C112.529 3.52 112.569 3.48 112.609 3.48C112.682 3.48 112.755 3.52333 112.829 3.61C112.909 3.69 112.949 3.77333 112.949 3.86C112.949 3.97333 112.899 4.06 112.799 4.12C112.705 4.18 112.532 4.22667 112.279 4.26ZM117.31 5.6C117.31 5.72 117.22 5.98333 117.04 6.39C116.867 6.79667 116.6 7.17333 116.24 7.52C115.887 7.86667 115.45 8.04 114.93 8.04C114.504 8.04 114.147 7.90667 113.86 7.64C113.574 7.37333 113.43 6.96333 113.43 6.41C113.43 5.89 113.55 5.37667 113.79 4.87C114.03 4.35667 114.344 3.94 114.73 3.62C115.117 3.29333 115.517 3.13 115.93 3.13C116.177 3.13 116.384 3.18667 116.55 3.3C116.724 3.40667 116.81 3.56333 116.81 3.77C116.81 4.00333 116.677 4.23 116.41 4.45C116.15 4.67 115.81 4.86333 115.39 5.03C114.97 5.19667 114.537 5.31667 114.09 5.39C114.01 5.69667 113.97 5.99667 113.97 6.29C113.97 6.67667 114.06 6.97667 114.24 7.19C114.427 7.40333 114.69 7.51 115.03 7.51C115.544 7.51 115.96 7.32667 116.28 6.96C116.6 6.59333 116.867 6.18 117.08 5.72C117.094 5.69333 117.117 5.64333 117.15 5.57C117.184 5.49 117.214 5.45 117.24 5.45C117.287 5.45 117.31 5.5 117.31 5.6ZM115.81 3.54C115.557 3.54 115.314 3.62333 115.08 3.79C114.847 3.95667 114.65 4.15667 114.49 4.39C114.337 4.62333 114.237 4.83 114.19 5.01C114.497 4.97667 114.82 4.89 115.16 4.75C115.5 4.61 115.784 4.45667 116.01 4.29C116.244 4.12333 116.36 3.98667 116.36 3.88C116.36 3.77333 116.304 3.69 116.19 3.63C116.084 3.57 115.957 3.54 115.81 3.54ZM121.3 1.89C121.187 1.89 121.07 1.84333 120.95 1.75C120.837 1.65667 120.78 1.58 120.78 1.52C120.78 1.44667 120.813 1.37667 120.88 1.31C120.953 1.24333 121.027 1.21 121.1 1.21C121.2 1.24333 121.283 1.29667 121.35 1.37C121.403 1.42333 121.463 1.49333 121.53 1.58C121.597 1.66667 121.63 1.72 121.63 1.74C121.63 1.84 121.52 1.89 121.3 1.89ZM121.6 8.23C121.507 8.22333 121.437 8.07333 121.39 7.78C121.35 7.48667 121.307 6.93 121.26 6.11C121.233 5.57 121.21 5.04333 121.19 4.53C121.17 4.01 121.157 3.61 121.15 3.33C121.15 3.25667 121.16 3.20333 121.18 3.17C121.207 3.13 121.253 3.11 121.32 3.11C121.473 3.11 121.57 3.17333 121.61 3.3C121.65 3.42667 121.67 3.67 121.67 4.03L121.66 5.21C121.66 5.88333 121.68 6.42333 121.72 6.83C121.72 6.85 121.75 7.06333 121.81 7.47C121.857 7.75 121.88 7.93667 121.88 8.03C121.88 8.09667 121.85 8.14667 121.79 8.18C121.737 8.22 121.673 8.23667 121.6 8.23ZM126.238 8.36C126.171 8.36 126.114 8.34333 126.068 8.31C126.021 8.28333 125.998 8.24333 125.998 8.19C125.998 7.91667 126.018 7.49333 126.058 6.92C126.098 6.30667 126.118 5.79667 126.118 5.39C126.118 4.99667 126.104 4.67667 126.078 4.43C126.058 4.17667 126.004 4.05 125.918 4.05C125.691 4.05 125.441 4.33333 125.168 4.9C124.901 5.46 124.594 6.2 124.248 7.12L124.098 7.52C124.071 7.58667 124.024 7.64 123.958 7.68C123.898 7.72 123.834 7.74 123.768 7.74C123.688 7.74 123.634 7.73333 123.608 7.72C123.581 7.70667 123.564 7.66667 123.558 7.6L123.478 6.78L123.328 5.34C123.281 4.76667 123.224 4.26667 123.158 3.84C123.138 3.74 123.128 3.66333 123.128 3.61C123.128 3.51 123.171 3.43 123.258 3.37C123.344 3.30333 123.444 3.27 123.558 3.27C123.624 3.27 123.671 3.43 123.698 3.75C123.731 4.07 123.764 4.58667 123.798 5.3L123.838 5.83C123.891 6.50333 123.921 6.93 123.928 7.11C123.948 7.07 123.964 7.02667 123.978 6.98C123.998 6.92667 124.021 6.87 124.048 6.81C124.408 5.87667 124.744 5.1 125.058 4.48C125.378 3.85333 125.684 3.54 125.978 3.54C126.184 3.54 126.324 3.71667 126.398 4.07C126.478 4.41667 126.528 4.86333 126.548 5.41C126.568 6.01667 126.578 6.90333 126.578 8.07C126.578 8.15 126.544 8.21667 126.478 8.27C126.411 8.33 126.331 8.36 126.238 8.36ZM131.547 2.15C131.501 2.15 131.464 2.13 131.437 2.09C131.417 2.04333 131.397 1.98333 131.377 1.91C131.304 1.68333 131.191 1.49333 131.037 1.34C130.891 1.18 130.731 1.1 130.557 1.1C130.091 1.1 129.754 1.41667 129.547 2.05C129.347 2.67667 129.247 3.41333 129.247 4.26C129.447 4.24667 129.671 4.21667 129.917 4.17C130.171 4.11667 130.337 4.08333 130.417 4.07C130.891 3.97 131.204 3.92 131.357 3.92C131.491 3.92 131.557 3.98 131.557 4.1C131.557 4.19333 131.537 4.29333 131.497 4.4C131.457 4.50667 131.397 4.56 131.317 4.56C131.251 4.56 131.184 4.54667 131.117 4.52C131.024 4.48 130.897 4.46 130.737 4.46C130.631 4.46 130.411 4.49333 130.077 4.56L129.277 4.68C129.277 4.84667 129.297 5.31 129.337 6.07C129.404 7.24333 129.437 8.18 129.437 8.88C129.437 9.00667 129.424 9.09333 129.397 9.14C129.371 9.19333 129.317 9.22 129.237 9.22C129.144 9.22 129.074 9.16667 129.027 9.06C128.981 8.95333 128.957 8.83333 128.957 8.7C128.957 7.93333 128.907 6.73 128.807 5.09L128.787 4.77C128.734 4.77667 128.561 4.80667 128.267 4.86C127.981 4.91333 127.771 4.94 127.637 4.94C127.564 4.94 127.501 4.92333 127.447 4.89C127.401 4.85667 127.377 4.80667 127.377 4.74C127.377 4.57333 127.437 4.48667 127.557 4.48C127.731 4.47333 127.941 4.46 128.187 4.44C128.434 4.41333 128.624 4.38667 128.757 4.36C128.757 3.26667 128.904 2.38 129.197 1.7C129.497 1.01333 129.941 0.67 130.527 0.67C130.741 0.67 130.937 0.723333 131.117 0.83C131.304 0.936666 131.451 1.06667 131.557 1.22C131.671 1.37333 131.727 1.51333 131.727 1.64C131.727 1.72 131.707 1.82667 131.667 1.96C131.634 2.08667 131.594 2.15 131.547 2.15ZM135.797 5.6C135.797 5.72 135.707 5.98333 135.527 6.39C135.353 6.79667 135.087 7.17333 134.727 7.52C134.373 7.86667 133.937 8.04 133.417 8.04C132.99 8.04 132.633 7.90667 132.347 7.64C132.06 7.37333 131.917 6.96333 131.917 6.41C131.917 5.89 132.037 5.37667 132.277 4.87C132.517 4.35667 132.83 3.94 133.217 3.62C133.603 3.29333 134.003 3.13 134.417 3.13C134.663 3.13 134.87 3.18667 135.037 3.3C135.21 3.40667 135.297 3.56333 135.297 3.77C135.297 4.00333 135.163 4.23 134.897 4.45C134.637 4.67 134.297 4.86333 133.877 5.03C133.457 5.19667 133.023 5.31667 132.577 5.39C132.497 5.69667 132.457 5.99667 132.457 6.29C132.457 6.67667 132.547 6.97667 132.727 7.19C132.913 7.40333 133.177 7.51 133.517 7.51C134.03 7.51 134.447 7.32667 134.767 6.96C135.087 6.59333 135.353 6.18 135.567 5.72C135.58 5.69333 135.603 5.64333 135.637 5.57C135.67 5.49 135.7 5.45 135.727 5.45C135.773 5.45 135.797 5.5 135.797 5.6ZM134.297 3.54C134.043 3.54 133.8 3.62333 133.567 3.79C133.333 3.95667 133.137 4.15667 132.977 4.39C132.823 4.62333 132.723 4.83 132.677 5.01C132.983 4.97667 133.307 4.89 133.647 4.75C133.987 4.61 134.27 4.45667 134.497 4.29C134.73 4.12333 134.847 3.98667 134.847 3.88C134.847 3.77333 134.79 3.69 134.677 3.63C134.57 3.57 134.443 3.54 134.297 3.54ZM139.675 4.11C139.629 4.11 139.582 4.09 139.535 4.05C139.495 4.01 139.449 3.95333 139.395 3.88C139.349 3.81333 139.285 3.75667 139.205 3.71C139.132 3.66333 139.055 3.64 138.975 3.64C138.782 3.64 138.522 3.89667 138.195 4.41C137.869 4.91667 137.549 5.55667 137.235 6.33C137.242 6.48333 137.252 6.67667 137.265 6.91C137.285 7.14333 137.299 7.31667 137.305 7.43L137.335 7.83C137.335 7.92333 137.315 8.00333 137.275 8.07C137.235 8.14333 137.162 8.18 137.055 8.18C136.942 8.18 136.869 8.03 136.835 7.73C136.802 7.42333 136.782 6.98 136.775 6.4C136.769 6.25333 136.762 6.04333 136.755 5.77C136.755 5.49667 136.749 5.17 136.735 4.79C136.715 4.21667 136.705 3.80667 136.705 3.56C136.705 3.40667 136.799 3.33 136.985 3.33C137.099 3.33 137.165 3.38 137.185 3.48C137.212 3.57333 137.225 3.75667 137.225 4.03V5.62C137.425 5.10667 137.642 4.66333 137.875 4.29C138.109 3.91667 138.335 3.63333 138.555 3.44C138.782 3.24 138.982 3.14 139.155 3.14C139.302 3.14 139.442 3.17333 139.575 3.24C139.709 3.30667 139.815 3.39333 139.895 3.5C139.975 3.6 140.015 3.69667 140.015 3.79C140.015 3.85 139.972 3.92 139.885 4C139.805 4.07333 139.735 4.11 139.675 4.11ZM141.056 1.89C140.942 1.89 140.826 1.84333 140.706 1.75C140.592 1.65667 140.536 1.58 140.536 1.52C140.536 1.44667 140.569 1.37667 140.636 1.31C140.709 1.24333 140.782 1.21 140.856 1.21C140.956 1.24333 141.039 1.29667 141.106 1.37C141.159 1.42333 141.219 1.49333 141.286 1.58C141.352 1.66667 141.386 1.72 141.386 1.74C141.386 1.84 141.276 1.89 141.056 1.89ZM141.356 8.23C141.262 8.22333 141.192 8.07333 141.146 7.78C141.106 7.48667 141.062 6.93 141.016 6.11C140.989 5.57 140.966 5.04333 140.946 4.53C140.926 4.01 140.912 3.61 140.906 3.33C140.906 3.25667 140.916 3.20333 140.936 3.17C140.962 3.13 141.009 3.11 141.076 3.11C141.229 3.11 141.326 3.17333 141.366 3.3C141.406 3.42667 141.426 3.67 141.426 4.03L141.416 5.21C141.416 5.88333 141.436 6.42333 141.476 6.83C141.476 6.85 141.506 7.06333 141.566 7.47C141.612 7.75 141.636 7.93667 141.636 8.03C141.636 8.09667 141.606 8.14667 141.546 8.18C141.492 8.22 141.429 8.23667 141.356 8.23ZM144.054 8.07C143.607 8.07 143.277 7.94667 143.064 7.7C142.85 7.45333 142.744 7.14667 142.744 6.78C142.744 6.46 142.8 6.06333 142.914 5.59C143.034 5.11667 143.2 4.69333 143.414 4.32C143.427 4.29333 143.48 4.19667 143.574 4.03C143.674 3.85667 143.784 3.72667 143.904 3.64C144.024 3.54667 144.15 3.5 144.284 3.5C144.344 3.5 144.397 3.51667 144.444 3.55C144.497 3.57667 144.524 3.61333 144.524 3.66C144.524 3.67333 144.504 3.70667 144.464 3.76C144.43 3.80667 144.404 3.84333 144.384 3.87C144.157 4.14333 143.974 4.41333 143.834 4.68C143.647 5.02 143.5 5.35667 143.394 5.69C143.294 6.02333 143.244 6.38667 143.244 6.78C143.244 7.30667 143.564 7.57 144.204 7.57C144.504 7.57 144.78 7.48333 145.034 7.31C145.294 7.13667 145.5 6.92667 145.654 6.68C145.807 6.42667 145.884 6.19667 145.884 5.99C145.884 5.75667 145.807 5.55333 145.654 5.38C145.5 5.20667 145.29 5.02333 145.024 4.83C144.85 4.70333 144.724 4.6 144.644 4.52C144.564 4.44 144.524 4.37333 144.524 4.32C144.524 4.24 144.58 4.17667 144.694 4.13C144.807 4.07667 144.94 4.05 145.094 4.05C145.18 4.05 145.237 4.05667 145.264 4.07C145.29 4.07667 145.304 4.09333 145.304 4.12C145.304 4.13333 145.29 4.15667 145.264 4.19C145.244 4.21667 145.234 4.24 145.234 4.26C145.234 4.28 145.3 4.34667 145.434 4.46C145.7 4.68 145.924 4.90333 146.104 5.13C146.284 5.35667 146.374 5.62333 146.374 5.93C146.374 6.19 146.277 6.49 146.084 6.83C145.89 7.17 145.617 7.46333 145.264 7.71C144.91 7.95 144.507 8.07 144.054 8.07ZM150.271 4.11C150.224 4.11 150.178 4.09 150.131 4.05C150.091 4.01 150.044 3.95333 149.991 3.88C149.944 3.81333 149.881 3.75667 149.801 3.71C149.728 3.66333 149.651 3.64 149.571 3.64C149.378 3.64 149.118 3.89667 148.791 4.41C148.464 4.91667 148.144 5.55667 147.831 6.33C147.838 6.48333 147.848 6.67667 147.861 6.91C147.881 7.14333 147.894 7.31667 147.901 7.43L147.931 7.83C147.931 7.92333 147.911 8.00333 147.871 8.07C147.831 8.14333 147.758 8.18 147.651 8.18C147.538 8.18 147.464 8.03 147.431 7.73C147.398 7.42333 147.378 6.98 147.371 6.4C147.364 6.25333 147.358 6.04333 147.351 5.77C147.351 5.49667 147.344 5.17 147.331 4.79C147.311 4.21667 147.301 3.80667 147.301 3.56C147.301 3.40667 147.394 3.33 147.581 3.33C147.694 3.33 147.761 3.38 147.781 3.48C147.808 3.57333 147.821 3.75667 147.821 4.03V5.62C148.021 5.10667 148.238 4.66333 148.471 4.29C148.704 3.91667 148.931 3.63333 149.151 3.44C149.378 3.24 149.578 3.14 149.751 3.14C149.898 3.14 150.038 3.17333 150.171 3.24C150.304 3.30667 150.411 3.39333 150.491 3.5C150.571 3.6 150.611 3.69667 150.611 3.79C150.611 3.85 150.568 3.92 150.481 4C150.401 4.07333 150.331 4.11 150.271 4.11ZM157.773 1.16C157.773 1.29333 157.766 1.55667 157.753 1.95C157.739 2.33667 157.733 2.72667 157.733 3.12C157.733 3.88 157.749 4.65667 157.783 5.45C157.816 6.23667 157.843 6.75333 157.863 7C157.863 7.04 157.866 7.08333 157.873 7.13C157.879 7.17667 157.886 7.22 157.893 7.26C157.919 7.44667 157.933 7.56 157.933 7.6C157.933 7.66667 157.883 7.73 157.783 7.79C157.689 7.85 157.616 7.88 157.563 7.88C157.489 7.88 157.439 7.85333 157.413 7.8C157.393 7.74 157.383 7.66 157.383 7.56C157.383 7.19333 157.393 6.81 157.413 6.41L157.423 5.85C157.423 5.66333 157.419 5.42 157.413 5.12C157.406 4.81333 157.396 4.55667 157.383 4.35C157.043 5.44333 156.656 6.35 156.223 7.07C155.796 7.78333 155.333 8.14 154.833 8.14C154.606 8.14 154.413 8.03333 154.253 7.82C154.099 7.60667 154.023 7.3 154.023 6.9C154.023 6.37333 154.199 5.8 154.553 5.18C154.913 4.56 155.319 4.02667 155.773 3.58C156.233 3.13333 156.573 2.91 156.793 2.91C157.006 2.91 157.113 2.98 157.113 3.12C157.113 3.21333 157.079 3.32333 157.013 3.45C156.953 3.57 156.883 3.68 156.803 3.78C156.729 3.88 156.686 3.93 156.673 3.93C156.659 3.93 156.643 3.92667 156.623 3.92C156.609 3.90667 156.603 3.89333 156.603 3.88C156.603 3.84667 156.619 3.79 156.653 3.71C156.686 3.63 156.703 3.57667 156.703 3.55C156.703 3.51667 156.699 3.49333 156.693 3.48C156.686 3.46667 156.666 3.46 156.633 3.46C156.493 3.46 156.239 3.65333 155.873 4.04C155.513 4.42 155.189 4.87333 154.903 5.4C154.616 5.92667 154.473 6.41667 154.473 6.87C154.473 7.03 154.506 7.18 154.573 7.32C154.639 7.46 154.749 7.53 154.903 7.53C155.389 7.53 155.839 7.12 156.253 6.3C156.673 5.47333 157.036 4.53667 157.343 3.49L157.323 2.65C157.303 1.91 157.293 1.51667 157.293 1.47C157.293 1.07 157.309 0.783333 157.343 0.61C157.356 0.543333 157.369 0.496667 157.383 0.47C157.403 0.443333 157.439 0.43 157.493 0.43C157.559 0.43 157.626 0.453333 157.693 0.499999C157.759 0.54 157.793 0.596666 157.793 0.67L157.773 1.16ZM163.229 7.63C163.229 7.71 163.195 7.80333 163.129 7.91C163.062 8.01 162.995 8.06 162.929 8.06C162.815 8.06 162.729 7.99 162.669 7.85C162.609 7.71 162.579 7.54667 162.579 7.36C162.579 7.2 162.589 6.72 162.609 5.92L162.619 5.54C162.619 5.38667 162.579 5.27667 162.499 5.21C162.199 5.71667 161.919 6.15667 161.659 6.53C161.399 6.90333 161.069 7.25667 160.669 7.59C160.269 7.91667 159.849 8.08 159.409 8.08C159.195 8.08 159.029 8.01333 158.909 7.88C158.795 7.74667 158.739 7.57333 158.739 7.36C158.739 7.09333 158.859 6.73 159.099 6.27C159.339 5.80333 159.645 5.33333 160.019 4.86C160.392 4.38 160.765 3.98667 161.139 3.68C161.385 3.48 161.582 3.34667 161.729 3.28C161.875 3.20667 162.005 3.17 162.119 3.17C162.225 3.17 162.335 3.20333 162.449 3.27C162.562 3.33667 162.659 3.43 162.739 3.55C162.819 3.67 162.859 3.80667 162.859 3.96C162.859 4.16667 162.802 4.36333 162.689 4.55L162.859 4.5C162.932 4.5 162.975 4.59 162.989 4.77C162.995 4.87667 163.002 5.09333 163.009 5.42C163.022 5.74667 163.032 6.01667 163.039 6.23C163.045 6.45 163.052 6.66333 163.059 6.87C163.065 7.07667 163.072 7.24 163.079 7.36C163.085 7.40667 163.112 7.45667 163.159 7.51C163.205 7.55667 163.229 7.59667 163.229 7.63ZM162.359 4.82C162.439 4.62 162.479 4.40333 162.479 4.17C162.479 4.03 162.435 3.91 162.349 3.81C162.269 3.70333 162.159 3.65 162.019 3.65C161.852 3.65 161.639 3.76333 161.379 3.99C161.079 4.24333 160.762 4.58333 160.429 5.01C160.095 5.43 159.819 5.84667 159.599 6.26C159.379 6.67333 159.269 7 159.269 7.24C159.269 7.44 159.362 7.54 159.549 7.54C159.909 7.54 160.255 7.40667 160.589 7.14C160.922 6.87333 161.219 6.55667 161.479 6.19C161.745 5.81667 162.039 5.36 162.359 4.82ZM169.513 6.73C169.166 7.15 168.853 7.47333 168.573 7.7C168.299 7.92667 168.013 8.04 167.713 8.04C167.459 8.04 167.249 7.93 167.083 7.71C166.923 7.49 166.843 7.23667 166.843 6.95C166.843 6.52333 166.956 5.98333 167.183 5.33C167.409 4.67667 167.696 4.11 168.043 3.63C168.389 3.15 168.736 2.91 169.083 2.91C169.229 2.91 169.356 2.96333 169.463 3.07C169.523 3.13 169.579 3.21 169.633 3.31C169.686 3.41 169.713 3.5 169.713 3.58C169.713 3.69333 169.696 3.82667 169.663 3.98C169.636 4.12667 169.606 4.2 169.573 4.2C169.506 4.2 169.463 4.16333 169.443 4.09C169.423 4.01667 169.409 3.92333 169.403 3.81C169.383 3.63667 169.363 3.52333 169.343 3.47C169.323 3.41 169.293 3.38 169.253 3.38C168.939 3.38 168.636 3.6 168.343 4.04C168.049 4.47333 167.809 4.98 167.623 5.56C167.436 6.13333 167.343 6.57667 167.343 6.89C167.343 7.33 167.489 7.55 167.783 7.55C167.996 7.55 168.189 7.49667 168.363 7.39C168.543 7.28333 168.729 7.13333 168.923 6.94C169.283 6.57333 169.563 6.25667 169.763 5.99C169.776 5.97 169.813 5.92 169.873 5.84C169.939 5.75333 169.986 5.71 170.013 5.71C170.093 5.71 170.133 5.74 170.133 5.8C170.133 5.84 170.063 5.96333 169.923 6.17C169.789 6.37667 169.653 6.56333 169.513 6.73ZM171.364 7.95C171.284 7.95 171.207 7.85667 171.134 7.67C171.067 7.47667 171.034 7.18667 171.034 6.8C171.04 6.04667 171.05 5.13667 171.064 4.07C171.084 3.00333 171.1 2.2 171.114 1.66C171.12 1.46667 171.154 1.28667 171.214 1.12C171.28 0.953333 171.394 0.869999 171.554 0.869999C171.607 0.869999 171.64 0.899999 171.654 0.959999C171.674 1.01333 171.684 1.12 171.684 1.28C171.684 1.28667 171.68 1.31 171.674 1.35C171.674 1.38333 171.674 1.44667 171.674 1.54C171.554 3.29333 171.494 5.00333 171.494 6.67C171.494 6.88333 171.54 7.11 171.634 7.35C171.734 7.59 171.784 7.71667 171.784 7.73C171.784 7.79667 171.74 7.85 171.654 7.89C171.567 7.93 171.47 7.95 171.364 7.95ZM177.106 7.63C177.106 7.71 177.072 7.80333 177.006 7.91C176.939 8.01 176.872 8.06 176.806 8.06C176.692 8.06 176.606 7.99 176.546 7.85C176.486 7.71 176.456 7.54667 176.456 7.36C176.456 7.2 176.466 6.72 176.486 5.92L176.496 5.54C176.496 5.38667 176.456 5.27667 176.376 5.21C176.076 5.71667 175.796 6.15667 175.536 6.53C175.276 6.90333 174.946 7.25667 174.546 7.59C174.146 7.91667 173.726 8.08 173.286 8.08C173.072 8.08 172.906 8.01333 172.786 7.88C172.672 7.74667 172.616 7.57333 172.616 7.36C172.616 7.09333 172.736 6.73 172.976 6.27C173.216 5.80333 173.522 5.33333 173.896 4.86C174.269 4.38 174.642 3.98667 175.016 3.68C175.262 3.48 175.459 3.34667 175.606 3.28C175.752 3.20667 175.882 3.17 175.996 3.17C176.102 3.17 176.212 3.20333 176.326 3.27C176.439 3.33667 176.536 3.43 176.616 3.55C176.696 3.67 176.736 3.80667 176.736 3.96C176.736 4.16667 176.679 4.36333 176.566 4.55L176.736 4.5C176.809 4.5 176.852 4.59 176.866 4.77C176.872 4.87667 176.879 5.09333 176.886 5.42C176.899 5.74667 176.909 6.01667 176.916 6.23C176.922 6.45 176.929 6.66333 176.936 6.87C176.942 7.07667 176.949 7.24 176.956 7.36C176.962 7.40667 176.989 7.45667 177.036 7.51C177.082 7.55667 177.106 7.59667 177.106 7.63ZM176.236 4.82C176.316 4.62 176.356 4.40333 176.356 4.17C176.356 4.03 176.312 3.91 176.226 3.81C176.146 3.70333 176.036 3.65 175.896 3.65C175.729 3.65 175.516 3.76333 175.256 3.99C174.956 4.24333 174.639 4.58333 174.306 5.01C173.972 5.43 173.696 5.84667 173.476 6.26C173.256 6.67333 173.146 7 173.146 7.24C173.146 7.44 173.239 7.54 173.426 7.54C173.786 7.54 174.132 7.40667 174.466 7.14C174.799 6.87333 175.096 6.55667 175.356 6.19C175.622 5.81667 175.916 5.36 176.236 4.82ZM179.209 8.34C178.922 8.34 178.729 8.31333 178.629 8.26C178.529 8.20667 178.479 8.13333 178.479 8.04C178.479 7.98 178.555 7.87667 178.709 7.73C178.862 7.57667 178.965 7.5 179.019 7.5C179.099 7.5 179.139 7.51667 179.139 7.55C179.139 7.57667 179.122 7.60333 179.089 7.63C179.055 7.65667 179.039 7.68 179.039 7.7C179.039 7.72667 179.079 7.75333 179.159 7.78C179.245 7.80667 179.349 7.82 179.469 7.82C179.749 7.82 180.029 7.77 180.309 7.67C180.595 7.56333 180.829 7.42667 181.009 7.26C181.189 7.09333 181.279 6.91667 181.279 6.73C181.279 6.55 181.222 6.40667 181.109 6.3C180.995 6.19333 180.852 6.11667 180.679 6.07C180.512 6.01667 180.229 5.94333 179.829 5.85C179.389 5.75 179.045 5.66333 178.799 5.59C178.559 5.51 178.365 5.41333 178.219 5.3C178.072 5.18 177.999 5.03 177.999 4.85C177.999 4.53 178.155 4.23667 178.469 3.97C178.782 3.70333 179.142 3.49333 179.549 3.34C179.955 3.18667 180.269 3.11 180.489 3.11C180.715 3.11 180.829 3.17667 180.829 3.31C180.829 3.39 180.802 3.48 180.749 3.58C180.695 3.67333 180.615 3.72 180.509 3.72C180.469 3.72 180.425 3.70667 180.379 3.68C180.332 3.64667 180.285 3.63 180.239 3.63C180.105 3.63 179.895 3.67333 179.609 3.76C179.322 3.84667 179.062 3.97667 178.829 4.15C178.595 4.32333 178.479 4.53333 178.479 4.78C178.479 4.94 178.569 5.06 178.749 5.14C178.935 5.21333 179.279 5.30667 179.779 5.42C179.839 5.44 179.899 5.45667 179.959 5.47C180.019 5.47667 180.072 5.48667 180.119 5.5C180.632 5.62 181.025 5.75667 181.299 5.91C181.572 6.06333 181.709 6.29333 181.709 6.6C181.709 6.89333 181.589 7.17667 181.349 7.45C181.115 7.71667 180.805 7.93 180.419 8.09C180.032 8.25667 179.629 8.34 179.209 8.34ZM183.662 8.34C183.375 8.34 183.182 8.31333 183.082 8.26C182.982 8.20667 182.932 8.13333 182.932 8.04C182.932 7.98 183.008 7.87667 183.162 7.73C183.315 7.57667 183.418 7.5 183.472 7.5C183.552 7.5 183.592 7.51667 183.592 7.55C183.592 7.57667 183.575 7.60333 183.542 7.63C183.508 7.65667 183.492 7.68 183.492 7.7C183.492 7.72667 183.532 7.75333 183.612 7.78C183.698 7.80667 183.802 7.82 183.922 7.82C184.202 7.82 184.482 7.77 184.762 7.67C185.048 7.56333 185.282 7.42667 185.462 7.26C185.642 7.09333 185.732 6.91667 185.732 6.73C185.732 6.55 185.675 6.40667 185.562 6.3C185.448 6.19333 185.305 6.11667 185.132 6.07C184.965 6.01667 184.682 5.94333 184.282 5.85C183.842 5.75 183.498 5.66333 183.252 5.59C183.012 5.51 182.818 5.41333 182.672 5.3C182.525 5.18 182.452 5.03 182.452 4.85C182.452 4.53 182.608 4.23667 182.922 3.97C183.235 3.70333 183.595 3.49333 184.002 3.34C184.408 3.18667 184.722 3.11 184.942 3.11C185.168 3.11 185.282 3.17667 185.282 3.31C185.282 3.39 185.255 3.48 185.202 3.58C185.148 3.67333 185.068 3.72 184.962 3.72C184.922 3.72 184.878 3.70667 184.832 3.68C184.785 3.64667 184.738 3.63 184.692 3.63C184.558 3.63 184.348 3.67333 184.062 3.76C183.775 3.84667 183.515 3.97667 183.282 4.15C183.048 4.32333 182.932 4.53333 182.932 4.78C182.932 4.94 183.022 5.06 183.202 5.14C183.388 5.21333 183.732 5.30667 184.232 5.42C184.292 5.44 184.352 5.45667 184.412 5.47C184.472 5.47667 184.525 5.48667 184.572 5.5C185.085 5.62 185.478 5.75667 185.752 5.91C186.025 6.06333 186.162 6.29333 186.162 6.6C186.162 6.89333 186.042 7.17667 185.802 7.45C185.568 7.71667 185.258 7.93 184.872 8.09C184.485 8.25667 184.082 8.34 183.662 8.34ZM190.865 5.6C190.865 5.72 190.775 5.98333 190.595 6.39C190.422 6.79667 190.155 7.17333 189.795 7.52C189.442 7.86667 189.005 8.04 188.485 8.04C188.058 8.04 187.702 7.90667 187.415 7.64C187.128 7.37333 186.985 6.96333 186.985 6.41C186.985 5.89 187.105 5.37667 187.345 4.87C187.585 4.35667 187.898 3.94 188.285 3.62C188.672 3.29333 189.072 3.13 189.485 3.13C189.732 3.13 189.938 3.18667 190.105 3.3C190.278 3.40667 190.365 3.56333 190.365 3.77C190.365 4.00333 190.232 4.23 189.965 4.45C189.705 4.67 189.365 4.86333 188.945 5.03C188.525 5.19667 188.092 5.31667 187.645 5.39C187.565 5.69667 187.525 5.99667 187.525 6.29C187.525 6.67667 187.615 6.97667 187.795 7.19C187.982 7.40333 188.245 7.51 188.585 7.51C189.098 7.51 189.515 7.32667 189.835 6.96C190.155 6.59333 190.422 6.18 190.635 5.72C190.648 5.69333 190.672 5.64333 190.705 5.57C190.738 5.49 190.768 5.45 190.795 5.45C190.842 5.45 190.865 5.5 190.865 5.6ZM189.365 3.54C189.112 3.54 188.868 3.62333 188.635 3.79C188.402 3.95667 188.205 4.15667 188.045 4.39C187.892 4.62333 187.792 4.83 187.745 5.01C188.052 4.97667 188.375 4.89 188.715 4.75C189.055 4.61 189.338 4.45667 189.565 4.29C189.798 4.12333 189.915 3.98667 189.915 3.88C189.915 3.77333 189.858 3.69 189.745 3.63C189.638 3.57 189.512 3.54 189.365 3.54ZM200.545 8.19C200.425 8.19 200.365 8.13 200.365 8.01C200.365 6.66333 200.321 5.63333 200.235 4.92C200.148 4.2 199.998 3.84 199.785 3.84C199.425 3.84 198.898 5.09667 198.205 7.61V7.62C198.205 7.7 198.178 7.77 198.125 7.83C198.071 7.88333 198.001 7.91 197.915 7.91C197.795 7.91 197.735 7.85 197.735 7.73C197.735 7.46333 197.748 7.05 197.775 6.49C197.801 5.86333 197.815 5.37 197.815 5.01C197.815 4.51 197.798 4.15667 197.765 3.95C197.738 3.73667 197.675 3.63 197.575 3.63C197.348 3.63 197.061 4.04667 196.715 4.88C196.368 5.70667 196.005 6.68333 195.625 7.81L195.535 8.07C195.508 8.13667 195.468 8.19333 195.415 8.24C195.368 8.28667 195.315 8.31 195.255 8.31C195.175 8.31 195.121 8.30333 195.095 8.29C195.068 8.27667 195.051 8.23667 195.045 8.17C195.011 7.84333 194.985 7.40667 194.965 6.86C194.951 6.72 194.938 6.49 194.925 6.17C194.858 5.04333 194.798 4.28333 194.745 3.89C194.691 3.49 194.665 3.26667 194.665 3.22C194.665 3.16667 194.691 3.10333 194.745 3.03C194.798 2.95667 194.848 2.92 194.895 2.92C195.001 2.92 195.088 2.99667 195.155 3.15C195.188 3.22333 195.225 3.51667 195.265 4.03C195.305 4.54333 195.338 5.18 195.365 5.94L195.415 7.47C195.781 6.33667 196.161 5.31 196.555 4.39C196.948 3.46333 197.308 3 197.635 3C197.855 3 198.005 3.16 198.085 3.48C198.165 3.8 198.205 4.26333 198.205 4.87C198.205 5.19 198.198 5.65 198.185 6.25L198.175 6.71C198.448 5.75667 198.718 4.95667 198.985 4.31C199.258 3.66333 199.531 3.34 199.805 3.34C200.491 3.34 200.835 4.86 200.835 7.9C200.835 7.98 200.808 8.04667 200.755 8.1C200.701 8.16 200.631 8.19 200.545 8.19ZM203.165 8.07C202.718 8.07 202.388 7.94667 202.175 7.7C201.962 7.45333 201.855 7.14667 201.855 6.78C201.855 6.46 201.912 6.06333 202.025 5.59C202.145 5.11667 202.312 4.69333 202.525 4.32C202.538 4.29333 202.592 4.19667 202.685 4.03C202.785 3.85667 202.895 3.72667 203.015 3.64C203.135 3.54667 203.262 3.5 203.395 3.5C203.455 3.5 203.508 3.51667 203.555 3.55C203.608 3.57667 203.635 3.61333 203.635 3.66C203.635 3.67333 203.615 3.70667 203.575 3.76C203.542 3.80667 203.515 3.84333 203.495 3.87C203.268 4.14333 203.085 4.41333 202.945 4.68C202.758 5.02 202.612 5.35667 202.505 5.69C202.405 6.02333 202.355 6.38667 202.355 6.78C202.355 7.30667 202.675 7.57 203.315 7.57C203.615 7.57 203.892 7.48333 204.145 7.31C204.405 7.13667 204.612 6.92667 204.765 6.68C204.918 6.42667 204.995 6.19667 204.995 5.99C204.995 5.75667 204.918 5.55333 204.765 5.38C204.612 5.20667 204.402 5.02333 204.135 4.83C203.962 4.70333 203.835 4.6 203.755 4.52C203.675 4.44 203.635 4.37333 203.635 4.32C203.635 4.24 203.692 4.17667 203.805 4.13C203.918 4.07667 204.052 4.05 204.205 4.05C204.292 4.05 204.348 4.05667 204.375 4.07C204.402 4.07667 204.415 4.09333 204.415 4.12C204.415 4.13333 204.402 4.15667 204.375 4.19C204.355 4.21667 204.345 4.24 204.345 4.26C204.345 4.28 204.412 4.34667 204.545 4.46C204.812 4.68 205.035 4.90333 205.215 5.13C205.395 5.35667 205.485 5.62333 205.485 5.93C205.485 6.19 205.388 6.49 205.195 6.83C205.002 7.17 204.728 7.46333 204.375 7.71C204.022 7.95 203.618 8.07 203.165 8.07ZM209.872 1.16C209.872 1.29333 209.866 1.55667 209.852 1.95C209.839 2.33667 209.832 2.72667 209.832 3.12C209.832 3.88 209.849 4.65667 209.882 5.45C209.916 6.23667 209.942 6.75333 209.962 7C209.962 7.04 209.966 7.08333 209.972 7.13C209.979 7.17667 209.986 7.22 209.992 7.26C210.019 7.44667 210.032 7.56 210.032 7.6C210.032 7.66667 209.982 7.73 209.882 7.79C209.789 7.85 209.716 7.88 209.662 7.88C209.589 7.88 209.539 7.85333 209.512 7.8C209.492 7.74 209.482 7.66 209.482 7.56C209.482 7.19333 209.492 6.81 209.512 6.41L209.522 5.85C209.522 5.66333 209.519 5.42 209.512 5.12C209.506 4.81333 209.496 4.55667 209.482 4.35C209.142 5.44333 208.756 6.35 208.322 7.07C207.896 7.78333 207.432 8.14 206.932 8.14C206.706 8.14 206.512 8.03333 206.352 7.82C206.199 7.60667 206.122 7.3 206.122 6.9C206.122 6.37333 206.299 5.8 206.652 5.18C207.012 4.56 207.419 4.02667 207.872 3.58C208.332 3.13333 208.672 2.91 208.892 2.91C209.106 2.91 209.212 2.98 209.212 3.12C209.212 3.21333 209.179 3.32333 209.112 3.45C209.052 3.57 208.982 3.68 208.902 3.78C208.829 3.88 208.786 3.93 208.772 3.93C208.759 3.93 208.742 3.92667 208.722 3.92C208.709 3.90667 208.702 3.89333 208.702 3.88C208.702 3.84667 208.719 3.79 208.752 3.71C208.786 3.63 208.802 3.57667 208.802 3.55C208.802 3.51667 208.799 3.49333 208.792 3.48C208.786 3.46667 208.766 3.46 208.732 3.46C208.592 3.46 208.339 3.65333 207.972 4.04C207.612 4.42 207.289 4.87333 207.002 5.4C206.716 5.92667 206.572 6.41667 206.572 6.87C206.572 7.03 206.606 7.18 206.672 7.32C206.739 7.46 206.849 7.53 207.002 7.53C207.489 7.53 207.939 7.12 208.352 6.3C208.772 5.47333 209.136 4.53667 209.442 3.49L209.422 2.65C209.402 1.91 209.392 1.51667 209.392 1.47C209.392 1.07 209.409 0.783333 209.442 0.61C209.456 0.543333 209.469 0.496667 209.482 0.47C209.502 0.443333 209.539 0.43 209.592 0.43C209.659 0.43 209.726 0.453333 209.792 0.499999C209.859 0.54 209.892 0.596666 209.892 0.67L209.872 1.16ZM215.328 7.63C215.328 7.71 215.295 7.80333 215.228 7.91C215.162 8.01 215.095 8.06 215.028 8.06C214.915 8.06 214.828 7.99 214.768 7.85C214.708 7.71 214.678 7.54667 214.678 7.36C214.678 7.2 214.688 6.72 214.708 5.92L214.718 5.54C214.718 5.38667 214.678 5.27667 214.598 5.21C214.298 5.71667 214.018 6.15667 213.758 6.53C213.498 6.90333 213.168 7.25667 212.768 7.59C212.368 7.91667 211.948 8.08 211.508 8.08C211.295 8.08 211.128 8.01333 211.008 7.88C210.895 7.74667 210.838 7.57333 210.838 7.36C210.838 7.09333 210.958 6.73 211.198 6.27C211.438 5.80333 211.745 5.33333 212.118 4.86C212.492 4.38 212.865 3.98667 213.238 3.68C213.485 3.48 213.682 3.34667 213.828 3.28C213.975 3.20667 214.105 3.17 214.218 3.17C214.325 3.17 214.435 3.20333 214.548 3.27C214.662 3.33667 214.758 3.43 214.838 3.55C214.918 3.67 214.958 3.80667 214.958 3.96C214.958 4.16667 214.902 4.36333 214.788 4.55L214.958 4.5C215.032 4.5 215.075 4.59 215.088 4.77C215.095 4.87667 215.102 5.09333 215.108 5.42C215.122 5.74667 215.132 6.01667 215.138 6.23C215.145 6.45 215.152 6.66333 215.158 6.87C215.165 7.07667 215.172 7.24 215.178 7.36C215.185 7.40667 215.212 7.45667 215.258 7.51C215.305 7.55667 215.328 7.59667 215.328 7.63ZM214.458 4.82C214.538 4.62 214.578 4.40333 214.578 4.17C214.578 4.03 214.535 3.91 214.448 3.81C214.368 3.70333 214.258 3.65 214.118 3.65C213.952 3.65 213.738 3.76333 213.478 3.99C213.178 4.24333 212.862 4.58333 212.528 5.01C212.195 5.43 211.918 5.84667 211.698 6.26C211.478 6.67333 211.368 7 211.368 7.24C211.368 7.44 211.462 7.54 211.648 7.54C212.008 7.54 212.355 7.40667 212.688 7.14C213.022 6.87333 213.318 6.55667 213.578 6.19C213.845 5.81667 214.138 5.36 214.458 4.82ZM216.881 7.95C216.801 7.95 216.725 7.85667 216.651 7.67C216.585 7.47667 216.551 7.18667 216.551 6.8C216.558 6.04667 216.568 5.13667 216.581 4.07C216.601 3.00333 216.618 2.2 216.631 1.66C216.638 1.46667 216.671 1.28667 216.731 1.12C216.798 0.953333 216.911 0.869999 217.071 0.869999C217.125 0.869999 217.158 0.899999 217.171 0.959999C217.191 1.01333 217.201 1.12 217.201 1.28C217.201 1.28667 217.198 1.31 217.191 1.35C217.191 1.38333 217.191 1.44667 217.191 1.54C217.071 3.29333 217.011 5.00333 217.011 6.67C217.011 6.88333 217.058 7.11 217.151 7.35C217.251 7.59 217.301 7.71667 217.301 7.73C217.301 7.79667 217.258 7.85 217.171 7.89C217.085 7.93 216.988 7.95 216.881 7.95Z" fill="#505050"/>
<path d="M25.39 21.71C25.31 21.71 25.2467 21.7067 25.2 21.7C25.1533 21.6867 25.12 21.6567 25.1 21.61C25.04 21.51 24.97 21.2133 24.89 20.72C24.81 20.2267 24.7333 19.66 24.66 19.02C24.5 17.0667 24.3767 16.07 24.29 16.03C24.2167 16.19 24.1033 16.4933 23.95 16.94C23.7967 17.38 23.62 17.9567 23.42 18.67C23.2 19.4367 23.0333 19.9667 22.92 20.26C22.8067 20.5467 22.7067 20.7233 22.62 20.79C22.5667 20.8367 22.5 20.8833 22.42 20.93C22.3467 20.97 22.2833 20.99 22.23 20.99C22.1633 20.99 22.12 20.9833 22.1 20.97C22.08 20.95 22.0567 20.8967 22.03 20.81C22.0033 20.71 21.94 20.4 21.84 19.88C21.74 19.3533 21.6633 18.88 21.61 18.46L21.55 18.04C21.4367 17.1733 21.36 16.69 21.32 16.59C21.1933 16.7033 21.0733 16.9567 20.96 17.35C20.8467 17.7367 20.7167 18.2867 20.57 19C20.43 19.5533 20.26 20.4533 20.06 21.7C20.0533 21.7733 20.0033 21.84 19.91 21.9C19.8167 21.96 19.7333 21.99 19.66 21.99C19.5533 21.99 19.4933 21.8867 19.48 21.68C19.4733 21.4733 19.4267 21.0267 19.34 20.34C19.26 19.6533 19.1867 19.05 19.12 18.53C19.0267 17.79 18.9 17.1033 18.74 16.47C18.6933 16.27 18.67 16.1567 18.67 16.13C18.67 16.03 18.7167 15.95 18.81 15.89C18.91 15.8233 19.0167 15.79 19.13 15.79C19.1833 15.79 19.24 15.9967 19.3 16.41C19.36 16.8233 19.4233 17.3433 19.49 17.97L19.52 18.3C19.5467 18.52 19.5767 18.75 19.61 18.99C19.7367 20.01 19.8067 20.65 19.82 20.91C19.9533 20.1367 20.1033 19.36 20.27 18.58L20.36 18.14C20.5067 17.4333 20.6667 16.9 20.84 16.54C21.0133 16.1733 21.2367 15.99 21.51 15.99C21.5967 15.99 21.6933 16.2167 21.8 16.67C21.9067 17.1167 21.99 17.64 22.05 18.24C22.0967 18.6667 22.1567 19.0833 22.23 19.49C22.3033 19.8967 22.37 20.18 22.43 20.34C22.47 20.2267 22.55 19.9767 22.67 19.59C22.7967 19.2033 22.9133 18.8367 23.02 18.49C23.3467 17.3767 23.6933 16.38 24.06 15.5C24.1267 15.36 24.19 15.26 24.25 15.2C24.3167 15.1333 24.43 15.1 24.59 15.1C24.6767 15.1 24.77 15.48 24.87 16.24C24.97 17 25.0533 17.88 25.12 18.88C25.3 20.2933 25.4633 21.0633 25.61 21.19C25.71 21.2767 25.76 21.37 25.76 21.47C25.76 21.5167 25.72 21.57 25.64 21.63C25.5667 21.6833 25.4833 21.71 25.39 21.71ZM27.7362 22.07C27.2895 22.07 26.9595 21.9467 26.7462 21.7C26.5328 21.4533 26.4262 21.1467 26.4262 20.78C26.4262 20.46 26.4828 20.0633 26.5962 19.59C26.7162 19.1167 26.8828 18.6933 27.0962 18.32C27.1095 18.2933 27.1628 18.1967 27.2562 18.03C27.3562 17.8567 27.4662 17.7267 27.5862 17.64C27.7062 17.5467 27.8328 17.5 27.9662 17.5C28.0262 17.5 28.0795 17.5167 28.1262 17.55C28.1795 17.5767 28.2062 17.6133 28.2062 17.66C28.2062 17.6733 28.1862 17.7067 28.1462 17.76C28.1128 17.8067 28.0862 17.8433 28.0662 17.87C27.8395 18.1433 27.6562 18.4133 27.5162 18.68C27.3295 19.02 27.1828 19.3567 27.0762 19.69C26.9762 20.0233 26.9262 20.3867 26.9262 20.78C26.9262 21.3067 27.2462 21.57 27.8862 21.57C28.1862 21.57 28.4628 21.4833 28.7162 21.31C28.9762 21.1367 29.1828 20.9267 29.3362 20.68C29.4895 20.4267 29.5662 20.1967 29.5662 19.99C29.5662 19.7567 29.4895 19.5533 29.3362 19.38C29.1828 19.2067 28.9728 19.0233 28.7062 18.83C28.5328 18.7033 28.4062 18.6 28.3262 18.52C28.2462 18.44 28.2062 18.3733 28.2062 18.32C28.2062 18.24 28.2628 18.1767 28.3762 18.13C28.4895 18.0767 28.6228 18.05 28.7762 18.05C28.8628 18.05 28.9195 18.0567 28.9462 18.07C28.9728 18.0767 28.9862 18.0933 28.9862 18.12C28.9862 18.1333 28.9728 18.1567 28.9462 18.19C28.9262 18.2167 28.9162 18.24 28.9162 18.26C28.9162 18.28 28.9828 18.3467 29.1162 18.46C29.3828 18.68 29.6062 18.9033 29.7862 19.13C29.9662 19.3567 30.0562 19.6233 30.0562 19.93C30.0562 20.19 29.9595 20.49 29.7662 20.83C29.5728 21.17 29.2995 21.4633 28.9462 21.71C28.5928 21.95 28.1895 22.07 27.7362 22.07ZM34.4435 15.16C34.4435 15.2933 34.4368 15.5567 34.4235 15.95C34.4102 16.3367 34.4035 16.7267 34.4035 17.12C34.4035 17.88 34.4202 18.6567 34.4535 19.45C34.4868 20.2367 34.5135 20.7533 34.5335 21C34.5335 21.04 34.5368 21.0833 34.5435 21.13C34.5502 21.1767 34.5568 21.22 34.5635 21.26C34.5902 21.4467 34.6035 21.56 34.6035 21.6C34.6035 21.6667 34.5535 21.73 34.4535 21.79C34.3602 21.85 34.2868 21.88 34.2335 21.88C34.1602 21.88 34.1102 21.8533 34.0835 21.8C34.0635 21.74 34.0535 21.66 34.0535 21.56C34.0535 21.1933 34.0635 20.81 34.0835 20.41L34.0935 19.85C34.0935 19.6633 34.0902 19.42 34.0835 19.12C34.0768 18.8133 34.0668 18.5567 34.0535 18.35C33.7135 19.4433 33.3268 20.35 32.8935 21.07C32.4668 21.7833 32.0035 22.14 31.5035 22.14C31.2768 22.14 31.0835 22.0333 30.9235 21.82C30.7702 21.6067 30.6935 21.3 30.6935 20.9C30.6935 20.3733 30.8702 19.8 31.2235 19.18C31.5835 18.56 31.9902 18.0267 32.4435 17.58C32.9035 17.1333 33.2435 16.91 33.4635 16.91C33.6768 16.91 33.7835 16.98 33.7835 17.12C33.7835 17.2133 33.7502 17.3233 33.6835 17.45C33.6235 17.57 33.5535 17.68 33.4735 17.78C33.4002 17.88 33.3568 17.93 33.3435 17.93C33.3302 17.93 33.3135 17.9267 33.2935 17.92C33.2802 17.9067 33.2735 17.8933 33.2735 17.88C33.2735 17.8467 33.2902 17.79 33.3235 17.71C33.3568 17.63 33.3735 17.5767 33.3735 17.55C33.3735 17.5167 33.3702 17.4933 33.3635 17.48C33.3568 17.4667 33.3368 17.46 33.3035 17.46C33.1635 17.46 32.9102 17.6533 32.5435 18.04C32.1835 18.42 31.8602 18.8733 31.5735 19.4C31.2868 19.9267 31.1435 20.4167 31.1435 20.87C31.1435 21.03 31.1768 21.18 31.2435 21.32C31.3102 21.46 31.4202 21.53 31.5735 21.53C32.0602 21.53 32.5102 21.12 32.9235 20.3C33.3435 19.4733 33.7068 18.5367 34.0135 17.49L33.9935 16.65C33.9735 15.91 33.9635 15.5167 33.9635 15.47C33.9635 15.07 33.9802 14.7833 34.0135 14.61C34.0268 14.5433 34.0402 14.4967 34.0535 14.47C34.0735 14.4433 34.1102 14.43 34.1635 14.43C34.2302 14.43 34.2968 14.4533 34.3635 14.5C34.4302 14.54 34.4635 14.5967 34.4635 14.67L34.4435 15.16ZM39.8996 21.63C39.8996 21.71 39.8663 21.8033 39.7996 21.91C39.7329 22.01 39.6663 22.06 39.5996 22.06C39.4863 22.06 39.3996 21.99 39.3396 21.85C39.2796 21.71 39.2496 21.5467 39.2496 21.36C39.2496 21.2 39.2596 20.72 39.2796 19.92L39.2896 19.54C39.2896 19.3867 39.2496 19.2767 39.1696 19.21C38.8696 19.7167 38.5896 20.1567 38.3296 20.53C38.0696 20.9033 37.7396 21.2567 37.3396 21.59C36.9396 21.9167 36.5196 22.08 36.0796 22.08C35.8663 22.08 35.6996 22.0133 35.5796 21.88C35.4663 21.7467 35.4096 21.5733 35.4096 21.36C35.4096 21.0933 35.5296 20.73 35.7696 20.27C36.0096 19.8033 36.3163 19.3333 36.6896 18.86C37.0629 18.38 37.4363 17.9867 37.8096 17.68C38.0563 17.48 38.2529 17.3467 38.3996 17.28C38.5463 17.2067 38.6763 17.17 38.7896 17.17C38.8963 17.17 39.0063 17.2033 39.1196 17.27C39.2329 17.3367 39.3296 17.43 39.4096 17.55C39.4896 17.67 39.5296 17.8067 39.5296 17.96C39.5296 18.1667 39.4729 18.3633 39.3596 18.55L39.5296 18.5C39.6029 18.5 39.6463 18.59 39.6596 18.77C39.6663 18.8767 39.6729 19.0933 39.6796 19.42C39.6929 19.7467 39.7029 20.0167 39.7096 20.23C39.7163 20.45 39.7229 20.6633 39.7296 20.87C39.7363 21.0767 39.7429 21.24 39.7496 21.36C39.7563 21.4067 39.7829 21.4567 39.8296 21.51C39.8763 21.5567 39.8996 21.5967 39.8996 21.63ZM39.0296 18.82C39.1096 18.62 39.1496 18.4033 39.1496 18.17C39.1496 18.03 39.1063 17.91 39.0196 17.81C38.9396 17.7033 38.8296 17.65 38.6896 17.65C38.5229 17.65 38.3096 17.7633 38.0496 17.99C37.7496 18.2433 37.4329 18.5833 37.0996 19.01C36.7663 19.43 36.4896 19.8467 36.2696 20.26C36.0496 20.6733 35.9396 21 35.9396 21.24C35.9396 21.44 36.0329 21.54 36.2196 21.54C36.5796 21.54 36.9263 21.4067 37.2596 21.14C37.5929 20.8733 37.8896 20.5567 38.1496 20.19C38.4163 19.8167 38.7096 19.36 39.0296 18.82Z" fill="#505050"/>
<path d="M139.01 18.56L137.29 18.69L136.1 18.79L135.48 18.84C135.427 18.84 135.377 18.8067 135.33 18.74C135.29 18.6733 135.27 18.61 135.27 18.55C135.27 18.5033 135.283 18.47 135.31 18.45C135.343 18.4233 135.377 18.4067 135.41 18.4C135.45 18.3867 135.477 18.3767 135.49 18.37C135.497 18.01 135.5 17.17 135.5 15.85C135.5 14.8767 135.46 14.1233 135.38 13.59C135.307 13.05 135.27 12.76 135.27 12.72C135.27 12.6267 135.303 12.5533 135.37 12.5C135.443 12.4467 135.517 12.42 135.59 12.42C135.637 12.42 135.673 12.44 135.7 12.48C135.727 12.5133 135.747 12.57 135.76 12.65C135.827 12.8767 135.877 13.2933 135.91 13.9C135.95 14.5067 135.97 15.14 135.97 15.8C135.97 16.36 135.967 16.88 135.96 17.36C135.953 17.84 135.95 18.1633 135.95 18.33C136.037 18.3233 136.203 18.3133 136.45 18.3C136.697 18.28 136.95 18.26 137.21 18.24C137.597 18.1933 138.033 18.1233 138.52 18.03C138.913 17.9567 139.15 17.92 139.23 17.92C139.303 17.92 139.35 17.9533 139.37 18.02C139.39 18.0867 139.4 18.1667 139.4 18.26C139.4 18.3467 139.36 18.4167 139.28 18.47C139.207 18.5233 139.117 18.5533 139.01 18.56ZM140.592 12.89C140.479 12.89 140.362 12.8433 140.242 12.75C140.129 12.6567 140.072 12.58 140.072 12.52C140.072 12.4467 140.105 12.3767 140.172 12.31C140.245 12.2433 140.319 12.21 140.392 12.21C140.492 12.2433 140.575 12.2967 140.642 12.37C140.695 12.4233 140.755 12.4933 140.822 12.58C140.889 12.6667 140.922 12.72 140.922 12.74C140.922 12.84 140.812 12.89 140.592 12.89ZM140.892 19.23C140.799 19.2233 140.729 19.0733 140.682 18.78C140.642 18.4867 140.599 17.93 140.552 17.11C140.525 16.57 140.502 16.0433 140.482 15.53C140.462 15.01 140.449 14.61 140.442 14.33C140.442 14.2567 140.452 14.2033 140.472 14.17C140.499 14.13 140.545 14.11 140.612 14.11C140.765 14.11 140.862 14.1733 140.902 14.3C140.942 14.4267 140.962 14.67 140.962 15.03L140.952 16.21C140.952 16.8833 140.972 17.4233 141.012 17.83C141.012 17.85 141.042 18.0633 141.102 18.47C141.149 18.75 141.172 18.9367 141.172 19.03C141.172 19.0967 141.142 19.1467 141.082 19.18C141.029 19.22 140.965 19.2367 140.892 19.23ZM148.46 19.19C148.34 19.19 148.28 19.13 148.28 19.01C148.28 17.6633 148.236 16.6333 148.15 15.92C148.063 15.2 147.913 14.84 147.7 14.84C147.34 14.84 146.813 16.0967 146.12 18.61V18.62C146.12 18.7 146.093 18.77 146.04 18.83C145.986 18.8833 145.916 18.91 145.83 18.91C145.71 18.91 145.65 18.85 145.65 18.73C145.65 18.4633 145.663 18.05 145.69 17.49C145.716 16.8633 145.73 16.37 145.73 16.01C145.73 15.51 145.713 15.1567 145.68 14.95C145.653 14.7367 145.59 14.63 145.49 14.63C145.263 14.63 144.976 15.0467 144.63 15.88C144.283 16.7067 143.92 17.6833 143.54 18.81L143.45 19.07C143.423 19.1367 143.383 19.1933 143.33 19.24C143.283 19.2867 143.23 19.31 143.17 19.31C143.09 19.31 143.036 19.3033 143.01 19.29C142.983 19.2767 142.966 19.2367 142.96 19.17C142.926 18.8433 142.9 18.4067 142.88 17.86C142.866 17.72 142.853 17.49 142.84 17.17C142.773 16.0433 142.713 15.2833 142.66 14.89C142.606 14.49 142.58 14.2667 142.58 14.22C142.58 14.1667 142.606 14.1033 142.66 14.03C142.713 13.9567 142.763 13.92 142.81 13.92C142.916 13.92 143.003 13.9967 143.07 14.15C143.103 14.2233 143.14 14.5167 143.18 15.03C143.22 15.5433 143.253 16.18 143.28 16.94L143.33 18.47C143.696 17.3367 144.076 16.31 144.47 15.39C144.863 14.4633 145.223 14 145.55 14C145.77 14 145.92 14.16 146 14.48C146.08 14.8 146.12 15.2633 146.12 15.87C146.12 16.19 146.113 16.65 146.1 17.25L146.09 17.71C146.363 16.7567 146.633 15.9567 146.9 15.31C147.173 14.6633 147.446 14.34 147.72 14.34C148.406 14.34 148.75 15.86 148.75 18.9C148.75 18.98 148.723 19.0467 148.67 19.1C148.616 19.16 148.546 19.19 148.46 19.19ZM150.26 12.89C150.147 12.89 150.03 12.8433 149.91 12.75C149.797 12.6567 149.74 12.58 149.74 12.52C149.74 12.4467 149.773 12.3767 149.84 12.31C149.913 12.2433 149.987 12.21 150.06 12.21C150.16 12.2433 150.243 12.2967 150.31 12.37C150.363 12.4233 150.423 12.4933 150.49 12.58C150.557 12.6667 150.59 12.72 150.59 12.74C150.59 12.84 150.48 12.89 150.26 12.89ZM150.56 19.23C150.467 19.2233 150.397 19.0733 150.35 18.78C150.31 18.4867 150.267 17.93 150.22 17.11C150.193 16.57 150.17 16.0433 150.15 15.53C150.13 15.01 150.117 14.61 150.11 14.33C150.11 14.2567 150.12 14.2033 150.14 14.17C150.167 14.13 150.213 14.11 150.28 14.11C150.433 14.11 150.53 14.1733 150.57 14.3C150.61 14.4267 150.63 14.67 150.63 15.03L150.62 16.21C150.62 16.8833 150.64 17.4233 150.68 17.83C150.68 17.85 150.71 18.0633 150.77 18.47C150.817 18.75 150.84 18.9367 150.84 19.03C150.84 19.0967 150.81 19.1467 150.75 19.18C150.697 19.22 150.633 19.2367 150.56 19.23ZM155.868 15.26C155.254 15.3667 154.911 15.4267 154.838 15.44L154.188 15.55C154.188 15.8967 154.191 16.26 154.198 16.64C154.211 17.02 154.228 17.3533 154.248 17.64C154.274 18.0267 154.321 18.3233 154.388 18.53C154.454 18.7367 154.491 18.8533 154.498 18.88C154.498 18.9467 154.454 19.0067 154.368 19.06C154.288 19.12 154.211 19.15 154.138 19.15C154.098 19.15 154.064 19.1367 154.038 19.11C154.011 19.09 153.988 19.0533 153.968 19C153.928 18.9067 153.888 18.7333 153.848 18.48C153.814 18.2267 153.788 17.9467 153.768 17.64C153.748 17.3667 153.731 17.05 153.718 16.69C153.711 16.3233 153.708 15.97 153.708 15.63C153.334 15.69 152.951 15.7633 152.558 15.85C152.204 15.9233 151.994 15.96 151.928 15.96C151.848 15.96 151.771 15.9367 151.698 15.89C151.631 15.8433 151.598 15.78 151.598 15.7C151.598 15.6133 151.628 15.5567 151.688 15.53C151.748 15.5033 151.848 15.49 151.988 15.49C152.088 15.49 152.234 15.4733 152.428 15.44C152.621 15.4 152.744 15.3733 152.798 15.36C153.244 15.2733 153.548 15.2167 153.708 15.19C153.708 15.05 153.701 14.8667 153.688 14.64C153.674 14.3333 153.668 14.1 153.668 13.94C153.668 13.68 153.674 13.48 153.688 13.34C153.708 13.1933 153.741 13.0633 153.788 12.95C153.841 12.8167 153.941 12.75 154.088 12.75C154.148 12.75 154.188 12.76 154.208 12.78C154.228 12.8 154.238 12.8367 154.238 12.89C154.238 12.93 154.221 13.0467 154.188 13.24C154.154 13.4333 154.138 13.69 154.138 14.01C154.138 14.2567 154.144 14.5333 154.158 14.84L154.168 15.11C154.468 15.0633 155.061 14.94 155.948 14.74C156.001 14.7267 156.044 14.68 156.078 14.6C156.118 14.52 156.158 14.48 156.198 14.48C156.271 14.48 156.344 14.5233 156.418 14.61C156.498 14.69 156.538 14.7733 156.538 14.86C156.538 14.9733 156.488 15.06 156.388 15.12C156.294 15.18 156.121 15.2267 155.868 15.26ZM160.899 16.6C160.899 16.72 160.809 16.9833 160.629 17.39C160.456 17.7967 160.189 18.1733 159.829 18.52C159.476 18.8667 159.039 19.04 158.519 19.04C158.092 19.04 157.736 18.9067 157.449 18.64C157.162 18.3733 157.019 17.9633 157.019 17.41C157.019 16.89 157.139 16.3767 157.379 15.87C157.619 15.3567 157.932 14.94 158.319 14.62C158.706 14.2933 159.106 14.13 159.519 14.13C159.766 14.13 159.972 14.1867 160.139 14.3C160.312 14.4067 160.399 14.5633 160.399 14.77C160.399 15.0033 160.266 15.23 159.999 15.45C159.739 15.67 159.399 15.8633 158.979 16.03C158.559 16.1967 158.126 16.3167 157.679 16.39C157.599 16.6967 157.559 16.9967 157.559 17.29C157.559 17.6767 157.649 17.9767 157.829 18.19C158.016 18.4033 158.279 18.51 158.619 18.51C159.132 18.51 159.549 18.3267 159.869 17.96C160.189 17.5933 160.456 17.18 160.669 16.72C160.682 16.6933 160.706 16.6433 160.739 16.57C160.772 16.49 160.802 16.45 160.829 16.45C160.876 16.45 160.899 16.5 160.899 16.6ZM159.399 14.54C159.146 14.54 158.902 14.6233 158.669 14.79C158.436 14.9567 158.239 15.1567 158.079 15.39C157.926 15.6233 157.826 15.83 157.779 16.01C158.086 15.9767 158.409 15.89 158.749 15.75C159.089 15.61 159.372 15.4567 159.599 15.29C159.832 15.1233 159.949 14.9867 159.949 14.88C159.949 14.7733 159.892 14.69 159.779 14.63C159.672 14.57 159.546 14.54 159.399 14.54ZM165.659 19.34C165.372 19.34 165.179 19.3133 165.079 19.26C164.979 19.2067 164.929 19.1333 164.929 19.04C164.929 18.98 165.005 18.8767 165.159 18.73C165.312 18.5767 165.415 18.5 165.469 18.5C165.549 18.5 165.589 18.5167 165.589 18.55C165.589 18.5767 165.572 18.6033 165.539 18.63C165.505 18.6567 165.489 18.68 165.489 18.7C165.489 18.7267 165.529 18.7533 165.609 18.78C165.695 18.8067 165.799 18.82 165.919 18.82C166.199 18.82 166.479 18.77 166.759 18.67C167.045 18.5633 167.279 18.4267 167.459 18.26C167.639 18.0933 167.729 17.9167 167.729 17.73C167.729 17.55 167.672 17.4067 167.559 17.3C167.445 17.1933 167.302 17.1167 167.129 17.07C166.962 17.0167 166.679 16.9433 166.279 16.85C165.839 16.75 165.495 16.6633 165.249 16.59C165.009 16.51 164.815 16.4133 164.669 16.3C164.522 16.18 164.449 16.03 164.449 15.85C164.449 15.53 164.605 15.2367 164.919 14.97C165.232 14.7033 165.592 14.4933 165.999 14.34C166.405 14.1867 166.719 14.11 166.939 14.11C167.165 14.11 167.279 14.1767 167.279 14.31C167.279 14.39 167.252 14.48 167.199 14.58C167.145 14.6733 167.065 14.72 166.959 14.72C166.919 14.72 166.875 14.7067 166.829 14.68C166.782 14.6467 166.735 14.63 166.689 14.63C166.555 14.63 166.345 14.6733 166.059 14.76C165.772 14.8467 165.512 14.9767 165.279 15.15C165.045 15.3233 164.929 15.5333 164.929 15.78C164.929 15.94 165.019 16.06 165.199 16.14C165.385 16.2133 165.729 16.3067 166.229 16.42C166.289 16.44 166.349 16.4567 166.409 16.47C166.469 16.4767 166.522 16.4867 166.569 16.5C167.082 16.62 167.475 16.7567 167.749 16.91C168.022 17.0633 168.159 17.2933 168.159 17.6C168.159 17.8933 168.039 18.1767 167.799 18.45C167.565 18.7167 167.255 18.93 166.869 19.09C166.482 19.2567 166.079 19.34 165.659 19.34ZM172.842 19.17C172.709 19.17 172.585 19.03 172.472 18.75C172.365 18.47 172.299 18.18 172.272 17.88C172.245 17.5933 172.225 17.0133 172.212 16.14C172.205 16 172.202 15.86 172.202 15.72C172.202 15.5733 172.199 15.45 172.192 15.35C171.999 15.81 171.735 16.3333 171.402 16.92C171.069 17.5067 170.732 18.01 170.392 18.43C170.059 18.85 169.785 19.06 169.572 19.06C169.352 19.06 169.205 18.9433 169.132 18.71C169.065 18.4767 169.032 18.1067 169.032 17.6C169.032 17.1267 169.092 16.59 169.212 15.99C169.339 15.39 169.482 14.9333 169.642 14.62C169.709 14.48 169.765 14.3867 169.812 14.34C169.859 14.2867 169.912 14.26 169.972 14.26C170.139 14.26 170.222 14.2933 170.222 14.36C170.222 14.3933 170.189 14.47 170.122 14.59C169.942 14.9233 169.785 15.3233 169.652 15.79C169.519 16.2567 169.452 16.8833 169.452 17.67C169.452 18.1967 169.525 18.46 169.672 18.46C169.845 18.46 170.079 18.27 170.372 17.89C170.672 17.5033 170.969 17.0433 171.262 16.51C171.555 15.9767 171.779 15.5133 171.932 15.12C171.985 14.9867 172.045 14.78 172.112 14.5C172.132 14.3867 172.152 14.3067 172.172 14.26C172.192 14.2067 172.215 14.18 172.242 14.18C172.315 14.18 172.395 14.21 172.482 14.27C172.569 14.33 172.612 14.3933 172.612 14.46C172.612 14.78 172.622 15.33 172.642 16.11C172.669 16.8833 172.699 17.42 172.732 17.72C172.759 17.98 172.805 18.1833 172.872 18.33C172.945 18.4767 173.015 18.5933 173.082 18.68C173.149 18.76 173.182 18.81 173.182 18.83C173.182 18.9367 173.152 19.02 173.092 19.08C173.032 19.14 172.949 19.17 172.842 19.17ZM175.112 18.2C175.099 18.6533 175.092 19.0233 175.092 19.31C175.092 19.69 175.109 20.0367 175.142 20.35C175.156 20.47 175.162 20.5533 175.162 20.6C175.162 20.7067 175.139 20.7967 175.092 20.87C175.046 20.95 174.979 20.99 174.892 20.99C174.772 20.99 174.706 20.9467 174.692 20.86C174.686 20.7467 174.676 20.57 174.662 20.33C174.656 20.0967 174.652 19.86 174.652 19.62L174.662 18.22C174.629 18.22 174.566 18.2233 174.472 18.23C174.386 18.2367 174.299 18.24 174.212 18.24C174.052 18.24 173.972 18.13 173.972 17.91C173.972 17.75 174.012 17.67 174.092 17.67C174.119 17.67 174.199 17.69 174.332 17.73C174.466 17.77 174.579 17.79 174.672 17.79L174.662 14.96C174.609 14.9533 174.499 14.9433 174.332 14.93C174.166 14.91 174.042 14.8767 173.962 14.83C173.889 14.7833 173.852 14.7167 173.852 14.63C173.852 14.4567 173.886 14.37 173.952 14.37C174.026 14.37 174.116 14.3967 174.222 14.45C174.236 14.4567 174.276 14.4767 174.342 14.51C174.409 14.5367 174.502 14.5567 174.622 14.57C174.662 14.4633 174.699 14.39 174.732 14.35C174.772 14.31 174.846 14.29 174.952 14.29C175.086 14.29 175.152 14.3167 175.152 14.37C175.152 14.39 175.142 14.4267 175.122 14.48C175.102 14.5267 175.092 14.5733 175.092 14.62C175.506 14.68 175.972 14.8033 176.492 14.99C177.019 15.17 177.472 15.4 177.852 15.68C178.239 15.96 178.432 16.2667 178.432 16.6C178.432 17.0733 178.126 17.44 177.512 17.7C176.899 17.96 176.099 18.1267 175.112 18.2ZM175.072 15C175.086 15.3867 175.096 15.9 175.102 16.54C175.109 17.1733 175.112 17.5933 175.112 17.8C175.512 17.8 175.939 17.75 176.392 17.65C176.846 17.5433 177.226 17.4033 177.532 17.23C177.846 17.05 178.002 16.8533 178.002 16.64C178.002 16.36 177.842 16.1067 177.522 15.88C177.202 15.6533 176.816 15.4667 176.362 15.32C175.916 15.1733 175.486 15.0667 175.072 15ZM183.067 16.6C183.067 16.72 182.977 16.9833 182.797 17.39C182.624 17.7967 182.357 18.1733 181.997 18.52C181.644 18.8667 181.207 19.04 180.687 19.04C180.26 19.04 179.904 18.9067 179.617 18.64C179.33 18.3733 179.187 17.9633 179.187 17.41C179.187 16.89 179.307 16.3767 179.547 15.87C179.787 15.3567 180.1 14.94 180.487 14.62C180.874 14.2933 181.274 14.13 181.687 14.13C181.934 14.13 182.14 14.1867 182.307 14.3C182.48 14.4067 182.567 14.5633 182.567 14.77C182.567 15.0033 182.434 15.23 182.167 15.45C181.907 15.67 181.567 15.8633 181.147 16.03C180.727 16.1967 180.294 16.3167 179.847 16.39C179.767 16.6967 179.727 16.9967 179.727 17.29C179.727 17.6767 179.817 17.9767 179.997 18.19C180.184 18.4033 180.447 18.51 180.787 18.51C181.3 18.51 181.717 18.3267 182.037 17.96C182.357 17.5933 182.624 17.18 182.837 16.72C182.85 16.6933 182.874 16.6433 182.907 16.57C182.94 16.49 182.97 16.45 182.997 16.45C183.044 16.45 183.067 16.5 183.067 16.6ZM181.567 14.54C181.314 14.54 181.07 14.6233 180.837 14.79C180.604 14.9567 180.407 15.1567 180.247 15.39C180.094 15.6233 179.994 15.83 179.947 16.01C180.254 15.9767 180.577 15.89 180.917 15.75C181.257 15.61 181.54 15.4567 181.767 15.29C182 15.1233 182.117 14.9867 182.117 14.88C182.117 14.7733 182.06 14.69 181.947 14.63C181.84 14.57 181.714 14.54 181.567 14.54ZM186.946 15.11C186.899 15.11 186.852 15.09 186.806 15.05C186.766 15.01 186.719 14.9533 186.666 14.88C186.619 14.8133 186.556 14.7567 186.476 14.71C186.402 14.6633 186.326 14.64 186.246 14.64C186.052 14.64 185.792 14.8967 185.466 15.41C185.139 15.9167 184.819 16.5567 184.506 17.33C184.512 17.4833 184.522 17.6767 184.536 17.91C184.556 18.1433 184.569 18.3167 184.576 18.43L184.606 18.83C184.606 18.9233 184.586 19.0033 184.546 19.07C184.506 19.1433 184.432 19.18 184.326 19.18C184.212 19.18 184.139 19.03 184.106 18.73C184.072 18.4233 184.052 17.98 184.046 17.4C184.039 17.2533 184.032 17.0433 184.026 16.77C184.026 16.4967 184.019 16.17 184.006 15.79C183.986 15.2167 183.976 14.8067 183.976 14.56C183.976 14.4067 184.069 14.33 184.256 14.33C184.369 14.33 184.436 14.38 184.456 14.48C184.482 14.5733 184.496 14.7567 184.496 15.03V16.62C184.696 16.1067 184.912 15.6633 185.146 15.29C185.379 14.9167 185.606 14.6333 185.826 14.44C186.052 14.24 186.252 14.14 186.426 14.14C186.572 14.14 186.712 14.1733 186.846 14.24C186.979 14.3067 187.086 14.3933 187.166 14.5C187.246 14.6 187.286 14.6967 187.286 14.79C187.286 14.85 187.242 14.92 187.156 15C187.076 15.0733 187.006 15.11 186.946 15.11ZM188.326 12.89C188.213 12.89 188.096 12.8433 187.976 12.75C187.863 12.6567 187.806 12.58 187.806 12.52C187.806 12.4467 187.84 12.3767 187.906 12.31C187.98 12.2433 188.053 12.21 188.126 12.21C188.226 12.2433 188.31 12.2967 188.376 12.37C188.43 12.4233 188.49 12.4933 188.556 12.58C188.623 12.6667 188.656 12.72 188.656 12.74C188.656 12.84 188.546 12.89 188.326 12.89ZM188.626 19.23C188.533 19.2233 188.463 19.0733 188.416 18.78C188.376 18.4867 188.333 17.93 188.286 17.11C188.26 16.57 188.236 16.0433 188.216 15.53C188.196 15.01 188.183 14.61 188.176 14.33C188.176 14.2567 188.186 14.2033 188.206 14.17C188.233 14.13 188.28 14.11 188.346 14.11C188.5 14.11 188.596 14.1733 188.636 14.3C188.676 14.4267 188.696 14.67 188.696 15.03L188.686 16.21C188.686 16.8833 188.706 17.4233 188.746 17.83C188.746 17.85 188.776 18.0633 188.836 18.47C188.883 18.75 188.906 18.9367 188.906 19.03C188.906 19.0967 188.876 19.1467 188.816 19.18C188.763 19.22 188.7 19.2367 188.626 19.23ZM191.324 19.07C190.877 19.07 190.547 18.9467 190.334 18.7C190.121 18.4533 190.014 18.1467 190.014 17.78C190.014 17.46 190.071 17.0633 190.184 16.59C190.304 16.1167 190.471 15.6933 190.684 15.32C190.697 15.2933 190.751 15.1967 190.844 15.03C190.944 14.8567 191.054 14.7267 191.174 14.64C191.294 14.5467 191.421 14.5 191.554 14.5C191.614 14.5 191.667 14.5167 191.714 14.55C191.767 14.5767 191.794 14.6133 191.794 14.66C191.794 14.6733 191.774 14.7067 191.734 14.76C191.701 14.8067 191.674 14.8433 191.654 14.87C191.427 15.1433 191.244 15.4133 191.104 15.68C190.917 16.02 190.771 16.3567 190.664 16.69C190.564 17.0233 190.514 17.3867 190.514 17.78C190.514 18.3067 190.834 18.57 191.474 18.57C191.774 18.57 192.051 18.4833 192.304 18.31C192.564 18.1367 192.771 17.9267 192.924 17.68C193.077 17.4267 193.154 17.1967 193.154 16.99C193.154 16.7567 193.077 16.5533 192.924 16.38C192.771 16.2067 192.561 16.0233 192.294 15.83C192.121 15.7033 191.994 15.6 191.914 15.52C191.834 15.44 191.794 15.3733 191.794 15.32C191.794 15.24 191.851 15.1767 191.964 15.13C192.077 15.0767 192.211 15.05 192.364 15.05C192.451 15.05 192.507 15.0567 192.534 15.07C192.561 15.0767 192.574 15.0933 192.574 15.12C192.574 15.1333 192.561 15.1567 192.534 15.19C192.514 15.2167 192.504 15.24 192.504 15.26C192.504 15.28 192.571 15.3467 192.704 15.46C192.971 15.68 193.194 15.9033 193.374 16.13C193.554 16.3567 193.644 16.6233 193.644 16.93C193.644 17.19 193.547 17.49 193.354 17.83C193.161 18.17 192.887 18.4633 192.534 18.71C192.181 18.95 191.777 19.07 191.324 19.07ZM197.541 15.11C197.495 15.11 197.448 15.09 197.401 15.05C197.361 15.01 197.315 14.9533 197.261 14.88C197.215 14.8133 197.151 14.7567 197.071 14.71C196.998 14.6633 196.921 14.64 196.841 14.64C196.648 14.64 196.388 14.8967 196.061 15.41C195.735 15.9167 195.415 16.5567 195.101 17.33C195.108 17.4833 195.118 17.6767 195.131 17.91C195.151 18.1433 195.165 18.3167 195.171 18.43L195.201 18.83C195.201 18.9233 195.181 19.0033 195.141 19.07C195.101 19.1433 195.028 19.18 194.921 19.18C194.808 19.18 194.735 19.03 194.701 18.73C194.668 18.4233 194.648 17.98 194.641 17.4C194.635 17.2533 194.628 17.0433 194.621 16.77C194.621 16.4967 194.615 16.17 194.601 15.79C194.581 15.2167 194.571 14.8067 194.571 14.56C194.571 14.4067 194.665 14.33 194.851 14.33C194.965 14.33 195.031 14.38 195.051 14.48C195.078 14.5733 195.091 14.7567 195.091 15.03V16.62C195.291 16.1067 195.508 15.6633 195.741 15.29C195.975 14.9167 196.201 14.6333 196.421 14.44C196.648 14.24 196.848 14.14 197.021 14.14C197.168 14.14 197.308 14.1733 197.441 14.24C197.575 14.3067 197.681 14.3933 197.761 14.5C197.841 14.6 197.881 14.6967 197.881 14.79C197.881 14.85 197.838 14.92 197.751 15C197.671 15.0733 197.601 15.11 197.541 15.11ZM205.043 12.16C205.043 12.2933 205.036 12.5567 205.023 12.95C205.01 13.3367 205.003 13.7267 205.003 14.12C205.003 14.88 205.02 15.6567 205.053 16.45C205.086 17.2367 205.113 17.7533 205.133 18C205.133 18.04 205.136 18.0833 205.143 18.13C205.15 18.1767 205.156 18.22 205.163 18.26C205.19 18.4467 205.203 18.56 205.203 18.6C205.203 18.6667 205.153 18.73 205.053 18.79C204.96 18.85 204.886 18.88 204.833 18.88C204.76 18.88 204.71 18.8533 204.683 18.8C204.663 18.74 204.653 18.66 204.653 18.56C204.653 18.1933 204.663 17.81 204.683 17.41L204.693 16.85C204.693 16.6633 204.69 16.42 204.683 16.12C204.676 15.8133 204.666 15.5567 204.653 15.35C204.313 16.4433 203.926 17.35 203.493 18.07C203.066 18.7833 202.603 19.14 202.103 19.14C201.876 19.14 201.683 19.0333 201.523 18.82C201.37 18.6067 201.293 18.3 201.293 17.9C201.293 17.3733 201.47 16.8 201.823 16.18C202.183 15.56 202.59 15.0267 203.043 14.58C203.503 14.1333 203.843 13.91 204.063 13.91C204.276 13.91 204.383 13.98 204.383 14.12C204.383 14.2133 204.35 14.3233 204.283 14.45C204.223 14.57 204.153 14.68 204.073 14.78C204 14.88 203.956 14.93 203.943 14.93C203.93 14.93 203.913 14.9267 203.893 14.92C203.88 14.9067 203.873 14.8933 203.873 14.88C203.873 14.8467 203.89 14.79 203.923 14.71C203.956 14.63 203.973 14.5767 203.973 14.55C203.973 14.5167 203.97 14.4933 203.963 14.48C203.956 14.4667 203.936 14.46 203.903 14.46C203.763 14.46 203.51 14.6533 203.143 15.04C202.783 15.42 202.46 15.8733 202.173 16.4C201.886 16.9267 201.743 17.4167 201.743 17.87C201.743 18.03 201.776 18.18 201.843 18.32C201.91 18.46 202.02 18.53 202.173 18.53C202.66 18.53 203.11 18.12 203.523 17.3C203.943 16.4733 204.306 15.5367 204.613 14.49L204.593 13.65C204.573 12.91 204.563 12.5167 204.563 12.47C204.563 12.07 204.58 11.7833 204.613 11.61C204.626 11.5433 204.64 11.4967 204.653 11.47C204.673 11.4433 204.71 11.43 204.763 11.43C204.83 11.43 204.896 11.4533 204.963 11.5C205.03 11.54 205.063 11.5967 205.063 11.67L205.043 12.16ZM210.499 18.63C210.499 18.71 210.466 18.8033 210.399 18.91C210.333 19.01 210.266 19.06 210.199 19.06C210.086 19.06 209.999 18.99 209.939 18.85C209.879 18.71 209.849 18.5467 209.849 18.36C209.849 18.2 209.859 17.72 209.879 16.92L209.889 16.54C209.889 16.3867 209.849 16.2767 209.769 16.21C209.469 16.7167 209.189 17.1567 208.929 17.53C208.669 17.9033 208.339 18.2567 207.939 18.59C207.539 18.9167 207.119 19.08 206.679 19.08C206.466 19.08 206.299 19.0133 206.179 18.88C206.066 18.7467 206.009 18.5733 206.009 18.36C206.009 18.0933 206.129 17.73 206.369 17.27C206.609 16.8033 206.916 16.3333 207.289 15.86C207.663 15.38 208.036 14.9867 208.409 14.68C208.656 14.48 208.853 14.3467 208.999 14.28C209.146 14.2067 209.276 14.17 209.389 14.17C209.496 14.17 209.606 14.2033 209.719 14.27C209.833 14.3367 209.929 14.43 210.009 14.55C210.089 14.67 210.129 14.8067 210.129 14.96C210.129 15.1667 210.073 15.3633 209.959 15.55L210.129 15.5C210.203 15.5 210.246 15.59 210.259 15.77C210.266 15.8767 210.273 16.0933 210.279 16.42C210.293 16.7467 210.303 17.0167 210.309 17.23C210.316 17.45 210.323 17.6633 210.329 17.87C210.336 18.0767 210.343 18.24 210.349 18.36C210.356 18.4067 210.383 18.4567 210.429 18.51C210.476 18.5567 210.499 18.5967 210.499 18.63ZM209.629 15.82C209.709 15.62 209.749 15.4033 209.749 15.17C209.749 15.03 209.706 14.91 209.619 14.81C209.539 14.7033 209.429 14.65 209.289 14.65C209.123 14.65 208.909 14.7633 208.649 14.99C208.349 15.2433 208.033 15.5833 207.699 16.01C207.366 16.43 207.089 16.8467 206.869 17.26C206.649 17.6733 206.539 18 206.539 18.24C206.539 18.44 206.633 18.54 206.819 18.54C207.179 18.54 207.526 18.4067 207.859 18.14C208.193 17.8733 208.489 17.5567 208.749 17.19C209.016 16.8167 209.309 16.36 209.629 15.82ZM216.783 17.73C216.437 18.15 216.123 18.4733 215.843 18.7C215.57 18.9267 215.283 19.04 214.983 19.04C214.73 19.04 214.52 18.93 214.353 18.71C214.193 18.49 214.113 18.2367 214.113 17.95C214.113 17.5233 214.227 16.9833 214.453 16.33C214.68 15.6767 214.967 15.11 215.313 14.63C215.66 14.15 216.007 13.91 216.353 13.91C216.5 13.91 216.627 13.9633 216.733 14.07C216.793 14.13 216.85 14.21 216.903 14.31C216.957 14.41 216.983 14.5 216.983 14.58C216.983 14.6933 216.967 14.8267 216.933 14.98C216.907 15.1267 216.877 15.2 216.843 15.2C216.777 15.2 216.733 15.1633 216.713 15.09C216.693 15.0167 216.68 14.9233 216.673 14.81C216.653 14.6367 216.633 14.5233 216.613 14.47C216.593 14.41 216.563 14.38 216.523 14.38C216.21 14.38 215.907 14.6 215.613 15.04C215.32 15.4733 215.08 15.98 214.893 16.56C214.707 17.1333 214.613 17.5767 214.613 17.89C214.613 18.33 214.76 18.55 215.053 18.55C215.267 18.55 215.46 18.4967 215.633 18.39C215.813 18.2833 216 18.1333 216.193 17.94C216.553 17.5733 216.833 17.2567 217.033 16.99C217.047 16.97 217.083 16.92 217.143 16.84C217.21 16.7533 217.257 16.71 217.283 16.71C217.363 16.71 217.403 16.74 217.403 16.8C217.403 16.84 217.333 16.9633 217.193 17.17C217.06 17.3767 216.923 17.5633 216.783 17.73ZM218.634 18.95C218.554 18.95 218.478 18.8567 218.404 18.67C218.338 18.4767 218.304 18.1867 218.304 17.8C218.311 17.0467 218.321 16.1367 218.334 15.07C218.354 14.0033 218.371 13.2 218.384 12.66C218.391 12.4667 218.424 12.2867 218.484 12.12C218.551 11.9533 218.664 11.87 218.824 11.87C218.878 11.87 218.911 11.9 218.924 11.96C218.944 12.0133 218.954 12.12 218.954 12.28C218.954 12.2867 218.951 12.31 218.944 12.35C218.944 12.3833 218.944 12.4467 218.944 12.54C218.824 14.2933 218.764 16.0033 218.764 17.67C218.764 17.8833 218.811 18.11 218.904 18.35C219.004 18.59 219.054 18.7167 219.054 18.73C219.054 18.7967 219.011 18.85 218.924 18.89C218.838 18.93 218.741 18.95 218.634 18.95ZM224.376 18.63C224.376 18.71 224.343 18.8033 224.276 18.91C224.21 19.01 224.143 19.06 224.076 19.06C223.963 19.06 223.876 18.99 223.816 18.85C223.756 18.71 223.726 18.5467 223.726 18.36C223.726 18.2 223.736 17.72 223.756 16.92L223.766 16.54C223.766 16.3867 223.726 16.2767 223.646 16.21C223.346 16.7167 223.066 17.1567 222.806 17.53C222.546 17.9033 222.216 18.2567 221.816 18.59C221.416 18.9167 220.996 19.08 220.556 19.08C220.343 19.08 220.176 19.0133 220.056 18.88C219.943 18.7467 219.886 18.5733 219.886 18.36C219.886 18.0933 220.006 17.73 220.246 17.27C220.486 16.8033 220.793 16.3333 221.166 15.86C221.54 15.38 221.913 14.9867 222.286 14.68C222.533 14.48 222.73 14.3467 222.876 14.28C223.023 14.2067 223.153 14.17 223.266 14.17C223.373 14.17 223.483 14.2033 223.596 14.27C223.71 14.3367 223.806 14.43 223.886 14.55C223.966 14.67 224.006 14.8067 224.006 14.96C224.006 15.1667 223.95 15.3633 223.836 15.55L224.006 15.5C224.08 15.5 224.123 15.59 224.136 15.77C224.143 15.8767 224.15 16.0933 224.156 16.42C224.17 16.7467 224.18 17.0167 224.186 17.23C224.193 17.45 224.2 17.6633 224.206 17.87C224.213 18.0767 224.22 18.24 224.226 18.36C224.233 18.4067 224.26 18.4567 224.306 18.51C224.353 18.5567 224.376 18.5967 224.376 18.63ZM223.506 15.82C223.586 15.62 223.626 15.4033 223.626 15.17C223.626 15.03 223.583 14.91 223.496 14.81C223.416 14.7033 223.306 14.65 223.166 14.65C223 14.65 222.786 14.7633 222.526 14.99C222.226 15.2433 221.91 15.5833 221.576 16.01C221.243 16.43 220.966 16.8467 220.746 17.26C220.526 17.6733 220.416 18 220.416 18.24C220.416 18.44 220.51 18.54 220.696 18.54C221.056 18.54 221.403 18.4067 221.736 18.14C222.07 17.8733 222.366 17.5567 222.626 17.19C222.893 16.8167 223.186 16.36 223.506 15.82ZM226.479 19.34C226.192 19.34 225.999 19.3133 225.899 19.26C225.799 19.2067 225.749 19.1333 225.749 19.04C225.749 18.98 225.826 18.8767 225.979 18.73C226.132 18.5767 226.236 18.5 226.289 18.5C226.369 18.5 226.409 18.5167 226.409 18.55C226.409 18.5767 226.392 18.6033 226.359 18.63C226.326 18.6567 226.309 18.68 226.309 18.7C226.309 18.7267 226.349 18.7533 226.429 18.78C226.516 18.8067 226.619 18.82 226.739 18.82C227.019 18.82 227.299 18.77 227.579 18.67C227.866 18.5633 228.099 18.4267 228.279 18.26C228.459 18.0933 228.549 17.9167 228.549 17.73C228.549 17.55 228.492 17.4067 228.379 17.3C228.266 17.1933 228.122 17.1167 227.949 17.07C227.782 17.0167 227.499 16.9433 227.099 16.85C226.659 16.75 226.316 16.6633 226.069 16.59C225.829 16.51 225.636 16.4133 225.489 16.3C225.342 16.18 225.269 16.03 225.269 15.85C225.269 15.53 225.426 15.2367 225.739 14.97C226.052 14.7033 226.412 14.4933 226.819 14.34C227.226 14.1867 227.539 14.11 227.759 14.11C227.986 14.11 228.099 14.1767 228.099 14.31C228.099 14.39 228.072 14.48 228.019 14.58C227.966 14.6733 227.886 14.72 227.779 14.72C227.739 14.72 227.696 14.7067 227.649 14.68C227.602 14.6467 227.556 14.63 227.509 14.63C227.376 14.63 227.166 14.6733 226.879 14.76C226.592 14.8467 226.332 14.9767 226.099 15.15C225.866 15.3233 225.749 15.5333 225.749 15.78C225.749 15.94 225.839 16.06 226.019 16.14C226.206 16.2133 226.549 16.3067 227.049 16.42C227.109 16.44 227.169 16.4567 227.229 16.47C227.289 16.4767 227.342 16.4867 227.389 16.5C227.902 16.62 228.296 16.7567 228.569 16.91C228.842 17.0633 228.979 17.2933 228.979 17.6C228.979 17.8933 228.859 18.1767 228.619 18.45C228.386 18.7167 228.076 18.93 227.689 19.09C227.302 19.2567 226.899 19.34 226.479 19.34ZM230.932 19.34C230.646 19.34 230.452 19.3133 230.352 19.26C230.252 19.2067 230.202 19.1333 230.202 19.04C230.202 18.98 230.279 18.8767 230.432 18.73C230.586 18.5767 230.689 18.5 230.742 18.5C230.822 18.5 230.862 18.5167 230.862 18.55C230.862 18.5767 230.846 18.6033 230.812 18.63C230.779 18.6567 230.762 18.68 230.762 18.7C230.762 18.7267 230.802 18.7533 230.882 18.78C230.969 18.8067 231.072 18.82 231.192 18.82C231.472 18.82 231.752 18.77 232.032 18.67C232.319 18.5633 232.552 18.4267 232.732 18.26C232.912 18.0933 233.002 17.9167 233.002 17.73C233.002 17.55 232.946 17.4067 232.832 17.3C232.719 17.1933 232.576 17.1167 232.402 17.07C232.236 17.0167 231.952 16.9433 231.552 16.85C231.112 16.75 230.769 16.6633 230.522 16.59C230.282 16.51 230.089 16.4133 229.942 16.3C229.796 16.18 229.722 16.03 229.722 15.85C229.722 15.53 229.879 15.2367 230.192 14.97C230.506 14.7033 230.866 14.4933 231.272 14.34C231.679 14.1867 231.992 14.11 232.212 14.11C232.439 14.11 232.552 14.1767 232.552 14.31C232.552 14.39 232.526 14.48 232.472 14.58C232.419 14.6733 232.339 14.72 232.232 14.72C232.192 14.72 232.149 14.7067 232.102 14.68C232.056 14.6467 232.009 14.63 231.962 14.63C231.829 14.63 231.619 14.6733 231.332 14.76C231.046 14.8467 230.786 14.9767 230.552 15.15C230.319 15.3233 230.202 15.5333 230.202 15.78C230.202 15.94 230.292 16.06 230.472 16.14C230.659 16.2133 231.002 16.3067 231.502 16.42C231.562 16.44 231.622 16.4567 231.682 16.47C231.742 16.4767 231.796 16.4867 231.842 16.5C232.356 16.62 232.749 16.7567 233.022 16.91C233.296 17.0633 233.432 17.2933 233.432 17.6C233.432 17.8933 233.312 18.1767 233.072 18.45C232.839 18.7167 232.529 18.93 232.142 19.09C231.756 19.2567 231.352 19.34 230.932 19.34ZM238.135 16.6C238.135 16.72 238.045 16.9833 237.865 17.39C237.692 17.7967 237.425 18.1733 237.065 18.52C236.712 18.8667 236.275 19.04 235.755 19.04C235.329 19.04 234.972 18.9067 234.685 18.64C234.399 18.3733 234.255 17.9633 234.255 17.41C234.255 16.89 234.375 16.3767 234.615 15.87C234.855 15.3567 235.169 14.94 235.555 14.62C235.942 14.2933 236.342 14.13 236.755 14.13C237.002 14.13 237.209 14.1867 237.375 14.3C237.549 14.4067 237.635 14.5633 237.635 14.77C237.635 15.0033 237.502 15.23 237.235 15.45C236.975 15.67 236.635 15.8633 236.215 16.03C235.795 16.1967 235.362 16.3167 234.915 16.39C234.835 16.6967 234.795 16.9967 234.795 17.29C234.795 17.6767 234.885 17.9767 235.065 18.19C235.252 18.4033 235.515 18.51 235.855 18.51C236.369 18.51 236.785 18.3267 237.105 17.96C237.425 17.5933 237.692 17.18 237.905 16.72C237.919 16.6933 237.942 16.6433 237.975 16.57C238.009 16.49 238.039 16.45 238.065 16.45C238.112 16.45 238.135 16.5 238.135 16.6ZM236.635 14.54C236.382 14.54 236.139 14.6233 235.905 14.79C235.672 14.9567 235.475 15.1567 235.315 15.39C235.162 15.6233 235.062 15.83 235.015 16.01C235.322 15.9767 235.645 15.89 235.985 15.75C236.325 15.61 236.609 15.4567 236.835 15.29C237.069 15.1233 237.185 14.9867 237.185 14.88C237.185 14.7733 237.129 14.69 237.015 14.63C236.909 14.57 236.782 14.54 236.635 14.54ZM247.815 19.19C247.695 19.19 247.635 19.13 247.635 19.01C247.635 17.6633 247.592 16.6333 247.505 15.92C247.418 15.2 247.268 14.84 247.055 14.84C246.695 14.84 246.168 16.0967 245.475 18.61V18.62C245.475 18.7 245.448 18.77 245.395 18.83C245.342 18.8833 245.272 18.91 245.185 18.91C245.065 18.91 245.005 18.85 245.005 18.73C245.005 18.4633 245.018 18.05 245.045 17.49C245.072 16.8633 245.085 16.37 245.085 16.01C245.085 15.51 245.068 15.1567 245.035 14.95C245.008 14.7367 244.945 14.63 244.845 14.63C244.618 14.63 244.332 15.0467 243.985 15.88C243.638 16.7067 243.275 17.6833 242.895 18.81L242.805 19.07C242.778 19.1367 242.738 19.1933 242.685 19.24C242.638 19.2867 242.585 19.31 242.525 19.31C242.445 19.31 242.392 19.3033 242.365 19.29C242.338 19.2767 242.322 19.2367 242.315 19.17C242.282 18.8433 242.255 18.4067 242.235 17.86C242.222 17.72 242.208 17.49 242.195 17.17C242.128 16.0433 242.068 15.2833 242.015 14.89C241.962 14.49 241.935 14.2667 241.935 14.22C241.935 14.1667 241.962 14.1033 242.015 14.03C242.068 13.9567 242.118 13.92 242.165 13.92C242.272 13.92 242.358 13.9967 242.425 14.15C242.458 14.2233 242.495 14.5167 242.535 15.03C242.575 15.5433 242.608 16.18 242.635 16.94L242.685 18.47C243.052 17.3367 243.432 16.31 243.825 15.39C244.218 14.4633 244.578 14 244.905 14C245.125 14 245.275 14.16 245.355 14.48C245.435 14.8 245.475 15.2633 245.475 15.87C245.475 16.19 245.468 16.65 245.455 17.25L245.445 17.71C245.718 16.7567 245.988 15.9567 246.255 15.31C246.528 14.6633 246.802 14.34 247.075 14.34C247.762 14.34 248.105 15.86 248.105 18.9C248.105 18.98 248.078 19.0467 248.025 19.1C247.972 19.16 247.902 19.19 247.815 19.19ZM250.435 19.07C249.989 19.07 249.659 18.9467 249.445 18.7C249.232 18.4533 249.125 18.1467 249.125 17.78C249.125 17.46 249.182 17.0633 249.295 16.59C249.415 16.1167 249.582 15.6933 249.795 15.32C249.809 15.2933 249.862 15.1967 249.955 15.03C250.055 14.8567 250.165 14.7267 250.285 14.64C250.405 14.5467 250.532 14.5 250.665 14.5C250.725 14.5 250.779 14.5167 250.825 14.55C250.879 14.5767 250.905 14.6133 250.905 14.66C250.905 14.6733 250.885 14.7067 250.845 14.76C250.812 14.8067 250.785 14.8433 250.765 14.87C250.539 15.1433 250.355 15.4133 250.215 15.68C250.029 16.02 249.882 16.3567 249.775 16.69C249.675 17.0233 249.625 17.3867 249.625 17.78C249.625 18.3067 249.945 18.57 250.585 18.57C250.885 18.57 251.162 18.4833 251.415 18.31C251.675 18.1367 251.882 17.9267 252.035 17.68C252.189 17.4267 252.265 17.1967 252.265 16.99C252.265 16.7567 252.189 16.5533 252.035 16.38C251.882 16.2067 251.672 16.0233 251.405 15.83C251.232 15.7033 251.105 15.6 251.025 15.52C250.945 15.44 250.905 15.3733 250.905 15.32C250.905 15.24 250.962 15.1767 251.075 15.13C251.189 15.0767 251.322 15.05 251.475 15.05C251.562 15.05 251.619 15.0567 251.645 15.07C251.672 15.0767 251.685 15.0933 251.685 15.12C251.685 15.1333 251.672 15.1567 251.645 15.19C251.625 15.2167 251.615 15.24 251.615 15.26C251.615 15.28 251.682 15.3467 251.815 15.46C252.082 15.68 252.305 15.9033 252.485 16.13C252.665 16.3567 252.755 16.6233 252.755 16.93C252.755 17.19 252.659 17.49 252.465 17.83C252.272 18.17 251.999 18.4633 251.645 18.71C251.292 18.95 250.889 19.07 250.435 19.07ZM257.143 12.16C257.143 12.2933 257.136 12.5567 257.123 12.95C257.109 13.3367 257.103 13.7267 257.103 14.12C257.103 14.88 257.119 15.6567 257.153 16.45C257.186 17.2367 257.213 17.7533 257.233 18C257.233 18.04 257.236 18.0833 257.243 18.13C257.249 18.1767 257.256 18.22 257.263 18.26C257.289 18.4467 257.303 18.56 257.303 18.6C257.303 18.6667 257.253 18.73 257.153 18.79C257.059 18.85 256.986 18.88 256.933 18.88C256.859 18.88 256.809 18.8533 256.783 18.8C256.763 18.74 256.753 18.66 256.753 18.56C256.753 18.1933 256.763 17.81 256.783 17.41L256.793 16.85C256.793 16.6633 256.789 16.42 256.783 16.12C256.776 15.8133 256.766 15.5567 256.753 15.35C256.413 16.4433 256.026 17.35 255.593 18.07C255.166 18.7833 254.703 19.14 254.203 19.14C253.976 19.14 253.783 19.0333 253.623 18.82C253.469 18.6067 253.393 18.3 253.393 17.9C253.393 17.3733 253.569 16.8 253.923 16.18C254.283 15.56 254.689 15.0267 255.143 14.58C255.603 14.1333 255.943 13.91 256.163 13.91C256.376 13.91 256.483 13.98 256.483 14.12C256.483 14.2133 256.449 14.3233 256.383 14.45C256.323 14.57 256.253 14.68 256.173 14.78C256.099 14.88 256.056 14.93 256.043 14.93C256.029 14.93 256.013 14.9267 255.993 14.92C255.979 14.9067 255.973 14.8933 255.973 14.88C255.973 14.8467 255.989 14.79 256.023 14.71C256.056 14.63 256.073 14.5767 256.073 14.55C256.073 14.5167 256.069 14.4933 256.063 14.48C256.056 14.4667 256.036 14.46 256.003 14.46C255.863 14.46 255.609 14.6533 255.243 15.04C254.883 15.42 254.559 15.8733 254.273 16.4C253.986 16.9267 253.843 17.4167 253.843 17.87C253.843 18.03 253.876 18.18 253.943 18.32C254.009 18.46 254.119 18.53 254.273 18.53C254.759 18.53 255.209 18.12 255.623 17.3C256.043 16.4733 256.406 15.5367 256.713 14.49L256.693 13.65C256.673 12.91 256.663 12.5167 256.663 12.47C256.663 12.07 256.679 11.7833 256.713 11.61C256.726 11.5433 256.739 11.4967 256.753 11.47C256.773 11.4433 256.809 11.43 256.863 11.43C256.929 11.43 256.996 11.4533 257.063 11.5C257.129 11.54 257.163 11.5967 257.163 11.67L257.143 12.16ZM262.599 18.63C262.599 18.71 262.565 18.8033 262.499 18.91C262.432 19.01 262.365 19.06 262.299 19.06C262.185 19.06 262.099 18.99 262.039 18.85C261.979 18.71 261.949 18.5467 261.949 18.36C261.949 18.2 261.959 17.72 261.979 16.92L261.989 16.54C261.989 16.3867 261.949 16.2767 261.869 16.21C261.569 16.7167 261.289 17.1567 261.029 17.53C260.769 17.9033 260.439 18.2567 260.039 18.59C259.639 18.9167 259.219 19.08 258.779 19.08C258.565 19.08 258.399 19.0133 258.279 18.88C258.165 18.7467 258.109 18.5733 258.109 18.36C258.109 18.0933 258.229 17.73 258.469 17.27C258.709 16.8033 259.015 16.3333 259.389 15.86C259.762 15.38 260.135 14.9867 260.509 14.68C260.755 14.48 260.952 14.3467 261.099 14.28C261.245 14.2067 261.375 14.17 261.489 14.17C261.595 14.17 261.705 14.2033 261.819 14.27C261.932 14.3367 262.029 14.43 262.109 14.55C262.189 14.67 262.229 14.8067 262.229 14.96C262.229 15.1667 262.172 15.3633 262.059 15.55L262.229 15.5C262.302 15.5 262.345 15.59 262.359 15.77C262.365 15.8767 262.372 16.0933 262.379 16.42C262.392 16.7467 262.402 17.0167 262.409 17.23C262.415 17.45 262.422 17.6633 262.429 17.87C262.435 18.0767 262.442 18.24 262.449 18.36C262.455 18.4067 262.482 18.4567 262.529 18.51C262.575 18.5567 262.599 18.5967 262.599 18.63ZM261.729 15.82C261.809 15.62 261.849 15.4033 261.849 15.17C261.849 15.03 261.805 14.91 261.719 14.81C261.639 14.7033 261.529 14.65 261.389 14.65C261.222 14.65 261.009 14.7633 260.749 14.99C260.449 15.2433 260.132 15.5833 259.799 16.01C259.465 16.43 259.189 16.8467 258.969 17.26C258.749 17.6733 258.639 18 258.639 18.24C258.639 18.44 258.732 18.54 258.919 18.54C259.279 18.54 259.625 18.4067 259.959 18.14C260.292 17.8733 260.589 17.5567 260.849 17.19C261.115 16.8167 261.409 16.36 261.729 15.82ZM264.152 18.95C264.072 18.95 263.995 18.8567 263.922 18.67C263.855 18.4767 263.822 18.1867 263.822 17.8C263.828 17.0467 263.838 16.1367 263.852 15.07C263.872 14.0033 263.888 13.2 263.902 12.66C263.908 12.4667 263.942 12.2867 264.002 12.12C264.068 11.9533 264.182 11.87 264.342 11.87C264.395 11.87 264.428 11.9 264.442 11.96C264.462 12.0133 264.472 12.12 264.472 12.28C264.472 12.2867 264.468 12.31 264.462 12.35C264.462 12.3833 264.462 12.4467 264.462 12.54C264.342 14.2933 264.282 16.0033 264.282 17.67C264.282 17.8833 264.328 18.11 264.422 18.35C264.522 18.59 264.572 18.7167 264.572 18.73C264.572 18.7967 264.528 18.85 264.442 18.89C264.355 18.93 264.258 18.95 264.152 18.95Z" fill="#505050"/>
</svg>
